/* XPM */
static char *result[] = {
/* columns rows colors chars-per-pixel */
"64 64 18 1 ",
"  c #121724",
". c #663920",
"X c #25562E",
"o c #394A50",
"O c #577277",
"+ c #884B2B",
"@ c #BE772B",
"# c #CF573C",
"$ c #468232",
"% c yellow",
"& c #C1C12B",
"* c #DE9E41",
"= c #E8C170",
"- c #819796",
"; c #F4A481",
": c #FFC190",
"> c #F6F0F0",
", c None",
/* pixels */
",,,,,,,,,,,,,,,,,,,,,,,,,,,,,,,,,,,,,,,,,,,,,,,,,,,,,,,,,,,,,,,,",
",,,,,,,,,,,,,,,,,,,,,,,,,,,,,,,,,,,,,,,,,,,,,,,,,,,,,,,,,,,,,,,,",
",,,,,,,,,,,,,,,,,,,,,,,,,,,,,,,,,,,,,,,,,,,,,,,,,,,,,,,,,,,,,,,,",
",,,,,,,,,,,,,,,,,,,,,,,,,,,,,,,,,,,,,,,,,,,,,,,,,,,,,,,,,,,,,,,,",
",,,,,,,,,,,,,,,,,,,,,,,,,,,,,,,,,,,,,,,,,,,,,,,,,,,,,,,,,,,,,,,,",
",,,,,,,,,,,,,,,,,,,,,,,,,,,,,,,,,,,,,,,,,,,,,,,,,,,,,,,,,,,,,,,,",
",,,,,,,,,,,,,,,,,,,,,,,,,,            ,,,,,,,,,,,,,,,,,,,,,,,,,,",
",,,,,,,,,,,,,,,,,,,,,,,,,,            ,,,,,,,,,,,,,,,,,,,,,,,,,,",
",,,,,,,,,,,,,,,,,,,,,,      ======**      ,,,,,,,,,,,,,,,,,,,,,,",
",,,,,,,,,,,,,,,,,,,,,,      ======**      ,,,,,,,,,,,,,,,,,,,,,,",
",,,,,,,,,,,,,,,,,,    **@@            @@**    ,,,,,,,,,,,,,,,,,,",
",,,,,,,,,,,,,,,,,,    **@@            @@**    ,,,,,,,,,,,,,,,,,,",
",,,,,,,,,,,,,,,,  ****==@@  &&%%%%&&  @@****@@  ,,,,,,,,,,,,,,,,",
",,,,,,,,,,,,,,,,  ****==@@  &&%%%%&&  @@****@@  ,,,,,,,,,,,,,,,,",
",,,,,,,,,,,,,,  **====**  %%&&%%%%&&%%  @@****@@  ,,,,,,,,,,,,,,",
",,,,,,,,,,,,,,  **====**  %%&&%%%%&&%%  @@****@@  ,,,,,,,,,,,,,,",
",,,,,,,,,,,,  **==****@@  %%&&%%%%&&%%  @@****@@@@  ,,,,,,,,,,,,",
",,,,,,,,,,,,  **==****@@  %%&&%%%%&&%%  @@****@@@@  ,,,,,,,,,,,,",
",,,,,,,,,,,,  **==**@@@@  %%&&%%%%&&%%  @@@@**@@@@  ,,,,,,,,,,,,",
",,,,,,,,,,,,  **==**@@@@  %%&&%%%%&&%%  @@@@**@@@@  ,,,,,,,,,,,,",
",,,,,,,,,,  **==**@@@@      &&%%%%&&      @@@@@@@@@@  ,,,,,,,,,,",
",,,,,,,,,,  **==**@@@@      &&%%%%&&      @@@@@@@@@@  ,,,,,,,,,,",
",,,,,,,,,,  **==@@    ====**        @@****    @@@@@@  ,,,,,,,,,,",
",,,,,,,,,,  **==@@    ====**        @@****    @@@@@@  ,,,,,,,,,,",
",,,,,,,,,,  **    ==**@@@@@@@@@@@@@@@@@@@@****    @@  ,,,,,,,,,,",
",,,,,,,,,,  **    ==**@@@@@@@@@@@@@@@@@@@@****    @@  ,,,,,,,,,,",
",,,,,,,,,,    ==**@@@@                    @@@@****    ,,,,,,,,,,",
",,,,,,,,,,    ==**@@@@                    @@@@****    ,,,,,,,,,,",
",,,,,,,,,,  **@@@@    ::::::::::::::::::::    @@@@**  ,,,,,,,,,,",
",,,,,,,,,,  **@@@@    ::::::::::::::::::::    @@@@**  ,,,,,,,,,,",
",,,,,,,,  **@@    ::::::::::::::::::::::::::::    @@**  ,,,,,,,,",
",,,,,,,,  **@@    ::::::::::::::::::::::::::::    @@**  ,,,,,,,,",
",,,,,,  **@@  ++::      ::::::::::::::::      ;;..  @@@@  ,,,,,,",
",,,,,,  **@@  ++::      ::::::::::::::::      ;;..  @@@@  ,,,,,,",
",,,,,,    ::  ++::::::::::::::####::::::::::::;;..  ;;    ,,,,,,",
",,,,,,    ::  ++::::::::::::::####::::::::::::;;..  ;;    ,,,,,,",
",,,,,,,,  ::  ++::::>>>>::::::####::::::>>>>::;;..  ;;  ,,,,,,,,",
",,,,,,,,  ::  ++::::>>>>::::::####::::::>>>>::;;..  ;;  ,,,,,,,,",
",,,,,,,,  ::  ++::::>>>>::::::####::::::>>>>::;;..  ;;  ,,,,,,,,",
",,,,,,,,  ::  ++::::>>>>::::::####::::::>>>>::;;..  ;;  ,,,,,,,,",
",,,,,,,,,,    ++++::::::::++++####++++::::::::....    ,,,,,,,,,,",
",,,,,,,,,,    ++++::::::::++++####++++::::::::....    ,,,,,,,,,,",
",,,,,,,,,,,,,,  ++++++++++++        ++++++++....  ,,,,,,,,,,,,,,",
",,,,,,,,,,,,,,  ++++++++++++        ++++++++....  ,,,,,,,,,,,,,,",
",,,,,,,,,,,,,,,,  ++++++++++        ++++......  ,,,,,,,,,,,,,,,,",
",,,,,,,,,,,,,,,,  ++++++++++        ++++......  ,,,,,,,,,,,,,,,,",
",,,,,,,,,,,,,,,,,,        ++++++++++++        ,,,,,,,,,,,,,,,,,,",
",,,,,,,,,,,,,,,,,,        ++++++++++++        ,,,,,,,,,,,,,,,,,,",
",,,,,,,,,,,,,,,,,,,,  XX$$--$$$$$$$$OOXXXX  ,,,,,,,,,,,,,,,,,,,,",
",,,,,,,,,,,,,,,,,,,,  XX$$--$$$$$$$$OOXXXX  ,,,,,,,,,,,,,,,,,,,,",
",,,,,,,,,,,,,,,,,,  XX$$--**--$$$$--**--XXXX  ,,,,,,,,,,,,,,,,,,",
",,,,,,,,,,,,,,,,,,  XX$$--**--$$$$--**--XXXX  ,,,,,,,,,,,,,,,,,,",
",,,,,,,,,,,,,,,,  XX$$$$----------------XX$$XX  ,,,,,,,,,,,,,,,,",
",,,,,,,,,,,,,,,,  XX$$$$----------------XX$$XX  ,,,,,,,,,,,,,,,,",
",,,,,,,,,,,,,,  XX$$$$  ----oooooooo--OO  $$$$XX  ,,,,,,,,,,,,,,",
",,,,,,,,,,,,,,  XX$$$$  ----oooooooo--OO  $$$$XX  ,,,,,,,,,,,,,,",
",,,,,,,,,,,,  ::;;$$    --------------OO    $$::;;  ,,,,,,,,,,,,",
",,,,,,,,,,,,  ::;;$$    --------------OO    $$::;;  ,,,,,,,,,,,,",
",,,,,,,,,,,,  ::::  ,,  ------------OOOO  ,,  ::::  ,,,,,,,,,,,,",
",,,,,,,,,,,,  ::::  ,,  ------------OOOO  ,,  ::::  ,,,,,,,,,,,,",
",,,,,,,,,,,,,,    ,,,,  ----OO    OOOOOO  ,,,,    ,,,,,,,,,,,,,,",
",,,,,,,,,,,,,,    ,,,,  ----OO    OOOOOO  ,,,,    ,,,,,,,,,,,,,,",
",,,,,,,,,,,,,,,,,,,,,,  --OO  ,,,,  --OO  ,,,,,,,,,,,,,,,,,,,,,,",
",,,,,,,,,,,,,,,,,,,,,,  --OO  ,,,,  --OO  ,,,,,,,,,,,,,,,,,,,,,,"
};
