/* XPM */
static const char *_[] = {
/* columns rows colors chars-per-pixel */
"64 64 155 2 ",
"   c #0D0E0E",
".  c #141C1D",
"X  c #191D1E",
"o  c #1E231C",
"O  c #21271E",
"+  c #151F20",
"@  c #1A1F20",
"#  c #162123",
"$  c #1B2425",
"%  c #1E2826",
"&  c #1A2629",
"*  c #1D2A2D",
"=  c #1E2D31",
"-  c #202627",
";  c #242923",
":  c #2E2B22",
">  c #202728",
",  c #212C2D",
"<  c #282F2F",
"1  c #302D23",
"2  c #27302B",
"3  c #2E362D",
"4  c #353226",
"5  c #353429",
"6  c #393629",
"7  c #37392F",
"8  c #3D3A2C",
"9  c #212F32",
"0  c #282F30",
"q  c #223134",
"w  c #2A3334",
"e  c #26363A",
"r  c #29363A",
"t  c #27383D",
"y  c #293A3E",
"u  c #313633",
"i  c #323936",
"p  c #3C3D31",
"a  c #333C3B",
"s  c #403C2E",
"d  c #413E31",
"f  c #34413F",
"g  c #3B413C",
"h  c #414F2C",
"j  c #444334",
"k  c #494534",
"l  c #4E4B37",
"z  c #4C4A39",
"x  c #524E3A",
"c  c #4C5032",
"v  c #4B5A31",
"b  c #4E503F",
"n  c #5A5237",
"m  c #55513C",
"M  c #5B553D",
"N  c #545839",
"B  c #585A3B",
"V  c #5A633B",
"C  c #56683A",
"Z  c #273C40",
"A  c #2B3E42",
"S  c #333F40",
"D  c #2D4145",
"F  c #2F454A",
"G  c #334344",
"H  c #394443",
"J  c #3B4844",
"K  c #34464A",
"L  c #35494D",
"P  c #3A4B4D",
"I  c #344B51",
"U  c #3C4E51",
"Y  c #3E5153",
"T  c #424D4D",
"R  c #5F5A42",
"E  c #415355",
"W  c #495350",
"Q  c #4D5855",
"!  c #435659",
"~  c #465A5C",
"^  c #495C5D",
"/  c #674E4F",
"(  c #6A4E4E",
")  c #764F4F",
"_  c #7B4D4D",
"`  c #635F46",
"'  c #764F50",
"]  c #6E5455",
"[  c #635B5C",
"{  c #735455",
"}  c #7B5252",
"|  c #725E5E",
" . c #676043",
".. c #696245",
"X. c #6A6549",
"o. c #6E694D",
"O. c #716A4B",
"+. c #756F52",
"@. c #777252",
"#. c #7B7454",
"$. c #7F7856",
"%. c #4A5E61",
"&. c #735F60",
"*. c #4C6163",
"=. c #526566",
"-. c #546769",
";. c #546B6D",
":. c #596B6C",
">. c #546D70",
",. c #597375",
"<. c #666565",
"1. c #6A6264",
"2. c #606C6D",
"3. c #736061",
"4. c #626F70",
"5. c #617172",
"6. c #817A57",
"7. c #837D5A",
"8. c #87815E",
"9. c #8B835C",
"0. c #90885F",
"q. c #8D8661",
"w. c #8E8862",
"e. c #918A61",
"r. c #958C62",
"t. c #908A64",
"y. c #6D8B8D",
"u. c #6F8C8E",
"i. c #708E8F",
"p. c #718F90",
"a. c #739192",
"s. c #769596",
"d. c #759395",
"f. c #789798",
"g. c #7A9A9B",
"h. c #7D9E9F",
"j. c #81A2A3",
"k. c #84A5A6",
"l. c #86A7A8",
"z. c #87AAAB",
"x. c #86A8A9",
"c. c #89ACAD",
"v. c #8BAFB0",
"b. c #8EB2B2",
"n. c #91B5B6",
"m. c #92B7B8",
"M. c #95BBBB",
"N. c #98BEBF",
"B. c #98BFC0",
"V. c #9BC3C4",
"C. c #9EC7C8",
"Z. c #9FC8C8",
"A. c #A1CBCC",
"S. c None",
"D. c black",
/* pixels */
"S.S.S.> > > > > $ $ # $ $ $ & & & & & & & & & & & & & & & & & & & & & & & & & & & & & & & & & & & & & & * * * * * = = = = S.S.S.",
"S.S.S.> > > > > $ $ $ & = = = = = = = = = = = = = = = = = = = = = = = = = = = = = = = = = = = = = = = = = = = = 9 9 9 = 9 = S.S.",
"S.S.> > > > > > , 9 q 9 q q q q e e t t t y A A D G G K K K K K K K K K G G D A A t t t t e e e q q q q q q q q q q q q q = S.S.",
"S.S.> > > > > > 9 q q q q q q t ,.u.u.u.i.a.a.d.f.g.h.j.k.z.c.v.c.z.k.j.h.g.d.d.a.p.i.u.y.y.y.>.q q q q q q q q q q q q q q S.S.",
"S.> > > > > > > , q q q q q q 9 r A A G G G K K P P P U Y E E E E Y Y U P P P K K G G G A y y e * q q q q q q q q q q q q q q S.",
"S.> > > > , 9 9 9 q q q q q * . . . . . . . . . . . . . . . . . . . . . . . . . . . . . . . . . . & 9 q q q q q q q q q q q q S.",
"$ $ $ , 9 q q q q q q q q * . > a i i a g H H H H G G G H J J J J H H G f H H H J H a i i g g g < . $ = q q q q q q q q q q q q ",
"# $ * 9 q q q q q q q q & . > b k d k o.q.w.q.+.z 8 8 x 7.t.t.w.o.k j k o.w.r.8.o.k d j X.q.w.q.` % . # = q q q q q q q q = * * ",
"# & * 9 q q q q q q 9 $ . % p 4 : 8 O.r.r.r.O.s : 1 x 7.9.r.9.M 4 : 6 o.r.r.9.M 4 : 6 X.0.r.9.R 4 : ; . # = q q q q q q q = & # ",
"# & * 9 q q q q q = $ . % 7 6 5 d X.$.6.6.` 8 5 6 m @.+.@.#.l 5 4 6 ..$.$.@.l 5 5 s X.#.O.o.x 5 5 s R 2 . # * q q q q q q = & # ",
"# & * 9 q q q q = # . $ q i i i a a a a a a a a a f f a f f a a a a a a a a i i i a a i i u w i i i i , * . + * q q q q q = & # ",
"# & * 9 q q q = # . & 9 , r t t t t t t t t t t t t t t t t t t t t t t t t t t t t t t t r r t t t e * e = . . * q q q q = & # ",
"# & * 9 q q e * + & t 9 = t t t t t t t t t t t t t t t t t t t t t t t t t t t t t t t t t t r t t t * e t 9 # $ q q q q = & # ",
"# & * 9 q t *.q # e r q t D D D A q t Z Z Z Z Z Z Z Z Z Z Z Z Z Z Z Z Z Z Z Z Z Z Z Z Z r 9 q t A A Z q e Z t & 9 ! e q q = & # ",
"# & * 9 = K c.D # e r w A K L L A * e Z t t A t t t t t t t t t t t A t t t t t t t t Z r * q I I I I K A Z t % y k.D q q = & # ",
"# & * 9 = L c.G # e r r A A A A t * e A A A A A A A A A A A A A A A A A A A A A A A A A t , * t A A A A A A t % A z.G 9 q = & # ",
"# & * 9 = L c.K $ q A A A A D D t * t A A A A Z Z Z A A A A A A A A A Z Z Z A A A A A A t , * t A A A A A A t % G z.K = = * $ # ",
"# & * 9 9 P c.K $ e A A A A A D t * t A Z Z Z Z Z Z Z Z Z Z Z Z Z Z Z Z Z Z Z Z Z Z Z A t , * A A A A A A Z w $ G z.L a a a w # ",
"# & * 9 q P c.K $ e A A A A A A t * t A A A A A Z Z Z A Z Z A A Z A A Z Z Z Z A Z Z A A A q * t A A A A A A w $ G z.%.J H H T 9 ",
"# & * 9 q U c.P $ e A A A A A A t * t A A A A A Z Z Z Z Z Z Z Z A A A A Z Z Z Z Z Z Z Z A q * A A A A A A A t % G c.Q 8  .n 5 r ",
"# & * = q U c.P $ e A A A A A A t * e A A A A A A A A A A A A A A A A A A A A A A A A A A q = A D A A A A A t & K c.T k B V ; w ",
"# & * = q U c.P & e A A Z t A A t * q Z A A A A A A A A A A A A A A A A A A A A A A A A A q = A A r r t r Z t & K c.W  .B C O w ",
"# & * = q Y c.U & e A r > $ % & * & q t A A A A A Z A A A A A A A A A A A A A A Z A A A A q & * & $ % > q A t & K c.W O.N h o w ",
"# & * = q Y c.Y & e A e & = 9 , & > w t A A A A A A A A A A A A A A A A A A A A A A A A A t q q q q q * e A A & L c.Q n c v o r ",
"# & * = q Y c.E & e A e q A A A t t t A A A A A A A A A A A A A A A A A A A A A A A A A A A A A A A A = e A A * P c.=.g 7 3 a r ",
"# & * = q E b.E & e A e q A A A A A A A A A A A A A A A A A A A A A A A A A A A A A A A A A A A A A A = t A t & P c.~ T T P H & ",
"# & * = q E b.! * e A q q Z Z Z t r r A A A A A A A A A A A A A A A A A A A A A A A A A A r e r t t t * t A t & P c.%.G G S S 9 ",
"# & * = q ! b.~ * e A w D F K F A * 0 t A A A A A A A A A A A A A A A A A A A A A A A A t , q D D F F t t A t & P b.-.X     a H ",
"# & * = q ! n.^ * t A r K L L L A * q A A A A A A A A A A A A A A A A A A A A A A A A A t , q L L L L F A A A , U b.:.a w < T H ",
"# & * = q ~ m.%.* t A A A A A A t * e A D A D D A D D A A A A A A A D D D D D A A A A A A 9 = A A A A A A A A , Y b.2.} 1.{ &.K ",
"# & * = q ^ M.*., t A A A A A A t * e A A A A A A A A A A A A A A A A A A A A A A A A A A 9 = A A A A A A A A > E n.2.' <.] | K ",
"# & * = q ^ N.*.* e A A A A A A t * t A A A A A A A A A A A A A A A A A A A A A A A A A t , = A A A A A A A A * E m.2.} <.] | K ",
"# & * = q ^ V.=., e A A A A A A t * t D D A A A A D D D A A A D A A A A A A A D A A A A r , = A A A A A A A A , E M.4.) <.] | K ",
"# & * = q ^ V.;., t A A A A A A t * t D A A A A D D A A A A A A A A A D A A D D A A A A t , = A A A A A A A A 9 E N.5._ 1.{ 3.K ",
"# & * = q %.C.;., t A t r A A A t * t A A A A A A A A A A A A A A A D A A A A A A A t t A 9 * r A A A A A A A 9 ! V.5.( [ / [ G ",
"# & * = q %.A.;., t A r 0 w r t e * t A A A A A A A A A A A A A A A A A A A A A A Z w w A q * < w t t A A A A 9 ! C.*.w w q < % ",
"# & * = q %.A.;., t A q $ $ $ $ $ * t A A A A A A A A A A A A A A D A A A A A A A w < w A q $ $ $ $ $ * t A Z , ~ C.*.q 9 * $ # ",
"# & * = q %.A.;., t A q 9 t t t e e t t t t t t t t t r q w q r q t r r r t t Z t q q r t t e e t t e * t A t , ~ C.*.q q = & # ",
"# & * = q %.A.;., t A q q A A t 9 q q q q q q q q q q q q q q q q q q q q q q q q q q q q q q e A A A = t A Z , ~ C.*.q q = & # ",
"# & * = q %.A.;., t A e q A A e q L I I I I I I I I I I I I I I I I I I I I I I I I I I I I t q A A A * t A A , ~ C.*.q q = & # ",
"# & * = q %.Z.;., t A e 9 t A t 9 A A A A A A A A A A A A A A A A A A A A A A A A A A A A A e q A A t * t A A , ! V.*.q q = & # ",
"# & * = q %.C.;., q A t , 0 r t = e e e e e e e e e e e e e e e e q q q q q q q q 9 9 9 9 q q q A A r * r A r , E V.%.q q = & # ",
"# & * = q ^ V.-., , t t , < w e = q q q q q q q q q q q q q q q q q q q q q q q q q q q q q q e A t q & q w 0 > E N.%.q q = & # ",
"# & * = q ^ B.*., < w e , w w w w r t y A A y y y y y A A A A y r r w r r r y y A A A y r y y y y r w 9 w w w , E M.^ q q = & # ",
"# & * = q ^ N.*., S.S.S.S.S.S.S.S.S.S.S.S.S.S.S.S.S.S.S.S.S.S.S.S.S.S.S.S.S.S.S.S.S.S.S.S.S.S.S.S.S.S.S.S.S.S.w E m.^ q q = & # ",
"# & * = q ^ M.*., S.S.S.S.S.S.S.S.S.S.S.S.S.S.S.S.S.S.S.S.S.S.S.S.S.S.S.S.S.S.S.S.S.S.S.S.S.S.S.S.S.S.S.S.S.S.w Y n.~ q q = & # ",
"# & * = q ~ m.^ , S.S.S.S.S.S.S.S.S.S.S.S.S.S.S.S.S.S.S.S.S.S.S.S.S.S.S.S.S.S.S.S.S.S.S.S.S.S.S.S.S.S.S.S.S.S.q U b.! q q = & # ",
"# & * = q ! n.^ , S.S.S.S.S.S.S.S.S.S.S.S.S.S.S.S.S.S.S.S.S.S.S.S.S.S.S.S.S.S.S.S.S.S.S.S.S.S.S.S.S.S.S.S.S.S.q P b.! q q = & # ",
"# & * = q ! b.~ , S.S.S.S.S.S.S.S.S.S.S.S.S.S.S.S.S.S.S.S.S.S.S.S.S.S.S.S.S.S.S.S.S.S.S.S.S.S.S.S.S.S.S.S.S.S.0 P c.E q q = & # ",
"# & * = q E b.! , S.S.S.S.S.S.S.S.S.S.S.S.S.S.S.S.S.S.S.S.S.S.S.S.S.S.S.S.S.S.S.S.S.S.S.S.S.S.S.S.S.S.S.S.S.S., P c.Y q q = & # ",
"# & * = q E v.E , S.S.S.S.S.S.S.S.S.S.S.S.S.S.S.S.S.S.S.S.S.S.S.S.S.S.S.S.S.S.S.S.S.S.S.S.S.S.S.S.S.S.S.S.S.S., P c.Y q q = & # ",
"# & * = q Y c.Y , S.S.S.S.S.S.S.S.S.S.S.S.S.S.S.S.S.S.S.S.S.S.S.S.S.S.S.S.S.S.S.S.S.S.S.S.S.S.S.S.S.S.S.S.S.S., P c.U q q = & # ",
"+ & * = q Y c.U * S.S.S.S.S.S.S.S.S.S.S.S.S.S.S.S.S.S.S.S.S.S.S.S.S.S.S.S.S.S.S.S.S.S.S.S.S.S.S.S.S.S.S.S.S.S.& K z.U q q = & # ",
". & * = q U c.P & S.S.S.S.S.S.S.S.S.S.S.S.S.S.S.S.S.S.S.S.S.S.S.S.S.S.S.S.S.S.S.S.S.S.S.S.S.S.S.S.S.S.S.S.S.S.& K z.P q q = & # ",
". $ * 9 q U c.P & S.S.S.S.S.S.S.S.S.S.S.S.S.S.S.S.S.S.S.S.S.S.S.S.S.S.S.S.S.S.S.S.S.S.S.S.S.S.S.S.S.S.S.S.S.S.& K z.P q q = & # ",
". # * 9 q U c.P & S.S.S.S.S.S.S.S.S.S.S.S.S.S.S.S.S.S.S.S.S.S.S.S.S.S.S.S.S.S.S.S.S.S.S.S.S.S.S.S.S.S.S.S.S.S.$ G l.L q q = & # ",
". @ & 9 q P c.K & S.S.S.S.S.S.S.S.S.S.S.S.S.S.S.S.S.S.S.S.S.S.S.S.S.S.S.S.S.S.S.S.S.S.S.S.S.S.S.S.S.S.S.S.S.S.$ G k.K q q = & # ",
". X $ 9 9 P c.K % S.S.S.S.S.S.S.S.S.S.S.S.S.S.S.S.S.S.S.S.S.S.S.S.S.S.S.S.S.S.S.S.S.S.S.S.S.S.S.S.S.S.S.S.S.S.# G k.G 9 q = & # ",
". X $ , 9 L c.K & S.S.S.S.S.S.S.S.S.S.S.S.S.S.S.S.S.S.S.S.S.S.S.S.S.S.S.S.S.S.S.S.S.S.S.S.S.S.S.S.S.S.S.S.S.S.# A k.S , q = & # ",
". X $ , 9 K c.G $ S.S.S.S.S.S.S.S.S.S.S.S.S.S.S.S.S.S.S.S.S.S.S.S.S.S.S.S.S.S.S.S.S.S.S.S.S.S.S.S.S.S.S.S.S.S.# A k.a > 9 = $ # ",
". X $ > % G c.G $ S.S.S.S.S.S.S.S.S.S.S.S.S.S.S.S.S.S.S.S.S.S.S.S.S.S.S.S.S.S.S.S.S.S.S.S.S.S.S.S.S.S.S.S.S.S.# y l.a > , * # . ",
". X $ > $ a c.A $ S.S.S.S.S.S.S.S.S.S.S.S.S.S.S.S.S.S.S.S.S.S.S.S.S.S.S.S.S.S.S.S.S.S.S.S.S.S.S.S.S.S.S.S.S.S.# y l.a > > $ @ . ",
". X $ > $ a j.t % S.S.S.S.S.S.S.S.S.S.S.S.S.S.S.S.S.S.S.S.S.S.S.S.S.S.S.S.S.S.S.S.S.S.S.S.S.S.S.S.S.S.S.S.S.S.# t j.r > > $ @ . ",
". X $ > > q ! t W S.S.S.S.S.S.S.S.S.S.S.S.S.S.S.S.S.S.S.S.S.S.S.S.S.S.S.S.S.S.S.S.S.S.S.S.S.S.S.S.S.S.S.S.S.S.S.q E < > > $ @ . "
};
