/* XPM */
static const char *_[] = {
/* columns rows colors chars-per-pixel */
"64 64 155 2 ",
"   c #0D0E0E",
".  c #131B1C",
"X  c #191D1E",
"o  c #1E231C",
"O  c #21271E",
"+  c #151F20",
"@  c #1A1F20",
"#  c #162123",
"$  c #1B2425",
"%  c #1A2629",
"&  c #1D2A2D",
"*  c #1E2D31",
"=  c #202627",
"-  c #252921",
";  c #202728",
":  c #212C2E",
">  c #282F2F",
",  c #2E362D",
"<  c #31342D",
"1  c #3F3B2B",
"2  c #212F32",
"3  c #282F30",
"4  c #213135",
"5  c #2B3435",
"6  c #243639",
"7  c #2C3638",
"8  c #27383C",
"9  c #2C3A3D",
"0  c #323C3C",
"q  c #3E413B",
"w  c #414F2C",
"e  c #4B4530",
"r  c #4C5032",
"t  c #4B5A31",
"y  c #5A5237",
"u  c #5B543A",
"i  c #545839",
"p  c #585A3B",
"a  c #5A633B",
"s  c #56683A",
"d  c #2E3E41",
"f  c #2C3E43",
"g  c #2E3E42",
"h  c #2E3D40",
"j  c #2C3F44",
"k  c #2B3D41",
"l  c #303F42",
"z  c #333F40",
"x  c #2F4043",
"c  c #2F4144",
"v  c #304042",
"b  c #304043",
"n  c #314143",
"m  c #304144",
"M  c #304145",
"N  c #324144",
"B  c #334345",
"V  c #314346",
"C  c #334447",
"Z  c #354547",
"A  c #344345",
"S  c #3A4344",
"D  c #334548",
"F  c #30444A",
"G  c #354649",
"H  c #364749",
"J  c #35474A",
"K  c #31474D",
"L  c #31464C",
"P  c #32474D",
"I  c #354649",
"U  c #37494B",
"Y  c #38494B",
"T  c #3A4B4D",
"R  c #3B4C4F",
"E  c #3C4D4F",
"W  c #3A4B4D",
"Q  c #3D4F51",
"!  c #3C4E51",
"~  c #3F5153",
"^  c #3E5153",
"/  c #424D4D",
"(  c #405355",
")  c #415456",
"_  c #495251",
"`  c #4D5855",
"'  c #435759",
"]  c #465A5C",
"[  c #495C5D",
"{  c #674E4F",
"}  c #6A4E4E",
"|  c #764F4F",
" . c #7B4D4D",
".. c #764F50",
"X. c #6E5455",
"o. c #635B5C",
"O. c #735455",
"+. c #7B5252",
"@. c #725E5E",
"#. c #676043",
"$. c #696143",
"%. c #706849",
"&. c #4A5E61",
"*. c #735F60",
"=. c #4C6163",
"-. c #526466",
";. c #546768",
":. c #546B6C",
">. c #596B6C",
",. c #546D70",
"<. c #597375",
"1. c #666565",
"2. c #6A6264",
"3. c #606C6D",
"4. c #736061",
"5. c #626F70",
"6. c #617172",
"7. c #6D8B8D",
"8. c #6E8B8D",
"9. c #6F8C8E",
"0. c #6E8C8D",
"q. c #708D8F",
"w. c #708E8F",
"e. c #718F90",
"r. c #739192",
"t. c #759395",
"y. c #769596",
"u. c #789798",
"i. c #7A999B",
"p. c #7A9A9B",
"a. c #7D9E9F",
"s. c #81A2A3",
"d. c #83A5A6",
"f. c #84A6A7",
"g. c #84A5A6",
"h. c #86A7A8",
"j. c #87AAAB",
"k. c #86A9AA",
"l. c #86A8A9",
"z. c #89ADAE",
"x. c #89ACAD",
"c. c #8AAEB0",
"v. c #8CAFB0",
"b. c #8EB2B2",
"n. c #91B5B6",
"m. c #92B7B8",
"M. c #95BBBB",
"N. c #98BEBF",
"B. c #98BFC0",
"V. c #9BC3C4",
"C. c #9EC7C8",
"Z. c #9FC8C8",
"A. c #A1CBCC",
"S. c None",
"D. c black",
/* pixels */
"S.S.S.; ; ; ; ; $ $ # $ $ $ % % % % % % % % % % % % % % % % % % % % % % % % % % % % % % % % % % % % % % & & & & & * * * * S.S.S.",
"S.S.S.; ; ; ; ; $ $ $ & * * * * * * * * * * * * * * * * * * * * * * * * * * * * * * * * * * * * * * * * * * * * 2 2 2 2 2 * S.S.",
"S.S.; ; ; ; ; ; : 2 4 2 4 4 4 4 6 6 8 8 8 9 h h x m m C F J J J J J F C m m x h h 8 8 8 8 6 6 4 4 4 4 4 4 4 4 4 4 4 4 4 4 * S.S.",
"S.S.; ; ; ; ; ; 2 4 4 4 4 4 4 8 <.9.9.9.w.r.r.t.u.p.a.s.f.j.x.c.x.j.d.s.a.p.t.t.r.e.w.9.7.7.7.,.4 4 4 4 4 4 4 4 4 4 4 4 4 4 S.S.",
"S.; ; ; ; ; ; ; : 4 4 4 4 4 4 2 8 h h v m m Z J Y W E Q ~ ( ( ( ( ( ~ Q W W Y J Z m v v h h 9 6 & 4 4 4 4 4 4 4 4 4 4 4 4 4 4 S.",
"S.; ; ; ; : 2 2 2 4 4 4 4 4 & X . . . . . . . . . . . . . . . . . . . . . . . . . . . . . . . . . % 2 4 4 4 4 4 4 4 4 4 4 4 4 S.",
"$ $ $ : 2 4 4 4 4 4 4 4 4 % X # 4 k k k k k k k k k k k k k k k k k k k k k k k k k k k k k 4 * % . $ * 4 4 4 4 4 4 4 4 4 4 4 4 ",
"# $ & 2 4 4 4 4 4 4 4 4 % X $ 4 4 F P P P P P P P P P P P P P P P P P P P P P P P P P P P P 8 4 k % . # * 4 4 4 4 4 4 4 4 * & & ",
"# % & 2 4 4 4 4 4 4 2 $ X $ 8 8 2 k k k k k k k k k k k k k k k k k k 8 8 8 9 k 8 8 8 8 8 8 6 4 j k & X # & 4 4 4 4 4 4 4 * % # ",
"# % & 2 4 4 4 4 4 * $ . $ 3 5 8 * 2 2 2 2 2 2 2 2 2 2 2 2 2 2 2 2 2 2 & & & : : : : : & & 2 * 4 j h 4 $ . # & 4 4 4 4 4 4 * % # ",
"# % & 2 4 4 4 4 * # . $ : 3 5 6 4 6 6 6 6 6 6 6 6 6 6 6 6 6 6 6 6 6 4 6 6 6 6 6 6 6 6 6 6 6 6 6 k 8 3 & $ X + & 4 4 4 4 4 * % # ",
"# % & 2 4 4 4 * # X : 8 4 5 5 5 5 9 9 9 h h 9 9 9 9 9 l v m v 9 7 5 5 5 7 9 9 9 0 l 9 9 7 9 9 9 9 5 5 2 5 & X X & 4 4 4 4 * % # ",
"# % & 2 4 4 6 & + : S.S.S.S.S.S.S.S.S.S.S.S.S.S.S.S.S.S.S.S.S.S.S.S.S.S.S.S.S.S.S.S.S.S.S.S.S.S.S.S.S.S.S.S.S.# $ 4 4 4 4 * % # ",
"# % & 2 4 8 =.4 # S.S.S.S.S.S.S.S.S.S.S.S.S.S.S.S.S.S.S.S.S.S.S.S.S.S.S.S.S.S.S.S.S.S.S.S.S.S.S.S.S.S.S.S.S.S.& 2 ' 6 4 4 * % # ",
"# % & 2 * J j.x # S.S.S.S.S.S.S.S.S.S.S.S.S.S.S.S.S.S.S.S.S.S.S.S.S.S.S.S.S.S.S.S.S.S.S.S.S.S.S.S.S.S.S.S.S.S.& 9 d.c 4 4 * % # ",
"# % & 2 * U x.m # S.S.S.S.S.S.S.S.S.S.S.S.S.S.S.S.S.S.S.S.S.S.S.S.S.S.S.S.S.S.S.S.S.S.S.S.S.S.S.S.S.S.S.S.S.S.% h j.m 2 4 * % # ",
"# % & 2 * U j.m # S.S.S.S.S.S.S.S.S.S.S.S.S.S.S.S.S.S.S.S.S.S.S.S.S.S.S.S.S.S.S.S.S.S.S.S.S.S.S.S.S.S.S.S.S.S.% v j.F * * & $ # ",
"# % & 2 2 W j.Z $ S.S.S.S.S.S.S.S.S.S.S.S.S.S.S.S.S.S.S.S.S.S.S.S.S.S.S.S.S.S.S.S.S.S.S.S.S.S.S.S.S.S.S.S.S.S.% v j.U 0 0 0 5 # ",
"# % & 2 4 W j.J $ S.S.S.S.S.S.S.S.S.S.S.S.S.S.S.S.S.S.S.S.S.S.S.S.S.S.S.S.S.S.S.S.S.S.S.S.S.S.S.S.S.S.S.S.S.S.% v j.&.S S S / 2 ",
"# % & 2 4 ! j.Y $ S.S.S.S.S.S.S.S.S.S.S.S.S.S.S.S.S.S.S.S.S.S.S.S.S.S.S.S.S.S.S.S.S.S.S.S.S.S.S.S.S.S.S.S.S.S.% m x.` 1 #.y < 9 ",
"# % & * 4 ! j.W % S.S.S.S.S.S.S.S.S.S.S.S.S.S.S.S.S.S.S.S.S.S.S.S.S.S.S.S.S.S.S.S.S.S.S.S.S.S.S.S.S.S.S.S.S.S.% Z x./ e p a - 5 ",
"# % & * 4 Q x.W % S.S.S.S.S.S.S.S.S.S.S.S.S.S.S.S.S.S.S.S.S.S.S.S.S.S.S.S.S.S.S.S.S.S.S.S.S.S.S.S.S.S.S.S.S.S.% Z x._ $.p s O 5 ",
"# % & * 4 ~ x.Q & S.S.S.S.S.S.S.S.S.S.S.S.S.S.S.S.S.S.S.S.S.S.S.S.S.S.S.S.S.S.S.S.S.S.S.S.S.S.S.S.S.S.S.S.S.S.% J x._ %.i w o 5 ",
"# % & * 4 ^ x.~ & S.S.S.S.S.S.S.S.S.S.S.S.S.S.S.S.S.S.S.S.S.S.S.S.S.S.S.S.S.S.S.S.S.S.S.S.S.S.S.S.S.S.S.S.S.S.% Y x.` u r t o 8 ",
"# % & * 4 ^ x.( & S.S.S.S.S.S.S.S.S.S.S.S.S.S.S.S.S.S.S.S.S.S.S.S.S.S.S.S.S.S.S.S.S.S.S.S.S.S.S.S.S.S.S.S.S.S.% Y j.-.q < , 0 8 ",
"# % & * 4 ) b.) & S.S.S.S.S.S.S.S.S.S.S.S.S.S.S.S.S.S.S.S.S.S.S.S.S.S.S.S.S.S.S.S.S.S.S.S.S.S.S.S.S.S.S.S.S.S.% W x.] / / E S % ",
"# % & * 4 ) b.' : S.S.S.S.S.S.S.S.S.S.S.S.S.S.S.S.S.S.S.S.S.S.S.S.S.S.S.S.S.S.S.S.S.S.S.S.S.S.S.S.S.S.S.S.S.S.$ W x.&.A v l l 2 ",
"# % & * 4 ' b.] : S.S.S.S.S.S.S.S.S.S.S.S.S.S.S.S.S.S.S.S.S.S.S.S.S.S.S.S.S.S.S.S.S.S.S.S.S.S.S.S.S.S.S.S.S.S.$ E b.;.X     0 S ",
"# % & * 4 ' n.[ : S.S.S.S.S.S.S.S.S.S.S.S.S.S.S.S.S.S.S.S.S.S.S.S.S.S.S.S.S.S.S.S.S.S.S.S.S.S.S.S.S.S.S.S.S.S.$ Q b.>.0 5 > / S ",
"# % & * 4 ] m.&.: S.S.S.S.S.S.S.S.S.S.S.S.S.S.S.S.S.S.S.S.S.S.S.S.S.S.S.S.S.S.S.S.S.S.S.S.S.S.S.S.S.S.S.S.S.S.$ ~ b.3.+.2.O.*.Z ",
"# % & * 4 [ M.=.: S.S.S.S.S.S.S.S.S.S.S.S.S.S.S.S.S.S.S.S.S.S.S.S.S.S.S.S.S.S.S.S.S.S.S.S.S.S.S.S.S.S.S.S.S.S.$ ~ n.3...1.X.@.Z ",
"# % & * 4 [ N.=.2 S.S.S.S.S.S.S.S.S.S.S.S.S.S.S.S.S.S.S.S.S.S.S.S.S.S.S.S.S.S.S.S.S.S.S.S.S.S.S.S.S.S.S.S.S.S.$ ( m.3.+.1.X.@.Z ",
"# % & * 4 [ V.-.2 S.S.S.S.S.S.S.S.S.S.S.S.S.S.S.S.S.S.S.S.S.S.S.S.S.S.S.S.S.S.S.S.S.S.S.S.S.S.S.S.S.S.S.S.S.S.$ ) M.5.| 1.X.@.Z ",
"# % & * 4 [ V.:.2 S.S.S.S.S.S.S.S.S.S.S.S.S.S.S.S.S.S.S.S.S.S.S.S.S.S.S.S.S.S.S.S.S.S.S.S.S.S.S.S.S.S.S.S.S.S.$ ) N.6. .2.O.4.Z ",
"# % & * 4 &.C.:.3 S.S.S.S.S.S.S.S.S.S.S.S.S.S.S.S.S.S.S.S.S.S.S.S.S.S.S.S.S.S.S.S.S.S.S.S.S.S.S.S.S.S.S.S.S.S.$ ) V.6.} o.{ o.A ",
"# % & * 4 &.A.:.3 S.S.S.S.S.S.S.S.S.S.S.S.S.S.S.S.S.S.S.S.S.S.S.S.S.S.S.S.S.S.S.S.S.S.S.S.S.S.S.S.S.S.S.S.S.S.$ ' C.=.5 5 4 : % ",
"# % & * 4 &.A.:.4 S.S.S.S.S.S.S.S.S.S.S.S.S.S.S.S.S.S.S.S.S.S.S.S.S.S.S.S.S.S.S.S.S.S.S.S.S.S.S.S.S.S.S.S.S.S.% ' C.=.4 2 & $ # ",
"# % & * 4 &.A.:.4 S.S.S.S.S.S.S.S.S.S.S.S.S.S.S.S.S.S.S.S.S.S.S.S.S.S.S.S.S.S.S.S.S.S.S.S.S.S.S.S.S.S.S.S.S.S.% ] C.=.4 4 * % # ",
"# % & * 4 &.A.:.4 S.S.S.S.S.S.S.S.S.S.S.S.S.S.S.S.S.S.S.S.S.S.S.S.S.S.S.S.S.S.S.S.S.S.S.S.S.S.S.S.S.S.S.S.S.S.% ] C.=.4 4 * % # ",
"# % & * 4 &.A.:.4 S.S.S.S.S.S.S.S.S.S.S.S.S.S.S.S.S.S.S.S.S.S.S.S.S.S.S.S.S.S.S.S.S.S.S.S.S.S.S.S.S.S.S.S.S.S.% ' C.=.4 4 * % # ",
"# % & * 4 &.Z.:.4 S.S.S.S.S.S.S.S.S.S.S.S.S.S.S.S.S.S.S.S.S.S.S.S.S.S.S.S.S.S.S.S.S.S.S.S.S.S.S.S.S.S.S.S.S.S.% ' V.=.4 4 * % # ",
"# % & * 4 &.C.:.4 S.S.S.S.S.S.S.S.S.S.S.S.S.S.S.S.S.S.S.S.S.S.S.S.S.S.S.S.S.S.S.S.S.S.S.S.S.S.S.S.S.S.S.S.S.S.% ) V.&.4 4 * % # ",
"# % & * 4 [ V.;.4 S.S.S.S.S.S.S.S.S.S.S.S.S.S.S.S.S.S.S.S.S.S.S.S.S.S.S.S.S.S.S.S.S.S.S.S.S.S.S.S.S.S.S.S.S.S.% ) N.&.4 4 * % # ",
"# % & * 4 [ B.=.4 S.S.S.S.S.S.S.S.S.S.S.S.S.S.S.S.S.S.S.S.S.S.S.S.S.S.S.S.S.S.S.S.S.S.S.S.S.S.S.S.S.S.S.S.S.S.% ) M.[ 4 4 * % # ",
"# % & * 4 [ N.=.3 S.S.S.S.S.S.S.S.S.S.S.S.S.S.S.S.S.S.S.S.S.S.S.S.S.S.S.S.S.S.S.S.S.S.S.S.S.S.S.S.S.S.S.S.S.S.$ ( m.[ 4 4 * % # ",
"# % & * 4 [ M.=.3 S.S.S.S.S.S.S.S.S.S.S.S.S.S.S.S.S.S.S.S.S.S.S.S.S.S.S.S.S.S.S.S.S.S.S.S.S.S.S.S.S.S.S.S.S.S.$ ~ n.] 4 4 * % # ",
"# % & * 4 ] m.[ 3 S.S.S.S.S.S.S.S.S.S.S.S.S.S.S.S.S.S.S.S.S.S.S.S.S.S.S.S.S.S.S.S.S.S.S.S.S.S.S.S.S.S.S.S.S.S.$ Q b.' 4 4 * % # ",
"# % & * 4 ' n.[ 2 S.S.S.S.S.S.S.S.S.S.S.S.S.S.S.S.S.S.S.S.S.S.S.S.S.S.S.S.S.S.S.S.S.S.S.S.S.S.S.S.S.S.S.S.S.S.$ E b.' 4 4 * % # ",
"# % & * 4 ' b.] : S.S.S.S.S.S.S.S.S.S.S.S.S.S.S.S.S.S.S.S.S.S.S.S.S.S.S.S.S.S.S.S.S.S.S.S.S.S.S.S.S.S.S.S.S.S.$ W x.) 4 4 * % # ",
"# % & * 4 ) b.) : S.S.S.S.S.S.S.S.S.S.S.S.S.S.S.S.S.S.S.S.S.S.S.S.S.S.S.S.S.S.S.S.S.S.S.S.S.S.S.S.S.S.S.S.S.S.S.W x.^ 4 4 * % # ",
"# % & * 4 ( v.) : S.S.S.S.S.S.S.S.S.S.S.S.S.S.S.S.S.S.S.S.S.S.S.S.S.S.S.S.S.S.S.S.S.S.S.S.S.S.S.S.S.S.S.S.S.S.S.Y x.~ 4 4 * % # ",
"# % & * 4 ^ x.~ : S.S.S.S.S.S.S.S.S.S.S.S.S.S.S.S.S.S.S.S.S.S.S.S.S.S.S.S.S.S.S.S.S.S.S.S.S.S.S.S.S.S.S.S.S.S.S.Y x.Q 4 4 * % # ",
"+ % & * 4 ~ x.Q : S.S.S.S.S.S.S.S.S.S.S.S.S.S.S.S.S.S.S.S.S.S.S.S.S.S.S.S.S.S.S.S.S.S.S.S.S.S.S.S.S.S.S.S.S.S.S.J j.! 4 4 * % # ",
"X % & * 4 Q x.E : S.S.S.S.S.S.S.S.S.S.S.S.S.S.S.S.S.S.S.S.S.S.S.S.S.S.S.S.S.S.S.S.S.S.S.S.S.S.S.S.S.S.S.S.S.S.S.Z j.W 4 4 * % # ",
". $ & 2 4 ! j.W : S.S.S.S.S.S.S.S.S.S.S.S.S.S.S.S.S.S.S.S.S.S.S.S.S.S.S.S.S.S.S.S.S.S.S.S.S.S.S.S.S.S.S.S.S.S.S.Z j.W 4 4 * % # ",
". # & 2 4 ! j.Y & S.S.S.S.S.S.S.S.S.S.S.S.S.S.S.S.S.S.S.S.S.S.S.S.S.S.S.S.S.S.S.S.S.S.S.S.S.S.S.S.S.S.S.S.S.S.S.m h.U 4 4 * % # ",
". @ & 2 4 W x.J & S.S.S.S.S.S.S.S.S.S.S.S.S.S.S.S.S.S.S.S.S.S.S.S.S.S.S.S.S.S.S.S.S.S.S.S.S.S.S.S.S.S.S.S.S.S.S.m f.J 4 4 * % # ",
". X $ 2 2 W x.J & S.S.S.S.S.S.S.S.S.S.S.S.S.S.S.S.S.S.S.S.S.S.S.S.S.S.S.S.S.S.S.S.S.S.S.S.S.S.S.S.S.S.S.S.S.S.S.v f.A 2 4 * % # ",
". X $ : 2 Y x.Z & S.S.S.S.S.S.S.S.S.S.S.S.S.S.S.S.S.S.S.S.S.S.S.S.S.S.S.S.S.S.S.S.S.S.S.S.S.S.S.S.S.S.S.S.S.S.S.h f.l : 4 * % # ",
". X $ : 2 Z j.m % S.S.S.S.S.S.S.S.S.S.S.S.S.S.S.S.S.S.S.S.S.S.S.S.S.S.S.S.S.S.S.S.S.S.S.S.S.S.S.S.S.S.S.S.S.S.S.h f.0 ; 2 * $ # ",
". X $ ; % A j.v % S.S.S.S.S.S.S.S.S.S.S.S.S.S.S.S.S.S.S.S.S.S.S.S.S.S.S.S.S.S.S.S.S.S.S.S.S.S.S.S.S.S.S.S.S.S.S.9 h.0 ; : & # X ",
". X $ ; ; 0 x.h % S.S.S.S.S.S.S.S.S.S.S.S.S.S.S.S.S.S.S.S.S.S.S.S.S.S.S.S.S.S.S.S.S.S.S.S.S.S.S.S.S.S.S.S.S.S.S.9 h.0 ; ; $ @ . ",
". X $ ; $ 0 s.8 & S.S.S.S.S.S.S.S.S.S.S.S.S.S.S.S.S.S.S.S.S.S.S.S.S.S.S.S.S.S.S.S.S.S.S.S.S.S.S.S.S.S.S.S.S.S.S.8 s.9 ; ; $ @ . ",
". X $ ; ; 4 ' 8 _ S.S.S.S.S.S.S.S.S.S.S.S.S.S.S.S.S.S.S.S.S.S.S.S.S.S.S.S.S.S.S.S.S.S.S.S.S.S.S.S.S.S.S.S.S.S.S.4 ( : ; ; $ @ . "
};
