/* XPM */
static const char *_[] = {
/* columns rows colors chars-per-pixel */
"64 64 169 2 ",
"   c #0D0E0E",
".  c #151C1D",
"X  c #191D1E",
"o  c #1E231C",
"O  c #21271E",
"+  c #161F20",
"@  c #1A1F20",
"#  c #162123",
"$  c #1B2425",
"%  c #1A2629",
"&  c #1D2A2D",
"*  c #1E2D31",
"=  c #1F3033",
"-  c #202627",
";  c #252921",
":  c #2D2A21",
">  c #202728",
",  c #212C2D",
"<  c #282F2F",
"1  c #312E24",
"2  c #2E362D",
"3  c #353126",
"4  c #31342D",
"5  c #393528",
"6  c #3D392B",
"7  c #212F32",
"8  c #282F30",
"9  c #223135",
"0  c #293334",
"q  c #26363A",
"w  c #293639",
"e  c #27393D",
"r  c #293A3E",
"t  c #363A31",
"y  c #3A3C33",
"u  c #323B3C",
"i  c #3F4035",
"p  c #3D423B",
"a  c #414F2C",
"s  c #424234",
"d  c #4B4530",
"f  c #4E4936",
"g  c #44453A",
"h  c #48473B",
"j  c #45493E",
"k  c #4B4B3D",
"l  c #504C37",
"z  c #4C5032",
"x  c #4B5A31",
"c  c #5A5237",
"v  c #52503D",
"b  c #5A543C",
"n  c #545839",
"m  c #5A5A3C",
"M  c #56683A",
"N  c #5A633B",
"B  c #2B3E42",
"V  c #333F40",
"C  c #2E4246",
"Z  c #2F4449",
"A  c #334345",
"S  c #3A4344",
"D  c #344649",
"F  c #34494D",
"G  c #3A4B4D",
"H  c #354D52",
"J  c #3C4E51",
"K  c #3D5153",
"L  c #3F5558",
"P  c #3D595A",
"I  c #4A4E41",
"U  c #424D4D",
"Y  c #4E5244",
"T  c #535443",
"R  c #5C5640",
"E  c #525648",
"W  c #565949",
"Q  c #415455",
"!  c #495251",
"~  c #4D5855",
"^  c #435659",
"/  c #465A5C",
"(  c #495C5D",
")  c #674E4F",
"_  c #6A4E4E",
"`  c #764F4F",
"'  c #7B4D4D",
"]  c #764F50",
"[  c #6E5455",
"{  c #635B5C",
"}  c #735455",
"|  c #7B5252",
" . c #725E5E",
".. c #676043",
"X. c #696346",
"o. c #65634E",
"O. c #6A6448",
"+. c #6E684A",
"@. c #736C4C",
"#. c #666954",
"$. c #6C6C54",
"%. c #636652",
"&. c #6F715A",
"*. c #7D7553",
"=. c #7F7855",
"-. c #70725A",
";. c #465D60",
":. c #4A5E61",
">. c #735F60",
",. c #456163",
"<. c #4B6163",
"1. c #4D6668",
"2. c #4A6A6A",
"3. c #526566",
"4. c #546769",
"5. c #546B6D",
"6. c #596B6C",
"7. c #546D70",
"8. c #4B7070",
"9. c #537575",
"0. c #537D7C",
"q. c #587B7C",
"w. c #597375",
"e. c #666565",
"r. c #6A6264",
"t. c #606C6D",
"y. c #736061",
"u. c #626F70",
"i. c #617172",
"p. c #827A56",
"a. c #877F59",
"s. c #8C845C",
"d. c #958C62",
"f. c #578382",
"g. c #5B8384",
"h. c #5A8989",
"j. c #5F9393",
"k. c #5D9596",
"l. c #618181",
"z. c #648685",
"x. c #6D8B8D",
"c. c #6F8C8E",
"v. c #708E8F",
"b. c #718F90",
"n. c #609595",
"m. c #619898",
"M. c #6E9C9D",
"N. c #739192",
"B. c #769596",
"V. c #759395",
"C. c #789798",
"Z. c #7C9C9D",
"A. c #83A5A5",
"S. c #86A7A8",
"D. c #86A9A9",
"F. c #89ACAD",
"G. c #8BAFB0",
"H. c #8EB2B2",
"J. c #91B5B6",
"K. c #92B7B8",
"L. c #95BBBB",
"P. c #98BEBF",
"I. c #98BFC0",
"U. c #9BC3C4",
"Y. c #9EC7C8",
"T. c #9FC8C8",
"R. c #A1CBCC",
"E. c None",
"W. c black",
/* pixels */
"E.E.E.> > > > > $ $ # $ $ $ % % % % % % % % % % % % % % % % % % % % % % % % % % % % % % % % % % % % % % & & & & & * * * * E.E.E.",
"E.E.E.> > > > > $ $ $ & * * * * * * * * * * * * * * * * * * * * * * * * * * * * * * * * * * * * * * * * * * * * 7 7 * * * * E.E.",
"E.E.> > > > > > , 7 9 7 9 9 9 9 q q e e e r B B C A A A D D D D D D D A A A C B B e e e e q q q 9 9 9 9 9 9 9 9 9 9 9 9 9 * E.E.",
"E.E.> > > > > > 7 9 9 9 9 9 9 e w.c.c.c.v.N.N.V.C.Z.Z.A.S.D.F.G.F.D.A.A.Z.Z.V.V.N.b.v.c.x.x.x.7.9 9 9 9 9 9 9 9 9 9 9 9 9 9 E.E.",
"E.> > > > > > > , 9 9 9 9 9 9 7 w B B A A A D D G G G J K Q Q Q Q Q K J G G D D D A A B B r r q & 9 9 9 9 9 9 9 9 9 9 9 9 9 9 E.",
"E.> > > > , 7 7 7 9 9 9 9 9 & . . . . . . . . . + % # . . . . . . . . . # # $ & % $ + + . . . . . % 7 9 9 9 9 9 9 9 9 9 9 9 9 E.",
"$ $ $ , 7 9 9 9 9 9 9 9 9 % . $ 9 q q q q q q q Z h.L 9 q q q q q q q q L 9.g.j.k.h.q.,.e q q 9 $ . $ * 9 9 9 9 9 9 9 9 9 9 9 9 ",
"# $ & 7 9 9 9 9 9 9 9 9 % . $ q e e e e F 2.9.9.f.M.;.q e e e e e e e e B ,.h.n.m.j.0.H e e e e q % . # * 9 9 9 9 9 9 9 9 * & & ",
"# % & 7 9 9 9 9 9 9 7 $ . $ q e e e e e K z.1.,.<.<.D e e e e e e e e e e e K 0.f.8.D e e e e e e q % . # * 9 9 9 9 9 9 9 * % # ",
"# % & 7 9 9 9 9 9 * $ . $ q e e e e e e K l.C q q q e e e e e e e e e e e e e F P C e e e e e e e e q $ . # & 9 9 9 9 9 9 * % # ",
"# % & 7 9 9 9 9 * # . $ 7 e e e e e e e K l.A e e e e e e e e e e e e e e e e e e e e e e e e e e e e & % . + & 9 9 9 9 9 * % # ",
"# % & 7 9 9 9 * # . & 9 , 0 q q e e e e F 5.B e e e e e e e e e e e e e e e e e e e e e e e e e e e q & 9 * . . & 9 9 9 9 * % # ",
"# % & 7 9 9 q & + % e q , 8 8 8 0 0 0 w q e e e e e e e e e e e e e e e e e e e e e w 0 w q q q w 0 0 & q e 7 # $ 9 9 9 9 * % # ",
"# % & 7 9 e <.9 # q e 9 p o.#.o.k h h T $.$.$.#.E j j I %.&.&.-.#.Y I I W $.$.$.#.Y j h T $.$.$.o.k g , q e e % 7 ^ q 9 9 * % # ",
"# % & 7 * D F.C # q e 9 Y d.*.f 3 3 l p.d.d.s.R 3 : 5 X.s.d.d.=.f 3 1 f p.d.d.*.f 3 1 f =.d.d.p.f 1 : & q e e & r A.C 9 9 * % # ",
"# % & 7 * F F.A # q e 9 k O.6 1 3 m s.d.d.p.f 1 1 s @.s.s.s.O.6 : 1 b s.d.s.O.6 1 3 b a.s.s.+.6 1 3 v 0 q e e & B D.A 7 9 * % # ",
"# % & 7 * F F.A $ q e q 0 y t t s T T T T g y y y I E I E T y t t y T T T k y t t i T v k h y t t y T 0 q e e & A D.D * * & $ # ",
"# % & 7 7 G F.D $ q e 9 , 0 w w w e e e e e e e B e e e e e e e e e w q q w w e e w q w w 0 0 w e w 0 & q e e & A D.F u u u 0 # ",
"# % & 7 9 G F.D $ q e 7 7 e e e e e e e e e e e B e e e e e e e e e e e e e e e e e e e e e e e e B e & q e e & A D.:.S S S U 7 ",
"# % & 7 9 J F.G $ q w 8 9 e e e e e e B e e e B B B B B B B B B B B B e B B B B B B B B e 9 q q e e q & q e e & A F.~ 6 ..c 4 w ",
"# % & * 9 J F.G $ q w 0 D F H H C & q B e e e e e e e e e e e e e e e e e e e e e e e B w , 9 F F F F C e B e & D F.U d m N ; 0 ",
"# % & * 9 J F.G $ q w 0 e B C C e & e B B B B B B e e B B B B B B B e e B B B B B B B B w , * C Z Z Z C B B e & D F.! ..m M O 0 ",
"# % & * 9 K F.J % 9 e B B C B B e & e B B B B B B B B B B B B B B B B B B B B r B B B B e , & w B B B B B B e & D F.! @.n a o 0 ",
"# % & * 9 K F.K % 9 B B B B B B e & e B B B B B B B B B B B B B B B B B B B B B B B B B e , & B B B B B B B w % D F.~ b z x o w ",
"# % & * 9 K F.Q & q B B B B B B e & q B B B B B B B B B B B B B B B B B B B B B B B B B B 7 & e B B B B B B 0 % G F.3.p 4 2 u w ",
"# % & * 9 Q H.Q & q B B B B B B e & q B B B B B B B e e B B B B B B B B B r e e B B B B B 9 & B B B B B B B w % G F./ U U G S % ",
"# % & * 9 Q H.^ & q B B B B B B e & q B B B B B B B B B B B B B B B B B B B B B B B B B B 9 * B B B B B B B e & G F.:.A A V V 7 ",
"# % & * 9 ^ H./ & q B B B B B B e & 9 B B B B B B B B B B B B B B B B B B B B B B B B B B 9 * B B B B B B B e & G H.4.X     u S ",
"# % & * 9 ^ J.( & q B e 9 0 9 q q & 8 e B B B B B B B B B B B B B B B B B B B B B B B B B 9 & q 9 8 , 8 0 e e > J H.6.u 0 < U S ",
"# % & * 9 / K.:.& q B q $ $ $ $ $ $ 0 e B B B B B B B B B B B B B B B B B B B B B B B B B 9 % % $ $ $ $ 9 B e , K H.t.| r.} >.D ",
"# % & * 9 ( L.<., q B q 9 e e w 9 0 0 B B B B B B B B B B B B B B B B B B B B B B B B B B B r r B B e & q B B & Q J.t.] e.[  .S ",
"# % & * 9 ( P.<., q B q 9 B B B B B B B B B B B B B B B B B B B B B B B B B B B B B B B B B B B B B B * q B B & Q K.t.| e.[  .S ",
"# % & * 9 ( U.3., q B q 9 B B B B B e B B B B B B B B B B B B B B B B B B B B B B B B B B B e B B B B * e B e & Q L.u.` e.[  .D ",
"# % & * 9 ( U.5., q B 9 q B B B e 0 0 e B B B B B B B B B B B B B B B B B B B B B B B B e 8 9 q e e e = e B e & Q P.i.' r.} y.D ",
"# % & * 9 :.Y.5., e e 0 F H H H Z & 0 B B B B B B B B B B B B B B B B B B B B B B B B B e , 9 H H H H D B B B , ^ U.i._ { ) { A ",
"# % & * 9 :.R.5., e B B B B B B e & q B B B B B B B B B C C C B B B B B C C B B B B B B B , * B B B B B B B B , ^ Y.<.0 0 9 , % ",
"# % & * 9 :.R.5.7 e B B B B B B e & q B B B B B B B C C C C B B B B B C C C B B B B B B B 7 * B C B B B B B B , / Y.<.9 7 & $ # ",
"# % & * 9 :.R.5., e B B B B B B e & q B B B B B B B B B B C B B B B B B C C B B B B B B B 7 * B C C B B B B B , / Y.<.9 9 * % # ",
"# % & * 9 :.R.5., q C B B B B B e & e C B B B B B B B B B B B B B B B B B B B B B B B B w , * B B B B B B B B , / Y.<.9 9 * % # ",
"# % & * 9 :.R.5., q C C B B B B e & e C C C B B B B B B B B B B B B B B B B B B B B B B e , * B B B B B B B B , / Y.<.9 9 * % # ",
"# % & * 9 :.T.5., e B B e B B B e & e B B B B B B B B B B B B B B B B C B B B B C B B B B , * B B B B B B B B 7 ^ U.<.9 9 * % # ",
"# % & * 9 :.Y.5., e B w 0 e B B e & e B B B C C B B B B C B B B B B B B B B B B C B 0 w B 9 & 0 e B B B B B B , Q U.:.9 9 * % # ",
"# % & * 9 ( U.4., e B w > > > , & % e B B B B B C C B B B B B B B B C C B B B B B w 8 0 B 9 % & > , 7 9 B B B & Q P.:.9 9 * % # ",
"# % & * 9 ( I.1., e B 9 % & & & & 9 B B C B B B C C B B e e e B e B B B B B B B B 0 0 0 B q * & & & & % e C e & Q L.( 9 9 * % # ",
"# % & * 9 ( P.<., e B 0 9 B B B q 9 9 9 9 7 7 7 9 9 7 , , > > , > , , , , 7 9 9 9 7 7 9 9 9 9 e B B B * e B e & Q K.( 9 9 * % # ",
"# % & * 9 ( L.<., e B 9 9 B B q 9 C Z C C C C C Z Z C C Z Z C C C C Z Z C C C C C C C C C C q 9 B B B * e B B & K J./ 9 9 * % # ",
"# % & * 9 / K.( & e B q 9 B C e 9 C Z Z Z Z Z Z Z Z Z Z Z Z Z Z Z Z Z Z Z Z Z Z Z Z Z Z Z Z q 9 B B e & e B B & K H.^ 9 9 * % # ",
"# % & * 9 ^ J.( & q B e , 0 e e 7 e B B B B B B B B B B B B B B B e e e w w e e e w w w w e q 9 B B w & e B e & J H.^ 9 9 * % # ",
"# % & * 9 ^ H./ & , e e , , 0 e * * * * * * * * * * * * * * * * * & & & & & & & & & & & & & * 9 B B 0 & 9 e 0 & G F.Q 9 9 * % # ",
"# % & * 9 Q H.^ & , w q , 8 0 9 9 q e e e e e e e e e e e e e e q q q q q q e e e e e q q q q e B w 8 & , 0 8 & G F.K 9 9 * % # ",
"# % & * 9 Q G.Q , u E.E.E.E.E.E.E.E.E.E.E.E.E.E.E.E.E.E.E.E.E.E.E.E.E.E.E.E.E.E.E.E.E.E.E.E.E.E.E.E.E.E.E.E.E., G F.K 9 9 * % # ",
"# % & * 9 K F.K , E.E.E.E.E.E.E.E.E.E.E.E.E.E.E.E.E.E.E.E.E.E.E.E.E.E.E.E.E.E.E.E.E.E.E.E.E.E.E.E.E.E.E.E.E.E.0 G F.J 9 9 * % # ",
"+ % & * 9 K F.J , E.E.E.E.E.E.E.E.E.E.E.E.E.E.E.E.E.E.E.E.E.E.E.E.E.E.E.E.E.E.E.E.E.E.E.E.E.E.E.E.E.E.E.E.E.E.8 D D.J 9 9 * % # ",
". % & * 9 J F.G , E.E.E.E.E.E.E.E.E.E.E.E.E.E.E.E.E.E.E.E.E.E.E.E.E.E.E.E.E.E.E.E.E.E.E.E.E.E.E.E.E.E.E.E.E.E., D D.G 9 9 * % # ",
". $ & 7 9 J F.G , E.E.E.E.E.E.E.E.E.E.E.E.E.E.E.E.E.E.E.E.E.E.E.E.E.E.E.E.E.E.E.E.E.E.E.E.E.E.E.E.E.E.E.E.E.E., D D.G 9 9 * % # ",
". # & 7 9 J F.G , E.E.E.E.E.E.E.E.E.E.E.E.E.E.E.E.E.E.E.E.E.E.E.E.E.E.E.E.E.E.E.E.E.E.E.E.E.E.E.E.E.E.E.E.E.E., A S.F 9 9 * % # ",
". @ & 7 9 G F.D & E.E.E.E.E.E.E.E.E.E.E.E.E.E.E.E.E.E.E.E.E.E.E.E.E.E.E.E.E.E.E.E.E.E.E.E.E.E.E.E.E.E.E.E.E.E.& A S.D 9 9 * % # ",
". X $ 7 7 G F.D & E.E.E.E.E.E.E.E.E.E.E.E.E.E.E.E.E.E.E.E.E.E.E.E.E.E.E.E.E.E.E.E.E.E.E.E.E.E.E.E.E.E.E.E.E.E.% A S.A 7 9 * % # ",
". X $ , * D F.D & E.E.E.E.E.E.E.E.E.E.E.E.E.E.E.E.E.E.E.E.E.E.E.E.E.E.E.E.E.E.E.E.E.E.E.E.E.E.E.E.E.E.E.E.E.E.$ B S.V , 9 * % # ",
". X $ , * D F.A % E.E.E.E.E.E.E.E.E.E.E.E.E.E.E.E.E.E.E.E.E.E.E.E.E.E.E.E.E.E.E.E.E.E.E.E.E.E.E.E.E.E.E.E.E.E.$ r S.u > 7 * $ # ",
". X $ > % A F.A % E.E.E.E.E.E.E.E.E.E.E.E.E.E.E.E.E.E.E.E.E.E.E.E.E.E.E.E.E.E.E.E.E.E.E.E.E.E.E.E.E.E.E.E.E.E.$ r S.u > , & # . ",
". X $ > $ u F.B % E.E.E.E.E.E.E.E.E.E.E.E.E.E.E.E.E.E.E.E.E.E.E.E.E.E.E.E.E.E.E.E.E.E.E.E.E.E.E.E.E.E.E.E.E.E.$ r S.u > > $ @ . ",
". X $ > $ u A.e & E.E.E.E.E.E.E.E.E.E.E.E.E.E.E.E.E.E.E.E.E.E.E.E.E.E.E.E.E.E.E.E.E.E.E.E.E.E.E.E.E.E.E.E.E.E.# e A.w > > $ @ . ",
". X $ > > 0 ^ e ! E.E.E.E.E.E.E.E.E.E.E.E.E.E.E.E.E.E.E.E.E.E.E.E.E.E.E.E.E.E.E.E.E.E.E.E.E.E.E.E.E.E.E.E.E.E.E.9 Q , > > $ @ . "
};
