/* XPM */
static char *result[] = {
/* columns rows colors chars-per-pixel */
"64 64 6 1 ",
"  c #AE2334",
". c #FB6B1D",
"X c #F79617",
"o c #F9C22B",
"O c #FFF0C7",
"+ c None",
/* pixels */
"++++++++++++++  ++  ......  ++++++++++++++++++  ..    ++++++++++",
"++++++++++++++  ++  ......  ++++++++++++++++++  ..    ++++++++++",
"++++++++    ..XXXXOOoooo....  ++++++++++    ....XXXX....  ++++++",
"++++++++    ..XXXXOOoooo....  ++++++++++    ....XXXX....  ++++++",
"++++++  ..ooXXOOOOOOOOOOooXX    ++++++....XXooOOOOooXXXX..  ++++",
"++++++  ..ooXXOOOOOOOOOOooXX    ++++++....XXooOOOOooXXXX..  ++++",
"++++  ..XXXXOOOOOOOOOOOOOOOOXX      ....XXOOOOOOOOOOoooo....++++",
"++++  ..XXXXOOOOOOOOOOOOOOOOXX      ....XXOOOOOOOOOOoooo....++++",
"++++..XXooOOOOOOOOOOOOOOOOOOOO..  ..XXXXOOOOOOOOOOOOOOOOooXX  ++",
"++++..XXooOOOOOOOOOOOOOOOOOOOO..  ..XXXXOOOOOOOOOOOOOOOOooXX  ++",
"++  ..OOOOOOOOOOOOOOOOOOOOOOOOXX..XXooOOOOOOOOOOOOOOOOOOooXX  ++",
"++  ..OOOOOOOOOOOOOOOOOOOOOOOOXX..XXooOOOOOOOOOOOOOOOOOOooXX  ++",
"++..ooOOOOOOOOOOOOOOOOOOOOOOooooXXXXOOOOOOOOOOOOOOOOOOOOOOXX..  ",
"++..ooOOOOOOOOOOOOOOOOOOOOOOooooXXXXOOOOOOOOOOOOOOOOOOOOOOXX..  ",
"..ooOOOOOOOOOOOOOOOOOOOOOOOOoo..XXOOOOOOOOOOOOOOOOOOOOOOOOOO..  ",
"..ooOOOOOOOOOOOOOOOOOOOOOOOOoo..XXOOOOOOOOOOOOOOOOOOOOOOOOOO..  ",
"..ooooOOOOOOOOOOOOOOOOOOOOOOoo..XXOOOOOOOOOOOOOOOOOOOOOOOOOO..++",
"..ooooOOOOOOOOOOOOOOOOOOOOOOoo..XXOOOOOOOOOOOOOOOOOOOOOOOOOO..++",
"  ooOOOOOOOOOOOOOOOOOOOOOOOOoo    OOOOOOOOOOOOOOOOOOOOOOOOOO..  ",
"  ooOOOOOOOOOOOOOOOOOOOOOOOOoo    OOOOOOOOOOOOOOOOOOOOOOOOOO..  ",
"  ooOOOOOOOOOOOOOOOOOOOOOOXX  ..      OOOOOOOOOOOOOOOOOOOOoo  ++",
"  ooOOOOOOOOOOOOOOOOOOOOOOXX  ..      OOOOOOOOOOOOOOOOOOOOoo  ++",
"..XXOOOOOOOOOOOOOOOOXXXXXX  XXooOOOO..  OOOOOOOOOOOOOOOOOO..  ++",
"..XXOOOOOOOOOOOOOOOOXXXXXX  XXooOOOO..  OOOOOOOOOOOOOOOOOO..  ++",
"++..ooOOOOOOOOOOXX      OOXXooOOOOOOOO..  OOOOOOOOOOOOOOOO..  ++",
"++..ooOOOOOOOOOOXX      OOXXooOOOOOOOO..  OOOOOOOOOOOOOOOO..  ++",
"++..XXooOOOOOOXX  ......  XXOOOOOOOOOO..  ooOOOOOOOOOOOOoo  ++++",
"++..XXooOOOOOOXX  ......  XXOOOOOOOOOO..  ooOOOOOOOOOOOOoo  ++++",
"++  ..XXXXXXXXXX..XXoooo  XXOOOOOOOOOOOO..  OOOOOOOOOOXX..  ++++",
"++  ..XXXXXXXXXX..XXoooo  XXOOOOOOOOOOOO..  OOOOOOOOOOXX..  ++++",
"++++  ..XX      XXooOOOOoo  OOOOOOOOOOOOXX  OOOOOOOOOO....    ++",
"++++  ..XX      XXooOOOOoo  OOOOOOOOOOOOXX  OOOOOOOOOO....    ++",
"++++++  ........XXOOOOOO    OOOOOOOOOOOOXX    OOOOOO....XX..    ",
"++++++  ........XXOOOOOO    OOOOOOOOOOOOXX    OOOOOO....XX..    ",
"++++++..XXXXoo..OOOOOOOOOO  XXOOOOOOOOOOXX  OOOOXX  OOooooXX..  ",
"++++++..XXXXoo..OOOOOOOOOO  XXOOOOOOOOOOXX  OOOOXX  OOooooXX..  ",
"++++  ..ooOOOO..OOOOOOOOOO  XXOOOOOOOOOOXX        OOOOOOooOOXX..",
"++++  ..ooOOOO..OOOOOOOOOO  XXOOOOOOOOOOXX        OOOOOOooOOXX..",
"++++..ooOOOOOO  ooOOOOOOOOOO  ooOOOOOOoo..  OOOOOOOOOOOOOOOOXXoo",
"++++..ooOOOOOO  ooOOOOOOOOOO  ooOOOOOOoo..  OOOOOOOOOOOOOOOOXXoo",
"++  ooXXOOOOOO  ..OOOOOOOOOOOO  XXXXXX..  OOOOOOOOOOOOOOOOOOoooo",
"++  ooXXOOOOOO  ..OOOOOOOOOOOO  XXXXXX..  OOOOOOOOOOOOOOOOOOoooo",
"++..ooOOOOOOOOoo  ..OOOOOOOOOOOO  oo  OOOOOOOOOOOOOOOOOOOOOOoo..",
"++..ooOOOOOOOOoo  ..OOOOOOOOOOOO  oo  OOOOOOOOOOOOOOOOOOOOOOoo..",
"++..OOOOOOOOOOXX  ..OOOOOOOOOOOO    OOOOOOOOOOOOOOOOOOOOOOOOoo  ",
"++..OOOOOOOOOOXX  ..OOOOOOOOOOOO    OOOOOOOOOOOOOOOOOOOOOOOOoo  ",
"  XXOOOOOOOOOOOOOO  ooOOOOOOOOOO  ooOOOOOOOOOOOOOOOOOOOOOOOO..++",
"  XXOOOOOOOOOOOOOO  ooOOOOOOOOOO  ooOOOOOOOOOOOOOOOOOOOOOOOO..++",
"..XXOOOOOOOOOOOOOO    OOOOOOoo..ooOOOOOOOOOOOOOOOOOOOOOOOOoo..++",
"..XXOOOOOOOOOOOOOO    OOOOOOoo..ooOOOOOOOOOOOOOOOOOOOOOOOOoo..++",
"..XXOOOOOOOOOOOOOOOO  ..OOOOXX  ooOOOOOOOOOOOOOOOOOOOOOOOOoo  ++",
"..XXOOOOOOOOOOOOOOOO  ..OOOOXX  ooOOOOOOOOOOOOOOOOOOOOOOOOoo  ++",
"  XXOOOOOOOOOOOOOOOOOO    XX..  ooOOOOOOOOOOOOOOOOOOOOOOXX..  ++",
"  XXOOOOOOOOOOOOOOOOOO    XX..  ooOOOOOOOOOOOOOOOOOOOOOOXX..  ++",
"++..XXOOOOOOOOOOOOOOOOOOXX..  ooooOOOOOOOOOOOOOOOOOOOOoo....  ++",
"++..XXOOOOOOOOOOOOOOOOOOXX..  ooooOOOOOOOOOOOOOOOOOOOOoo....  ++",
"++++  XXOOOOOOOOOOOOOOXXXX  XXXXOOOOOOOOOOOOOOOOOOOOooXX..  ++++",
"++++  XXOOOOOOOOOOOOOOXXXX  XXXXOOOOOOOOOOOOOOOOOOOOooXX..  ++++",
"++++    ..OOOOOOOOOOXX..          ooooooooOOOOOOOOXXXX..  ++++++",
"++++    ..OOOOOOOOOOXX..          ooooooooOOOOOOOOXXXX..  ++++++",
"++++++++  ..OOOOOOoo..    ++  ++++      XXOOooXXXXXX    ++++++++",
"++++++++  ..OOOOOOoo..    ++  ++++      XXOOooXXXXXX    ++++++++",
"++++++++++    oo..  ++++++++++++++++++++++  ....  ++++++++++++++",
"++++++++++    oo..  ++++++++++++++++++++++  ....  ++++++++++++++"
};
