/* XPM */
static char *result[] = {
/* columns rows colors chars-per-pixel */
"64 64 10 1 ",
"  c #0E071B",
". c #1A1932",
"X c #2A2F4E",
"o c #424C6E",
"O c #FF0040",
"+ c #657392",
"@ c #E3A0BC",
"# c #F9E6CF",
"$ c #FDD2ED",
"% c None",
/* pixels */
"%%%%%%%%%%%%%%%%%%%%%%%%%%%%%%%%%%%%%%%%%%%%%%%%%%%%%%%%%%%%%%%%",
"%%%%%%%%%%%%%%%%%%%%%%%%%%%%%%%%%%%%%%%%%%%%%%%%%%%%%%%%%%%%%%%%",
"%%%%%%%%%%%%%%%%%%%%%%%%%%%%%%%%%%%%%%%%%%%%%%%%%%%%%%%%%%%%%%%%",
"%%%%%%%%%%%%%%%%%%%%%%%%%%%%%%%%%%%%%%%%%%%%%%%%%%%%%%%%%%%%%%%%",
"%%%%%%%%%%%%%%%%%%%%%%%%%%%%%%%%%%%%%%%%%%%%%%%%%%%%%%%%%%%%%%%%",
"%%%%%%%%%%%%%%%%%%%%%%%%%%%%%%%%%%%%%%%%%%%%%%%%%%%%%%%%%%%%%%%%",
"%%%%%%%%%%%%%%%%%%%%%%%%%%%%%%%%%%%%%%%%%%%%%%%%%%%%%%%%%%%%%%%%",
"%%%%%%%%%%%%%%%%%%%%%%%%%%%%%%%%%%%%%%%%%%%%%%%%%%%%%%%%%%%%%%%%",
"%%%%%%%%%%%%%%%%%%%%%%%%%%%%%%%%%%%%%%%%%%%%%%%%%%%%%%%%%%%%%%%%",
"%%%%%%%%%%%%%%%%%%%%%%%%%%%%%%%%%%%%%%%%%%%%%%%%%%%%%%%%%%%%%%%%",
"%%%%%%%%%%%%%%%%%%%%%%%%%%%%%%%%%%%%%%%%%%%%%%%%%%%%%%%%%%%%%%%%",
"%%%%%%%%%%%%%%%%%%%%%%%%%%%%%%%%%%%%%%%%%%%%%%%%%%%%%%%%%%%%%%%%",
"%%%%%%%%%%%%%%%%%%%%%%%%%%%%%%%%%%%%%%%%%%%%%%%%%%%%%%%%%%%%%%%%",
"%%%%%%%%%%%%%%%%%%%%%%%%%%%%%%%%%%%%%%%%%%%%%%%%%%%%%%%%%%%%%%%%",
"%%%%%%%%%%%%%%%%%%%%%%%%%%%%%%%%%%%%%%%%%%%%%%%%%%%%%%%%%%%%%%%%",
"%%%%%%%%%%%%%%%%%%%%%%%%%%%%%%%%%%%%%%%%%%%%%%%%%%%%%%%%%%%%%%%%",
"%%%%%%%%%%%%%%%%      %%%%%%%%%%%%%%%%%%%%      %%%%%%%%%%%%%%%%",
"%%%%%%%%%%%%%%%%      %%%%%%%%%%%%%%%%%%%%      %%%%%%%%%%%%%%%%",
"%%%%%%%%%%%%%%  XXXXXX  %%%%%%%%%%%%%%%%  XXXXXX  %%%%%%%%%%%%%%",
"%%%%%%%%%%%%%%  XXXXXX  %%%%%%%%%%%%%%%%  XXXXXX  %%%%%%%%%%%%%%",
"%%%%%%%%%%%%%%%%  @@@@XX  %%%%%%%%%%%%  XX@@@@  %%%%%%%%%%%%%%%%",
"%%%%%%%%%%%%%%%%  @@@@XX  %%%%%%%%%%%%  XX@@@@  %%%%%%%%%%%%%%%%",
"%%%%%%%%%%%%%%%%%%  @@XX                XX@@  %%%%%%%%%%%%%%%%%%",
"%%%%%%%%%%%%%%%%%%  @@XX                XX@@  %%%%%%%%%%%%%%%%%%",
"%%%%%%%%%%%%%%%%%%  @@@@XXXXXXXXXXXXXXXX@@@@  %%%%%%%%%%%%%%%%%%",
"%%%%%%%%%%%%%%%%%%  @@@@XXXXXXXXXXXXXXXX@@@@  %%%%%%%%%%%%%%%%%%",
"%%%%%%%%%%%%%%%%%%  $$@@..XXXXXXXXXXXX..@@$$  %%%%%%%%%%%%%%%%%%",
"%%%%%%%%%%%%%%%%%%  $$@@..XXXXXXXXXXXX..@@$$  %%%%%%%%%%%%%%%%%%",
"%%%%%%%%%%%%%%%%%%  $$@@..####XXXX####..@@$$  %%%%%%%%%%%%%%%%%%",
"%%%%%%%%%%%%%%%%%%  $$@@..####XXXX####..@@$$  %%%%%%%%%%%%%%%%%%",
"%%%%%%%%%%%%%%%%%%%%  $$..##OOXXXXOO##..$$  %%%%%%%%%%%%%%%%%%%%",
"%%%%%%%%%%%%%%%%%%%%  $$..##OOXXXXOO##..$$  %%%%%%%%%%%%%%%%%%%%",
"%%                      ....XXXXXXXX....                      %%",
"%%                      ....XXXXXXXX....                      %%",
"%%  XXXXXXXXXXXX........  ..##....##..  ........XXXXXXXXXXXX  %%",
"%%  XXXXXXXXXXXX........  ..##....##..  ........XXXXXXXXXXXX  %%",
"%%%%  ++++++++++++oooooooo            oooooooo++++++++++++  %%%%",
"%%%%  ++++++++++++oooooooo            oooooooo++++++++++++  %%%%",
"%%%%%%    ++++++++++      ............      ++++++++++    %%%%%%",
"%%%%%%    ++++++++++      ............      ++++++++++    %%%%%%",
"%%%%%%%%%%          %%%%  XX..    ..XX  %%%%          %%%%%%%%%%",
"%%%%%%%%%%          %%%%  XX..    ..XX  %%%%          %%%%%%%%%%",
"%%%%%%%%%%%%%%%%%%%%%%%%  ..  %%%%  ..  %%%%%%%%%%%%%%%%%%%%%%%%",
"%%%%%%%%%%%%%%%%%%%%%%%%  ..  %%%%  ..  %%%%%%%%%%%%%%%%%%%%%%%%",
"%%%%%%%%%%%%%%%%%%%%%%%%%%  %%%%%%%%  %%%%%%%%%%%%%%%%%%%%%%%%%%",
"%%%%%%%%%%%%%%%%%%%%%%%%%%  %%%%%%%%  %%%%%%%%%%%%%%%%%%%%%%%%%%",
"%%%%%%%%%%%%%%%%%%%%%%%%%%%%%%%%%%%%%%%%%%%%%%%%%%%%%%%%%%%%%%%%",
"%%%%%%%%%%%%%%%%%%%%%%%%%%%%%%%%%%%%%%%%%%%%%%%%%%%%%%%%%%%%%%%%",
"%%%%%%%%%%%%%%%%%%%%%%%%%%%%%%%%%%%%%%%%%%%%%%%%%%%%%%%%%%%%%%%%",
"%%%%%%%%%%%%%%%%%%%%%%%%%%%%%%%%%%%%%%%%%%%%%%%%%%%%%%%%%%%%%%%%",
"%%%%%%%%%%%%%%%%%%%%%%%%%%%%%%%%%%%%%%%%%%%%%%%%%%%%%%%%%%%%%%%%",
"%%%%%%%%%%%%%%%%%%%%%%%%%%%%%%%%%%%%%%%%%%%%%%%%%%%%%%%%%%%%%%%%",
"%%%%%%%%%%%%%%%%%%%%%%%%%%%%%%%%%%%%%%%%%%%%%%%%%%%%%%%%%%%%%%%%",
"%%%%%%%%%%%%%%%%%%%%%%%%%%%%%%%%%%%%%%%%%%%%%%%%%%%%%%%%%%%%%%%%",
"%%%%%%%%%%%%%%%%%%%%%%%%%%%%%%%%%%%%%%%%%%%%%%%%%%%%%%%%%%%%%%%%",
"%%%%%%%%%%%%%%%%%%%%%%%%%%%%%%%%%%%%%%%%%%%%%%%%%%%%%%%%%%%%%%%%",
"%%%%%%%%%%%%%%%%%%%%%%%%%%%%%%%%%%%%%%%%%%%%%%%%%%%%%%%%%%%%%%%%",
"%%%%%%%%%%%%%%%%%%%%%%%%%%%%%%%%%%%%%%%%%%%%%%%%%%%%%%%%%%%%%%%%",
"%%%%%%%%%%%%%%%%%%%%%%%%%%%%%%%%%%%%%%%%%%%%%%%%%%%%%%%%%%%%%%%%",
"%%%%%%%%%%%%%%%%%%%%%%%%%%%%%%%%%%%%%%%%%%%%%%%%%%%%%%%%%%%%%%%%",
"%%%%%%%%%%%%%%%%%%%%%%%%%%%%%%%%%%%%%%%%%%%%%%%%%%%%%%%%%%%%%%%%",
"%%%%%%%%%%%%%%%%%%%%%%%%%%%%%%%%%%%%%%%%%%%%%%%%%%%%%%%%%%%%%%%%",
"%%%%%%%%%%%%%%%%%%%%%%%%%%%%%%%%%%%%%%%%%%%%%%%%%%%%%%%%%%%%%%%%",
"%%%%%%%%%%%%%%%%%%%%%%%%%%%%%%%%%%%%%%%%%%%%%%%%%%%%%%%%%%%%%%%%"
};
