/* XPM */
static char *_c76a3920e8b4345b95c427637e081d5lDt4ZNJv1FkL3zpA[] = {
/* columns rows colors chars-per-pixel */
"64 64 100 2 ",
"   c None",
".  c #121724",
"X  c #131724",
"o  c #131824",
"O  c #131A25",
"+  c #161824",
"@  c #161924",
"#  c #171924",
"$  c #151C25",
"%  c #181924",
"&  c #181A24",
"*  c #1A1B24",
"=  c #1B1A25",
"-  c #1A1C24",
";  c #1B1C24",
":  c #1B1C25",
">  c #1C1D25",
",  c #1C1E25",
"<  c #1C1E26",
"1  c #151B28",
"2  c #171D29",
"3  c #1D1E28",
"4  c #1C1F28",
"5  c #1D1E29",
"6  c #1D1F29",
"7  c #1E202A",
"8  c #1E222E",
"9  c #623720",
"0  c #633821",
"q  c #663920",
"w  c #673A20",
"e  c #673A21",
"r  c #653C24",
"t  c #683A20",
"y  c #683A21",
"u  c #25562E",
"i  c #26582E",
"p  c #285732",
"a  c #2F5A32",
"s  c #447D31",
"d  c #536D73",
"f  c #577277",
"g  c #5D7474",
"h  c #597478",
"j  c #82492B",
"k  c #864A2A",
"l  c #874B2B",
"z  c #884B2B",
"x  c #874E30",
"c  c #8D5030",
"v  c #8E5030",
"b  c #8E5130",
"n  c #B5722B",
"m  c #B6722B",
"M  c #BD772B",
"N  c #BE772B",
"B  c #BF782C",
"V  c #BF792C",
"C  c #C5543B",
"Z  c #C6543B",
"A  c #CE573C",
"S  c #CF573C",
"D  c #C07A2E",
"F  c #448032",
"G  c #468132",
"H  c #468232",
"J  c #4F8536",
"K  c #D49740",
"L  c #D49840",
"P  c #DC9C40",
"I  c #DD9D41",
"U  c #DE9E41",
"Y  c #DE9F43",
"T  c #DEA043",
"R  c #E89D7C",
"E  c #E99D7C",
"W  c #E99D7D",
"Q  c #E99E7D",
"!  c #EC9E7C",
"~  c #ED9F7C",
"^  c #DEB96C",
"/  c #E7BF6E",
"(  c #E9A07D",
")  c #E8C170",
"_  c #7C9190",
"`  c #7E9591",
"'  c #7F9594",
"]  c #809696",
"[  c #819796",
"{  c #F3A381",
"}  c #F4A582",
"|  c #F3B98A",
" . c #F4B98B",
".. c #F6BE8B",
"X. c #FEBF8F",
"o. c #FEC08F",
"O. c #FEC090",
"+. c #FFC090",
"@. c #FFC190",
"#. c #F6EEEB",
/* pixels */
"                                                                                                                                ",
"                                                                                                                                ",
"                                            . . . . . . . . . . . . . . . .                                                     ",
"                                            . . . . . . . . . . . . . . . .                                                     ",
"                                    . . . . ^ ^ ^ ^ ^ ^ ^ ^ L L L L L L K K . . . .                                             ",
"                                    . . . . ^ ^ ^ ^ ^ ^ ^ ^ L L L L L L K K . . . .                                             ",
"                                . . ^ ^ ^ ^ 4 4 4 4 4 4 4 4 > > > > > > > > L L K K . .             . . . .                     ",
"                                . . ^ ^ ^ ^ 4 4 4 4 4 4 4 4 > > > > > > > > L L K K . .             . . . .                     ",
"                            . . ^ ^ 4 4 4 4 L L L L L L L L L L K K n n n n > > > > K K . .     . . K K . .                     ",
"                            . . ^ ^ 4 4 4 4 L L L L L L L L L L K K n n n n > > > > K K . .     . . K K . .                     ",
"                        . . ^ ^ 4 4 L L L L / / / / / / / / / / U U U U M M n n n n > > K K . . L L V V . .                     ",
"                        . . ^ ^ 4 4 L L L L / / / / / / / / / / U U U U M M n n n n > > K K . . L L V V . .                     ",
"                        . . ) ) . . U U / / T T T T T T T T T T U U U U U U M M M M . . V V . . V V M M . .                     ",
"                        . . ) ) . . U U / / T T T T T T T T T T U U U U U U M M M M . . V V . . V V M M . .                     ",
"                    . . ^ ^ 4 4 L L / / T T U U U U U U U U U U U U U U U U M M M M n n : : K K : : M M . .                     ",
"                    . . ^ ^ 4 4 L L / / T T U U U U U U U U U U U U U U U U M M M M n n : : K K : : M M . .                     ",
"                    . . ) ) . . U U ) ) U U U U U U U U U U U U U U U U V V M M M M M M . . V V . . M M . .                     ",
"                    . . ) ) . . U U ) ) U U U U U U U U U U U U U U U U V V M M M M M M . . V V . . M M . .                     ",
"                    . . ) ) . . U U ) ) U U U U U U U U U U U U V V V V M M M M M M * * . . * * . . * *                         ",
"                    . . ) ) . . U U ) ) U U U U U U U U U U U U V V V V M M M M M M * * . . * * . . * *                         ",
"                    . . ) ) o o U U ) ) U U U U U U U U V V V V M M * * * * * * : : ^ ^ ^ ^ ^ ^ ^ ^ K K . .                     ",
"                    . . ) ) o o U U ) ) U U U U U U U U V V V V M M * * * * * * : : ^ ^ ^ ^ ^ ^ ^ ^ K K . .                     ",
"                    . . T T o o U U T T U U U U V V V V * * * * : : ^ ^ ^ ^ ^ ^ L L D D D D D D D D V V . .                     ",
"                    . . T T o o U U T T U U U U V V V V * * * * : : ^ ^ ^ ^ ^ ^ L L D D D D D D D D V V . .                     ",
"                    . . / / o o U U U U U U > > * * : : ^ ^ ^ ^ L L D D D D D D V V * * * * * * * * * *                         ",
"                    . . / / o o U U U U U U > > * * : : ^ ^ ^ ^ L L D D D D D D V V * * * * * * * * * *                         ",
"                    o o U U o o U U > > > > ^ ^ ^ ^ L L D D D D V V * * * * * * : : W W W W . .                                 ",
"                    o o U U o o U U > > > > ^ ^ ^ ^ L L D D D D V V * * * * * * : : W W W W . .                                 ",
"                    o o U U . . > > ^ ^ L L D D D D V V * * * * : : W W W W . . . . 4 4 X.X.. . . .                             ",
"                    o o U U . . > > ^ ^ L L D D D D V V * * * * : : W W W W . . . . 4 4 X.X.. . . .                             ",
"                    . . > > L L L L D D V V * * * * : : 9 9 0 0 W W o.o.X.X. . . . . . .@.@.C C C C . .                         ",
"                    . . > > L L L L D D V V * * * * : : 9 9 0 0 W W o.o.X.X. . . . . . .@.@.C C C C . .                         ",
"                . . L L L L V V V V * * * * o o W W W W k k k k o.o.@.@.@.@.@.@.7 7 #.#.@.@.S S S S . .                         ",
"                . . L L L L V V V V * * * * o o W W W W k k k k o.o.@.@.@.@.@.@.7 7 #.#.@.@.S S S S . .                         ",
"                . . V V V V * * : : 9 9 9 9 o o o.o.X.X.z z z z @.@.@.@.@.@.@.@.. . 8 8 @.@.S S S S . .                         ",
"                . . V V V V * * : : 9 9 9 9 o o o.o.X.X.z z z z @.@.@.@.@.@.@.@.. . 8 8 @.@.S S S S . .                         ",
"                    * * * * . . 9 9 q q k k 9 9 4 4 4 4 y y z z v v v v @.@.@.@.| | j j v v S S S S . .                         ",
"                    * * * * . . 9 9 q q k k 9 9 4 4 4 4 y y z z v v v v @.@.@.@.| | j j v v S S S S . .                         ",
"                                # # k k z z q q W W W W q q y y y y z z v v v v v v z z q q * * * *                             ",
"                                # # k k z z q q W W W W q q y y y y z z v v v v v v z z q q * * * *                             ",
"                                    * * z z q q o.o.X.X.! ! q q q q y y y y y y y y q q # #                                     ",
"                                    * * z z q q o.o.X.X.! ! q q q q y y y y y y y y q q # #                                     ",
"                                        * * # # @.@.@.@.X.X.! ! # # # # # # # # # # # #                                         ",
"                                        * * # # @.@.@.@.X.X.! ! # # # # # # # # # # # #                                         ",
"                                                4 4 J J J J a a d d . .                                                         ",
"                                                4 4 J J J J a a d d . .                                                         ",
"                                            . . s s H H H H H H p p d d . .                                                     ",
"                                            . . s s H H H H H H p p d d . .                                                     ",
"                                            . . H H $ $ H H i i o o ' ' K K . .                                                 ",
"                                            . . H H $ $ H H i i o o ' ' K K . .                                                 ",
"                                            . . H H . . H H u u . . ] ] g g . .                                                 ",
"                                            . . H H . . H H u u . . ] ] g g . .                                                 ",
"                                            . . ` ` . . H H u u . . h h f f . .                                                 ",
"                                            . . ` ` . . H H u u . . h h f f . .                                                 ",
"                                            . . ] ] o o ....( ( . . f f f f . .                                                 ",
"                                            . . ] ] o o ....( ( . . f f f f . .                                                 ",
"                                                2 2 o o } } { { . . 1 1 1 1                                                     ",
"                                                2 2 o o } } { { . . 1 1 1 1                                                     ",
"                                                    . . 4 4 4 4 . .                                                             ",
"                                                    . . 4 4 4 4 . .                                                             ",
"                                                    . . _ _ d d . .                                                             ",
"                                                    . . _ _ d d . .                                                             ",
"                                                    . . x x r r . .                                                             ",
"                                                    . . x x r r . .                                                             "
};
