/* XPM */
static char *Layer_1_sprite_491735452229[] = {
/* columns rows colors chars-per-pixel */
"64 64 61 1 ",
"  c #303000",
". c #2C2C2C",
"X c #2C2D2C",
"o c gray22",
"O c #383938",
"+ c #383839",
"@ c #404000",
"# c #484800",
"$ c #585800",
"% c #585801",
"& c #686800",
"* c #707000",
"= c #004040",
"- c #005858",
"; c #005958",
": c #007070",
"> c #007170",
", c #007474",
"< c #007878",
"1 c #007979",
"2 c #007C7C",
"3 c #017C7C",
"4 c #007D7C",
"5 c #484848",
"6 c gray33",
"7 c #555454",
"8 c #7C7D7C",
"9 c #848000",
"0 c #949000",
"q c #9C9800",
"w c #980088",
"e c #980088",
"r c #980088",
"t c #980088",
"y c #008484",
"u c #008584",
"i c #008C8C",
"p c #018C8C",
"a c #009898",
"s c #019999",
"d c #00A4A4",
"f c #00A5A4",
"g c #20B0B0",
"h c #21B0B0",
"j c #21B1B0",
"k c #20B0B1",
"l c #20B1B1",
"z c #20B4B4",
"x c #21B4B4",
"c c #20B4B5",
"v c #48C0C0",
"b c #48C1C0",
"n c #48C0C1",
"m c #74C8C8",
"M c #75C9C8",
"N c #74C8C9",
"B c #A8A8A9",
"V c #9CDCDC",
"C c #9DDCDC",
"Z c #B8E8E8",
"A c #D8F4F4",
/* pixels */
"wwwwwwwwwwwwwwwwwwwwtwwwwwwwwwwwwwwwwwwwwtwwwwww++++oooooo+++ooo",
"wwwwwwwwwwwwwwwwwwwrwwewewwwwwwwwwwwrwwwwwwwwwwt+413<1<<<<1,<<<<",
"wwwwwwwwwwwwwwwwwwwwwwwwwwwtewwwwwwwwwwwwwwwtwww+jssi,:hiiiii,:h",
"wwwwwwwwwwwwwwwwwwwwwwwwwwwewwwtwwwwwwwwtwwwwrww+jjjh2=:hhhhh2=:",
"wwwwwwwwwwwwwwwwwwwwwwwwwwwwwwwwwwwwwwwwwwwwwwww+hggg,2ighhlh<2i",
"wwwwwwwwwwwwwwwwwwwwwwwwwtwwwwwwewwwwwwwwwwwwtwwohhhjy-----;--;-",
"wwwwwwwwwwwwwwwwwtwwwwwwwwwwwwwwwwwwrwwwwwwwwrwwohhhll2<::::::::",
"wwwwwwwwwwwwwwwwwwwwwwwwwwwwwwwwwwwwwwwwwwwrwwwwoayZlVhiiiiiiiii",
"wwwwwwwwwwwwwwwwwwwrwwwwwwrwwwwwwwwwwwwwwwwwwwwr+3:yjZvdffdddddd",
"wwwwwwwwwwwwwwwwwwwwwwwwwwwwwwwwwrwwwwwwwwwwwwrw+<3pgZNdffdddddd",
"wwwwwwwwwwwwwwwwwwwwwwwwwwwwwwwwwwwwwwwwwwwwwwwwoddggZmdfddddddd",
"wwwwwwwwwwwwwwwwwwwwwwwwwwwwwwwwwwwwwwwwwwwwewwwohgggZmdfddddddd",
"wwwwwwwwwwwwwwwwwwwwwwwwwwrwwwwwwwwwwwwwwwwwwwwwohhhgZNddddddddg",
"wwwwwwwwwwwwwwwwwwewwwwwwwwwwwwwwwwrwwwwwwwweewwohgggZmddddddjgg",
"wwwwwwwwwwwwwwwwwwwwwwwwwwwwwwwwwwwwwwwwwwwwwwwwohgggZNddddggggj",
"wwwwwwwwwwwwwwwwwwwwwwwwwwwwwwwwwwwwwwwwwwwwwwwwoayZgZNddgggjjgg",
"wwwwwwwwwwwwwwwwwwwwwwwwwwwwwrwwwwwwwwwwwwwwwwwwo3>ugZNgggggggzz",
"wwwwwwwwwwwwwwwwwwwwwwwwwwwwwwwwwwwwwwwwwwwwwwwwo,3pgZNhggggzzzz",
"wwwwwwwwwwwwwwwwwwwwrwwwwwwwwwwwwwwwwwwwwwwwwwww+dfjgZNjglzzzzzz",
"wwwwwwwwwwwwwwwwwwwwwwwwwwwrrwwwwwwwwwwwwwwwwwww+kkkgZNjzzzzzzzz",
"wwwwwwwwwwwwwwwwwwwwwwwwwwtwwwwwwwwwwwwwwwwwwwww+jgggZNzzzzzzzzv",
"wwwwwwwwwwwwwwwwwwwwwwwwwwwewwwwwwwwwwwwwwwwwwwwolgggZNzzzzzvzvz",
"wwwwwwwwwwwwwwwwwwwwwweewtwwwwwwwwwwwwwwwwwwwwwwoggggZNzzzzvzvzv",
"wwwwwwwwwwwwwwwrwwwwwtwwwwwwwwwwwwwwwwwwwwwwwwwwoauZgZmzzzvzvzvz",
"wwwwwwwwwwwwwwwwwwwewwwwwwwewwwwwwwwwwwwwwwwwwww+2:ylZmzzvzvzvzv",
"wwwwwwwwwwwwwrwwwwwwwwwwwwtwwewwwwwwwwwwwwwwwwww+11ihZmzvzvzvznz",
"wwwwwwwwwwwwwwwwrwwwwwwwtwwwwwwwwwwwwwwwwwwwwwww+ffhgZNbzvzvxnxn",
"wwwwwwwwwwwwwwwwwtwwwwwwwwwwwwwwwwwwwwwwwwwwwwwwojghlZNcvzvznjnB",
"wwwwwwwwwwwwwwwwtwwwwwwwwwwwwwwwwwwwwwwwwwwwwwwwogggxZNbzvzvxnj8",
"wwwwwwwwwwwwwwwwwwwwwewwwwwwwwwwwwwwwwwwwwwwwwwwogzzxZNxn*0qnj3X",
"wwwwwwwwwwwwwwwwwwwwwwwwwwwwwwwwwwwwwwwwwwwwwwww+zzzxZNv1@%qzf3X",
"wwwwwwwwwwwtwwwwwwwwwwwwwwwwwwwwwwwwwwwwwwwwwwwwosuZjZNu, %0Np3X",
"wrwrrwwwwwwwerwwwwwwwetwwwwwwwwwwwwwwwwwwwwwwwww+3>uzZjyp %0vp3X",
"wwwwwwwwwwwwwwtwwwwwwwwwwwwwwwwwwwwwwwwwwwwwwwww+23pvZsyV %0vp3X",
"wwwwwwtwwwwwwwwwwwwwwwwwwwwwwwwwwwwwwwwwwwwwwwww+ffnNNsyN %9vp3X",
"wwwwwwwtwwwwwwwwwwwwwwtwwwwwwwwwwwwwwwwwwwwwwwww+nMMVjayN %9vp3.",
"wtwwwwwwwwwwwwwwwwwwwwwewwwwwwwwwwwwwwwwwewwwwww+MMCCjayM %9vp3X",
"rwwwwwwwwwwwwwwwwwwwwwwwwwwwwwwwwwwwwwwwwrwwwwwwoNCCZjayn %*vp3.",
"wwwwwwwwwwwwwwwwwwwwwwwwwwwwwwwwwwwwwwwwwwwwwwwwoCZZZlsyn %&vp3.",
"ewwwwwtwwwwwwwwwwwwwwwwwwwwwwwwwwwwwwwwwwwwwwwww+mjZAlayn %&vp3.",
"twwrwwwwwwwwwwwwwwwwwwwwwwwwwwwwwwwwwwwwwwwwwwwwoj3zZlaup, #cp4X",
"rwwwwtwwwwwwewwwwwwwwwwwwwwwwwwwwwwwwwwwwwwwwwwwollNZjau<1uxcp3X",
"wwwwwwwwwwwwwewwwwwwwwwwwwwwwwwwwwrwwwwwwwwwwwwwoNNZVzsuyuxxxp3X",
"wwwwwwwwwwwwwwwwwwtwwwtwwtewwwwwwwwwwwwwwwwwwwwwoAZVVzsuplxllp3X",
"ewwwwwwwwwwwwwwwtwwwwwwwwwwwwwwwwwwwwwwwwwwwwwwwoZVVMxsszzzllp33",
"wwwwwwwwwwwtrwwwwwwwwtwwwwwwwwwwwwwwwwwwwwwwwrrwoVVNMlsjzzzllppp",
"wwwwwwwwwwwwwwwwwwwwwwwwwwwwwwwewwwwwwwwwwwwwwww+VNvnngzzzgggkll",
"wwwwwwwwwwwwwwwwwwwwwwwwwwwwwwwwwwwwwwwwwwwwwrww+ayZnZzzzggggkll",
"wwrwwwwwwwwwwwwwwwwwwwwwwwwwwtwwrrrrrrrrrrrrrrrro3>ubZvzgggggggd",
"wwwwwwwwwwwwwwwwwwwwwwwwwwwwwwwwrrrrrrrrrrrrrrrro,3pbZNjjjggggdg",
"wwwwwwwwwwwwwrwwwwwwwwwwwwwwwwwwrrrrrrrrrrrrrrrroffnbZMhgggggdgd",
"wwwewwwwwtwwrwwwwwwwwwwwwwwwwwwwrrrrrrrrrrrrrrrronnnjZmhggggdhdg",
"rwwwwwwwwwwwwwwwwwwwwwwwwwwwwwwwwwwwrrrrrrrrrrrronvzzZmhgggdgdgd",
"wwwwwwewwwwwwwwwwwwwwwwwwwwwwwwwwwwwrrrrrrrrrrrrOxzzzZNgggdgdgdg",
"wwwwwwwewwwwwwwwwwwwwwwwwwwwwwwwwwwwrrrrrrrrrrrrOzzzzZNggdgdgdgd",
"wwwwwwwwwwwwwwwwwwwwwwwwwwwwwwwwwwwwrrrrrrrrrrrroauZzZNgggdgdjdd",
"wrwwwwwwwwwwwwwwwwwwwwwwwwwwwwwwwwwwwwwwrrrrrrrro2:ycZmlgdhfhddd",
"wwwwwwwwwwwwwwwwwwwwwwwwwwwwwwwwwwwwwwwwrrrrrrrro<2igZmNNNNNNNNN",
"wwwwwwwwwwwwwwwwwwwwwwwwwwwwwwwwwwwwwwwwrrrrrrrroffhgZZZZZZZZZZZ",
"ewwwwwwwwwwwwwwwwwwwwwwwwwwwwwwwwwwwwwwwrrrrrrrrohggggghjjghhhdd",
"wwrwwwwtwwwwwwwwwwwwwwwwwwwwwwwwwwwwwwwwrrrrrrrrohgghayZggglhsyZ",
"wwwwwwwwwwwwwwwwwwwwwwwwwwwwwwwwwwwwwwwwrrrrrrrrohggh2:yggggh1:y",
"wwwwwwwwwwwwwwwwwwwwwwwwwwwwwwwwwwwwwwwwrrrrrrrr5gggl<2igglgh12i",
"wwwwwwwwwwwwwwwwwwwwwwwwwwwwwwwwwwwwwwwwrrrrrrrr7777667667677777"
};
