/* XPM */
static char *result[] = {
/* columns rows colors chars-per-pixel */
"64 64 183 2 ",
"   c black",
".  c #000001",
"X  c #303000",
"o  c #303100",
"O  c #303001",
"+  c #202020",
"@  c #2C2C2C",
"#  c #2D2C2C",
"$  c #2C2D2C",
"%  c #2D2D2C",
"&  c #2C2C2D",
"*  c #2D2C2D",
"=  c #2C2D2D",
"-  c gray22",
";  c #393838",
":  c #383938",
">  c #393938",
",  c #383839",
"<  c #393839",
"1  c #383939",
"2  c #393939",
"3  c #404000",
"4  c #484800",
"5  c #494900",
"6  c #585800",
"7  c #595800",
"8  c #585900",
"9  c #595801",
"0  c #686800",
"q  c #707000",
"w  c #717000",
"e  c #707001",
"r  c #004040",
"t  c #004140",
"y  c #004041",
"u  c #004141",
"i  c #005858",
"p  c #015858",
"a  c #005958",
"s  c #005859",
"d  c #015859",
"f  c #007070",
"g  c #017070",
"h  c #007071",
"j  c #017071",
"k  c #007171",
"l  c #007474",
"z  c #007574",
"x  c #007475",
"c  c #007878",
"v  c #017878",
"b  c #007978",
"n  c #007879",
"m  c #007979",
"M  c #017979",
"N  c #007C7C",
"B  c #017C7C",
"V  c #007D7C",
"C  c #017D7C",
"Z  c #007C7D",
"A  c #007D7D",
"S  c #484848",
"D  c gray33",
"F  c #555454",
"G  c #545554",
"H  c #555554",
"J  c #545455",
"K  c #646464",
"L  c #656464",
"P  c #646564",
"I  c #656564",
"U  c #646465",
"Y  c #656565",
"T  c gray44",
"R  c #717070",
"E  c #707170",
"W  c #717170",
"Q  c #707071",
"!  c #707171",
"~  c #7C7C7C",
"^  c #7D7C7C",
"/  c #7C7D7C",
"(  c #7D7C7D",
")  c #7C7D7D",
"_  c #848000",
"`  c #858000",
"'  c #848100",
"]  c #848101",
"[  c #949000",
"{  c #959000",
"}  c #949100",
"|  c #9C9800",
" . c #980088",
".. c #980088",
"X. c #980088",
"o. c #980088",
"O. c #980088",
"+. c #980088",
"@. c #980088",
"#. c #980088",
"$. c #008484",
"%. c #018484",
"&. c #008584",
"*. c #018584",
"=. c #008485",
"-. c #018485",
";. c #008585",
":. c #018585",
">. c #008C8C",
",. c #018C8C",
"<. c #008D8C",
"1. c #018D8C",
"2. c #008C8D",
"3. c #018C8D",
"4. c #008D8D",
"5. c #009898",
"6. c #019898",
"7. c #009998",
"8. c #019998",
"9. c #009899",
"0. c #019899",
"q. c #009999",
"w. c #00A4A4",
"e. c #01A4A4",
"r. c #00A5A4",
"t. c #00A4A5",
"y. c #01A4A5",
"u. c #00A5A5",
"i. c #20B0B0",
"p. c #21B0B0",
"a. c #20B1B0",
"s. c #21B1B0",
"d. c #20B0B1",
"f. c #21B0B1",
"g. c #20B1B1",
"h. c #21B1B1",
"j. c #20B4B4",
"k. c #21B4B4",
"l. c #20B5B4",
"z. c #21B5B4",
"x. c #20B4B5",
"c. c #21B4B5",
"v. c #20B5B5",
"b. c #21B5B5",
"n. c #48C0C0",
"m. c #49C0C0",
"M. c #48C1C0",
"N. c #49C1C0",
"B. c #48C0C1",
"V. c #49C0C1",
"C. c #48C1C1",
"Z. c #74C8C8",
"A. c #75C8C8",
"S. c #74C9C8",
"D. c #74C8C9",
"F. c #75C8C9",
"G. c #75C9C9",
"H. c gray55",
"J. c #8C8D8C",
"K. c #989898",
"L. c #989899",
"P. c gray66",
"I. c #A9A8A8",
"U. c #B4B4B4",
"Y. c #B5B5B4",
"T. c #9CDCDC",
"R. c #9DDCDC",
"E. c #9CDDDC",
"W. c #9CDCDD",
"Q. c #B8E8E8",
"!. c #B9E8E8",
"~. c #B8E9E8",
"^. c #B9E9E8",
"/. c #B8E8E9",
"(. c #B9E8E9",
"). c #B8E9E9",
"_. c #C0C0C0",
"`. c #C0C0C1",
"'. c #D0D0D0",
"]. c #D0D1D0",
"[. c #D0D0D1",
"{. c #D8F4F4",
"}. c #D9F4F4",
/* pixels */
"X.+...o.O.X.O.X. .O. .O. .X.X. . . . .X. .X.X. . .O. .X.: : ; : > , : ; ; - , - - - ; - , - - , - - ; - ; - - ; - - : - , - - , ",
" . .o. .X. . . .X. . . .X. . .X. . . . . ...X. . .X. . .- N c n v c c n n n v b c b n c c v v b c c b c c M v c m c c m n c m c ",
"X... . . .#. . .O. . . .O... . . ... . . ...O. .O.X... .- i.5.0.>.z f i.<.>.>.>.>.l k i.5.>.4.3.2.l h h.>.<.>.>.>.l k d.>.>.2.2.",
".. . . . . . .O. . .O. . . .X. ... .X.O. .o. . . . . . .; d.i.i.i.N r f i.i.d.a.i.N u f i.i.i.p.d.N y f i.i.i.p.i.A t g k.j.n.B.",
"O. .O.X. . .O. . . . .o. ..... .X. .X. . . . . . . . . ., i.i.i.g.c N >.i.i.i.d.i.n A 4.i.g.i.i.i.n N 2.a.s.i.d.i.c N >.j.m.S.T.",
" .O. . . . . . . .O. . . . . . . . . .o.X.X. . . . .O. .: p.i.p.p.$.i a i i i p i a i p i i s i d s i i p s a i a i a i p i p s ",
".. . .O. . .O. . . . . . . . . . . . . . . . . .o.O. ...- d.p.i.i.d.C v f g g h f f f f f f f k h f h f h f f f f f j f f f f f ",
"@..... . . . . . . . . . ...O. . .X. . . . ... . ... . .- 5.$.Q.i.T.i.>.<.<.>.4.>.>.>.>.>.>.>.>.,.>.4.>.<.3.>.>.,.>.>.>.>.,.,.<.",
" . . . . . . ... . . ..... . . .X. .X.O. . .X.o. . .O. ., N f $.i.!.B.w.w.w.w.w.w.w.w.w.w.w.w.r.t.w.w.t.i.i.i.i.x.l.j.j.j.n.j.n.",
"O.O. . . . ... .X. . . . ... . . . . .O. .X.O.X. . .X.X.- c B 2.i.Q.S.w.r.w.w.w.t.t.w.w.w.w.w.w.w.w.a.a.a.i.i.j.k.z.j.j.n.x.B.j.",
" . . . .O.O. . . . . . . . . . .O...O.X. . . . .O. .O.O.- w.w.i.i.Q.D.w.w.w.w.e.y.w.w.w.w.t.w.w.i.i.d.i.a.j.j.x.j.n.k.n.k.m.j.C.",
" . . . . . . . . . . .O. ..... . . . . . . . . . . ... .- i.i.i.s.Q.F.r.t.w.w.r.e.r.e.w.w.u.d.i.i.i.i.j.l.j.j.j.B.l.n.j.n.k.N.x.",
".. . . . . . . . . . . . . .O. .O... . . .O. ... . . .O.1 i.d.i.d.~.Z.w.w.w.t.w.w.w.t.i.i.g.f.p.i.k.j.j.j.n.k.M.j.n.j.M.j.n.j.n.",
"O.X. . . .O. ...X. .X. . ... . . . . . . . . . ... ... .- a.i.d.g.(.S.w.w.r.w.w.w.a.i.i.f.p.i.j.j.j.l.k.n.x.n.j.B.k.n.l.m.j.m.j.",
" . . .o.X. . .O. . . . . . .O. . . . . . ... ... . . .+.; i.i.p.i.Q.Z.t.w.r.w.i.i.p.p.a.i.x.j.j.j.j.j.N.x.n.j.n.j.n.k.n.v.n.j.j.",
"O..... . . . . . ... . . . . . . . . . . . . . . . . .X.- 5.$.Q.i./.Z.w.e.p.a.i.i.i.i.i.j.j.j.z.j.j.m.k.M.j.n.j.M.j.n.j.M.k.j.c.",
" ... . . .@...X...X. . . . . . . .X...O. .X. . . . ... .- N f *.i.(.Z.i.i.i.i.d.i.a.x.j.x.j.x.B.j.M.j.n.k.n.j.m.j.m.j.n.l.j.j.j.",
" . . .O. . . . .X... ... .X. ...X. . . . .X. . . . ... .2 c Z >.i./.D.i.i.i.p.i.l.j.l.l.j.j.n.j.B.k.n.j.m.x.n.x.n.j.n.j.x.j.j.a.",
" . .O. . . . . ...O. . . . . . . ..... ...O. . . . ... .- t.w.i.i.Q.Z.d.d.i.z.j.j.j.x.j.j.M.j.M.k.n.k.n.j.n.j.n.l.C.j.j.j.j.i.j.",
" ... . .O. .O. . . . . . . .X. . ...O. . .@. .X.X. . .O.: i.i.i.p.Q.D.i.j.x.j.l.k.j.j.j.n.v.n.j.n.j.n.j.B.j.n.x.M.j.z.j.z.i.l.i.",
"X. .O. . . .O.X.X. ... . . . . . .......O. . . . . . . .- a.i.p.i.!.G.l.x.z.j.x.j.j.j.n.j.n.j.n.x.V.x.n.j.N.j.n.l.M.j.j.i.j.i.p.",
"X. . . .@. . ... .X. .O. . . . . .O.O. . .O. . .o. . .X.; p.i.i.i.).D.k.j.l.j.j.n.j.M.j.n.j.n.l.n.j.n.j.n.j.n.j.n.l.j.i.j.i.f.i.",
".. . . .+. . . . . . . ... . .O. . . . . . . .O. ... . .- i.f.f.d.Q.Z.l.j.v.j.n.j.n.j.n.j.B.k.m.j.n.j.n.j.n.x.n.j.k.i.j.i.i.a.w.",
" ... .X. . .+.O.#. ... . . .+. .o. .X. .O. . . . . . .X.- 7.:.Q.d.!.Z.j.j.x.n.b.B.j.n.j.n.j.M.j.n.j.n.k.n.j.n.k.x.p.j.i.i.d.w.i.",
"O.X. . .O. . . ... . . .X. . . . . . . ... ... . .O... .; Z f $.s./.D.j.v.B.j.N.x.n.k.n.j.n.k.m.j.n.j.n.x.M.j.x.i.c.a.d.i.w.a.w.",
" .O.O. . . . . . . . . . . . . . ... .X. .o. . . . . . ., c V <.d.~.Z.k.M.j.B.j.n.j.n.j.n.j.B.j.N.j.n.j.n.l.j.i.j.i.i.d.w.i.t.e.",
"X. . .@. . . ... . . .o. . ... .O. . . . .O. .o. . .....- t.w.f.i.Q.Z.M.l.n.j.N.v.M.j.n.j.m.x.n.j.n.j.n.x.j.i.j.i.i.i.i.a.w.w.e.",
"O. ... ... . . . . ...O. . . . . . .O. . .X. .O. .X.@.X.- d.a.i.i.Q.Z.j.n.j.n.l.n.k.C.P.'.[.[.'.].[.'.`._.i.x.i.p.i.i.a.w.w.w.w.",
" . ....... . .X. . . ... . . .O.@. .X.O. . . . . . . . .- i.a.j.j.^.Z.M.k.M.j.n.j.B.i.~ L T T ) ~ H.K.P._.j.i.i.i.i.d.w.w.t.w.w.",
".. . . . . .X. . . ... . . . . .O. . ... ... . . .O. . ., i.j.j.j.!.Z.j.n.q { | n.i.N @ L - P.T / D '.K.Y.p.i.g.i.i.w.w.w.r.w.5.",
"O..... . . . . . .O.O. .O. . . . . . . . . . . . . . . .- j.j.j.x.Q.Z.n.c 3 9 | x.e.N @ K Y K Q ! ( ~ J.U.p.i.i.i.e.i.e.w.r.5.r.",
" ..... . . . . . . . .X. . . . .@.X. ... . . . . . . . .- 5.$.Q.j.Q.A.=.l X 7 [ Z.3.N @ P K K K Q W ~ ~ U.i.a.i.w.i.t.e.w.w.w.6.",
" .O. . . . . . . . .O.X. .O. . . ...X. . . ... . . .O. .- N h %.j.~.g.$.>.o 8 { n.>.B @ K K U K U E T ^ P.i.i.u.i.r.r.w.w.w.5.7.",
" .O.O. . . ... . . . . . . . .O. . .X. . . . .X. . . . .- b V <.n.Q.5.=.T.X 6 } m.>.N @ D S 6 _ _ | W R P.i.w.i.r.e.w.w.w.9.5.5.",
" .O. . ... ... . . . . . . . .X.@. . ...O... .X. . . . .- w.w.M.Z.Z.5.=.D.X 8 ' B.2.V & S @ 5     _ K E P.w.i.w.t.w.t.w.9.u.5.5.",
" . . .X. . . .X. . .+. . ... . .O.#. . . . . .O. . . ...: n.Z.S.T.j.6.%.Z.O 7 ` m.>.N @ - @ 4   . ' K L P.a.w.e.w.t.u.5.w.5.9.,.",
"O. . . ..... . .O.X. ... . . . ... .O. . . . . . .O. . ., Z.D.T.T.i.5.$.Z.O 6 ` n.<.C $ @ & 3 @ @ ] K K P.t.w.w.r.r.5.r.6.9.5.5.",
" . .X. .X. . . .X. . . .X.X. . . . . . . .X.X. . . . . .- Z.R.T.Q.i.5.$.n.X 6 w B.2.N # @ = 3 3 4 7 I P I.w.t.e.w.5.w.7.5.5.7.>.",
"O. .O. . .O. .@. .O.X. . .X. . ... . . . . .X. . .X. ...: R.Q.Q.Q.i.7.&.n.X 6 e n.>.N @ @ @ $ @ & # U L K.r.w.w.5.r.7.5.7.9.3.5.",
"..O. . . . . .X. . . . . . . . . . . . . . . . . . . .O.; A.j.Q.}.d.5.$.B.X 6 0 n.>.N @ @ & @ @ & S K K L.w.w.5.w.6.7.5.9.3.7.>.",
" . .O....... ... . . . ...O...o. ... . . ... .O. . . . ., i.V j.Q.i.5.&.>.x X 4 x.,.Z @ - , S S D K K K K.w.w.e.5.q.9.5.<.5.4.>.",
" . . . .O. . . . .O.o. . .O. .X. . ... . . . . ... . . ., i.a.Z.~.j.0.&.c c %.c.l.>.V & : + T D K # J.K H.t.w.5.w.5.5.<.5.>.>.<.",
"O... ... . .O. . .O. . . . . .X. .X. .O. . . .O. . .O. ., Z.Z.~.W.j.5.$.$.&.j.j.l.>.B # * - D D H U K L H.w.5.w.5.5.>.6.<.5.<.>.",
" . .O. . . .+.O. . . . . . . . .X... . . . . . . . . . .- {.Q.T.T.j.5.%.,.j.j.x.i.>.N @ $ @ & & @ @ @ % K q.w.5.5.5.5.>.5.>.,.-.",
" . ... . . . . .X. .O. .O. . . . . .X. . .X. . .o..... ., Q.T.T.Z.k.7.5.x.j.j.j.i.>.N Z N N N N V Z Z B 5.r.0.7.5.5.>.5.>.,.>.<.",
" .O. . . .X. ... . . . . .O. . . .X. . . . . . . . . . .; T.E.S.Z.x.5.x.j.j.j.i.i.2.2.>.>.>.<.>.>.>.2.r.w.5.5.8.7.<.5.>.>.>.>.$.",
" .X. . . . . . . . . . . . .X. ...O. ...O. .O... . . . ., E.A.n.m.m.i.j.j.j.a.p.a.d.i.i.i.t.i.w.t.w.t.r.6.7.9.6.2.5.<.>.>.>.$.>.",
" . . . . . .O.X. . . . .@. . . .X. . . . . . ... .X. .O.- 5.$.Q.n.).j.j.j.i.s.p.p.p.i.i.w.d.w.w.w.w.w.9.5.5.5.2.7.>.>.<.2.$.>.$.",
"O. . . . ... . . . . . . ...X.O... . .O. . . . . . . ...; V f &.V./.B.j.i.i.f.i.i.a.i.w.i.w.e.e.w.w.6.q.5.5.>.5.>.1.>.>.$.>.&.2.",
" . . ... .X. . . . ... . . .X... . ...O.@.X. . . . . . .: c B >.M.Q.Z.i.p.i.p.p.p.i.w.a.w.i.w.e.w.5.w.7.5.3.5.>.5.>.2.$.>.$.>.$.",
" . . . . ... . . . . . . . . . . . . . . . .X. . . . . .- t.w.n.B.Q.S.a.d.i.d.i.d.w.i.w.i.w.e.w.5.e.5.5.>.5.<.5.<.3.<.>.$.2.$.>.",
"X. .X. .O. . .X. . . .O. . . . . .O. . . . . . . . .O. .< n.n.B.j.Q.Z.i.i.i.p.i.w.i.w.p.r.w.w.5.w.5.5.5.5.,.7.,.1.>.>.$.>.$.,.%.",
" .o. .X. . .X... . . . . . ... . . .X. . ..... . . . . .- m.n.j.j.Q.A.i.i.d.i.w.p.e.p.w.w.w.5.w.5.5.5.5.2.5.<.>.>.>.$.<.$.>.$.>.",
" . . . . . .O. . . . . .O. .O.o.X. . . . . . . ... . . .- j.j.j.j.Q.Z.i.i.i.w.p.t.i.r.p.w.9.w.5.5.5.7.>.9.>.<.,.>.%.,.=.>.$.<.$.",
" .O. . . ...X. . .o.O. . .O. . . . . . .O.O. .O. . .O...- j.j.j.j.Q.Z.i.i.r.a.w.i.w.i.w.t.w.7.5.5.7.,.5.>.<.>.2.$.>.$.<.&.>.$.>.",
"X. . . . . . . . ..... . . .O...O. . .O. . .O. . . .O.X., 5.$.Q.j.Q.Z.a.i.d.w.a.w.i.w.w.w.7.5.7.5.<.5.2.>.>.>.;.>.>.>.$.2.$.3.$.",
" . ... .O. ... . .X. . . ..... .X. . .X. . . . . .X. . .- N f $.l.Q.Z.d.i.w.a.y.i.u.y.w.5.5.7.9.>.5.<.>.1.>.,.4.,.>.$.>.$.4.$.>.",
" . .X. . . . ... . . . . ...O. .O. . . . . . . . . . . ., v N >.i.!.D.F.Z.D.D.A.Z.Z.Z.Z.Z.A.A.Z.A.A.Z.Z.n.M.n.x.l.d.r.w.w.w.i.l.",
"o. ... . . . . . . . . . .O. . . . .X.O... . . . ... . .- w.w.i.i./.Q.~.Q.Q.!.^.Q.Q.Q.^.Q.Q.Q.!.Q.Q.Q.Q.T.R.T.T.F.S.n.n.n.S.Z.T.",
" . . . . ...X. . . . . . ... . . .O. .O. . . . . . . .O.- i.a.i.d.i.a.i.a.i.i.p.s.i.w.w.w.w.5.5.7.9.5.6.5.9.>.$.$.B Z N V N &.>.",
" .O. ... . . .X. . .O. . . . . . . . . .O.X. . . .@. . .- i.a.g.i.0.$.Q.i.i.i.a.i.9.$.Q.r.7.5.5.9.9.h x.5.>.$.&.N c f 5.N N $.,.",
"O. . . . . . . . . .O. . .X. . .X. . .X. . . . . . . . .- i.i.i.i.N f =.i.i.p.i.i.V h $.5.q.5.5.5.V r g >.$.=.V N h r i N &.$.>.",
"X. . . .O. . . . . .O. . . . .O.O. . . . . .+. . .O. ...S i.i.i.g.n Z 2.d.i.i.i.i.n B >.5.5.5.5.5.b N 1.>.$.$.N N f f c $.$.>.5.",
"O. . . . . . .O. . . . . .X. . . .X.#. . . . .X. ... . .F D D D G D G F J D F D G J G D F F J G D D D G D H F D D D F D D D G D "
};
