/* XPM */
static char *xpm_[] = {
/* columns rows colors chars-per-pixel */
"64 64 126 2 ",
"   c black",
".  c #303000",
"X  c #313000",
"o  c #303001",
"O  c #202020",
"+  c #2C2C2C",
"@  c #2D2C2C",
"#  c #2C2D2C",
"$  c #2D2D2C",
"%  c #2D2D2D",
"&  c gray22",
"*  c #383938",
"=  c #393938",
"-  c #383839",
";  c #404000",
":  c #484900",
">  c #484801",
",  c #585800",
"<  c #595800",
"1  c #585900",
"2  c #686800",
"3  c #707000",
"4  c #717100",
"5  c #004040",
"6  c #014040",
"7  c #004041",
"8  c #015858",
"9  c #005958",
"0  c #005859",
"q  c #005959",
"w  c #007070",
"e  c #017070",
"r  c #007170",
"t  c #007474",
"y  c #007574",
"u  c #007878",
"i  c #017978",
"p  c #017879",
"a  c #007C7C",
"s  c #017D7C",
"d  c #484848",
"f  c #484849",
"g  c gray33",
"h  c #555454",
"j  c #545455",
"k  c #545555",
"l  c #646464",
"z  c #656464",
"x  c #646564",
"c  c #646565",
"v  c gray44",
"b  c #717170",
"n  c #707071",
"m  c #7C7C7C",
"M  c #7C7D7C",
"N  c #7D7C7D",
"B  c #848000",
"V  c #848001",
"C  c #858101",
"Z  c #949000",
"A  c #949001",
"S  c #9C9800",
"D  c #980088",
"F  c #980088",
"G  c #980088",
"H  c #980088",
"J  c #980088",
"K  c #008484",
"L  c #018484",
"P  c #018485",
"I  c #008585",
"U  c #008C8C",
"Y  c #018C8C",
"T  c #018D8C",
"R  c #018C8D",
"E  c #018D8D",
"W  c #009898",
"Q  c #009998",
"!  c #019998",
"~  c #009899",
"^  c #019899",
"/  c #00A4A4",
"(  c #00A4A5",
")  c #01A4A5",
"_  c #20B0B0",
"`  c #21B1B0",
"'  c #20B0B1",
"]  c #21B0B1",
"[  c #20B4B4",
"{  c #21B4B4",
"}  c #20B5B4",
"|  c #20B4B5",
" . c #20B5B5",
".. c #48C0C0",
"X. c #49C0C0",
"o. c #49C1C0",
"O. c #48C0C1",
"+. c #49C0C1",
"@. c #48C1C1",
"#. c #74C8C8",
"$. c #75C9C8",
"%. c #74C8C9",
"&. c gray55",
"*. c #8D8D8C",
"=. c #989898",
"-. c #989998",
";. c gray66",
":. c #A9A8A8",
">. c #A8A9A8",
",. c #B4B4B4",
"<. c #9CDCDC",
"1. c #9DDCDC",
"2. c #9CDDDC",
"3. c #9DDDDC",
"4. c #9CDCDD",
"5. c #9DDCDD",
"6. c #B8E8E8",
"7. c #B9E8E9",
"8. c #B9E9E9",
"9. c #C0C0C0",
"0. c #C1C1C0",
"q. c #D0D0D0",
"w. c #D0D1D0",
"e. c #D0D0D1",
"r. c #D8F4F4",
"t. c #D9F4F4",
/* pixels */
"J J D J F F J D D J D D D D D F D D D & & & = = = & & & & & & & & & = & & = & - & & & & & & = = = & & & = & & & & & = = - = & & ",
"J J D D F F J D D D D J D D F F J J D & a i p p p p i i p p p i i i p i t i i p p p i i p i i t p p p p p p i p i i i i t i p p ",
"D D D D F F D J D D D D F F F F D D J & ' ! ! U t e _ U U U U U y w ` Q U U U U t e ` U U U U U t w ' U U U U U t e ' U U U U U ",
"D D D D D D D J J D D D F F F F J J J & _ _ _ _ a 5 e _ ' ' ' ' i 7 w ` ' ' ` ` a 5 e ' ' ` ' ' a 5 e { { ....` a 5 e O.....' ' ",
"D D J D D D F J F F F F F J D D D D J & _ _ ' _ i a U ` ' ' ` ' p a U ' ' ` ` ' p a U ` ' ' ` ` i a U ' ..%.<.` a a U ....' ' ' ",
"D D D D D D F F F F F F F J D D D D D & _ _ _ _ K 9 9 9 9 9 9 9 9 0 9 9 9 9 0 9 9 9 9 0 0 0 9 9 9 9 9 9 9 9 0 9 0 0 0 9 9 9 9 9 ",
"D D D D D F F F F F F F F D D D D D D & _ _ _ _ ` a p w w w w w e e e e e e w e e e e e e e e e e e e e e e e e w e e e e e e e ",
"D D D D F F F F F F F F F D D D D D D & W K 6._ <.` U U U U U U U U U U U U U U U U U U U U U U U U U U U U U U U U U U U U U U ",
"F F F F F F F F F F F F F F F F F F F & a e K ' 6.X./ / / / / / ) ) ) ) / / / / / / ) _ ` ' ' {  . . . ...[ ..[ ..' .. .[ {  .' ",
"F F F F F F F F F F F F F F J J F F F & a a U _ 8.$./ ) / ) / ) ) ) ) ) / ) ) / / _ _ _ _ _  .{ { { ' @. ...[ ..{ ..[ [ {  .' ' ",
"F F F F F F F F F F F F D D J J F F J & ) ) ' _ 6.$./ / / / / / ) / ) ) / / ) _ _ _ _ _  . . ._ ..{ @. ...' @.[ O.} } [  ._ ' ' ",
"F F F F F F F F F F F F D D J J F F F & ' ' _ _ 6.$./ / ) / / / ) / / / ) _ _ _ _ _ { {  . . ...{ ..{ ..{ .. .@.} } { { _ _ _ ) ",
"F F F F F F F F D D D D D D D D J F F & _ _ _ _ 8.#./ ) / / / / / / _ { _ _ ` _ { { { } @.} .. ...{ @. ...{ @. .} } } _ _ _ ) _ ",
"F F J J F F F F D D J D D D D D J F F & _ _ _ _ 6.$./ / / ) / / _ _ _ _ _ _ }  .{ { { X.} @.} @.{ .. .@.{ .. . .} } ` _ _ ) _ / ",
"F F F F D F D D D J D D D D D J F F J = _ _ _ _ 8.#./ ) ) ) _ _ _ _ _ _ { } `  .} { O._ O.{ X.} .. ... ...' { } } ` _ _ / _ / / ",
"F J F F D D J D J J J J D D D D F F F = ! I 6._ 6.#./ / _ _ _ ' _ _ _ { { {  .{ } O.{ o.} O.} .._ ..} ..[ { { { ' ` _ / _ ) / ) ",
"F F F F F F J F F J F F F F F F F J D * a e I _ 6.#.' _ _ _ ' ' ' } } }  .{ @.{ .. .@. ...[ ..{ @. .@._  . . .' ' _ _ _ / / / / ",
"F F F F F F F J F J J F F F F J F F J - i a U _ 8.#.' ' _ _ ' [ } ' } }  .@. ...{ .. ...[ ..[ .. .@. . . .{ ' { _ _ _ ) / / / ) ",
"F F F F F F F F F F F J F F F F J F F - ) ) _ _ 6.#.' ' _  . .[ | | } } ..' ..' ..{ ..{ ..{ ..{ @. . . .{ ' ` _ _ _ ) / / / / ! ",
"F F F F F F F F F F F F F F F F F F F - _ _ _ _ 8.#.' [ `  . . .} } } O.{ .. .@. ...{ ..` O.{ .. . ._  .` } ` _ _ ) ) ) / / ! / ",
"F F J F F F J J J J J F F F F F D D J & _ _ _ _ 6.#.{ [ { [ [  .| | O.} ..{ @. .@.[ O.[ ..{ O.} ..' } ' } ' _ _ / ) / / ) ! / ! ",
"F F J F F F F J J H J F F F F F D J J & _ _ _ _ 8.#. . .{ [ [ ..` +.} O.' ..{ @.[ ..[ O.{ ..} O.{ { _  .' ' _ ) _ / / / ! / ! ! ",
"F F F J F F F F H H H F F F F F D D J & _ _ _ _ 6.#. . . .[ ..{ O.} +.} O. ...{ ..{ O.[ O.} O.} { _ } _ ' _ ) _ / ) / / ) Q ! ! ",
"J F J F F J F F H H H F F F F F J D J & ! I 8._ 6.#. .{ { ..{ ..} O.} O. .O.{ ..{ ..{ O.} O.} ` ' ` ` _ _ ) _ ) / / ) ) W Q ! ! ",
"F F F F F F F H J J F F F F F F D D D & a w I ' 8.#.' ` O.} O.} ..{ ..[ ..[ ..[ ..' @.} O.} { ' } ` ` _ / _ ) / / / / ! ! W W U ",
"J F F F F F F F F J F F F F J F D D J & i a U ` 6.#. .@.} O.} O. .@.[ ..[ ..' .. .@.` @.} } { } ` ` ` / _ ) / / / ) ! ! ! W U Q ",
"F F F J F F F F F J J F J F F F D D D & ) ) ` ` 6.%.@. .O.} O.} ..[ ..[ @. ...{ @.{ ..{ } ' { ' ' ' _ _ ) ) / / ) ! ) ! W U Q U ",
"J F F F F F F F F F F F F F F F D D D & ` ` ` ` 8.%. .@.{ ..} @.{ @.;.e.q.q.q.q.q.q.9.0.' ' ' ' _ _ _ / / / / ) ! / ! ! U Q U U ",
"J F F F J F F F F F F F F F J F D D D & _ _ { } 6.#...{ ..{ @.` @._ m l n n M M &.=.:.0.} _ _ _ _ _ ) / ) / / ! ) W W W Q U U U ",
"F F F F J F F F F F F F F F F F D D J & _ { } } 8.#.{ X.3 Z S .._ i + l - >.n M h q.=.,.` _ _ _ _ ) / ) ) ) ! / W W ^ W U Q U U ",
"F F F J F F F F J F F F F F F F D D D & { _ { } 6.#...i ; , S { ) a + l l c n n N m *.,.` ` _ _ / _ ) / ) Q ) W W W W U ^ U U I ",
"F F F F F F J F F F F J F F F F D D D & ! I 8.} 8.#.K y . , Z %.U a + l l c c n b m m ,.' ' _ / _ ) ) / ) ) W W W W U W U U K U ",
"D D D D D D J D D D D D D D D J D D D & a e I { 7.` I U X , Z o.U a + c c c l l v v N ;.` ' / _ / / / / ) W W W W U Q U U P U P ",
"D D D J D D D D D D D D D D D D D D D & p a U ..8.Q K <.X < Z O.U a % g d , V V S b v :._ ) _ ) / / / ) W W W W U W U U U U I U ",
"D J D D D D D D J D D J D D J D D D D & ) ) X.#.%.Q I $.X < V O.U a % f % :     V x b :./ _ ) / ) / / ! ) Q W U ^ U U U U K U I ",
"D D D D D D D D D J D D D D J J D D J & O.$.%.5.' W I $.. , V O.U a % = + :     V x x >._ / / / ) / ! ) ^ W U W U W U U K U I U ",
"D D D D D D D D D D D D F F F F D D D & #.#.3.3._ ! I #.. , V O.U a % $ @ ; # # V c x :.) ) / / / ! ) Q Q W W U Q U U I U K U I ",
"D J D J D D D D D D D D F F F F D D D & #.3.3.6._ ! I X.. , 3 O.U a # $ @ ; . > , x x :./ ) / ) ! / W W W Q U Q U U K U I U K U ",
"D J D D D D D D D D D D F F F F D D D & 3.8.8.8.' W I X.. , 3 ..U a $ $ $ @ % % + l x =./ ) / W ) ! ! W W U W U U K U I U P U P ",
"D D J D J D J D D D D D F F F F D D J & #._ 7.t._ ! I X.. , 2 ..U a $ $ $ @ @ @ d c x =.) ) W / ! ! ! W U W U U U U I U P U P U ",
"D D D D D D D G D D D J D D F F D D J & _ a { 6.' Q I U t . > } U a % = - d d k c c x -.) / / ! W ! ! U ! U U U U I U I U I U K ",
"D D D J D D G G D J D D D D F F D D D & _ _ $.6.' W I p i I { { U a % = O b k c % &.x &.) ) ! / W W U W U U U U K U P U I U I U ",
"D D D D F F F F D D D D J D D D D D D & #.#.6.3.} Q I I K { [ { U a % @ & h h h l l x *.) W ) W W U ! U ! U U P U K U P U K U U ",
"D D D D F F F F D D J J D D D D D J J & r.8.3.3.{ Q I U { { [ ' U a @ @ @ @ @ @ + + + l W ) W Q Q W U ! U U P U K U P U I U K U ",
"F J F F F F F F J D D D F F F F D D J & 6.3.2.%.{ W W { } } { _ U a a a a a a a i a a ! / ! W Q W U W U U U U I U K U I U K U U ",
"J F F F F F F F D D D D F F F F D D D * 3.2.#.#.{ W ' { } { _ _ U U U U U U U U U U / ) ! ! W W U Q U U U U I U I U K U K U U U ",
"J F F F F J F F D D J J F F F F D D F - 3.$.@.....' } { } ` _ _ _ _ { _ ) _ / / ) ) / ! Q Q Q U ! U U U R P U P R K R I U U U U ",
"F J F J F F F F D J J F F F F F F D J = Q I 6...7.} { } ` ` _ _ _ _ _ ) _ ) / / ) ) ! ! Q W U Q U U U U K R I U I U I U K U U U ",
"F F F F F F F F F F F F J F J F F F F & a w K X.6.X._ _ _ _ _ _ _ _ / _ ) ) ) ) ) ! ! ! ! U ! U U U U P U K U I U K U K U U Y U ",
"F J F F F F F F F F J F F J F F F F F & i a U X.6.$._ _ _ _ _ _ _ / _ / _ ) ) ) ! ) ! ! U ! U ! U U P U K U K U I U K U R U U U ",
"F F F F F F F F F F J F F F F F F F F & ) ) O.O.8.$._ _ _ _ _ } / _ / _ ) ) ) Q ) W ^ U ^ U Q U U U U P U K U P U K U U R U R U ",
"F J F F J F F F F J J F F F J F F F F & O.O.O.} 8.$._ _ _ _ _ ) _ / _ / / / W ) Q ^ ! ^ U ! U U U U P U I U P U K U I U U U U ! ",
"F F F F F F F F F F F F F F J F F F F & ....} } 8.#._ _ _ _ ) _ / ` / ) ) Q ) W ^ ^ W U Q U U U U P U I U I U I R I U U U U U U ",
"J F F F F F F F F F F F F F J F J J F & ' } } } 6.#._ _ _ ) _ ) _ / ` / Q ) W W ^ ^ U W U U U U I U I U I U P U I U U U U U R ! ",
"F F F F F F F F F F F F F F F F F F J = } { { { 6.#.` ` ) _ ) _ / _ ) ) ) Q W ^ Q U W U U U U I U I U I U K U K U E U U U U ! U ",
"F F F F F F F F F F F F J F F F F J F = Q I 7.} 8.#.` ` _ ) _ ) _ / / / W W W ^ U Q U U U U I U U U I U I U K U K R R U U ! U ! ",
"G D D D D D D D F F D D D D D D F F F - i e I } 8.#._ ' ) _ ) _ / / / ! ! Q Q U W U U U U U U U U K U I U I U K U E U U U U ! U ",
"G D D D D D D D F F J F D J D D J F F - p a U ` 6.#.#.#.#.#.$.$.$.$.$.$.$.$.$.$.#.$.%.X.O.X.} ` ] ) ) ) ) ' { +.O.o.............",
"J D J D G D D D J J F F D D D D J F F - ) ) ' _ 6.6.8.8.8.8.7.7.8.6.6.6.6.7.8.6.7.7.7.5.3.<.<.#.$.......$.%.3.3.3.3.3.5.5.5.3.5.",
"D D F D G D D D F F F F D D J D F F F = ' ' _ _ ' ' _ _ _ _ _ _ _ / / / / W Q Q W W W W Q U I K a a a a p K U U Q Q W W W W ) ) ",
"D D D D J D D D D J D D D D D D G F F = _ _ _ ' W I 8.' _ _ _ _ Q I 7.) ! W W ! Q w } ! U I I a p w Q a a K U W ! e ' W W W ) ' ",
"D D D J D D D D D D J D D D D D G D F = _ _ _ ' p e I _ _ _ _ _ a w K W W W W W a 5 e U I I a a w 7 9 a I P U Q a 5 e W W ) ) ' ",
"D D D D D D D J D D D J D D D D D D D d _ _ ' ' i i U _ ' ' ` ] p a U ! W W W Q p a U U K K i a w w i I K U ! ! p a U Q Q ) ` ` ",
"D D J D J D J D D D D D D D J J D D J h h h k k k k k h k g g g g g g g g g g g k h g k g g h h k k h k g g k h k h g g g g g g "
};
