/* XPM */
static char *xpm_[] = {
/* columns rows colors chars-per-pixel */
"64 64 116 2 ",
"   c #000101",
".  c #313100",
"X  c #303001",
"o  c #212020",
"O  c #2C2C2C",
"+  c #2C2D2C",
"@  c #2D2D2C",
"#  c #2D2C2D",
"$  c #2C2D2D",
"%  c gray22",
"&  c #393838",
"*  c #383839",
"=  c #383939",
"-  c #393939",
";  c #404000",
":  c #494800",
">  c #585800",
",  c #595800",
"<  c #585801",
"1  c #686800",
"2  c #707000",
"3  c #004040",
"4  c #004041",
"5  c #005858",
"6  c #005859",
"7  c #007070",
"8  c #017070",
"9  c #007170",
"0  c #007071",
"q  c #007574",
"w  c #017475",
"e  c #017878",
"r  c #017978",
"t  c #007879",
"y  c #017C7C",
"u  c #007D7C",
"i  c #017C7D",
"p  c #017D7D",
"a  c #484848",
"s  c gray33",
"d  c #555454",
"f  c #555555",
"g  c #646464",
"h  c #646465",
"j  c gray44",
"k  c #717070",
"l  c #707170",
"z  c #7C7C7C",
"x  c #7D7C7C",
"c  c #7D7C7D",
"v  c #858000",
"b  c #848100",
"n  c #848001",
"m  c #949000",
"M  c #9C9800",
"N  c #9D9800",
"B  c #980088",
"V  c #980088",
"C  c #980088",
"Z  c #980088",
"A  c #008484",
"S  c #018484",
"D  c #008585",
"F  c #018C8C",
"G  c #008D8C",
"H  c #018C8D",
"J  c #008D8D",
"K  c #009898",
"L  c #019898",
"P  c #019998",
"I  c #009899",
"U  c #019899",
"Y  c #019999",
"T  c #00A4A4",
"R  c #01A4A4",
"E  c #00A5A4",
"W  c #01A5A4",
"Q  c #00A4A5",
"!  c #01A4A5",
"~  c #01A5A5",
"^  c #20B0B0",
"/  c #20B1B0",
"(  c #20B0B1",
")  c #21B0B1",
"_  c #20B4B4",
"`  c #20B5B4",
"'  c #21B5B4",
"]  c #20B4B5",
"[  c #21B4B5",
"{  c #48C0C0",
"}  c #48C1C0",
"|  c #49C1C0",
" . c #48C0C1",
".. c #49C0C1",
"X. c #74C8C8",
"o. c #75C8C8",
"O. c #74C8C9",
"+. c #75C8C9",
"@. c gray55",
"#. c #8C8C8D",
"$. c #989898",
"%. c gray66",
"&. c #A9A8A8",
"*. c #B4B4B4",
"=. c #9CDCDC",
"-. c #9CDCDD",
";. c #9DDCDD",
":. c #9CDDDD",
">. c #B8E8E8",
",. c #B9E8E8",
"<. c #B8E9E8",
"1. c #B8E8E9",
"2. c #B8E9E9",
"3. c #C0C0C0",
"4. c #D0D0D0",
"5. c #D8F4F4",
/* pixels */
"B B B B B B B B B B B B - & & & & & % % % & & & & - - = * * * & & & & % % % % % - - = % % % - = = - - - & & & - - - & & & & & % ",
"B B B B B B B B B B B B - S e e e e e e e e e e q e e t t t q e e e r r r e e e e q e y e e e e t q t e t t q e t e e e t r e e ",
"B B B B Z B B B B Z B Z & ^ U U G q 8 ^ G G G G J 9 9 ( I G H H G r 9 ( G G G G H 0 8 ^ G G J J G q 0 ( G G J G G 9 9 ( G G J J ",
"B B B B B B B B Z B B B & ^ ( ( ( e 3 8 ( ( ( ( ( p 4 9 ^ ^ ^ ^ ( e 4 9 ^ ( ( ( ^ p 3 9 ( ' } } ( p 4 9  . . .^ ( p 4 9 ( ( ( ' ",
"B B B B B B B B B B B B & / / / ^ r p G ^ ^ ^ ^ ( e p H ^ ^ ^ ^ ( e e G ^ ^ ^ ^ ^ e p G ^ } o.-.( e e G }  .^ ^ ( e e G ( ( ( ^ ",
"B B B B B B B B B B B B & / ( ( ( D 6 6 6 6 6 6 6 6 6 6 6 6 6 6 6 6 6 6 6 6 6 6 6 6 6 6 6 6 6 6 6 6 6 6 6 6 6 6 6 6 6 6 6 6 5 5 ",
"B B B B B B B B B B B B & ^ ( ^ ( ( p q 9 9 8 8 9 9 0 0 8 8 8 9 9 9 8 8 9 8 9 9 8 9 8 8 9 9 0 8 9 9 9 9 9 9 0 8 9 9 8 8 8 8 9 9 ",
"B B B B B B B B B B B B % U D >.( ;.^ H H G G F G G J J H G H H G G H H G G H H H H G H G G H J G G G G G G G G G G G H G H G G ",
"B B B B Z B B B B B B B & p 9 D ^ ,. .T T T T ~ R R R R R T T E T T T ~ ( ^ ^ ^ [ _ _ ] _ { ] { _ { _ { [ ' [ [ ( ( ^ R R R R R ",
"B B Z B B B B B B B B B % y p G ^ ,.o.T T T R R R E R R R T T T T T ( ( ( / ^ [ _ _ ' ( { _ { ' } _ { [ [ [ [ ) ^ ^ R R R R E L ",
"B B B B B Z B B B B B B & E E ^ ^ ,.o.~ T ~ E ~ E T E R R R T T ^ ^ ( ( / ] ' ' ] { ' { _ { ' { [ { ' ' ^ ' ^ ^ ^ E T T T T L T ",
"Z B B Z B Z B B B B B B & ^ ^ ^ ^ ,.o.~ T T R T T R R R R R ^ ^ ^ ^ ^ ' ] ] ] '  .' { ' { _ { ' { ( ' ' ' ^ ^ ^ E ^ T E E L E L ",
"B B B B B B B B B B B B % / / ( ( ,.o.T R R R R R T R ^ [ ( ( ( ^ ' _ _ _ { ( { ]  .' { _ { ' { ' ' ] ] [ ^ ^ R ( T T E L E L L ",
"B B B Z B B B B B B B B % / ^ ( ( 2.o.T R R R R R [ ^ ^ ^ ( ( _ ' ' ' ' { _ { _  .] } ] { _ } ] ' ] ] ] ^ ^ T ^ E T T L E L L L ",
"B B Z Z B B B B B B B B & ^ ^ ^ ( 2.o.E E R T ( ^ ^ ^ ^ ( ' ( _ ' [ [ { _  .[ { '  .]  ._ { ' ` ] ] ^ ^ ^ T ^ T E T L E L L L L ",
"B B B B B B B B B B B B & U D >.^ <.o.R R ( ^ ^ ^ ^ ^ ^ ' ' ' _ [ [  .[ } ' { _  .]  .' { ( ' ] ] ^ ^ ^ E ^ E T E U E I L L I G ",
"B B B B Z Z B B B B B B - p 9 D ^ 2.o.( ^ ^ ^ ^ ` ^ ] ` ^ ' _ { ] { ] { ] { ' { ' } '  .' ^ [ ' ^ ^ ^ ^ ( T T T ~ ~ L I I L G H ",
"B B B B B B B B B Z B B - e p G ^ 2.o.^ ^ ^ ^ ^ ' ^ ] ] ` ' { _ { ] { ] { ' { ' { ] } / ' [ [ ^ ] ^ ^ ^ T T T ~ T U L L L H H H ",
"B Z B B Z B B B B B B B - E E ^ ^ <.o.( ^ ^ ' ' ] ] ] ` `  .` { ' { ' { ' { _ { _ { ] ] ' ' ^ ' ^ ^ ^ E T T T T U E L L H L G H ",
"B Z B B B B B B B B Z B - ( ^ ^ ^ 2.o.( ' [ ' ' ] ] ' ` { ] } _ { ] { ] { ' { ' { _ ] / [ [ ' ^ ^ ^ E E R R T I E L L H L G F H ",
"B B B B Z B Z B B B B B & ^ ^ ^ ^ 2.X.` [ ] ] ] ` ' '  .' } `  .] { ] { ' { _ { ' { ' _ ^ [ ^ ^ ^ E E R E R L T L L H L G F F F ",
"Z B Z B B B B Z B B B B & ^ ^ ^ ^ <.X.] [ / ` ]  .` } '  .`  .` { ] { ( { ' { _ { ' _ ( ' ^ [ ^ T ^ R E E L E L L L L F H H F A ",
"Z B B B B B B B B B B B & ( ( ( ^ 2.O.' / [ ` } '  .]  .]  .`  .' { ' { ' { [ } _ _ ( _ ^ ^ ^ E ^ R R E T T I I L L F F F F A F ",
"B B Z B B Z B B B B B B & U D 2.^ 2.O.] ] ' } '  ./  ./ } `  .'  .' { ' { [ } _ _ ( ' ( ^ ( T ^ T T R R T I I I U G L F F D F F ",
"B Z Z B Z B B B B Z B B & p 9 D ^ ,.o.' '  .'  .] } `  .'  .]  .'  .'  .'  .[ _ ^ ' ^ ^ ^ T ( E R T T T L L L I G L G F A G F H ",
"B B B B B B B B Z B B B & q p G ^ ,.X.`  .' { ]  .]  .' } '  ./  .[  .'  .[ _ ( ' ^ ^ ^ E ( T R R E T L L L L G U G F A F A F F ",
"B B B B B B Z B V B Z B & T T / ` <.X.{ '  .^ } _ } `  .( } ' } '  .[  .' _ ( _ ^ ^ ^ ^ ^ R R R R R I T L L G I G G A H A G G F ",
"B B B B Z B B B B V V Z & ^ ( / ^ <.X.]  .'  .] { ` } %.4.4.4.4.4.4.4.3.3.^ ' ( ^ ^ ^ ^ E E E E T L E I I G I H G D G A G F H G ",
"B B B B B Z B Z B B B Z & ^ ( ' / >.o.} ' } ' { _ { ] z g l j x c @.$.%.3.' ^ ^ ^ ^ ' R T T E E I T U L L L G H F H A H A F F H ",
"B Z B B B B B Z B B Z B & ^ ' ' / >.o.' } 2 m N } ( p # g & &.j c s 4.$.*.( ^ ^ ^ ( T R E E T L T I L U U F U G H A H A F G F F ",
"B B B B B B B Z V B B B & ' ' ' ' >.O.} e ; < N _ T e # g g g j j c z @.*._ ^ ^ ) ~ ( T T T L T I I L L F U G G D G D F A F F H ",
"B Z B B B B B Z B B V B & P D <.] >.O.D q X < m X.G p # g g g g j j c c *.^ ^ ^ T ( T T T T E L L L I G I G G A G A H A F F F F ",
"B B B B B B B B B B B B - p 9 D ' <.^ S G X < m } G u # g g g g g j j x &./ / T ( ~ ~ R E E L L L I H L F F A H D G A G A F F I ",
"Z B B Z B B B C B B B B & e e G  .<.L S ;.X < m } G p # f a < v n M j j &.' T ^ R R ~ R E L L L L G L H F F G A H A G A G F F G ",
"B B B B B C B C B B B B % T T } o.X.L D o.X < v } G p # a # :     n g k %.T ^ T R E T T L T L L G L H H F G A H A H A H F F F I ",
"B B B B B B B C B B B B -  .o.o.:.] U D o.X < v } G y # & @ :     n g g %.^ T T R T T L E L L H I H L H H A H A G A G A G F U F ",
"B B B B B B B B B B B B - o.o.:.=.( L D o.X < v { F p # + O . # # n g g %.T T T T T L T L L U U H L F G A F A F S F A F G F F U ",
"B Z C B B B B B B B B B & o.:.:.>.( L A } X < 2 { G e # # O : ; : , g g %.T R T E L T L L U U G I G F A F A F A G D F F F F U G ",
"B Z B C B C C B B B B B & ;.2.2.>.^ L S } X < 2 } G p # + + # @ # # g g $.E R R L E L L L L F I F F A F A H A H A F F G F U F U ",
"B B Z C C B B B B B B B & o.( 2.5.^ L S } X < 1 } G e # $ + + # # a g g $.R R I E L L L U G U F H F H A F A H A F A F F F G U U ",
"B B B B B B B Z B B B B & ( p ] >./ L S G q X : [ F r # & & a a f g g g $.T E E U L L L G I F F G G A F A H A G A F F F F U F U ",
"B Z Z Z B B Z B B B B B & ( / o.<.] L S e q D ' ' G p # & o l s g # @.g #.T E U T U U G L G F F F S F A H A H A F G F F U F U U ",
"Z B B Z B B Z B B B B B & o.o.2.=.' U D D D ' ' ' G p # $ % f s d g g g #.T L E L L G U G U G H A F A F A G A G F F F F G U U L ",
"B B B B B B Z B B B B B & 5.2.:.=.( U D G ] ] ] ( G p # $ $ $ $ @ @ @ # g L E L L L U G L F H A G S F A F A G A G G G F U G L L ",
"B B B B Z B B Z B B B B & <.-.-.X.] U U ^ ' ' ' ^ G p p i i i i y y t p U T L L L L H I H F F G A G S G A H A F F H G L G U L L ",
"B B B B Z B B B B B B B & =.=.o.X.' U ' ' ' ' ^ ( G G F J G F F G G G E T U L L U G I H F F F A F S F A F A F H F G L G U U L L ",
"B B B B Z B B B B B B B % :.o.} } { / / ] ] ^ ] ^ ^ ( ( ( T ^ R E E E E U L L U G U G H F F A H A F A F A H F F H F G U G L L U ",
"B B B B B B Z B B B B B % U D >. .>.] / ` ^ ^ ^ ^ ^ ( ( T ( R T E E E L U U L G U G G G F A F D H A G S F A G H F G U G U L L L ",
"B Z B B B B B Z B B B B & p 9 D } <.{ ' ^ ^ ^ ^ ^ ^ ^ T ^ T T ~ E E L L L L F L H F F F A G D H A G S G A J F H F I G U U L L L ",
"B B Z B B B B B B Z B Z - y t H  .<.o.( ^ ^ ^ ^ ^ ^ E ( T ^ T T E L E L L F L F L G F A G A H D H S G D F F H G G G U G L L L L ",
"B Z B B B B B B B B B B - T T }  .2.o.^ ^ ^ ^ ^ ^ E ^ E ^ E E E L E L L F L G I G G F F A H A H A F S G F F J F F U F U L L L L ",
"B Z B Z Z B B B B B B B & } } } ' 2.o.^ ^ ^ ^ ^ E ( T ' T T E U T L L L L F L F G G F A G A G A H D H A F F H J U F U U L L L L ",
"B B B B Z B B B B B B B & } } ' ' 2.o.( ^ ^ ^ T ^ T ^ R R R I T L L L L G L G H H G A G A H A H A H S G G G G F G U G L L L L L ",
"B B B B B B B B B B B B & [ ' ' ( 2.o.( ^ ^ E ^ E ^ R ^ T L T L L L L H L H G G H A H A H A H A H A G F F G F F U G U L L L L L ",
"B B Z Z B B Z Z B B B B * [ ] ' [ ,.o.^ ^ E ^ T ^ E ^ T E T L L L L H L F F F F A F A G A H A G A J G J H F F U G L L U L L L E ",
"B Z B Z B B B Z B B B B * I A 1.[ 2.o.^ ^ ^ E ^ T ^ E T R L L L L F L F F F G A F G F A H A H A J S F H J G U F U G U L L L U L ",
"Z B B B B B B B B B B B & p 9 D / 2.o.( ( T ^ E ( T T T L U U U G L F F F H F F G F A F A F D G A G G G H G G L G U L L L L L T ",
"B B B B B B B B B B B B & e p G ^ >.o.o.o.o.X.O.o.o.o.o.o.O.o.o.o.o.X.X.{ {  ./ ] ' T T T T / ' { { { }  .} }  .} } } } ' ' ' ( ",
"B Z B B B B B B B B B B & T T ( ^ >.>.>.>.>.2.>.2.2.2.2.>.>.>.>.>.<.<.<.=.=.:.:.o.o.} } { o.X.;.=.=.;.=.-.-.;.:.:.;.:.:.-.:.;.O.",
"B Z B B B B B B B B B B & ( ( ( ^ ( / ( / / ( ' ^ ^ T T T T L L U L L L L L F D S p p p r p D G G L L L L I U T E ^ ^ ^ ^ / / / ",
"B B B B B B B B B B B B & / / / ^ L S ,.^ ( ( ^ ^ L D 2.T L L L L I 9 ( L G A A p e 9 U p t A G I L 9 ' L L I T / U A ,.^ ^ ^ ^ ",
"B B B B B B B B B B B B % / ( ( ' p 9 A ^ ( ( ^ ^ p 9 S L L L L L p 3 8 G D A p e 8 4 6 p A A G L r 3 9 I I E T / t 8 A ^ ^ ^ ^ ",
"B B Z B B B B B B B B B a ^ ( ^ ` q r G ^ ^ ^ ^ [ t p G L L L L L r p G G A A p p 9 9 e D D H I I t p G I I T ( / e p H ^ ^ ^ ^ ",
"B B B B B B B B B B B B f f f f s d f s s d d d d s s f f s f s s f d d d d d d s f f f f f s s f f s s f s s s f f f s s s s f "
};
