/* XPM */
static char *xpm_[] = {
/* columns rows colors chars-per-pixel */
"64 64 136 2 ",
"   c black",
".  c #303000",
"X  c #313000",
"o  c #303100",
"O  c #212020",
"+  c #2C2C2C",
"@  c #2D2C2C",
"#  c #2C2D2C",
"$  c #2C2C2D",
"%  c #2D2C2D",
"&  c gray22",
"*  c #393838",
"=  c #383938",
"-  c #383839",
";  c #393839",
":  c #383939",
">  c #404000",
",  c #484800",
"<  c #595800",
"1  c #585900",
"2  c #585801",
"3  c #585901",
"4  c #686800",
"5  c #717100",
"6  c #004040",
"7  c #014140",
"8  c #005858",
"9  c #015858",
"0  c #005959",
"q  c #007070",
"w  c #017070",
"e  c #017170",
"r  c #007171",
"t  c #017171",
"y  c #007574",
"u  c #007475",
"i  c #007878",
"p  c #017878",
"a  c #007879",
"s  c #007C7C",
"d  c #007D7C",
"f  c #007C7D",
"g  c #017C7D",
"h  c #017D7D",
"j  c #484848",
"k  c #494848",
"l  c #484948",
"z  c gray33",
"x  c #555454",
"c  c #545455",
"v  c #545555",
"b  c #646464",
"n  c #656464",
"m  c #646564",
"M  c #646465",
"N  c #656565",
"B  c gray44",
"V  c #707170",
"C  c #707071",
"Z  c #7C7C7C",
"A  c #7C7D7C",
"S  c gray49",
"D  c #858000",
"F  c #848101",
"G  c #949000",
"H  c #959000",
"J  c #9C9900",
"K  c #980088",
"L  c #980088",
"P  c #980088",
"I  c #980088",
"U  c #980088",
"Y  c #008484",
"T  c #018484",
"R  c #008584",
"E  c #018584",
"W  c #008485",
"Q  c #008585",
"!  c #008C8C",
"~  c #018C8C",
"^  c #018D8C",
"/  c #008C8D",
"(  c #008D8D",
")  c #018D8D",
"_  c #009898",
"`  c #019898",
"'  c #009899",
"]  c #019899",
"[  c #019999",
"{  c #00A4A4",
"}  c #01A4A4",
"|  c #01A5A4",
" . c #01A4A5",
".. c #01A5A5",
"X. c #20B0B0",
"o. c #21B0B0",
"O. c #21B1B0",
"+. c #21B0B1",
"@. c #20B1B1",
"#. c #20B4B4",
"$. c #21B4B4",
"%. c #21B5B4",
"&. c #20B4B5",
"*. c #20B5B5",
"=. c #48C0C0",
"-. c #48C1C0",
";. c #48C0C1",
":. c #48C1C1",
">. c #49C1C1",
",. c #74C8C8",
"<. c #75C8C8",
"1. c #75C8C9",
"2. c #74C9C9",
"3. c gray55",
"4. c #8C8D8D",
"5. c #989898",
"6. c #989998",
"7. c gray66",
"8. c #A8A8A9",
"9. c #B5B4B4",
"0. c #B5B5B4",
"q. c #9CDCDC",
"w. c #9DDDDC",
"e. c #9CDCDD",
"r. c #9CDDDD",
"t. c #B8E8E8",
"y. c #B9E8E8",
"u. c #B8E9E8",
"i. c #B9E9E8",
"p. c #B8E8E9",
"a. c #B9E8E9",
"s. c #C0C0C0",
"d. c #C1C0C0",
"f. c #D0D0D0",
"g. c #D0D0D1",
"h. c #D8F5F4",
/* pixels */
"K K K K K K K K : : : : : : - - : : : : : & : & : : : : : : & & & * : & & * : : - * * : : : : : : & & & : : : : : & & & & & & * ",
"K K K K U K U U ; h a u a a a u i u u a a u a i u a i a u a i i i i i u i i i i a a a u i i a u a i i a a u a u i i i u a i i i ",
"K K K K K K K U ; $.` ` ! u w $.! ! ! ! ^ u w $.` ! ! ! ! y e $.! ! ^ ! ^ u e X.~ ~ ~ ~ ! y w o.! ( ^ ^ ! y w $.! ! ! ! ! y e X.",
"K K K K K K U K ; $.o.o.o.s 6 w X.o.o.X.$.a 7 w X.X.X.X.$.a 6 w X.X.$.o.$.a 7 e &.&.=.=.X.h 7 e -.=.=.X.$.a 6 w $.o.o.o.X.g 7 e ",
"K K K K K K K K = X.X.X.X.a a ( $.o.o.X.$.a g ( X.$.o.o.o.u h ! o.$.X.X.X.i h ! &.=.<.w.X.i g ! -.=.o.$.o.u a ! X.o.o.$.X.i h ! ",
"K K K K K K K K & X.X.X.X.Y 0 0 9 0 9 9 9 0 0 0 9 9 9 9 0 0 9 0 9 0 9 0 9 9 9 9 9 9 9 0 9 9 9 9 9 9 9 9 9 9 0 0 9 9 9 0 9 9 0 0 ",
"K K K K K U U K : X.o.X.o.$.g i w w e w e e w w w e e e e w w w e e w e e e e e e e w w e e e e e w w w w e w w w w w w e e e e ",
"K K K K K K U K & ` Y t.X.w.X.! ! ! ! ! ! ! ^ ( ! ! ! ! ! ! ( ! ! ! ! ! ! ! ! ! ! ! ( ! ! ! ! ! ! ^ ( ^ ( ! ! ! ! ! ^ ! ! ! ! ! ",
"K K U K K K K K & a w Q $.t.-.| { { { { { { { { { { { { | | | | o.X.X.X.&.&.#.&.X.>.#.>.&.=.&.>.*.X.*.X.X.X.$.{ | | { { ` ` ` ~ ",
"K U K U K K K K : a a ! X.t.,.{ { { { | | { { { { { { { { | $.X.o.X.X.#.$.#.&.#.=.&.>.#.=.&.=.&.&.*.*.X.X.o.{ { { { { ` ` ` ` ( ",
"K K K K K K K K : | | X.X.t.,.| { { { { { | { { { { | { o.o.X.X.$.#.#.#.$.-.&.=.%.>.X.>.%.=.%.#.&.&.o.o.X.| { { { { ` { ` ` ` ( ",
"K U K K K K K K : X.$.o.X.t.,.| { { { { { { | | { { X.X.o.o.X.&.$.#.#.#.=.#.-.#.;.#.>.#.=.%.&.#.#.$.o.o.| X.{ { { ` { ` ` ~ ~ ~ ",
"K K U U K K K K - X.X.X.X.u.2.{ { { { { | | | X.X.X.X.$.X.%.&.#.$.=.$.=.#.=.#.-.#.-.#.-.#.#.#.#.X.X.X.{ &.{ { { `  .` ' ( ( ~ ( ",
"K K U U K K K K - X.X.X.X.u.2.{ { { { { { X.X.X.X.X.o.$.#.$.&.&.=.$.=.$.-.#.-.#.=.#.;.*.&.&.#.X.X.X.| $.{  .{ `  .` ` ` ` ~ ( ( ",
"K K K K K K K K - o.o.o.$.u.2.{ { { { X.o.X.o.X.X.$.$.$.&.&.&.=.$.=.$.=.$.=.$.=.%.>.%.*.&.#.X.X.X.| X.|  . .`  .` ` ` ` ~ ~ ~ ( ",
"K K K K K K K K : ` Y y.o.u.2.{ { X.$.X.X.X.o.$.X.$.$.$.$.$.=.&.=.$.=.$.=.$.-.#.=.&.&.%.%.X.X.X.| X.{ {  .`  .` ` ` ` ~ ~ ~ ~ ~ ",
"K K K K K U K U = g w Q $.t.,.X.X.X.X.X.X.$.$.#.$.$.$.=.&.>.$.=.%.>.&.=.$.=.$.=.$.$.$.$.X.X.o.$.X.{ { { { { ` ` ` ` ~ ~ ~ Y ~ ~ ",
"K K U K K K U U = w h ( X.p.<.X.X.X.o.$.X.&.X.*.&.#.=.$.=.&.-.%.>.&.=.&.=.$.=.#.$.$.$.$.$.X.X.o.| | { { { ` ` ` ` ^ ^ ^ ~ Q ~ ~ ",
"K K K K K K L L & { { X.X.t.<.+.X.X.&.&.#.#.*.&.&.=.&.=.&.-.#.-.&.-.X.=.&.=.$.$.$.$.X.&.X.X.+.{ { { { { ` { [ [ ^ ` ~ ^ Y ~ ( ~ ",
"K K K U K L L L & X.$.X.X.u.<.+.*.&.&.&.#.#.&.&.=.&.>.$.=.&.-.%.>.#.-.&.-.&.$.$.$.X.X.X.X.X.{  .{ { { ` { [ [ ^ ` ^ ( ^ W ( ~ ( ",
"K U K K K K K K - o.o.X.X.p.,.*.#.#.&.%.&.#.#.=.$.=.$.=.&.=.&.=.#.-.#.=.#.-.$.$.X.*.X.X.o.{ {  .{ { ` | ` ` ^ [ ) ) ~ ~ ( ~ ( ^ ",
"K K K K K K K K - X.X.X.X.p.,.*.#.#.#.&.-.#.>.%.=.$.=.$.-.&.=.$.-.#.=.&.-.#.&.$.*.X.X.X.{ o. .{ { ` | ` ` ` [ ! ~ ~ ~ Y ~ ( ~ ~ ",
"U K K U K K K K & o.X.o.X.p.,.$.%.%.&.=.#.-.&.-.&.=.$.=.%.-.&.-.&.=.$.-.&.#.X.X.X.X.X.{ $.{ { { { { ` ` ` ` ! ! ~ ) Y ~ ~ ^ ( ~ ",
"K K K K K K K K - ` Y t.$.u.,.$.&.&.=.&.=.#.-.#.=.$.=.$.=.$.=.$.=.#.=.&.&.*.X.X.X.o.{ $.{ { { { { ` ` ` ` ( ` ! ~ W ~ ~ ~ ^ ` ( ",
"K K K K K U K K : g w Q o.t.2.$.#.-.#.-.$.=.$.=.&.=.$.=.#.-.#.=.&.=.#.#.X.#.&.X.o.{ o.{ {  . .{ ` ` ` ` ^ ` ^ ^ W ( ~ ~ ~ ~ ) ~ ",
"K K K K U K K K : a g ( o.u.<.$.-.#.-.#.=.$.=.$.=.&.=.$.-.#.-.$.=.&.&.X.&.X.X.X.{ $.{ { { {  .` ` ` ` ( ` ~ ~ W ~ Y ~ ) ~ ~ ' ~ ",
"K K U U K K K K & { | $.o.y.2.=.&.=.#.-.$.=.#.-.*.;.$.-.&.-.X.-.&.#.X.#.X.o.X.X.&.{ { { { { ` { ` ` ~ ` ~ ( W ~ W ~ ~ ~ ( ' ( ~ ",
"U K K K K K K K * o.o.o.o.u.2.$.=.$.-.#.=.$.-.7.g.f.f.f.g.g.g.s.d.$.#.X.X.o.o.$.{ { { { { ` { ` ` ( ` ^ ~ Y ~ W ~ ~ ~ ) ~ ~ ` ~ ",
"K K K K K K K K * o.X.#.#.u.<.=.$.=.&.=.&.=.X.A m V C Z S 3.5.7.s.X.X.X.X.X.X.| { { { { `  .` ` ` ` ~ ( ~ ~ Q ^ Y ( ( ( ~ ` ( ~ ",
"K K K K K K K U * o.#.#.#.u.<.$.=.5 H J =.$.g % m = 8.V S c g.5.9.o.o.X.X.$.{ | { { { `  .` ` ` ` ( ` ( ^ Y ~ Y ~ ~ ( ~ ' ~ ` ~ ",
"U K K K U K U K * X.*.#.#.u.2.=.a > 3 J $.{ s % m M M V V S Z 3.9.X.o.o.o.{ X.|  .{ `  .` ` ` ` ~ ` ( ~ Q ~ Y ( Y ( ~ ( ( ` ` ) ",
"K K U K U K K K & ` Q u.#.u.2.Q u X 3 H ,.! a % m m b b C B Z Z 9.$.o.o.{ $.{ {  . . .` ` ` ` ~ ` ( ~ Y ^ Y ^ Y ~ ~ ~ ( ` ( ` ~ ",
"K K K K K K K K = g w Q $.t.$.Y ( X 3 H -.! g @ M M n N N C B S 7.X.X.{ o.{ { {  . .` ` ` ` ( ` ( ^ Q ^ Q ~ Y ~ Y ~ ~ ` ^ ` ` ( ",
"K K K K K K K K = a a ( =.t.` Q w.X 3 H -.! g % x k < F F J B B 7.X.| X.{ { { {  .` ` ` ` ~ ` ( ! ! ~ Y ~ Y ~ Y ( ( ~ ^ ` ` ` ~ ",
"K K K K K K K K : { { =.,.<.` Q 2.X 1 F -.! g % j + ,     F b B 7.| X.{ { { { { `  .` ` ~ ` ( ~ ~ ^ Y ~ Y ~ Y ~ ( ~ ~ ` ! ` ` ~ ",
"K K K K K K K K : =.,.,.w.X.` Q 2.o 1 F =.! a @ - + ,     F b b 7.X.| { { { { `  .` ` ( ` ( ` ( ~ Y ~ Y ~ Y ~ Y ~ ( ` ^ ` ` ` ( ",
"K K K K K K K K : ,.,.w.w.X.` Y 2.o < D -.! h @ @ + > # % F m M 8.{ { { { { ` { ` ` ` ' ~ ` ( ( Y ^ W ( Y ~ Y ^ ^ ! ! ` ` ` ` ( ",
"K K U K K K K K & 2.q.w.u.X.` R -.X < 5 -.! h @ @ + , o , 1 m m 8.{ { { { ` { ` ` ` ` ~ ` ~ ( Q ~ Y ~ W ~ Y ~ ( ^ ! ` ( ` ` ` ( ",
"K K U K K K K K & w.p.t.u.X.` R =.X < 4 -.! g @ # # % # # @ b N 6.{ { { ` { ` ` ` ` ~ ` ~ ~ Y ~ W ^ W ~ Y ~ ( ~ ^ ` ( ` ` ` ` ! ",
"K K K K K K K K & ,.#.t.h.X.` R =.. 1 4 -.! h @ % % # # % l b N 6.{ { ` { ` ` ` ` ~ ` ~ ~ ~ ~ Y ~ W ~ W ~ Y ( ~ ~ ^ ` ` ` ` ` ! ",
"K K K K U K U K & X.a X.p.X.` R ( u X , &.! g % : & l l z N b b 6.{ { { ` ` ` ` ~ ' ) ~ ~ ~ Y ( W ~ W ^ Y ~ ~ ~ ~ ` ( ` ` ` ` ( ",
"K K K K K K K K & X.$.,.p.*.` R a a Q $.#.! g % : O B z b @ 3.b 4.{ { `  .` ' ) ` ~ ( ( ~ Y ~ W ~ W ^ W ( ~ ~ ~ ` ~ ` ` ` `  .( ",
"U K U K K K K K * ,.<.y.w.#.` R Q Y $.$.#.! h @ % : z z z b b b 4.{ ` ..` ` ) ` ~ ` ( ( T ^ W ^ W ~ Y ^ ~ ~ ~ ~ ~ ` ` ` ` ` ` ( ",
"K K K K K K K K * h.y.q.w.*.` Q ( $.$.$.X.! g @ % % % % % @ @ @ N ` ..` ` ` ` ) ` ^ ( Y ( W ^ W ^ W ~ Y ~ ~ ~ ^ ` ~ ` ` ` ` { ( ",
"K K U U K U K K : y.q.q.,.#.` ` #.#.#.#.X.! g h g g g g g g h a ` { [ ` ` ` ~ ` ~ ~ ~ ~ W ~ W ~ W ~ Y ~ ~ ~ ~ ` ^ ` ` ` ` { ` ( ",
"K K K K K K U U & w.q.2.,.#.` #.#.#.#.X.X.! ! ! ! ! ! ! ! ^ ^ { { ` [ [ ` ^ ` ~ ~ ~ ~ Y ( W ^ Y ( Y ~ ~ ^ ( ` ^ ` ` ` ` ` ` ..^ ",
"K K K K K K K K & w.<.-.-.-.X.#.#.%.X.X.$.X.X.X.o.{ $.{ | | { { ` ` ` [ ^ ` ^ ~ ~ ~ Y ~ Q ~ Y ~ W ~ ~ ~ ( ( ~ ` ^ ` ` ` [ { [ ^ ",
"K K U U K K K K & ` Y u.-.u.#.%.#.#.X.X.X.X.X.X.{ o.{ | | | { ` ` ` ` ( ` ^ ^ ~ ( Y ~ Y ( Q ~ Q ^ W ~ ~ ) ~ ` ^ ` ` ` ` ` `  .^ ",
"K K K K K K K K : h w Q =.u.=.&.X.X.X.X.X.X.X.{ X.{ { { | { ` [ ` ` ^ ` ^ ^ ! ! Y ! Q ~ R ! Q ! W ^ ~ ~ ( ` ~ ` ` ` ` ` `  . .( ",
"K K K K K K U K : s g ( =.u.<.$.X.X.X.X.X.X.{ o.| o.{ { { [ | ` ` ^ ` ^ ` ^ ! Q ! Y ! Q ! Q ! Y ~ ^ ^ ~ ( ( ` ( ` ` ` `  .` { ( ",
"U K K U K K K K : { { =.-.t.<.o.X.X.X.X.$.| o.{ $.{ { { ` | ` ` ^ ` ^ ` ^ ^ ^ ^ Y ^ Q ^ R ! Q ! ( ~ ^ ) ~ ` ( ` ` ` ` ` `  .{ ~ ",
"K K U K K K K K : =.=.=.X.t.,.+.X.X.X.X.{ $.| X.{ { { ` { ` ` [ ` ^ ` ~ ^ ^ ^ R ! Q ! Q ! Y ! R ~ ~ ~ ~ ` ~ ` ` ` ` ` ` { `  .~ ",
"K K K K K K U K - -.=.&.*.u.,.X.X.X.X.| o.{ o.{ { { ` { ` ` [ [ ^ ` ~ ~ ! ! Y ! T ! T ! Y ! Q ! ^ ^ ( ~ ~ ` ( ` ` ` ` ` ` { { ! ",
"U K K K K K K K : &.&.#.*.p.,.X.X.X.| X.{ $.{ o.{ ` { ` ` ` [ ! ` ! ( ~ ! Y ! T ! T ! Y ! Y ! ! ( ~ ~ ~ ` ( ` ` ` ` ` ` { {  .~ ",
"K K K K K K K K * $.$.$.$.u.2.X.X.| X.{ o.{ $.{ { { ` ` ` ` ! ` ~ ~ ( ~ Q ! Y ! Q ~ Y ! Y ! ! ! ~ ~ ~ ` ~ ` ` ` ` ` ` { ` { { ! ",
"U K U K K K K K * ` R u.$.u.2.X.X.o.| o.{ o.{ { { ` ` ` ` ! ` ! ~ ~ ~ Y ! ! ! T ! Q ^ Y ! Y ! ! ~ ~ ' ( ` ( ` ` ` ` ` ` { { | ! ",
"K U K K K K K K & a w Q &.y.<.X.o.{ o.| X.{  . .` ` ` ` ! ` ( ( ~ ~ ~ ( ~ ~ Y ~ R ! Q ! Q ! ! ! ! ! ! ` ! ` ` ` ` ` ` { ` { { { ",
"K K K K K K K K : a a ! $.y.2.,.<.2.<.,.2.2.<.<.<.2.2.<.2.,.,.2.=.=.=.&.&.$. . .| | X.#.-.-.-.-.=.=.=.=.=.=.=.=.&.&.*.*.&.&.&.&.",
"K K K K K K K K : | | X.X.t.y.y.p.t.u.u.u.t.t.t.t.t.u.t.y.y.p.u.w.w.w.q.<.<.=.=.-.,.2.w.w.w.w.w.q.w.q.q.w.w.w.w.w.w.w.,.,.,.2.=.",
"K K K K K K K K & X.$.X.X.X.o.X.X.X.$.X.o.X.| | {  .` ` ` ` ` ` ` ` ~ Q Y s s s h h R ! ! ` ` ` ` ` ` | | X.X.$.$.+.X.X.X.o.o.$.",
"K U K K K K K K * X.X.X.X.` Q t.X.X.X.X.+.` Q u.{ ` ` ` ` ` w *.` ~ Y Q s u w ` g h R ! ` ` w &.` ` `  .X.` Q u.X.X.X.X.X.` Q u.",
"K K U K K K K K * X.X.X.X.s w Y X.X.X.X.o.s e Q ` ` ` ` ` g 7 w ~ Y Q s s w 7 0 g Q Q ! ` g 7 w ` ` { { X.g w Q X.X.X.X.X.g q Y ",
"U K K U K K K K j X.X.o.$.a g ( X.X.X.$.X.u g ! ` ` ` ` ` u s ! ( Q Y s s q u a Q Q ( ` ` a a ( ` ` { $.X.a g ! X.X.X.X.+.a s ( ",
"U U K K K K K K z z z z z z x x z z c z z z z z c c c c c x x x x x z c x c c x z z z z z z z z z z z z z z z z z z z z z x x x "
};
