/* XPM */
static char *xpm_[] = {
/* columns rows colors chars-per-pixel */
"64 64 127 2 ",
"   c #000101",
".  c #303000",
"X  c #202020",
"o  c #2C2C2C",
"O  c #2C2D2C",
"+  c #2D2C2D",
"@  c gray22",
"#  c #393838",
"$  c #383938",
"%  c #393938",
"&  c #383839",
"*  c #393839",
"=  c #383939",
"-  c #393939",
";  c #404100",
":  c #484800",
">  c #484900",
",  c #585800",
"<  c #595801",
"1  c #686800",
"2  c #707000",
"3  c #014040",
"4  c #004041",
"5  c #005858",
"6  c #015858",
"7  c #005958",
"8  c #005859",
"9  c #007070",
"0  c #007170",
"q  c #007071",
"w  c #007171",
"e  c #007474",
"r  c #017574",
"t  c #007878",
"y  c #007978",
"u  c #017879",
"i  c #007C7C",
"p  c #007D7C",
"a  c #007C7D",
"s  c #007D7D",
"d  c #484848",
"f  c #484948",
"g  c gray33",
"h  c #555454",
"j  c #545554",
"k  c #545455",
"l  c #555455",
"z  c #646464",
"x  c #656564",
"c  c #646465",
"v  c #656465",
"b  c #656565",
"n  c #717070",
"m  c #707170",
"M  c #707171",
"N  c #7C7C7C",
"B  c #7C7D7C",
"V  c #848100",
"C  c #848001",
"Z  c #949000",
"A  c #949001",
"S  c #9C9800",
"D  c #980088",
"F  c #980088",
"G  c #980088",
"H  c #980088",
"J  c #980088",
"K  c #980088",
"L  c #008484",
"P  c #018484",
"I  c #008584",
"U  c #018C8C",
"Y  c #018D8C",
"T  c #008C8D",
"R  c #018D8D",
"E  c #009898",
"W  c #019898",
"Q  c #019998",
"!  c #009899",
"~  c #00A4A4",
"^  c #01A4A4",
"/  c #01A5A4",
"(  c #00A4A5",
")  c #00A5A5",
"_  c #01A5A5",
"`  c #20B0B0",
"'  c #21B0B0",
"]  c #20B1B0",
"[  c #21B1B0",
"{  c #20B0B1",
"}  c #21B0B1",
"|  c #20B1B1",
" . c #21B4B4",
".. c #20B5B4",
"X. c #20B4B5",
"o. c #20B5B5",
"O. c #21B5B5",
"+. c #48C0C0",
"@. c #49C0C0",
"#. c #48C1C0",
"$. c #49C1C0",
"%. c #48C0C1",
"&. c #48C1C1",
"*. c #74C8C8",
"=. c #74C9C8",
"-. c #75C9C8",
";. c #74C8C9",
":. c #8C8D8C",
">. c #989898",
",. c #999898",
"<. c #989998",
"1. c gray66",
"2. c #A9A8A9",
"3. c #B4B4B4",
"4. c #9CDCDC",
"5. c #9DDCDC",
"6. c #9CDDDC",
"7. c #9DDCDD",
"8. c #B8E8E8",
"9. c #B8E9E8",
"0. c #B9E9E8",
"q. c #B8E8E9",
"w. c #B8E9E9",
"e. c #C0C0C0",
"r. c #D0D0D0",
"t. c #D8F4F4",
"y. c #D8F4F5",
/* pixels */
"D D D D D D K K D D K K K - - = & & & & # # & & & & & # # & # # # & & & & & & # & & # & # # & & & & # % & & & & # # & & & & & # ",
"D D D D D D D D D D K D K - s y t t y y y y t t t t y y y r y y y y t r t t t y t t y y y y t r t t t y t r t t t y y t t t y y ",
"D D D D D D D D D D D D F = [ Q ! U r q ` U U U Y Y r w ` W T T U U r q [ U U U U U r w ` Y U U U U r w ` U U T U U r w [ U Y Y ",
"D D D D D D K D K D D K F = [ [ } } i 3 w [ [ } [ ` y 3 w ` } } [ [ s 3 w [ [ [ } [ s 4 w O. .%.&.[ s 4 w +.+.+.[ [ t 4 w ` ` ` ",
"D D D D D D D D D D D D F = ` `  .} y i U ` ` ` [ } t s U [ } } [ [ t t U [ [ [ ` ` y t U [ @.;.6.[ t s U &.&.[ [ [ t y U [ [ [ ",
"D D D D D D D D D D D D F @ ` ` ` ` I 6 6 6 6 6 6 6 6 6 6 6 6 6 6 6 6 6 6 6 6 6 7 7 6 6 6 7 7 6 6 6 6 6 6 6 6 6 6 6 6 7 6 6 6 6 ",
"D D D D D D D K D D D D D # ` ` ` ` ` y y q q w w w w w w w w w r w 9 9 w w w w w w w w w w w w w w w w w w w w w w 9 9 9 9 w w ",
"D D D D D D D D D D D D D # ! L 8.} 5.} U U T T U U U U U U U U U U U U U U T T U U U U U U R R U U U U U U U U U U U U U U U T ",
"K D D D D D D D D D D K K - s w L } 0.%._ ~ ~ ~ / / ~ / ~ / ~ / ( / / ~ / ` ` ` ` X.o.o.X.X.#.X.&.{ #.O.@.` O.O.X.[ ` ` ~ ~ ~ ~ ",
"D K D D D K K K D D D D K - u s T ` q.;.~ ~ ~ ~ ( ( ( ( ~ ( ~ / ( ( ~ ` ` ` ` ` O.` o.o.X.#.[ &.o.#...@.O.O.O.X.[ { ` ~ ~ ~ ~ ~ ",
"K K D K D D K D D D D D D & _ _ } } 0.*.~ ~ ~ ~ / ~ ~ ~ ~ ~ / ( ~ ` ` ` ` ` o.o.O.O.$.o.&.[ #.O.&.X.#.o.O.O.O.' [ X.~ ~ ~ ~ ~ ! ",
"D D D D D D D D D D D D D # } } } } 0.*.~ ~ ~ ~ ( ~ ~ ~ ~ ~ / ` ` ` ` ` O.O.o.o.O.@.O.@.X.&.X.$.[ @.X.X.X.` ' ' [ _ ` ~ ~ ~ ! ~ ",
"D D D D D D D D F F F F D & [ [ ` ` 0.*.~ ~ ( / / / / ( ` ` ` ` ` ` ` O.o.o.@.` @...#.X.&.X.@.X.&.{ ..o.O.` ` ' / ` ~ ~ ~ Q ( Q ",
"D D D D D K D D F F F F D & ` [ ` ` 0.*.( ~ / ( ( ( } [ ` ` ` ` X.X.o.o.O.#.O.&.` @.` @.O.@.X.@.o.o.o.o.' ` ` ~ ` / ( ~ ! ( ! ! ",
"K D D K D D D F F F F F F @ ` ` } ` 0.*./ ~ ~ ^ ` ` ` ` ` ` O.O.O.X.` X.&.X.#.X.@.o.&.o.@.O.#.X...O.O.` ` ` / ` ~ ~ ~ ! / E W W ",
"K D D D D D D F F F F F F @ Q L 0.} 0.*.~ ~ ` ` ` ` ` ` ` ..O.O.O.X.X.@.[ &.O.@...#.o.#.o.#.` o.` O.` O.` ~ ` ~ ~ ~ W ~ W E W ! ",
"D D D D K D K D F K F K F # i q L [ 8.;.[ ` ` ` [ [ [ [ o.o.o.o.&.O.&.o.@.X.#.o.&.` &.o.&.X.O.X.O.` ` ` ` ` ~ ~ ~ ~ ( E E E E Y ",
"D D D D D D K D F F F F J # t i U } 8.;.{ ` [ ` [ o.X.X.o.o.X.&.` &.X.&.` &.o.#.O.&.X.$.` O.X.X.` O.` ` ` ~ ~ ~ ~ ~ Q E E E U Y ",
"D D D D J J D D F F F F J = _ _ [ ` 8.;.[ [ [ X.X.o.o.o.X.X.&.[ @.X.&.[ @.o.@.` &.X.@.X.X.X.X.` O.` O.` ~ ~ ~ ~ _ ! _ E ! T W U ",
"D D D K J K K K F F F F J # } } } ` 8.;.[ X.X.X.[ o.o.X.[ &.X.#.X.&.X.#.o.#.O.&.O.@.[ X.O.X.` X.` ` ` / ~ ~ ~ ~ ! ~ W ! U Q U U ",
"F F F F J J J F F F F F F = ` [ ` ` w.=.o.[ o.o.X.o.o.[ #.` @.X.@.O.#.O.@.` #.o.@.X.&.` X.[ } ` ` ` ( ( ( ( ~ ! ( Q Q R Q U U U ",
"F F F F J J F F F F F F F # } [ ` ` 9.=.X.X.{ o.X.&.o.&.o.@.X.&.O.@.o.#.X.@.o.#.O.@.X.X.[ X.` ` ` / [ ~ / / ! ~ Q Q Q ! U U U U ",
"F F F F F F F F F F F F F # [ [ ` ` w.=.o.X.o.X.&.[ #.X.#.o.&.X.&.` #.O.@.X.&.o.#.` X.` X.[ X.[ ~ ` ~ ~ / ~ _ ! ! ! Q R U U U L ",
"F F F F F F F F F F J J J & Q L 9.` w.=.o.[ X.&.o.#.o.&.[ &.[ &.X.%.o.+.O.@.X.#.o.o.` o.` ` ` ( ` ~ ~ ~ ~ ~ W W ! ! U Q U U L U ",
"F F F F D D D D D D D D D & s w I [ 8.;.X.X.@.O.@.X.@.` @.` &.X.&.X.&.[ &.X.&.X.X.` X.` ` ` ~ ' / ( / / ~ W ! ! ! U Q T T L Y Y ",
"F F F F D D D D D D D D D & r s U [ 8.;.` @.X.@.X.&.X.#.X.&.X.&.O.@.[ #.X.&.o.[ [ X.[ ` ` / ' ~ ~ ~ ~ ( ! W W W T Q U U P Y L U ",
"F F F F D D K D K D K D D & ( ( [ [ 8.;.+.X.@.O.&.` &.X.&.X.&.X.#.O.#...&.X.X.[ X.` ` ' ` ' ~ ~ _ ~ / W ~ W ! U ! T U L U L Y U ",
"F F F F D D D D D D K D D # [ { [ [ 8.;.o.@.O.@.X.&.X.#.1.r.r.r.r.r.r.r.e.e.{ o.' ` ` ` [ ~ ~ ~ ~ ~ E ( Q E U ! T T I U L U U U ",
"F F K F F F D D D K F F F # [ [ X.X.9.*.@.X.&.X.#.o.#.[ B b m m N N :.>.1.e.X.[ ' ` ` ' ~ ~ / ( ~ W ~ W ! ! ! Y Y U Y L U L U U ",
"F K F F F K D D D D F F F # [ X.X.X.9.;.O.@.2 Z S &.[ s O b & 1.m N h r.<.3.{ [ ' ` ` ~ ~ ~ / ( W ~ ! ! ! ! U ! Y Y L Y L Y U U ",
"K F F F K D D D D D K F K # X.X.X.` 9.;.@.y ; < S X.( y O c c c m m N N :.3.{ { ` ` / ` ~ ~ ~ W ~ W ! W ! Y ! U U L U L U L U U ",
"F K F F D D K K D D K F F # ! L 9.O.9.;.I r . < Z ;.Y y O c c c v m m N N 3.} [ ` ~ ` ~ ~ ~ ~ ~ ! W W W R ! Y U L Y L Y L U U U ",
"D D D D D D D D G D D D D & s w L X.8.{ I U . < A &.U i o b z z v v m m B 2.} ` ~ ` ( ~ / ~ ~ E Q W ! U Q T U P U P R L R P R R ",
"D K D K D D D D D D D D D & t y U &.8.Q I 6.. , A &.U s o h d , C C S m m 2.` ~ ` ~ / ~ ~ ~ ! ! ! ! U W Y Y U U P U L U P Y R Y ",
"D D D D D D D D G D D D D - ( ( &.;.*.Q I ;.. < C @.U s o d o :     C z m 2.~ ` ~ ~ ~ ~ ~ E / Q W U ! U Y Y Y L U L Y P U U U U ",
"D D D D D D K D D G G D G % @.*.;.6.o.Q I ;.. , V @.U i O # + >     C z v 2.' ~ ~ _ ~ _ E ( Q ! U ! U W Y Y P U P U P Y L U U ! ",
"D D D D D D D D D D D G D - *.*.6.6.[ Q I ;.. < V @.Y y o o o ; O O V z v 2.~ ~ ~ ~ ~ Q _ ! ! ! W U Q U U L U L Y L U L Y U U U ",
"K K D D D D K D D D D G D - *.6.6.9.` ! I #.. < 1 &.U s o + o ; ; > < z v 2.~ ~ ~ ~ ! ( ! ! ! Q U W U U L U L R L U L U U U U ! ",
"D D D D D D K D D D D D D & 5.0.0.0.` W I @.. < 2 &.U s o o + + O O O z z >.~ ~ ~ W / E ! ! ! U Q U U L U L U L Y L U U U U ! Y ",
"D D D D K D D D D K D D D # *.O.q.t.} W I &.. < 1 &.U s o + + + O O f z z >.~ ~ ! ~ W W ! ! R Q T U U U L U L U L Y L U U U U ! ",
"D D D D D K D D D D D D D & [ i ` 8.} ! P U r . > o.U s O & # d f h v v v >.~ ~ ~ W ! W ! U Q R R U U L Y P Y P U L R R U U ! U ",
"D K D D K D D K D D D D D - [ [ *.8.X.! P y t L o.o.U s O & X n h b + :.v :._ ~ W ~ W W R Q U U U U L U P R L Y L U U T U ! U ! ",
"D K D D K K D D D D D D D - ;.;.0.5. .! I L L X.{ o.U s O O & h h g v v v :.~ ! ~ W W U Q U Q U U P U L R L R L U U U R U U ! ! ",
"D D D D K K D D D D D D D - y.8.5.5.X.! I U [ X.o.[ U s O O O O O o o o o v W _ W W W W U Q U U P U L Y L Y L R L U U R U ! U ! ",
"D D D D J F F F D D D D G # 8.6.6.-.X.Q Q X.X.X.[ [ U s s s y s t s s y s Q _ ! W W E Y W U U U R P R P U L R L R U U U W U W W ",
"D D D D J F F F D D D D G & 6.6.;.-.o.E X.o.X.X.[ [ U U Y Y Y U U U U U ( ( ! ! W W U W U U U U P U L R L U L U U U U Q U ! W W ",
"D D D D F F F F D D D D G # 6.;.@.@.@.` ` O.X.` } [ ` ` } } ~ ' ( ( ( / ( Q Q Q ! U W U U U U L R L U P U L U U U U U U Q U ! ! ",
"D D D F F F F F D D D D D # Q I 9.@.9.O.O.O.` ` [ ` ' ` ` _ ` ~ ( ( / / Q Q Q Q Y W U U U U L U L U P U L U L U U U U Q U ! ! ! ",
"D D D D D D D D D D D K D - s w I &.8.&.X.[ ` ` ` } ` ` _ ` ~ ~ ~ ~ ~ W ! ! ! R Q U R U R L U I Y L Y L U L Y U U U ! U ! ! ! W ",
"D D D D K D D D D D K D D & t s U &.8.;.[ [ } } ` ` } _ ` _ ` ~ ~ / E / ! ! T Q U Q U R L U I R L U L Y L U U U U U Y ! U ! W W ",
"D D D D K D D D D D D D K % ( ( &.&.8.;.[ [ ` } ` ` ~ ` ~ ` _ ~ ~ W ~ E Q U Q U Q U R U U L U L U L Y L U U U R R R ! U ! ! ! ! ",
"D D D D D D K K D K D D G # $.@.&.[ 8.=.[ [ ` ` ` ~ ` ~ ` ~ ~ ~ ! ~ ! ! ! Q U Q U R U U L U L U L Y L R L U U U R ! U ! ! ! ! ! ",
"K D D D D D D D D D D D G $ &.&.X.o.w.=.` ` ` ` ~ ` ~ ` ~ ~ _ ! ~ W W ! Q R Q U U U U L U L R L U L U L Y U R R U U Q Y ! W W W ",
"D D D D D K D D D D D D D # o.o.[ X.w.=.` ` ` ~ ` ~ } _ ` ~ ! ~ W W W ! U ! U U U U L U L U L U L Y L U U U Y T Y W T E W W W W ",
"D D D D D D K D D D D D G # ` o.X.X.8.-.` ' ~ ` ~ [ ( } ~ ~ ~ ! E E W U Q U U U U L U L U L R I U L U R U R U U W Y ! W E W W W ",
"D D D D D K D D D D D D D & Q I 8.X.8.-.` ` ` ~ [ ( [ _ ~ ~ ! ! E E U ! R U U U L U U U L R L U L U L Y U U U ! U ! Y E E W W ! ",
"D D K K D D D D D D D D D & s w I O.9.*.{ ` ~ ` ~ } ~ _ ~ W W ! E U ! U T U U U Y U U I U P U L U P U U U T U Y W U Q ! W Q Q Q ",
"D K D D D D D D D D D D D & y y Y { 9.*.*.*.*.*.*.*.-.*.*.*.*.*.-.;.;.;.-.&.&.&.X.X.} ~ ~ ~ ( [ O.+.+.+.+.+.+.@.@.@.&.&.@.{ X.X.",
"D D D D D D D D D D D D D & ( ( { { 8.8.9.9.8.8.8.0.8.8.8.8.8.8.9.8.8.0.8.6.6.4.5.*.*.+.@.&.;.;.6.6.6.6.6.6.4.6.6.5.4.6.6.6.6.6.",
"D D D D D D D D D D D D K & [ [ [ { [ [ ` ` O.` } [ ` ~ ~ ~ ~ W Q Q Q ! W W W U L L i s s y t L U U ! ! W W ! W / / { ` ` ` { [ ",
"D D D D D D D D F F F F K - { { } ` Q L q.` ` ` ..` W P 8.~ ! W ! ! ! w [ Q U L L s y w Q s y P U W W 9 X.E Q ! ( [ Q L 9.` ` ` ",
"D K D D D D D D F F F F K - ` { [ { i w L ` ` } ` ` y 9 P W W W ! ! s 3 w U L L t s w 4 6 s L P U W y 3 9 W ! _ / [ s w I ` ` ` ",
"K D K D F F F F F F F F F d ` ` { { r s T ` ` ` { { t s T W W ! W W t s U U L L s s w w t L P U Q Q t s T ! Q ( ` ` t s U ` ` ` ",
"K D D D F F F F F F F F F j j h j h j h h h j h h j j h k h h g k h k j j h h h j h h h h h g k k j j h k j h h j h h h h h h h "
};
