/* XPM */
static char *result[] = {
/* columns rows colors chars-per-pixel */
"64 64 197 2 ",
"   c black",
".  c #010000",
"X  c #000001",
"o  c #303000",
"O  c #303100",
"+  c #303001",
"@  c #303101",
"#  c #202120",
"$  c #2C2C2C",
"%  c #2D2C2C",
"&  c #2C2D2C",
"*  c #2D2D2C",
"=  c #2C2C2D",
"-  c #2D2C2D",
";  c #2C2D2D",
":  c gray22",
">  c #393838",
",  c #383938",
"<  c #393938",
"1  c #383839",
"2  c #393839",
"3  c #383939",
"4  c #393939",
"5  c #404000",
"6  c #404101",
"7  c #494800",
"8  c #585800",
"9  c #595800",
"0  c #585900",
"q  c #696800",
"w  c #707000",
"e  c #707001",
"r  c #004040",
"t  c #005858",
"y  c #015858",
"u  c #005958",
"i  c #015958",
"p  c #005859",
"a  c #005959",
"s  c #007070",
"d  c #017070",
"f  c #007170",
"g  c #017170",
"h  c #007071",
"j  c #017071",
"k  c #007171",
"l  c #017171",
"z  c #007474",
"x  c #007574",
"c  c #007878",
"v  c #017878",
"b  c #007978",
"n  c #007879",
"m  c #007979",
"M  c #007C7C",
"N  c #017C7C",
"B  c #007D7C",
"V  c #017D7C",
"C  c #007C7D",
"Z  c #017C7D",
"A  c #007D7D",
"S  c #484848",
"D  c #494848",
"F  c #484849",
"G  c #494849",
"H  c #484949",
"J  c gray33",
"K  c #555454",
"L  c #545554",
"P  c #555554",
"I  c #545455",
"U  c #555455",
"Y  c #646464",
"T  c #656464",
"R  c #646564",
"E  c #656564",
"W  c #646465",
"Q  c #656465",
"!  c gray44",
"~  c #717070",
"^  c #707170",
"/  c #717170",
"(  c #707071",
")  c #7C7C7C",
"_  c #7D7C7C",
"`  c #7C7D7C",
"'  c #7D7D7C",
"]  c #7C7C7D",
"[  c #848000",
"{  c #858000",
"}  c #848100",
"|  c #858100",
" . c #848001",
".. c #949000",
"X. c #949100",
"o. c #9C9800",
"O. c #980088",
"+. c #980088",
"@. c #980088",
"#. c #980088",
"$. c #980088",
"%. c #980088",
"&. c #980088",
"*. c #980088",
"=. c #008484",
"-. c #018484",
";. c #008584",
":. c #018584",
">. c #008485",
",. c #018485",
"<. c #008585",
"1. c #018585",
"2. c #008C8C",
"3. c #018C8C",
"4. c #008D8C",
"5. c #018D8C",
"6. c #008C8D",
"7. c #018C8D",
"8. c #008D8D",
"9. c #009898",
"0. c #019898",
"q. c #009998",
"w. c #019998",
"e. c #009899",
"r. c #019899",
"t. c #009999",
"y. c #00A4A4",
"u. c #01A4A4",
"i. c #00A5A4",
"p. c #01A5A4",
"a. c #00A4A5",
"s. c #01A4A5",
"d. c #00A5A5",
"f. c #20B0B0",
"g. c #21B0B0",
"h. c #20B1B0",
"j. c #21B1B0",
"k. c #20B0B1",
"l. c #21B0B1",
"z. c #20B1B1",
"x. c #21B1B1",
"c. c #20B4B4",
"v. c #21B4B4",
"b. c #20B5B4",
"n. c #21B5B4",
"m. c #20B4B5",
"M. c #21B4B5",
"N. c #20B5B5",
"B. c #21B5B5",
"V. c #48C0C0",
"C. c #49C0C0",
"Z. c #48C1C0",
"A. c #49C1C0",
"S. c #48C0C1",
"D. c #49C0C1",
"F. c #48C1C1",
"G. c #49C1C1",
"H. c #74C8C8",
"J. c #75C8C8",
"K. c #74C9C8",
"L. c #75C9C8",
"P. c #74C8C9",
"I. c #75C8C9",
"U. c #74C9C9",
"Y. c #75C9C9",
"T. c gray55",
"R. c #8D8C8C",
"E. c #8C8D8C",
"W. c #989898",
"Q. c #999898",
"!. c #989998",
"~. c gray66",
"^. c #B4B4B4",
"/. c #9CDCDC",
"(. c #9DDCDC",
"). c #9CDDDC",
"_. c #9DDDDC",
"`. c #9CDCDD",
"'. c #9DDCDD",
"]. c #9CDDDD",
"[. c #9DDDDD",
"{. c #B8E8E8",
"}. c #B9E8E8",
"|. c #B8E9E8",
" X c #B9E9E8",
".X c #B8E8E9",
"XX c #B9E8E9",
"oX c #B8E9E9",
"OX c #C0C0C0",
"+X c #C0C1C0",
"@X c #D0D0D0",
"#X c #D0D1D0",
"$X c #D0D0D1",
"%X c #D0D1D1",
"&X c gray82",
"*X c #D9F4F4",
"=X c #D9F5F5",
/* pixels */
"O.O.$.O.$.O.+.%.O.O.O.$.O.O.@.O.$.O.$.O.@.O.O.1 , 1 > 2 : : : > : 1 : > < : : > 1 > : : 1 : > 2 : > > 1 : : , 1 : , , , : : : : ",
"O.@.+.O.O.O.O.O.$.O.+.O.O.O.$.O.O.$.O.@.O.$.@.: M n n c c c v b c c n c c n c c c c n c v b b c v m c b n n c c c c c v c c c v ",
"O.O.@.O.O.O.O.O.O.O.O.#.O.O.$.@.O.$.O.O.$.O.+.: f.e.0.2.z f h.2.2.4.2.2.z d f.0.2.2.2.2.z s k.6.2.2.3.3.z h f.2.2.2.2.2.z f f.6.",
"O.O.+.O.O.O.O.O.O.O.+.O.O.@.O.O.O.O.O.$.@.$.O.> f.j.h.g.B r h g.f.k.k.z.N r h k.f.z.z.h.M r h k.f.f.h.k.M r s c.c.V.V.h.M r s V.",
"+.+.O.#.@.O.O.@.O.O.+.O.O.O.O.O.O.O.O.@.O.O.+.1 g.f.f.f.v V 2.f.f.f.f.f.c B 6.f.k.k.f.f.n C 6.f.x.f.f.h.b Z 2.c.V.K.].l.m Z 7.C.",
"O.O.@.O.O.O.$.O.O.O.$.O.O.@.%.$.O.O.O.$.$.O.O.: k.f.f.h.-.t t p p t t a t y y t t t y p i t t t y t i t t t t t t t t t t u p t ",
"O.+.O.O.O.+.O.O.O.O.O.O.@.O.O.@.%.O.O.O.O.+.O.: g.f.k.f.f.B c s d s s s s s d d g d l h h f s h s d s d s d d f s s j s s j s f ",
"O.O.#.@.O.O.O.$.O.O.O.+.+.O.@.O.O.O.#.@.#.O.O.< e.=.{.f.`.j.3.4.2.2.2.2.4.2.2.6.2.3.2.2.2.6.2.3.3.2.2.2.6.2.6.2.3.2.2.8.2.8.6.2.",
"O.$.O.O.O.O.$.O.O.O.O.O.O.O.O.O.$.@.@.@.O.O.O.: B s >.g..XD.y.y.y.y.y.y.y.u.y.y.y.y.a.y.d.y.y.f.f.h.k.b.b.b.c.c.V.N.V.c.V.c.V.b.",
"O.O.O.O.O.@.$.O.@.O.O.$.O.O.O.@.O.O.O.@.@.O.@.: c C 7.f.{.P.a.i.i.i.i.a.y.a.u.y.y.p.s.i.y.g.f.f.f.f.b.c.m.m.b.V.m.A.b.V.M.V.v.M.",
"&.O.O.O.O.O.O.$.O.O.$.+.O.@.O.@.O.O.O.O.O.O.O.> y.y.f.f.}.L.u.y.y.u.y.y.y.y.y.s.y.y.y.f.h.f.f.f.c.m.m.v.V.c.V.v.V.b.Z.c.A.c.b.c.",
"O.$.O.O.O.O.O.$.O.$.+.+.O.@.O.O.O.O.O.O.O.O.O.: k.h.f.x.{.J.u.y.y.d.y.y.y.a.u.y.d.f.f.k.g.h.c.c.c.c.c.V.c.S.c.S.v.V.m.F.c.b.c.b.",
"$.+.O.O.+.O.O.O.O.@.$.O.O.O.O.O.O.$.O.O.O.O.O.: k.k.g.f.{.H.a.y.y.y.y.y.y.u.f.f.h.k.z.g.c.c.c.c.Z.N.C.v.V.m.Z.m.V.b.V.c.c.m.v.f.",
"O.O.O.+.+.O.$.O.O.O.O.O.O.O.@.$.+.@.@.O.O.@.+.: f.k.f.k.{.J.y.a.y.y.a.y.f.f.f.k.f.k.b.c.N.m.M.V.b.V.m.V.m.Z.c.V.v.C.m.c.c.m.f.f.",
"O.O.O.O.$.O.+.O.O.$.@.O.O.O.+.$.+.$.O.@.O.O.+.> k.g.f.k..XH.i.y.y.u.g.h.h.g.h.j.M.v.c.c.v.c.G.b.Z.c.V.c.V.c.C.v.V.m.b.c.N.f.f.f.",
"$.O.O.O.$.O.@.O.$.$.O.O.O.O.+.O.O.+.%.+.O.+.@.: 9.;..Xz.{.H.s.y.h.k.f.h.f.f.f.c.b.c.v.c.v.C.c.V.c.Z.c.Z.b.V.c.V.c.b.c.m.g.h.k.y.",
"#.O.O.$.O.$.+.@.$.O.$.O.+.@.+.O.O.O.@.+.O.O.O.: N s -.h..XK.l.f.h.f.f.h.j.c.c.n.c.c.V.c.V.c.Z.c.Z.c.C.v.V.c.C.c.c.b.v.f.f.f.f.g.",
"O.O.O.@.$.O.@.O.O.O.$.O.O.O.O.O.O.+.O.O.O.$.@.1 v C 2.h.oXP.f.g.g.f.f.c.c.c.v.c.m.C.c.V.M.C.v.V.c.V.m.S.c.Z.b.c.c.c.h.c.f.f.h.y.",
"O.$.O.O.O.O.O.O.O.O.O.O.O.&.@.O.O.+.&.*.O.O.O.2 y.y.l.k.{.K.k.f.g.b.v.c.c.b.c.c.V.c.V.c.C.c.S.b.C.c.Z.c.V.v.c.c.c.f.c.h.f.f.y.y.",
"$.O.@.O.@.O.$.O.O.O.O.O.O.@.O.O.O.+.&.O.O.O.O.3 f.f.f.h.{.P.f.c.c.c.v.v.n.c.c.F.M.V.c.V.c.C.c.V.m.S.N.A.m.m.c.v.f.c.f.f.k.y.u.y.",
"+.%.+.@.O.O.O.O.$.O.O.O.@.O.@.$.O.O.O.O.$.O.#.: h.g.h.f.}.J.m.c.c.c.c.b.c.c.C.v.V.c.V.v.V.m.V.c.C.v.V.c.V.c.b.f.v.g.h.g.a.a.y.i.",
"O.O.O.+.O.+.$.O.O.O.O.$.O.O.@.O.@.+.$.@.&.O.$.> l.f.f.f..XP.c.b.c.m.c.S.c.V.c.V.c.C.c.V.m.V.v.Z.c.V.c.V.c.c.f.c.f.f.f.y.f.a.u.i.",
"O.$.+.O.O.$.O.O.O.@.O.$.O.$.@.%.O.O.O.O.O.+.O.: f.f.f.f.{.H.b.n.c.c.Z.v.V.c.V.c.Z.c.V.v.V.b.Z.b.V.c.C.c.v.f.n.l.f.h.a.h.y.u.u.i.",
"+.O.O.$.@.O.@.O.O.O.+.@.$.$.O.+.O.O.O.O.O.O.+.: 0.=.{.f.|.J.m.c.m.S.m.S.c.V.c.V.c.V.c.V.c.V.c.S.c.V.c.v.g.v.z.f.f.y.f.y.u.i.y.y.",
"#.O.O.O.+.O.O.@.+.O.$.#.O.O.O.O.O.$.O.$.#.O.O.< C h =.g..XK.c.b.V.c.V.b.V.c.S.M.S.c.V.c.V.M.D.c.Z.c.c.f.c.k.z.g.d.z.y.s.y.i.y.9.",
"#.O.+.O.O.O.O.O.O.O.O.O.O.@.O.$.%.O.O.O.O.&.+.: c A 2.f.{.J.m.S.b.V.b.S.m.V.m.V.c.V.c.C.c.V.c.V.c.c.l.N.z.h.f.y.f.a.y.y.y.y.9.9.",
"$.$.+.@.@.O.O.O.O.+.O.O.O.#.O.O.O.O.+.$.O.O.O., i.a.k.f.|.U.Z.b.V.c.S.m.V.c.C.m.V.c.Z.c.S.m.V.v.b.h.n.h.f.f.f.h.y.y.u.y.d.0.y.q.",
"O.+.O.+.&.@.O.O.O.O.O.O.O.O.@.+.$.O.O.*.O.#.+.4 h.g.f.f.{.L.b.Z.b.V.c.C.c.V.~.@X@X%X#X$X@X@XOX+Xh.n.f.g.f.g.g.u.y.u.y.u.9.y.0.9.",
"@.+.O.O.O.@.O.$.@.+.O.O.O.&.O.O.@.O.O.#.O.O.O., k.f.c.v.{.I.Z.v.A.c.V.b.V.f.] Y ! ^ ) ) T.W.~.+Xb.f.h.h.f.z.i.a.y.a.i.q.y.r.e.e.",
"O.O.O.$.O.O.O.@.%.$.$.O.O.&.+.O.+.O.O.O.O.O.+.: f.c.c.v.{.H.c.S.e X.o.V.f.Z $ Q 1 ~.( ' J &XQ.^.g.f.k.h.g.d.y.y.y.y.9.a.9.9.9.9.",
"$.%.O.O.O.$.O.@.$.%.O.$.O.+.O.O.O.O.+.O.+.O.$.> c.m.c.m.{.H.C.v 5 8 o.c.a.M % R T Y ! ~ _ ` E.^.g.g.g.g.u.f.a.d.y.9.y.9.e.9.9.2.",
"O.O.O.O.$.O.O.O.O.O.O.O.O.+.O.#.$.%.+.O.+.+.O., 0.=.{.b.{.H.=.z o 8 ..H.2.M $ Y W T Y ! ! ) ) ^.f.f.f.i.g.y.u.a.y.i.q.9.r.9.2.q.",
"@.@.+.O.O.O.O.$.O.O.O.@.O.$.$.O.@.O.@.O.$.O.+.: N k ;.m.{.g.=.2.o 8 ..V.2.Z = R Y Y Y W ! ! ) ~.g.g.y.f.y.i.y.y.p.9.q.9.0.4.9.2.",
"$.O.O.O.O.%.O.#.O.$.O.O.O.$.O.$.+.O.O.O.O.$.@.: c M 2.V.{.9.>._.O 8 ..V.6.M $ J F 0 | [ o.~ ! ~.f.a.h.y.y.i.y.y.e.9.9.9.4.e.2.4.",
"+.$.O.@.+.O.O.+.O.$.O.O.O.O.+.+.O.+.$.O.O.O.O.: u.i.V.H.H.9.1.P.o 8 { Z.2.M $ D $ 7 .   } Y ! ~.d.f.y.i.y.y.s.9.p.t.q.4.0.2.2.2.",
"@.+.O.O.O.O.@.O.O.@.O.O.O.O.O.O.O.$.+.O.O.O.$.: Z.H.H.[.m.0.-.H.+ 8  .Z.2.M & : $ 7   X  .Y Y ~.f.i.y.y.y.y.9.s.9.9.4.9.3.q.2.4.",
"O.O.O.O.O.O.O.O.O.O.O.O.O.O.O.O.$.$.O.O.O.O.O.2 H.J././.k.9.=.H.o 9  .C.2.B $ & $ 5 $ $  .Y Y ~.a.y.i.u.y.r.a.e.9.9.w.2.q.2.2.=.",
"O.@.O.O.O.+.@.O.@.O.O.@.O.O.O.O.O.O.O.O.$.+.O.: P././.}.f.9.>.V.O 0 w S.8.M $ = & 6 5 7 0 W Y ~.i.a.i.d.q.y.e.9.0.9.2.e.2.3.=.3.",
"@.O.O.O.#.O.O.O.O.%.+.O.O.O.O.O.$.O.O.O.O.+.O.< (.XX|.{.k.9.=.A.o 8 w C.3.A * = $ $ = $ * Y T W.i.y.y.9.y.0.0.0.0.3.9.2.2.>.4.=.",
"O.O.$.O.O.@.O.O.+.$.$.&.O.$.O.O.+.$.%.O.O.O.@.> P.N.{.=Xf.9.=.S.@ 8 q V.6.M % % $ $ $ = G E Y !.y.y.9.i.q.9.9.9.2.e.2.6.2.2.<.2.",
"O.O.O.#.@.+.$.O.O.O.O.O.O.$.O.O.@.$.O.O.O.@.O.> k.B c.{.f.e.=.6.x o 7 c.3.M $ , : H S I W W T W.u.i.y.0.q.e.0.3.9.2.2.6.2.;.2.;.",
"O.O.O.O.O.@.&.O.O.&.O.O.O.+.@.@.+.O.O.O.O.O.O.: f.h.H.}.v.9.>.v c =.m.v.2.M = > # / J Y $ R.Y T.a.a.e.y.q.q.7.9.4.2.4.2.=.6.=.6.",
"$.&.O.O.O.+.O.@.@.O.O.O.@.@.O.O.O.O.O.O.@.+.O.> H.I..X/.b.e.=.-.;.c.c.b.2.B $ - 1 U K J Y Y Y T.y.w.y.9.9.2.9.4.9.4.2.=.3.=.2.:.",
"@.O.$.O.O.+.@.O.O.$.$.O.+.O.O.O.O.@.O.O.O.O.O.: *X.X`.(.c.9.=.5.c.c.b.k.2.V & * $ $ ; $ $ & * T q.a.9.9.9.9.2.9.6.2.=.5.=.5.>.6.",
"O.O.@.O.O.O.O.@.O.$.@.@.O.O.@.O.O.+.O.%.@.O.+.: {././.H.c.9.e.c.m.m.c.k.2.M M M B M M N C M N 9.y.9.9.w.9.2.0.6.2.2.2.<.4.=.2.;.",
"O.O.O.O.@.+.O.O.O.O.O.O.$.O.@.O.O.#.O.O.O.O.O.: /./.H.K.b.e.v.N.n.v.h.h.2.2.2.2.2.7.3.7.2.2.s.u.9.0.9.e.3.e.6.3.8.5.=.3.=.2.=.3.",
"@.O.@.O.O.O.O.O.$.$.O.O.@.+.O.O.+.&.O.O.O.O.%.1 /.K.D.A.V.k.b.c.c.f.h.g.f.k.h.g.y.f.a.y.y.s.y.q.0.9.q.2.q.2.2.2.2.-.6.=.2.=.2.=.",
"O.O.O.+.$.@.O.O.O.@.$.@.O.O.O.@.O.O.O.O.O.O.$.: 9.,.{.V.|.m.c.c.g.g.f.f.f.g.f.y.f.y.y.y.y.i.e.q.9.9.2.9.4.2.4.2.=.2.=.2.=.2.=.4.",
"$.@.O.O.$.O.O.O.O.@.+.+.O.O.$.O.+.O.O.+.O.@.%.: M s ;.V.}.D.m.f.f.f.g.g.h.f.i.f.u.y.i.a.y.0.q.9.9.2.0.2.3.2.6.=.6.;.6.=.2.;.4.-.",
"O.$.O.@.O.O.%.O.O.O.O.$.+.@.+.*.O.O.O.+.O.O.O., c N 2.C..XH.k.g.k.f.f.h.f.y.g.y.f.y.a.y.9.y.9.9.2.e.2.q.6.3.:.3.=.2.=.8.=.2.=.6.",
"+.O.O.O.O.O.O.O.$.$.O.$.@.O.O.O.O.O.O.O.O.@.O.: y.i.Z.V.{.H.f.f.f.g.f.k.y.f.y.h.i.y.u.9.y.e.9.5.9.3.q.2.2.2.4.=.6.>.6.;.2.;.2.4.",
"O.@.$.O.O.O.@.O.O.O.O.O.@.@.O.+.O.+.O.O.O.+.O.1 V.C.D.N.|.J.f.k.f.f.f.y.k.u.g.a.y.y.9.d.9.9.9.0.4.9.2.3.6.4.-.2.;.2.-.2.=.6.=.8.",
"#.O.O.@.O.O.O.+.$.+.O.@.O.O.@.+.$.O.@.+.O.O.O.2 V.V.c.v. XK.f.j.f.h.y.z.a.f.a.d.y.9.y.9.9.9.e.4.9.2.4.4.6.=.2.>.2.;.2.=.4.<.2.2.",
"O.O.O.O.O.$.@.O.O.O.+.O.$.O.$.O.$.O.$.O.O.O.+.: c.c.c.v.{.H.f.h.f.y.g.y.f.y.f.y.9.a.0.9.0.0.2.0.2.4.3.3.=.2.>.2.>.4.=.2.=.4.2.6.",
"+.@.+.O.O.O.O.&.O.$.O.O.O.@.O.O.$.@.@.@.%.O.%.: c.c.c.c.}.Y.f.k.y.f.u.f.y.f.u.a.y.w.t.9.r.2.9.2.6.8.7.-.3.>.2.;.2.;.4.=.5.2.2.2.",
"O.O.O.O.O.O.+.O.O.O.O.O.O.@.O.$.O.@.O.@.@.+.O.2 q.=.{.c.{.H.f.f.f.a.k.y.g.y.y.u.9.0.9.0.4.9.6.2.2.2.-.3.6.4.=.2.-.2.=.2.=.2.2.4.",
"O.@.+.O.O.O.O.$.O.+.O.$.$.O.@.O.O.+.O.%.O.@.+.2 B s =.b.}.H.k.k.a.f.u.f.y.u.a.0.e.0.e.2.9.2.2.3.4.2.2.2.2.=.2.=.4.=.2.=.2.2.2.4.",
"O.O.O.O.O.O.O.$.O.O.+.O.O.O.O.O.O.O.O.O.O.O.+.: v B 2.f.|.P.H.H.J.J.H.H.K.H.H.H.H.P.H.J.H.U.K.V.V.V.c.b.g.y.a.y.y.f.M.C.S.V.Z.C.",
"O.O.$.O.O.$.O.$.@.$.O.$.+.O.$.O.$.O.O.@.O.O.O.: a.y.x.g.{.}.XX{.{.{.{.{.{.{.{.}.|.XX{.{.{.}.{././.)./.H.H.V.S.V.H.H.)./.'./.(.`.",
"%.$.O.O.O.O.$.O.+.$.O.#.O.+.O.$.O.%.O.+.O.O.%., g.f.j.h.f.f.h.f.g.f.f.f.g.y.i.y.p.9.9.q.9.9.9.9.q.2.=.=.M M M M M >.2.2.9.9.9.9.",
"@.@.%.$.O.$.O.%.O.@.$.+.O.$.$.O.$.$.O.#.O.O.@., f.g.k.f.0.=.{.g.f.f.j.f.e.;.{.i.0.9.0.9.0.s B.9.2.=.=.M c s q.M M >.7.0.9.s c.9.",
"O.%.O.O.$.O.O.@.+.O.@.@.O.O.$.O.O.O.O.@.O.O.O.: f.f.f.f.M s =.f.g.g.f.f.M h -.9.w.9.9.q.M r s 6.>.>.M V h r t M >.=.2.e.M r h 9.",
"+.O.O.#.O.+.@.O.%.$.O.O.O.O.O.@.O.O.O.O.O.&.$.S f.f.f.f.n N 6.l.f.f.g.j.c M 2.q.9.9.e.9.c M 2.6.=.=.M M d h n =.-.7.9.q.c M 2.9.",
"+.&.O.O.#.O.O.O.O.O.O.O.O.O.+.O.@.O.@.+.O.O.+.K J K J L I J K K J I I L J J J K J P J J J I P L P J J I J K L P J J I U K P I J "
};
