/* XPM */
static char *Layer_1_sprite_641735452233[] = {
/* columns rows colors chars-per-pixel */
"64 64 4 1 ",
"  c #980088",
". c #980088",
"X c #980088",
"o c #980088",
/* pixels */
"                                                         .      ",
"                                                                ",
"                                   X                      .    .",
"                                       X     X    X             ",
"                      .                  X                      ",
"                                         X                    o ",
"                                              .           .     ",
"                                    X               o           ",
"                                     .      o        o          ",
"                   .                          X .               ",
"                          .                                     ",
"                           X              ..   X                ",
"                                                    X     .     ",
"                            o                o     .o           ",
"                             X.o              o       X         ",
"                         .               o   X                  ",
"              X                               X.            .   ",
"                          o                X  X                 ",
"                              o   o                             ",
"              X             X   .                               ",
"                  X        o     X      .          Xo           ",
"               X                                                ",
"                       X            X                  .        ",
"                    o  X                                 o      ",
"                                       o                 .    X ",
"                              .                  o   .         X",
"                X X       X     .                               ",
"                   X                    X               .       ",
"                    X       o                                   ",
"                    o              o        X         o   X     ",
"                     Xo                  o     o                ",
"                                                    X           ",
"                                     X  o                       ",
"                               X             X        o  X      ",
"           .     o         o o                    . . X   X    X",
"                             o  X                .    X   .     ",
"           o      .       X             X                   .   ",
"   o.     o o                          o               .        ",
"                             o        o                  .      ",
"     X .                   o       .Xo                          ",
"                       X   X                 .                  ",
"  o      o                               o X o           X      ",
"                . .                    .                        ",
"          .                    X      o              X          ",
"                   X        X            o    X.        o       ",
"        o   .   .                 X    X o  . .      X      .   ",
"           X            .   .             .    .                ",
"     o    o         o  o      o                       X         ",
"                  o       .                                     ",
"     .       X                 .                   .            ",
"             X              .        .   .                 Xo   ",
"       o          o                X       .  X  .         X  o ",
"           .          .X         .   o .           o  X         ",
".             .    X                 o         . X         X    ",
"        oo             o       X      o          X  o o   o     ",
"              o o       .         X                             ",
"             o                          o    X              o   ",
"              o     X    X         o               o   oX    o  ",
"     .     .       X                o    o             X.    .  ",
"    o  o                                    .        o          ",
"    X                   X     .                                 ",
"     .   o         X          X   .          o          .       ",
"  X                                 o            o              ",
"                 o                                              "
};
