/* XPM */
static char *Layer_1_sprite_511735452229[] = {
/* columns rows colors chars-per-pixel */
"64 64 57 1 ",
"  c #303000",
". c #303001",
"X c gray22",
"o c #393838",
"O c #383938",
"+ c #383839",
"@ c #404000",
"# c #484800",
"$ c #585800",
"% c #595800",
"& c #686800",
"* c #707000",
"= c #004040",
"- c #005858",
"; c #007070",
": c #007474",
"> c #007878",
", c #007C7C",
"< c #484848",
"1 c gray33",
"2 c #545455",
"3 c #848000",
"4 c #949000",
"5 c #9C9800",
"6 c #980088",
"7 c #980088",
"8 c #980088",
"9 c #980088",
"0 c #980088",
"q c #008484",
"w c #018484",
"e c #008C8C",
"r c #018C8C",
"t c #008C8D",
"y c #009898",
"u c #019898",
"i c #00A4A4",
"p c #00A5A4",
"a c #20B0B0",
"s c #21B0B0",
"d c #20B1B0",
"f c #20B0B1",
"g c #20B4B4",
"h c #20B4B5",
"j c #48C0C0",
"k c #49C0C0",
"l c #48C1C0",
"z c #48C0C1",
"x c #74C8C8",
"c c #74C8C9",
"v c #9CDCDC",
"b c #9CDCDD",
"n c #B8E8E8",
"m c #B9E8E8",
"M c #B8E9E8",
"N c #B8E8E9",
"B c #D8F4F4",
/* pixels */
"666666666666666666666666666666666666666666666666666+++++OOOOOo++",
"666666666666666666666666666666666666666666666666666+,:>>>>>>:>>>",
"666666666666666666666666666666666668666666666666666+suur:;drrrrr",
"666666666666666666666666666666666666666666666666666+ffff,=;ddddd",
"666666666666666666666666666666666666666666666666666+ddsf>,tdffss",
"666666666666666666666666666666666666686666866666666oddffw-------",
"666666666666666666666666666666666666666666666666666Odfsdd,:;;;;;",
"666666666666666666666666666666666666666666666666666+uwmsbdrrrrrr",
"666666666666666666666666666666666666666666668666666+,;qamkiiiiii",
"666666666666666666666666666666666666666666666666666+>,ramciiiipp",
"666666666666666666666666666666666666666666666666666+iiaamcpiiipp",
"666666666666666666666666666666666666666666666666666+fdaamcpiiiii",
"666666666666666666666666666666666666866666666666666+aaaaNxiiiiii",
"666666666666666666666666666666666666666666666666666OaaaaNxiiiipi",
"666666666666666666666666666666666666666666666666786+aaaamxipiisa",
"666666666666666666666666666666666666666666666666788Ouqnamxiiffaa",
"666666660006666666666666666666666666777777777777777X,;wdmcssaaaa",
"666666666866666666666666666666666666677777777777777X>>tdmcfdaadd",
"666666666668666666666666777766666666667777777777777XiiaaMcdddghh",
"666666666666666666666666777766666666667777777777777XaaasMcdhhghh",
"666666666666666678666666777777776666777777777777777XssaaMxgggggg",
"666666666666666678806666777777776666777777777777777Xaassmxgggggl",
"666666666686666677606666777777776666777777777777777Xaddfmcgggglg",
"666666666666686677666666777777776666777777777777777XywMdMcgggjgj",
"666666666666666677777777777777776666666677777777666+,;qsNcgglglh",
"666666666666666677777777777777776666666677777777666+>>rsmcglglhj",
"666666666666666679997777777777776666666677777777666+iifsmxlgjhjh",
"666666666666668679997777777777776666666677777777666+ddfdmxalhjdl",
"666666666666666677777777777777776666666677777777666+ddhhMxlhkhjh",
"666666666666666677777777777777776666666677777777668OdhhhMcgk*45j",
"666666666666666677777777777777776666666677777777778XfhggMxj>@$5h",
"666666666666666677777777777777776666666677777777777XuqMaNxw: $4c",
"777777777777777766666666666666666666666677777777777X,;qfmdwt.%4k",
"777777777777777766666666666666666666666677777777777X>>rkmywb.%4l",
"777777777777777766686666666666666666666677777777777Xiijccywc $3l",
"777777777777777766866666666666666666666677777777778Ojccvhywc $3k",
"777777777777977766866686666666666686666677777777777Xccvvgywc $3l",
"777777777777777766666666666666666666666677777777778OcvvNdywk.$&z",
"777777777777779966666666666666666666666677777777777XvMMMdywk.%*k",
"777777777777777966666666686666666666686677777777777XxdMBdywk.%&l",
"777777776666669966666666666666666666999977777777777od,gMdywt:.#h",
"777777778666669066666666666666666666009977797777777ofdxMhyw>>wgg",
"777777776666600066666666666666666666006677777777778oxxMvguwwwggg",
"777777776666680066666666666666666666008677777777778oBmvvguwtgghd",
"777777776666666666666666666666666606666677777777777XMvvxgyyggggd",
"777777776666668666666666666666666666666077777777777Xvvxxgyggggdd",
"777777796666666666666666666666666666666677777777777Xvxjjjdhhdsfs",
"777777796666666686666666686666666666666677777777777XywMjMghhdsss",
"777777777777777766666666666666667777777777777777777X,;wjMjaaafff",
"777777777777777766666668666666667777777777777777777X>,tjMxaaafas",
"777777777777777766666666666666667777777777777777777XppjjMxfsssaa",
"777777777777777766666666660666667777777777777777777Xjjjgmxsssfdp",
"777777777777777766666666666666667777777777777777777XljggNcaaadpd",
"777777777777777766666666600666667777777777777777778Ohdggmcaaapsi",
"777777777777777766666666666066667777777777777777777Xhhhgnxaapsis",
"777777777777777766666666666666667777777777777777777XywMhnxaasisi",
"666677777777777766666666666666667777777777777777777X,;wgnxaaifif",
"666677777777777766666666666666667777777777777777777X>,raMxxxxxxx",
"666677777777777766666666666666667777777777777777779XpiaannnnnmNm",
"666667787777777766666666666666667777777777777777779oasaaaaaaasss",
"666677777777777766666666666676667777777777777777777XaaaaywMaaasa",
"666677777777777766666666666677667777777777777777777Xssaa,;waaaaa",
"666677777777777766666666666677777777777777777777777<fsfd>,raaaaa",
"6666777777777777666666666666777777777777777777777771222111111111"
};
