/* XPM */
static char *_aaa62dbac004cabc0fe6d93f3109b2bcsW1uS1GRQap2jlN[] = {
/* columns rows colors chars-per-pixel */
"64 64 15 1 ",
"  c None",
". c #121724",
"X c #663920",
"o c #25562E",
"O c #577277",
"+ c #884B2B",
"@ c #BE772B",
"# c #CF573C",
"$ c #468232",
"% c #DE9E41",
"& c #E8C170",
"* c #819796",
"= c #F4A481",
"- c #FFC190",
"; c #F6F0F0",
/* pixels */
"                                                                ",
"                                                                ",
"                                                                ",
"                                                                ",
"                          ................                      ",
"                          ................                      ",
"                      ....&&&&&&&&%%%%%%%%....                  ",
"                      ....&&&&&&&&%%%%%%%%....                  ",
"          ....      ..&&&&................@@@@..                ",
"          ....      ..&&&&................@@@@..                ",
"          ..%%..  ..&&....%%%%%%%%%%%%%%%%....@@..              ",
"          ..%%..  ..&&....%%%%%%%%%%%%%%%%....@@..              ",
"          ..@@%%..%%..%%%%&&&&&&&&&&%%%%%%%%@@..@@..            ",
"          ..@@%%..%%..%%%%&&&&&&&&&&%%%%%%%%@@..@@..            ",
"          ..@@@@..%%..%%&&%%%%%%%%%%%%%%%%%%@@..@@..            ",
"          ..@@@@..%%..%%&&%%%%%%%%%%%%%%%%%%@@..@@..            ",
"          ..@@..%%..%%&&%%%%%%%%%%%%%%%%%%@@@@@@..@@..          ",
"          ..@@..%%..%%&&%%%%%%%%%%%%%%%%%%@@@@@@..@@..          ",
"          ..@@..%%..%%&&%%%%%%%%%%%%%%%%%%@@@@@@..@@..          ",
"          ..@@..%%..%%&&%%%%%%%%%%%%%%%%%%@@@@@@..@@..          ",
"            ..........%%%%%%%%%%%%%%%%%%%%@@@@@@..@@..          ",
"            ..........%%%%%%%%%%%%%%%%%%%%@@@@@@..@@..          ",
"          ..&&&&&&&&%%........%%%%%%%%%%@@@@@@@@..@@..          ",
"          ..&&&&&&&&%%........%%%%%%%%%%@@@@@@@@..@@..          ",
"          ..@@@@@@@@@@&&&&&&%%......@@@@@@@@@@@@..@@..          ",
"          ..@@@@@@@@@@&&&&&&%%......@@@@@@@@@@@@..@@..          ",
"            ..........@@@@@@@@&&&&%%......@@@@@@..@@..          ",
"            ..........@@@@@@@@&&&&%%......@@@@@@..@@..          ",
"                ..====........@@@@@@&&&&%%....@@..@@..          ",
"                ..====........@@@@@@&&&&%%....@@..@@..          ",
"              ....--......====......@@@@@@&&%%....@@..          ",
"              ....--......====......@@@@@@&&%%....@@..          ",
"            ..####------------==++XX......@@@@%%%%....          ",
"            ..####------------==++XX......@@@@%%%%....          ",
"            ..####--;;..--------++XX====......@@@@%%%%..        ",
"            ..####--;;..--------++XX====......@@@@%%%%..        ",
"            ..####--....--------++XX----..XXXX....@@@@..        ",
"            ..####--....--------++XX----..XXXX....@@@@..        ",
"            ..####++++------++++XXXX....XX++XXXX......          ",
"            ..####++++------++++XXXX....XX++XXXX......          ",
"              ....++++++++++XXXXXXXX--==++++XX..                ",
"              ....++++++++++XXXXXXXX--==++++XX..                ",
"                  ..XXXXXXXXXXXXXX--====++++..                  ",
"                  ..XXXXXXXXXXXXXX--====++++..                  ",
"                    ............--======....                    ",
"                    ............--======....                    ",
"                            ..**$$$$oo..                        ",
"                            ..**$$$$oo..                        ",
"                          ..**..$$oooooo..                      ",
"                          ..**..$$oooooo..                      ",
"                        ..%%..$$$$oo..oo..                      ",
"                        ..%%..$$$$oo..oo..                      ",
"                        ....$$$$oo..$$oo..                      ",
"                        ....$$$$oo..$$oo..                      ",
"                        ..----oo..**OOOO..                      ",
"                        ..----oo..**OOOO..                      ",
"                        ..--==..OOOOOOOO..                      ",
"                        ..--==..OOOOOOOO..                      ",
"                          ......**OO....                        ",
"                          ......**OO....                        ",
"                          ..OOOO..**OO..                        ",
"                          ..OOOO..**OO..                        ",
"                        ..XXXX..  ..++XX..                      ",
"                        ..XXXX..  ..++XX..                      "
};
