/* XPM */
static char *Layer_1_sprite_481735452229[] = {
/* columns rows colors chars-per-pixel */
"64 64 60 1 ",
"  c #303000",
". c #303001",
"X c #2C2C2C",
"o c #2D2C2C",
"O c #2C2D2C",
"+ c gray22",
"@ c #393838",
"# c #393938",
"$ c #383839",
"% c #404001",
"& c #484800",
"* c #585800",
"= c #686800",
"- c #707000",
"; c #004040",
": c #014040",
"> c #005858",
", c #005958",
"< c #007070",
"1 c #007474",
"2 c #007878",
"3 c #007C7C",
"4 c #007D7C",
"5 c #484848",
"6 c gray33",
"7 c #545455",
"8 c #646464",
"9 c #7D7C7C",
"0 c #848000",
"q c #949000",
"w c #9C9800",
"e c #980088",
"r c #980088",
"t c #980088",
"y c #980088",
"u c #008484",
"i c #008584",
"p c #008C8C",
"a c #008C8D",
"s c #009898",
"d c #009998",
"f c #00A4A4",
"g c #01A4A4",
"h c #00A4A5",
"j c #20B0B0",
"k c #21B0B0",
"l c #20B1B0",
"z c #20B4B4",
"x c #20B5B4",
"c c #20B4B5",
"v c #48C0C0",
"b c #48C1C1",
"n c #74C8C8",
"m c #75C8C8",
"M c gray66",
"N c #9CDCDC",
"B c #B8E8E8",
"V c #B8E8E9",
"C c #D0D0D0",
"Z c #D9F4F4",
/* pixels */
"eeeeeeeeeeeeeeeetttttttttttttttttttttttteeeeeey@@@$$@@@@@@@@+@@@",
"eeeeeeeeeeeeeeeettttttttttttttttttrttttteeeeeey@4114222222221331",
"eeeeeeeeeeeeeeeetttttttttttttttttttttttteeeeeee@jsda1<jppppp1<js",
"eeeeeeeeeeeeeeeetttttttttttttttttttttttteeeeeee$jjzz3;<jjjjj3;<j",
"eeeeeeeeeeeeeeeetttttttttttttttttttttttteeeeeee@jjjj23pjjjjj13aj",
"eeeeeeeeeeeeeeeetttttttttttttttttttttttteeeeeee@jjjju>>>>>>>>>,>",
"eeeeeeeeeeeeeeeetttttttttttttttttettttteeeeeeee@jjjjj32<<<<<<<<<",
"eeeeeeeeeeeeeeeetttttttttttttttteetttryeeeeeeee@suBjNjpppppppppp",
"tttttttteeeeeeeetttttttttttteeeeeeeetttttttteee$3<ujBvggffffffff",
"tttttttteeeeeeeetttttttttttteeeeeeeetttttttteee$23pjBmggffffffff",
"tttttttteeeeeeeettttttttttytyyeeryeetttttttteee@ffjjBmggfffgffff",
"tttttttteeeeeeeettttttttrtyyyyeeteeetttrtttteee@jjjjBnggffffffff",
"ttttttttttyyeeeetttttttttttteeeettteeetttteeeee@jjjjBmgggggffgjj",
"tttttttttttyeeeettttttttrttteeeetttteetttteeeee@jjjjBmgggggfzzjj",
"tttttttttteyeeeetttttttttttteeeetttteeetttteeee@jjjjBmggggjjjjjj",
"tttttttttteeeeeettrtttttrtrteeeetttteeyrttteeee#suBjBmggjzjjjjjx",
"tttttttttttttttttttttttteeeeeeeetttteeeeeeeeeee+3<ujBmjjjjjjjzzz",
"tttttttttttttttttttttttteeeeeeeetttteeeeeeeeeee+23pjBmjjjjjzzzzz",
"tttttttttttttttttttttttteeeeeeyetteteeeeeeeeeee+ffjjBmjjjczzzcxz",
"tttttttttttttttttttttttteeeeeeeetteeeeeeeeeeeee$zjjjBmjccczczczv",
"tttttttttttttttteeeetttteeeeeeeetttteeeeeeeettt$jjjjBmzzczccjxbx",
"tttttttttttttttteeeetttteeeeeeeetttteeeeeeeettt@jjjjBmzcjzcvxbzb",
"tttttttttttttttteeeeeetteeeeeeeetttteeeeeeeettt$jjjjBmzxxcvzvxvj",
"tttttttttttttttteeeeeeeeeeyeeeeetttteeeeeeeettt$suBjBmzxcbcvxbxb",
"tttttttttttttttteeeeeeeeeeeeeeeetttttttteeeeeee@3<ujBmxxvzvzvzvj",
"tttttttttttttttteeeeeeeeeeeeeeeetttttttteeeeeee@13pjBmxbzvzvcvxb",
"tttttttttttttttteeeeeeeeeeeeyeeetttttttteeeeeee@ffjjBmbxvxbxvxbc",
"tttttttttttttttteeeeeeeeeeeeeeeetttttttteeeeeee@jzjzBmjbjbxbxvMC",
"tttttttttttttttteeeeeeeeeeeeeeeetttttttteeeeeee@jjzzBmbxvcvzvj98",
"tttttttttttttttteeeeeeeeeeeeeeeetttttttteeeeeee@jjzzBmjb=qwvj3X8",
"tttttttttttttttteeeeeeeeeeeeeeeetttttttteeeeeee@cczzBmb4%*wcg3X8",
"tttttttttttttttteeeeeeeeeeeeeeeetttttttteeeeeee@duBzBmi1 *qmp3X8",
"eeeeeeeeeeeeeeeeeeeeeeeeeeeeeeeettttttttttttttt@41uzBjup *qvp3X8",
"eeeeeeeeeeeeeeeeeeeeeeeeeeeeeeeettttttttttttttt@14pvBsuN *qvp3X7",
"eeeeeeeeeeeeeeeeeeeeeeeeeeeeeeeettttttttttttttt@ggvmmsum *0vp3X5",
"eeeeeeeeeeeeeeeeeeeeeeeeeeeeeeeettttttttttttttt$vnnNzsum *0bp3X@",
"eeyeeeeeeeeeeeeeeeeeeeeeeeeeeeeettttttttttttttt@nnNNjsum.*0vp3XX",
"eeeeeeeeeeeeeeeeeeeeeeeeeeeeeeeettttttttttttttt@nNNVjsuv.*-vp3XX",
"eeeeeeeeeeeeeeeeeeeeeeeeeeeeeeeettttttttttttttt@NVVVjsuv.*-va4Xo",
"eeeeeeeeeeeeeeeeeeeeeeeeeeeeeeeettttttttttttttt@nzVZzsuv.*=ba4oo",
"eeeeeeeeeeeeeeeeeeeeeeeeeeeeeeeettttttttttttttt$j3xBjsup1.&cp3X@",
"eeeeeyeeeeeeeeeeeeeeeeeeeeeeeeeettttttttttttttt$jzmBzsu32uzcp3X@",
"eeeeeeeeeeeeeeeeeeeeeeeeeeeeeeeettttttttttttttt@mmBNjsuuuzzcp3XX",
"eeeeeeeeeeeeeeeeeeeeeeeeeeeeeeeettttttttttttttt$ZBNNzsupxzcjp3XX",
"yyyyeeyeeeeeeeeeeeeeeeeeeeeeeeeettttttttttttttt$BNNmzsscczzjp333",
"ryyyeeeeeeeeeeeeeeeeeeeeeeeeeeeettttttttttttttt$NNmmzsjxcjjjpppp",
"rteeeeeeeeeeeeeeeeeeeeeeeeeeeeeettttttttttttttt$Nmvvbzzzcjjjjjjj",
"tteeeeyeeeyeeeeeeeeeeeeeeeeeeeeettttttttttttttt$suBvBxjzjjjjjjzf",
"ttttttttttttttttttttttttttttttteeeeeeeeeeeeeeee+3<uvBvjjjjjjjjfj",
"tttttttttttrtttttttttttttttttteeeeeeeeeeeeeeeee+23pvBnjjjjjjjfzf",
"tttttttttttttttttttttttttttttttteeeeeeeeeeeeeee+ffbvBnjjjjjjfjfj",
"tttttttttttttttttttttttttttttttteeeeeeeeeeeeeee+bbbjBnjjjjjfjfjf",
"tttttttttttteeeytttttttttttttttteeeeeeeeeeeeeee+bvccBmjjjjgjfjgg",
"tttttttttttteetrtttttttttttttttteeeeeeeeeeeeeee+jxczBmjjjgjgjfjg",
"tttttttttttttttttttttttttttttttteeeeeeeeeeeeeee+xxxxBmjjfjgjgjgg",
"tttttttttttttttttttttttttttttttteeeeeeeeeeeeeee+duBxBmzjjgjgjggg",
"eeeeeeeetttttttteeeetetteeeeeeeeeeeeeeeetttttte+3<uzBmjjfjgjgggs",
"eeeeeeeetttttttteeeeeetteeeeeeeeeeeeeeeetttttte+23ajBmmmmmmmmmnm",
"eeeeeeeetttttttteeeeeeeteeeeeeeeeeeeeeeettttttt@ffjjBBBBBBBBBBVB",
"eeeeeeeetttttttteeeeeetteeeeeeeeeeeeeeeettttttt@jzjjjzjjzjjjjggg",
"eeeeeeeeeeettttteeeeeeeeeeeeeeeeeeeeeeeetttteee@jjjjsuBjjjjjsuBg",
"eeeeeeeeeeettttteeeeeeeeeeeeeeeeeeeeeeeetttteee@jjjj3<ujjjjj3<us",
"eeeeeeeeeetttttteeeeeeeeeeeeeeeeeeeeeeeettttett5jjjj23pjjjjj13ps",
"eeeeeeeeeetttttteeeeeeeeeeeeeeeeeeeeeeeettttttt66666666666777666"
};
