/* XPM */
static char *result[] = {
/* columns rows colors chars-per-pixel */
"64 64 175 2 ",
"   c black",
".  c #000001",
"X  c #303000",
"o  c #313000",
"O  c #202020",
"+  c #2C2C2C",
"@  c #2D2C2C",
"#  c #2C2D2C",
"$  c #2D2D2C",
"%  c #2C2C2D",
"&  c #2D2C2D",
"*  c gray22",
"=  c #393838",
"-  c #383938",
";  c #383839",
":  c #393839",
">  c #383939",
",  c #404000",
"<  c #414000",
"1  c #484800",
"2  c #585800",
"3  c #595800",
"4  c #585900",
"5  c #595801",
"6  c #686800",
"7  c #707000",
"8  c #717000",
"9  c #004040",
"0  c #014040",
"q  c #004140",
"w  c #005858",
"e  c #015858",
"r  c #005958",
"t  c #005859",
"y  c #015859",
"u  c #005959",
"i  c #015959",
"p  c #007070",
"a  c #017070",
"s  c #007170",
"d  c #007071",
"f  c #017071",
"g  c #007474",
"h  c #007878",
"j  c #017878",
"k  c #007978",
"l  c #017978",
"z  c #007879",
"x  c #017879",
"c  c #007979",
"v  c #007C7C",
"b  c #017C7C",
"n  c #007D7C",
"m  c #017D7C",
"M  c #007C7D",
"N  c #017C7D",
"B  c #007D7D",
"V  c #017D7D",
"C  c #484848",
"Z  c #494848",
"A  c #484849",
"S  c gray33",
"D  c #555454",
"F  c #545554",
"G  c #555554",
"H  c #545455",
"J  c #555455",
"K  c #646464",
"L  c #656464",
"P  c #656564",
"I  c #646465",
"U  c #656465",
"Y  c gray44",
"T  c #707170",
"R  c #717170",
"E  c #707071",
"W  c #707171",
"Q  c #7C7C7C",
"!  c #7D7C7C",
"~  c #848000",
"^  c #848001",
"/  c #858001",
"(  c #949000",
")  c #959000",
"_  c #9C9800",
"`  c #9C9801",
"'  c #980088",
"]  c #980088",
"[  c #980088",
"{  c #980088",
"}  c #980088",
"|  c #980088",
" . c #980088",
".. c #980088",
"X. c #008484",
"o. c #018484",
"O. c #008584",
"+. c #008485",
"@. c #008585",
"#. c #008C8C",
"$. c #018C8C",
"%. c #008D8C",
"&. c #018D8C",
"*. c #008C8D",
"=. c #018C8D",
"-. c #008D8D",
";. c #009898",
":. c #019898",
">. c #009998",
",. c #009899",
"<. c #019899",
"1. c #009999",
"2. c #00A4A4",
"3. c #01A4A4",
"4. c #00A5A4",
"5. c #01A5A4",
"6. c #00A4A5",
"7. c #01A4A5",
"8. c #00A5A5",
"9. c #01A5A5",
"0. c #20B0B0",
"q. c #21B0B0",
"w. c #20B1B0",
"e. c #21B1B0",
"r. c #20B0B1",
"t. c #21B0B1",
"y. c #20B1B1",
"u. c #20B4B4",
"i. c #21B4B4",
"p. c #20B5B4",
"a. c #21B5B4",
"s. c #20B4B5",
"d. c #21B4B5",
"f. c #20B5B5",
"g. c #48C0C0",
"h. c #49C0C0",
"j. c #48C1C0",
"k. c #49C1C0",
"l. c #48C0C1",
"z. c #49C0C1",
"x. c #48C1C1",
"c. c #74C8C8",
"v. c #75C8C8",
"b. c #74C9C8",
"n. c #74C8C9",
"m. c #75C8C9",
"M. c #74C9C9",
"N. c gray55",
"B. c #8D8C8C",
"V. c #8C8D8C",
"C. c #8C8C8D",
"Z. c #989898",
"A. c #999899",
"S. c gray66",
"D. c #A9A8A8",
"F. c #A8A9A8",
"G. c #A8A8A9",
"H. c #B4B4B4",
"J. c #B4B4B5",
"K. c #9CDCDC",
"L. c #9DDCDC",
"P. c #9CDDDC",
"I. c #9CDCDD",
"U. c #B8E8E8",
"Y. c #B9E8E8",
"T. c #B8E9E8",
"R. c #B9E9E8",
"E. c #B8E8E9",
"W. c #B9E8E9",
"Q. c #C0C0C0",
"!. c #D0D0D0",
"~. c #D0D1D0",
"^. c #D0D1D1",
"/. c gray82",
"(. c #D9F5F4",
/* pixels */
"' ' ' ' ' ' ' [ [ ' ' ] [ ' ' ' } ' ' ' [ ' '  .' ' * * = * = * - * = - * * * - * = = * = * * * = * ; * * * ; * * = = - * * - * ",
"} ' ] ' ' ' ] ' ' ' ' ' ' } } ' ' ' } ' ' ' [ ' ' ' * n h c h z h z h l l h h z h h h h h k h h j h k x h z h h h k j z l h h h ",
"' } [ ' '  .' ] ' ' ' ' ' ' ] ' ' ' ' ' ' ' } ' ' ' = 0.:.;.#.g a 0.#.#.#.#.#.g p r.;.#.%.#.#.g a 0.#.#.#.*.$.g s 0.#.=.#.#.%.g ",
"' ' ' ' ' ' ' ' | ' ] ' ' ' ' ' ' ' [ [ ' ' ] [ ' ' * 0.r.0.e.V 9 s q.0.0.0.0.n 9 d 0.0.y.0.w.v q d 0.0.0.0.y.v 9 d u.s.g.g.0.M ",
"[ ' ' [ ' ' ' ' ' ' ' ' ' [ ' [ ] ' ' ' ' ' ' ' ' ' ; 0.0.0.r.h v #.0.q.0.0.0.j n *.w.r.0.0.0.h v #.0.w.0.0.r.h v %.p.g.c.K.0.j ",
"' ' ' [ ' ' ' ' { } ] '  .' ' ' ' ' } } ' ' ' ' } ' * 0.0.0.0.O.e t w u t w w r w w w w w w w w w w w t t w t y w w i w t w w w ",
"' ' ' ' ' ' [ ' ' ' ' ' ' ' ' ' |  .' ' ' ] ' ' ' ' * 0.0.0.0.0.v h d f s s p p d p p p p s d p p p d p d p a p a p a p p p d s ",
"' ' [ ' ' } ' ' } [ ] ' { ] } ' ' ' ' ' } ' ' ' } ' * ;.O.U.r.P.0.#.#.#.#.#.#.$.%.#.&.#.&.#.#.$.#.#.#.*.*.=.%.#.#.#.$.$.*.#.#.$.",
"' ' ' ' } ' ' | [ ] ' ' ' } ' ] ' ' ' ' { } } ] ' ' : v p X.w.E.g.4.2.4.2.2.2.3.2.2.2.2.6.2.2.2.3.2.0.0.r.0.p.u.p.i.i.h.u.g.p.g.",
"' } ' ' ' ' ] ' ' ' ' ' ' ' [ [ ' ' ' ' ' | } ' ' ' ; h M *.0.T.v.2.4.2.8.2.2.2.2.2.2.2.2.6.2.7.w.0.r.r.y.u.u.u.u.u.g.u.g.i.g.u.",
"' ' ' } ] ' } ' ' ' ' ' ' ' ' [ ' [ ' ' } ' ' ' [ ' * 2.2.w.0.U.c.2.2.2.4.3.2.2.4.2.2.6.2.4.0.w.0.w.0.u.p.f.d.g.u.g.u.l.i.k.u.k.",
"] ' ] ' ' ' ' ' ' ' ' ' ' ' ' ' ' [ ' } ' ' ' ' ' ' * r.0.0.0.U.c.2.6.2.2.2.3.2.3.6.2.2.0.w.w.y.r.u.u.s.d.u.j.u.g.s.g.a.g.s.g.p.",
"' ' ' } } ' ' ' ' ' ' ' ' } ' ' ] ' ' ' ' ' { ' ' ' ; 0.r.y.w.R.c.8.8.4.3.2.2.3.6.0.0.w.r.q.0.p.u.p.u.g.u.g.u.g.u.g.p.h.u.g.u.u.",
"' ' [ ] ' ' ' ' ' ] [ ' ' ' ] ' [ ' ' ' ' ' [ ' ' ' ; 0.0.w.t.U.b.2.2.2.3.2.3.0.0.0.r.0.0.u.u.u.u.s.g.u.l.u.g.s.g.u.g.i.h.u.i.u.",
"' ' ' ' [ ' ' ' ' ' ' ' [ ] } ' ' ' ' ' [ ] ' ' } ] * q.0.w.0.U.n.2.8.5.3.q.0.r.0.y.0.i.u.p.u.u.p.g.u.g.u.z.u.h.s.g.u.l.u.i.u.p.",
"' ' ' ' ' ' ' ' { ' ' ' ' ' ' ' } ' ' ' ] ' ' ' ' { * :.+.U.0.U.v.2.3.0.r.q.w.0.0.0.u.p.u.d.u.p.h.u.g.u.g.i.j.u.j.u.g.u.u.u.u.r.",
"' ' ' ' ' } ' ' ' ' ' ' ' ' [ ' } ' ' ' ' [ ' ' ' ] - m p X.w.E.c.q.0.q.w.0.0.0.a.i.u.p.u.g.i.g.u.g.u.g.i.h.p.g.i.g.u.s.u.u.q.0.",
"' ' ' | ' ' } ' ' ' ' ' ' ' '  .' ' ] ] ] ' ' [ [ ' ; h v #.0.E.c.0.r.0.r.w.u.u.u.u.p.u.g.u.g.i.l.i.l.u.g.u.g.u.h.u.u.u.u.t.u.0.",
"'  .' ' ' } ' } } ' ' ' } ' ' } ' ' '  .'  .]  .' ' * 2.4.0.0.E.c.r.0.0.p.u.s.u.u.u.s.j.d.j.u.g.u.g.p.z.a.j.u.g.u.s.u.u.w.i.r.0.",
"] ' ' ] ' ' '  .' ' ' ' [ ' ' ' ' } ' ' ' [ ' ' ' ] * 0.0.0.q.W.c.0.u.i.u.p.a.u.u.p.h.f.l.u.j.d.g.u.l.u.l.s.g.u.s.u.u.0.u.y.0.0.",
"' ' ' ' ' ' ' ' ] ' ' ' ] ' ' ' ' ' ' ' ' ' ' ' ' ' * w.0.0.0.U.c.p.p.p.a.i.u.p.u.l.u.g.u.g.u.g.u.g.u.g.u.g.p.g.p.i.w.s.q.0.0.2.",
"] ' ' ' ' ' ' [  .' ' ] ' ' ] ' ' ' ' ] ' ' ' ' ' ' = 0.0.0.0.T.n.i.a.u.i.i.g.i.z.i.g.u.h.p.g.u.g.u.h.u.g.u.g.u.p.w.s.0.w.w.6.q.",
"[ ' ' ]  .' ' ' ' ' ] [ ' ' ' } ' ' { ' ' ' ' ' ' ' * e.r.r.0.U.c.u.p.u.u.g.i.j.u.g.s.j.s.g.p.g.i.j.p.j.p.g.s.s.0.u.0.0.0.2.0.2.",
"' ' } ' ' ' ' ' ' ' ' [ ' ' ' } ' ' ] ' [ ' ' ' ' ] * ;.O.T.0.U.c.u.s.u.h.s.x.s.g.p.g.u.j.u.g.u.k.u.l.u.j.i.u.q.u.0.0.r.2.q.6.3.",
"' } } ' ' ' ' ' [ } ' ' ' ' ' ' } ' [ ' ' ' ' ' [ ' = M p X.q.U.c.u.p.g.u.g.u.g.p.g.u.h.f.h.f.g.u.z.u.g.i.d.0.u.0.r.0.4.w.2.3.4.",
"' ' ' [ ' ' } } ] } ' [ ' ' ' [ ' | } ' } ' [ ] ' ' = h v #.w.Y.c.s.g.u.g.i.g.a.g.u.g.u.l.i.h.u.z.u.g.s.s.r.u.w.0.0.2.r.3.2.2.2.",
"' ' ' [ ' } ] ' } ' ' [ ' [ ' ' ' [ ] ' ' ' ' ' ' ' * 2.4.0.0.U.v.j.p.g.u.g.u.g.u.g.s.g.p.l.u.g.i.l.u.u.0.p.0.w.0.w.w.2.6.2.2.2.",
"} ' [ ] ' [ ' ' ] ' [ ' } ' ' ' [ | } ' ' ' ' ' ' ' - 0.0.0.0.U.c.u.g.u.l.u.j.s.g.S.^.!.!.~./.!.~.Q.Q.0.u.0.0.0.0.w.2.4.4.2.3.1.",
"' ' ] ' | ' ' ' | } ' [ ] ' ' ] ' ' ' ' ' { ' ' ' ] ; t.0.p.u.Y.c.g.i.j.u.g.u.l.0.! I E T Q Q B.Z.G.Q.i.q.q.e.0.r.2.3.7.2.5.>.2.",
"'  .' ' ' [ ' ' ' '  .] ] ' ' ' [ ' ] } ' [ ' ' ' ' * r.s.f.u.U.c.u.g.7 ( _ g.0.v + K * F.Y ! S !.Z.H.q.y.r.w.q.2.4.6.4.2.;.4.;.",
"' ' ' ' [ ' ' ' ' ' } } ' ' ' ' | ' ' ' ' ' ' ] ' ' = u.p.u.u.U.c.g.h < 2 _ u.8.M $ I L K Y Y ! Q V.J.0.0.0.w.4.0.6.2.2.;.2.;.;.",
"]  .' ' ' ] ' [ ' ' ' ' ' ' ' } ' ' ' ' ' ] ' ] } ] ; ;.O.U.u.U.c.X.g X 4 ( c.#.n + K K U K R R Q Q H.0.r.r.2.0.3.2.2.2.2.;.:.,.",
"' ] ] ' ' ' ' ' ' ' ' ' ' ' ' ' ' ' ] ' ' ' ' ' ' ' * v f +.a.Y.r.X.#.o 2 ) j.#.v + K I K L K Y W Q G.0.w.2.0.2.8.4.2.2.;.;.,.;.",
"' [ [ { ' ' ' ] ' ' } [ ' ' ' ' ] ' } ' ' ' } ' ' ' * h v #.x.U.;.X.K.X 2 ( g.#.v + S Z 2 ~ / ` Y Y S.0.2.0.4.6.6.3.2.;.,.>.;.#.",
"' ' ' ' ' [ ] ' ' ' ' ' ] ' ' ' ' ' ' ' ' ' ' ' ' ' - 2.2.g.c.c.:.+.n.X 2 ^ g.#.b + C + 1     ~ I T S.2.q.4.3.2.2.5.:.2.;.;.#.;.",
"' ' ' } ' ' ' ' ' ' ' ' ' ' ' ' ' ' ' ' ]  .' ' [ ] * l.c.c.K.u.>.X.c.o 3 ~ g.#.N + = + 1   . ~ K K D.0.2.2.2.2.2.;.2.;.,.#.:.#.",
"' ' ' ' } ' ' [ ' ' ' [ ' ..' } ' ' ' ' ' ' ] ' [ ' * n.n.P.K.r.,.X.c.X 2 ~ g.#.B + + + , @ # ^ L L S.6.2.6.2.2.;.6.:.;.;.;.&.;.",
"' ' ' ' ' ' } ] ] ] ' ' ' ' [ ' ' ' ' ' | ' } ' ' } * c.L.K.U.0.;.X.g.X 2 7 g.#.v + + # < , 1 2 K K S.2.6.4.2.;.2.;.,.;.:.&.;.$.",
"' ' ' ' ' ' ' ' ' ' ' [ ' } }  .' ' } [ ' [ ' ' ' ' - L.U.R.E.0.;.X.g.X 2 8 g.#.v + # + + + % @ I K Z.5.2.2.;.2.;.;.>.;.$.;.#.#.",
"' ' ] [ ' ' ' ' ] ' [ ' [ ' } ' ' ] ] } ' ] } ' ' ' * c.u.Y.(.w.;.X.g.X 5 6 g.#.v + % + + @ @ C K U Z.2.6.;.2.;.>.;.;.%.;.#.*.#.",
"] ' ' ] ' ' '  .' ' } ' ' [ ' ' ' ' [ } ' ' ' ' ' ' * q.n u.U.0.;.X.#.g X 1 s.$.v % * * Z A F K K L A.3.2.2.>.,.:.,.%.;.*.#.#.#.",
"] ] ' ' ' } ' } ' [ ' [ | ' ' ' ' ' '  .} } ' ' ' ' ; 0.0.c.E.u.;.o.h x +.u.u.$.v % * O T S K + N.K C.6.2.,.2.,.;.#.;.#.#.#.#.X.",
"] ' ' ' ' ' ' ' ' ' ' ' ' ' ' ' } } [ { ' ' ' ' ' ' = b.b.T.K.u.;.X.X.X.u.p.p.&.v & + * S S S L K K N.2.:.2.,.;.#.;.#.;.#.#.X.#.",
"' ' ' ' ' } ' ' ' ' ] ' ' ' ] ' ] [ ' ' ' } ' ' ' ' - (.Y.K.K.u.;.o.%.u.u.i.r.*.b + + + # % + + + + P ;.4.>.:.;.;.#.;.#.#.X.#.X.",
"' ' [ ' ' ' [ ' [ [ ' [ } ' ' ' ' ' ' ' ' ' ' | } ' * E.I.K.c.u.,.,.u.u.u.f.0.#.n M v n v v v M v v :.2.:.;.,.;.#.;.#.#.#.#.O.#.",
"] ' ' ' [ } ' [ ' } ' ' ' ' ' ' ' ' ' ' ' ' ' ' ' } * K.P.v.c.u.;.i.u.u.u.0.0.-.*.$.#.#.#.&.#.#.&.6.5.;.;.>.;.%.;.#.#.#.#.O.#.+.",
"' ' ] ' ' ' '  .' ' ' } ' ' ' ' ' ' ' ' ' ] ' ' ] ' * K.c.g.g.g.q.u.s.u.r.w.0.0.r.w.0.2.0.4.2.2.2.2.,.;.;.;.#.;.#.$.#.#.o.#.X.#.",
"' ' } ' ' ' ' '  .' ' [ ' ' [ ' ' ' ] ' [ | ] ' ' ] * :.X.U.g.T.u.i.u.q.q.e.0.0.0.r.9.0.3.4.3.3.2.,.;.;.;.#.;.#.&.#.#.o.&.X.$.O.",
"' ' ' ' ' [ ' ' ' ] ' ' [ ' [ ' ' ' ' ' ' ' ' ' } ' * v p O.g.U.l.s.0.0.0.r.0.r.0.2.0.4.3.6.2.6.;.>.>.;.-.;.#.=.#.#.X.-.+.*.@.#.",
"' ' [ ' ' ' ' ' ' ' ' ' ' ' ' ' ' ' ' ' ' ' ' '  .] - j v -.j.Y.c.0.0.0.0.0.0.0.2.0.2.0.4.2.2.;.3.;.>.%.:.*.>.=.%.X.#.O.#.O.%.o.",
"' ' ' ] ' } [ ' ' ' ' | ] ' { ' ] ' | ' ' ' } ' ' ' * 6.2.g.g.U.c.w.0.w.0.q.r.4.0.8.0.2.6.6.,.2.;.;.#.;.&.;.#.#.#.#.+.#.X.#.O.%.",
"' ' ' ' ' ..[ ' ' ' [ ' ' ' ] } ' { ' ' ' ' ' ' ' ' ; g.g.j.u.Y.c.r.0.0.q.0.2.w.2.t.3.2.2.;.2.:.;.,.;.#.;.#.#.$.#.X.#.o.#.+.&.X.",
"' ] ' ] ' ' ' ' ' [ ' ' ' ' ' ' [ ' ' ' } ' } ' ' ] > g.g.p.u.U.c.0.0.r.0.2.w.4.0.2.4.2.;.2.;.;.;.;.#.,.#.#.#.#.O.#.X.*.X.#.O.$.",
"' ' ' ] ' } ' ' ' { ' ' ' ' [ ' ' ' ' [ { } ' [ ' ' * u.u.u.u.U.b.0.0.q.2.0.6.0.2.0.2.>.2.,.,.;.,.#.>.#.#.#.#.X.#.O.#.O.#.X.$.X.",
"' ' ] ' ] ' ' ' ' ' ' } ' ' ' ' ' [ ' ' [ ' ] ' ' ] * u.u.u.u.E.c.q.t.3.q.2.0.2.r.7.2.2.:.;.>.;.%.;.*.#.%.#.X.#.+.#.X.$.X.#.X.%.",
"' ]  .} ' ' ' ' ' } ] ' ] } ' | ' ' } ' ] ' ' ' ' ' * <.X.E.p.U.c.0.0.0.2.0.2.0.2.6.5.;.;.:.:.#.:.*.#.*.#.X.*.*.#.X.#.X.#.o.#.X.",
"' ' } ' } ' ' ' ' } ' } ] ' ' ' ' ' ' ' ' } ' ' ' ' * n p O.s.T.c.r.0.2.0.6.r.3.2.2.;.;.>.,.%.;.#.#.#.#.#.#.$.%.X.#.X.%.X.#.X.#.",
"' ' ' [ ' ' ' ] ' ' ' ' ' ' [ ' [ ' ' ' ' ' ' { ' [ : h v #.0.U.n.c.n.M.n.c.c.c.v.c.c.v.n.c.m.c.c.b.g.g.l.u.p.0.2.4.2.3.0.u.g.g.",
"[ ' ' ' ' ' ' ' ' ' ' ' ' ' ' ] } ' ] ' ' ' ' [ ] ' * 2.2.0.r.T.E.Y.U.U.W.U.U.U.U.E.U.T.Y.T.U.U.E.U.K.K.K.K.c.b.g.g.g.c.v.K.P.K.",
"' [ ' ' [ ' ' ' ' ' [ '  .' ' ' ' ' ' ' [ ' ' ' } ' * 0.q.q.0.r.0.0.q.0.0.q.r.w.2.2.4.4.:.;.;.;.;.;.>.;.*.@.O.v b v n M X.#.#.;.",
"' ] ' ' ' ' } ' } ' ' ' ' } ' ' ' ' ' [ ] ' ' } [ ' * 0.0.r.0.:.X.T.0.w.w.0.0.;.X.Y.4.;.;.:.;.;.p s.;.#.X.X.b h p ;.n v X.=.;.;.",
"' ' ' ' ' ' ' ' [ ' ' ' ] ' ' ' ' [ } ' | [ ' ' ' ' * q.q.0.0.v p X.w.r.0.w.r.n s X.;.;.;.;.>.v 0 p %.O.+.n v d 9 w b X.X.#.;.n ",
"[ ' ' ' ' ' [ } ' } ' } } ' [ ] ' ' [ ' [ } ] ' ' ' C 0.0.0.0.z v #.r.0.r.0.0.j v #.:.;.;.;.;.h v *.$.o.X.v v d p z X.X.#.;.;.h ",
"} ' ' } ' [ ' ' ' ' ' ] ' ' ' ' ' ] ' ' ] ' ] ' | } D S S S S S F F G S J S S S S S S S D S S S G H J S S S S H S S S S S H H S "
};
