/* XPM */
static char *result[] = {
/* columns rows colors chars-per-pixel */
"64 64 135 2 ",
"   c black",
".  c #000100",
"X  c #000001",
"o  c #303000",
"O  c #313000",
"+  c #303001",
"@  c #202020",
"#  c #2C2C2C",
"$  c #2D2C2C",
"%  c #2C2D2C",
"&  c #2C2C2D",
"*  c gray22",
"=  c #393838",
"-  c #383938",
";  c #393938",
":  c #383839",
">  c #383939",
",  c #404000",
"<  c #414100",
"1  c #484800",
"2  c #494800",
"3  c #484900",
"4  c #585800",
"5  c #585801",
"6  c #585901",
"7  c #686800",
"8  c #707000",
"9  c #004040",
"0  c #005858",
"q  c #015858",
"w  c #005958",
"e  c #005859",
"r  c #007070",
"t  c #017070",
"y  c #007170",
"u  c #007071",
"i  c #007474",
"p  c #017474",
"a  c #007878",
"s  c #017878",
"d  c #007978",
"f  c #007879",
"g  c #007C7C",
"h  c #007D7C",
"j  c #017D7C",
"k  c #007C7D",
"l  c #017C7D",
"z  c #484848",
"x  c #494848",
"c  c gray33",
"v  c #545455",
"b  c #555455",
"n  c #646464",
"m  c #656464",
"M  c #646564",
"N  c #656564",
"B  c #646465",
"V  c gray44",
"C  c #707170",
"Z  c #717170",
"A  c #7C7C7C",
"S  c #7D7C7C",
"D  c #7C7C7D",
"F  c #7C7D7D",
"G  c #848000",
"H  c #848001",
"J  c #949000",
"K  c #9C9800",
"L  c #980088",
"P  c #980088",
"I  c #980088",
"U  c #980088",
"Y  c #980088",
"T  c #980088",
"R  c #980088",
"E  c #008484",
"W  c #008584",
"Q  c #008485",
"!  c #018485",
"~  c #008C8C",
"^  c #018C8C",
"/  c #008D8C",
"(  c #018D8C",
")  c #008C8D",
"_  c #009898",
"`  c #019898",
"'  c #009998",
"]  c #019998",
"[  c #009899",
"{  c #00A4A4",
"}  c #01A4A4",
"|  c #00A5A4",
" . c #00A4A5",
".. c #00A5A5",
"X. c #20B0B0",
"o. c #21B0B0",
"O. c #20B1B0",
"+. c #21B1B0",
"@. c #20B0B1",
"#. c #20B1B1",
"$. c #21B1B1",
"%. c #20B4B4",
"&. c #21B4B4",
"*. c #20B5B4",
"=. c #20B4B5",
"-. c #48C0C0",
";. c #49C0C0",
":. c #48C1C0",
">. c #48C0C1",
",. c #74C8C8",
"<. c #75C8C8",
"1. c #74C8C9",
"2. c #75C8C9",
"3. c gray55",
"4. c #8D8C8C",
"5. c #8C8D8C",
"6. c #989898",
"7. c #999899",
"8. c gray66",
"9. c #A8A9A8",
"0. c #A8A8A9",
"q. c #B4B4B4",
"w. c #9CDCDC",
"e. c #9DDCDC",
"r. c #9CDDDC",
"t. c #B8E8E8",
"y. c #B9E8E8",
"u. c #B8E9E8",
"i. c #B8E8E9",
"p. c #C0C0C0",
"a. c #D0D0D0",
"s. c #D0D0D1",
"d. c #D0D1D1",
"f. c #D8F4F4",
"g. c #D8F4F5",
/* pixels */
"L L L L L L L L L L L L L L L L L L L L L L L L L L L L L L L L L L L L I L L = * * * = * * * = * * * * - * * ; * * * * * * * * ",
"L Y L L L L L L Y L L L L L L L L L L L L L L L L L L L L L L L L L L L L L L * g s f a s a s s a a a a a a a a a a d a a a a a ",
"L L L L L L L L L L L L L L L L L L L L L L L L L L L L L L L L L L L L L L L * X._ _ ~ i r X.~ ~ ) ^ ~ i r X._ ~ ~ ^ / i r X.~ ",
"L L P L L L L L L L L L L L L L L L L L L L I L P L L L L L L I L L L L L L L * X.X.X.O.g 9 r X.X.X.X.X.g 9 r @.X.X.X.X.g 9 y o.",
"L L L L L L L L L L L L L L L L L L L L L L L L L L L L L L L L L L L L L L L : X.X.X.o.a g ~ O.X.X.X.X.a h ) X.#.X.O.X.a h ~ X.",
"L L L L L L L Y L L Y L L L L L L L L L L L L L L L L L L L L L L L P L L L L * X.+.X.X.E 0 0 0 0 0 0 0 w 0 e 0 0 0 q 0 0 0 0 0 ",
"L L L L L P L L L L L L L L L L L L L L L L L L L L L L L L L L L L L L L L L * X.X.X.X.+.g a r t y r r r r r r r r y r r r r r ",
"L L L L L L L I L L L L L L L L L T L L L L L L L L L L L P L L L L L L L L L * _ E t.X.w.X.~ ) / ~ ~ ~ ~ ~ ~ ~ ~ ~ ~ / ^ ~ ^ ~ ",
"L L L L P L L L L L L L L I L L L I L L L L L L I L L L L L L L L L L L L L L * g r E X.t.-.{ } { { { { { { { { { { { { { { | X.",
"L L Y L L L L L L L L L L L I L L L L L L L L L L L L L L L L L L L L L L L Y * a g ) X.t.,.{ | { { |  .{  .{ { { { | { { X.X.X.",
"L L L L L L L L L L L L L L I L L L L L T L P L Y I L L L L L L L L L L L L L * { { X.X.t.,.} | | { { { { { { { { { { X.X.X.O.X.",
"L I T L Y L L L L L L L L L L L L L I L L L L L L L L L L L L L L L L L L L L * X.X.X.X.t.,.{ { { { { { ..{  .{ { X.O.X.X.X.%.%.",
"L L I P L L L L L L L P L L L L L L L L L L L L L L L L L L L L L L L L L L L : X.#.X.X.t.,.{ { } { { } { { X.X.O.@.o.X.%.%.%.%.",
"L L L L L L L L L L L L L L L L L L L L L L L L Y L L L L L L L L L L Y L L L * X.X.X.@.t.,.{ { { } { { X.X.X.@.X.X.%.%.%.%.%.-.",
"L L L L L L L L L L L L L L R L L L I L L L L L L L L L L I L L L L P L L L P * O.X.X.X.t.,.} { { { X.X.X.X.O.X.=.%.%.&.%.%.-.%.",
"L L L L L L L L L P L L L L L L L L L L L P L L L L L L L L I L L P L L L L L * _ E i.X.t.,.{ { X.X.X.O.X.X.X.%.%.%.%.%.=.;.%.-.",
"L L L L L L L L L L L L L L L L L L L L L L I L L L L Y L L L L L L I L L L L * l r E X.t.,.X.X.@.X.X.X.X.%.%.%.%.%.-.%.-.%.-.%.",
"L L L L L L L L L L L L L L Y L L L L L L L L L L L L L L I L L L L L L L L L : a g ~ X.t.,.X.X.X.o.X.%.%.%.%.%.%.-.%.-.&.>.*.-.",
"L L L L P L L L L L L L L L L L L L L P L L L L L Y L L L L L L L L L L L L L * { { X.X.t.,.@.@.X.*.%.%.%.%.&.%.-.%.-.%.-.%.-.*.",
"I L L L L L L L L L L L P L L L L I L L L L L L L L L L L L L L L L L L I L L * X.X.X.o.t.,.X.%.%.%.*.&.%.=.%.-.*.-.%.-.%.-.%.>.",
"L L L L L L L P L L L L L L L L L L L L L L L L L L L L L Y L L L L L L I L L * O.X.X.X.t.<.%.%.*.%.%.=.%.%.-.%.-.%.-.%.-.=.-.%.",
"L Y L L L L L L L I L L L L L L L L L L I L L L L L L L L I L L L L L L L L L = X.X.X.X.i.1.%.%.%.%.%.-.*.-.%.-.%.-.%.:.*.-.%.-.",
"L L L Y L U L L L Y Y L L L L L L L L L L L L L L L L L L L L L L L L L L R L * X.X.X.X.t.,.%.%.%.%.-.%.>.%.-.%.-.%.-.%.-.%.-.%.",
"L L L L L L L L I L L L L L L L L Y L L L L L L L L L L L L L L L L L L L L L * _ ! t.X.t.,.%.%.%.-.%.>.*.-.%.-.%.-.%.-.&.-.%.-.",
"L L L L L L L L L L L L L Y L L L L L L L L L Y L L L L L L L L L L L L L L L * l r E o.t.,.%.%.-.%.-.&.-.%.-.%.-.%.-.%.-.%.-.%.",
"L L L L L L L L L L L L L L L L L L L Y L L L L L L L L L L L L L L L L L L L * a g ~ X.t.,.%.;.%.:.%.-.%.-.%.-.%.-.%.;.%.;.%.-.",
"L L L L L L L L L L L L L L L Y L L L L L L L L L L L L L L I L L L L L L L L * { { X.X.t.,.-.*.-.%.-.%.-.%.-.%.-.%.-.%.-.%.-.%.",
"L L L L L L L L L L L L L L L L L L I L L L L L L L Y L L L L L L L L L L L L * X.X.X.X.t.,.&.;.%.-.%.-.%.-.8.a.s.a.a.d.a.a.p.p.",
"L L L L L L L L L L L L L L L L L L L L L L L L L L L L L I L L Y L L L L L L * X.X.%.=.y.,.-.&.:.%.-.%.-.X.A n V Z A D 3.6.8.p.",
"L L L L L L L U L L L L L P L L L L L L L L L L L L L L L L L L L L L L L L L * X.%.%.%.t.,.*.-.8 J K >.o.g # N * 8.V A c a.6.q.",
"L L L L L L L L L L L L L L L L L L L L L L I L L L L L L L L L L L L L L L L = *.%.&.%.t.,.-.a , 4 K %.{ g # n m n V C S F 5.q.",
"L L L P L L L L L L L L L L L L L L L L L L L L L L L L L L L L L L L L L L L * _ E t.%.y.,.E i o 6 J 1.~ g # n M m n V C A A q.",
"L L L L L L L L L L L L L L L L L L I L L L L L L L L P L L L L L L L L L L L * g u E %.u.@.W ~ O 4 J -.~ j & n n n n n V V A 0.",
"L L L L I L L L L L L L L L L L L L L L L L L L L L L L L L I L L L L L L L L * a g ~ -.t._ E w.o 5 J -./ g # c z 4 G G K V V 9.",
"L L L L L L L L L L L L L L L L L L L L L L L L L L L L L I Y L L L L L L L L * { { -.,.,._ Q 1.o 4 G -.~ g # z # 2 .   H n V 8.",
"L L L L L L L L L L L L L P L L L L L L L L L L L L L L L L L L L L L L L L L * :.,.<.w.%._ E ,.+ 4 G -.~ g # * # 1   X G n B 8.",
"L L Y L L L L L L L L L L L L L L L L L L L L L L L L L L L L L L L L L P L P * ,.,.w.w.X.' E ,.o 4 G :.~ h # # # < # # H n n 8.",
"L L L L L L L L L L L P I L L L L L L L L L L I L L L L L L L L P P L L L L L * ,.w.w.t.X._ E -.o 4 8 -.) g # # % , , 1 4 n n 8.",
"L U L L L L L L L L L L L L L L L L L L L L L L P L L L P L L L L L L L L L L > e.t.t.t.X._ E -.o 4 8 -.~ g # # # # # # $ n n 6.",
"L L L L L L L Y Y L L L L L I L L L L L L L L L L L L L L Y L L L L L L I L L * ,.%.y.f.X._ E >.+ 4 7 -.~ g # # # # # # z n n 6.",
"L L L L L L L L L L L L L L L I L L L L L L L L L L L L L L L L L L L L L L L * X.h %.t.X._ E ~ p o 3 %.^ g # * * z x c n n n 7.",
"L L L L L L L L L P L L L L L L L L I I L L L L L L L P L L L L Y L L L L L L * X.X.,.t.%._ E a a E %.%.~ g # * @ C c n # 3.n 3.",
"L L L I L L L L L L L L L L L L L L I L L L L L L L L L L L L L Y L L L P L L = ,.<.t.w.%._ Q W E %.%.*.~ g # # = c c c m B n 4.",
"L L L L L L L L L L L L L L L L L L L L L L L L L L L L P L L L L L L L Y L L * g.t.w.w.%._ E ~ %.%.*.X.~ g # # # $ & # # # % n ",
"L L L L L L L L L L Y Y L L L L L L L I L L L L L L L L L L L L L P L L L L L * t.w.w.,.%._ _ %.%.%.&.X.~ g k g g g g g g g g _ ",
"L L L L L L L L L L I L L L L L L L L L L L L L L L L L L L L L L L L L L L L * r.r.,.,.%.` &.%.&.%.X.X.) ~ ~ ( ~ ~ ^ ~ ~ ~ { { ",
"L L I L L L L L L L L L L L L L L L L L L L L L L L L L L L L L L I L I L L L * w.,.-.;.-.X.%.%.%.X.X.X.X.X.X.X.{ X. .{ { { { ` ",
"L L L L L L L L L L L L L L L L L L L I Y Y L L L L L L L Y L L L L L L L L P * [ E t.-.u.%.%.%.X.o.o.X.X.X.X.{ X.| { { | { [ _ ",
"L L L L L L L L L L P L L P L L I L L L L L L L L L L L L L L L L L L L L L L * g r W :.t.-.%.@.X.X.X.X.X.X.{ X.{ { | { { _ ' _ ",
"L L L L L L L L L L L L L L L L L I L L L L L L L L L L L L L L L L L L L L P - a g ~ :.t.,.X.o.X.X.X.X.X.{ X.} X.| { { ' { _ _ ",
"L P L P L L P L L L L L L L L L L L L L L L L L L L L L P L L L L L L L L L L * { { -.:.t.,.X.X.O.X.X.@.{ X.{ X.{ { { _ { _ _ ~ ",
"L L L L L L L L L L L L L L L L L L L L L L L L L L L L L L L L L L L Y L L L * -.-.-.%.t.,.O.X.X.o.X.{ X.{ o.{ { { _ { _ _ _ _ ",
"L L L L L L L L L L L I L L L L L L L L L L L I L L L L L L L R L L L L L L L * -.-.%.%.t.,.X.X.@.X.{ X.} X.{ { { _ { _ ' _ _ ~ ",
"L L L L L L L L L L L L L L L L L L L L L L L L L L L P L L L L L L L L L L L * %.%.%.%.t.,.@.X.X.{ o.{ X.{ X.{ _ { _ _ _ _ ~ _ ",
"L L L L L L L L L L L L I L L L I L L L L L L L L L L L L L L L L L L L L Y L * %.%.%.%.t.,.X.X.{ X.{ X.{ X.{ } } _ _ ] _ ~ _ ~ ",
"L L L L L L L L L L L L L L L L L L L L L L L L L L L Y L P P L L L L L L L L * _ E t.%.t.,.O.O.X.{ X.} X.{ {  ._ _ _ _ ~ _ ) ~ ",
"L L L L L L L L L L L L L L L L L L L L L L L L L L L L L L L L L L L L L L L * g r E %.t.,.@.@.{ X.{ X.{  .} _ _ _ [ / _ ~ ~ ~ ",
"I P L L L L L L L P L L L L Y L L L L L L L L L Y L L L L L L L L L L L L L L * a g ~ @.t.1.,.,.,.,.,.2.,.,.,.1.,.,.,.<.,.,.,.-.",
"L L L L L Y L L L L L L L L P P L L L L L L L L L L Y L L L Y L L L L L L L L * { { @.O.t.y.t.t.t.t.t.t.t.t.t.t.t.i.t.t.t.t.t.w.",
"L L L L L L L L L L L L L L L L L L L L L L L L L L L I L L L L L L L L L L L * o.X.X.X.X.X.X.o.X.X.X.X.X.| { { { _ _ _ _ _ [ _ ",
"L L L L L L L L L L L L L L Y L L L L L L L L L L L L L L L L Y L L L L L L L - O.@.@.X.` E t.X.X.X.$.X._ E t.| _ _ _ _ _ r =._ ",
"L L L L L L L L L L L L L L L I L L L L L P L L L L L L L L L L L L L L I L L * X.X.X.X.g r E X.X.X.X.X.g r Q _ _ _ _ ' g 9 r ) ",
"L L L L L L L I L L L L L L L Y L L L L L L L L L L L L I L L L L L L L L L L z X.X.O.X.f g ~ @.X.X.O.X.a g ~ _ _ _ _ _ a g ~ ) ",
"L L L L L L L Y L L L L L L I L L L L L L L L L L L L L L L L L L L L Y L L L b c c c c c c c c c v v c c c c c c c c c c c c c "
};
