/* XPM */
static char *result[] = {
/* columns rows colors chars-per-pixel */
"64 64 197 2 ",
"   c black",
".  c #000001",
"X  c #000101",
"o  c #303000",
"O  c #313000",
"+  c #303100",
"@  c #303001",
"#  c #313001",
"$  c #202021",
"%  c #2C2C2C",
"&  c #2D2C2C",
"*  c #2C2D2C",
"=  c #2D2D2C",
"-  c #2C2C2D",
";  c #2C2D2D",
":  c gray22",
">  c #393838",
",  c #383938",
"<  c #393938",
"1  c #383839",
"2  c #393839",
"3  c #383939",
"4  c #393939",
"5  c #404000",
"6  c #484800",
"7  c #494800",
"8  c #585800",
"9  c #595800",
"0  c #686900",
"q  c #707000",
"w  c #717000",
"e  c #004040",
"r  c #004041",
"t  c #005858",
"y  c #015858",
"u  c #005958",
"i  c #005859",
"p  c #015859",
"a  c #007070",
"s  c #017070",
"d  c #007170",
"f  c #017170",
"g  c #007071",
"h  c #017071",
"j  c #007171",
"k  c #017171",
"l  c #007474",
"z  c #017474",
"x  c #007574",
"c  c #017574",
"v  c #007575",
"b  c #007878",
"n  c #017878",
"m  c #007978",
"M  c #017978",
"N  c #007879",
"B  c #017879",
"V  c #007979",
"C  c #017979",
"Z  c #007C7C",
"A  c #017C7C",
"S  c #007D7C",
"D  c #017D7C",
"F  c #007C7D",
"G  c #017C7D",
"H  c #007D7D",
"J  c #484848",
"K  c #484948",
"L  c gray33",
"P  c #555454",
"I  c #545554",
"U  c #555554",
"Y  c #545455",
"T  c #555455",
"R  c #545555",
"E  c #646464",
"W  c #656464",
"Q  c #646564",
"!  c #646465",
"~  c gray44",
"^  c #707170",
"/  c #717170",
"(  c #707071",
")  c #7C7C7C",
"_  c #7D7C7C",
"`  c #7D7C7D",
"'  c #848000",
"]  c #858000",
"[  c #848001",
"{  c #848101",
"}  c #949000",
"|  c #959001",
" . c #9C9800",
".. c #9C9900",
"X. c #980088",
"o. c #980088",
"O. c #980088",
"+. c #980088",
"@. c #980088",
"#. c #980088",
"$. c #980088",
"%. c #980088",
"&. c #008484",
"*. c #018484",
"=. c #008584",
"-. c #018584",
";. c #008485",
":. c #018485",
">. c #018585",
",. c #008C8C",
"<. c #018C8C",
"1. c #008D8C",
"2. c #018D8C",
"3. c #008C8D",
"4. c #018C8D",
"5. c #008D8D",
"6. c #018D8D",
"7. c #009898",
"8. c #019898",
"9. c #009998",
"0. c #019998",
"q. c #009899",
"w. c #019899",
"e. c #009999",
"r. c #019999",
"t. c #00A4A4",
"y. c #01A4A4",
"u. c #00A5A4",
"i. c #01A5A4",
"p. c #00A4A5",
"a. c #01A4A5",
"s. c #00A5A5",
"d. c #01A5A5",
"f. c #20B0B0",
"g. c #21B0B0",
"h. c #20B1B0",
"j. c #21B1B0",
"k. c #20B0B1",
"l. c #21B0B1",
"z. c #20B1B1",
"x. c #21B1B1",
"c. c #20B4B4",
"v. c #21B4B4",
"b. c #20B5B4",
"n. c #21B5B4",
"m. c #20B4B5",
"M. c #21B4B5",
"N. c #20B5B5",
"B. c #21B5B5",
"V. c #48C0C0",
"C. c #49C0C0",
"Z. c #48C1C0",
"A. c #49C1C0",
"S. c #48C0C1",
"D. c #49C0C1",
"F. c #48C1C1",
"G. c #49C1C1",
"H. c #74C8C8",
"J. c #75C8C8",
"K. c #74C9C8",
"L. c #75C9C8",
"P. c #74C8C9",
"I. c #75C8C9",
"U. c #74C9C9",
"Y. c gray55",
"T. c #8D8C8C",
"R. c #8C8D8C",
"E. c #8C8C8D",
"W. c #8C8D8D",
"Q. c #989898",
"!. c #999898",
"~. c gray66",
"^. c #A9A8A8",
"/. c #A8A8A9",
"(. c #B4B4B4",
"). c #B4B5B4",
"_. c #B4B4B5",
"`. c #9CDCDC",
"'. c #9DDCDC",
"]. c #9CDCDD",
"[. c #9DDCDD",
"{. c #9CDDDD",
"}. c #B8E8E8",
"|. c #B9E8E8",
" X c #B8E9E8",
".X c #B9E9E8",
"XX c #B8E8E9",
"oX c #B9E8E9",
"OX c #B8E9E9",
"+X c #B9E9E9",
"@X c #C0C0C0",
"#X c #C0C0C1",
"$X c #D0D0D0",
"%X c #D0D0D1",
"&X c #D1D0D1",
"*X c gray82",
"=X c #D8F4F4",
/* pixels */
"X.X.X.X.O.X.X.X.X.X.X.X.$.X.o.@.X.X.@.X.#.O., : 3 : < , : : : : : : : : > : < : 2 2 : : : : : : 4 : 1 : : : , : : , 3 > < > : : ",
"$.@.X.X.O.$.X.o.X.X.X.X.X.X.X.@.o.@.o.o.X.o.: Z b b b M M b b m m N b b n m b b B C b V n n n B b b m b b m b M V b N b b N m V ",
"X.o.X.@.X.X.X.X.X.o.X.X.O.O.X.$.X.X.X.O.X.X.2 g.7.7.,.v a f.,.,.,.2.,.x h k.8.,.,.,.,.l a f.,.,.,.3.,.c g f.3.,.<.,.3.l h h.,.<.",
"@.X.X.X.X.X.X.X.X.O.X.#.O.X.X.X.o.X.X.o.X.o.: g.g.f.h.A e s j.f.f.h.f.Z r g f.f.f.f.f.Z e a g.f.h.f.f.Z e d v.n.V.V.g.Z e a F.V.",
"X.o.@.o.X.X.X.X.X.X.X.O.X.X.X.X.X.X.@.O.X.X., f.f.g.f.M Z 3.h.l.f.f.f.N Z 3.f.z.k.f.k.M F 3.f.h.f.h.f.b Z ,.m.V.H.`.k.n A ,.D.S.",
"X.X.$.X.X.X.X.X.X.X.X.O.@.o.X.X.X.X.X.X.X.X.1 k.f.f.k.&.t i t t t t u u t t t y t u t t t t t i t i u t t t t t y y i t t u y u ",
"O.X.#.$.X.+.X.X.X.X.X.X.X.o.+.O.$.#.X.@.X.X.: f.f.f.f.g.Z m a f s a g a d a a s a k a s a g a d a d s a a a a d d d a a d s d a ",
"X.o.O.X.X.o.@.X.O.@.o.X.X.X.o.@.X.X.o.o.o.$.: 7.&.XXh.`.k.,.,.,.5.<.3.1.,.1.,.,.<.,.5.1.,.3.2.,.,.,.,.1.,.,.,.<.,.,.1.1.,.3.,.,.",
"o.X.X.X.X.O.#.X.o.X.X.X.X.@.X.@.X.@.X.X.%.X., Z s &.f.}.V.t.y.t.t.t.t.s.t.y.u.t.t.t.t.t.u.t.f.f.f.j.c.v.c.c.b.Z.c.V.m.V.c.F.n.c.",
"o.X.@.@.X.X.X.X.X.o.X.X.X.O.O.o.o.X.X.X.@.O.: b Z 5.g.+XH.t.t.t.t.t.p.t.t.t.t.t.t.t.y.u.f.h.h.k.h.c.c.v.m.n.V.B.C.c.V.c.C.v.m.v.",
"$.X.o.X.o.X.X.@.X.X.X.X.X.X.@.X.@.X.O.O.X.X.2 t.u.f.g.}.H.p.t.t.t.p.y.p.t.t.t.t.t.t.f.k.f.h.g.m.v.N.c.V.c.V.c.V.c.Z.m.V.c.c.c.b.",
"X.X.$.X.X.o.X.O.X.X.X.X.X.@.o.X.@.X.X.X.X.X.: f.g.f.h.}.P.p.t.u.t.t.t.t.y.p.u.t.g.f.f.f.f.c.c.c.c.b.Z.c.V.v.C.v.V.v.A.c.c.v.c.g.",
"o.o.X.o.X.o.X.@.X.X.X.#.+.X.X.$.X.X.X.X.X.X.1 f.k.f.f.|.U.t.p.t.p.u.t.y.t.f.f.h.f.g.g.c.v.c.c.D.v.S.c.C.b.V.v.V.c.V.c.c.m.c.f.j.",
"X.+.$.o.+.X.X.X.X.X.X.X.X.X.X.O.X.o.X.#.X.X.: f.g.g.k.|.H.t.t.t.t.t.t.f.h.f.k.f.k.c.c.c.b.c.V.v.V.m.V.c.A.M.V.b.S.v.c.v.m.k.g.h.",
"O.X.X.+.X.X.+.X.X.X.O.X.X.X.X.@.O.X.o.X.O.X.: h.f.z.f.}.J.t.t.a.u.k.f.k.f.k.f.m.m.b.c.c.c.V.c.C.c.Z.c.V.v.S.c.V.v.c.m.c.f.f.j.t.",
"#.#.@.@.o.X.@.o.X.X.X.X.O.X.X.X.o.X.X.X.X.X.: 7.&.}.f.XXH.p.t.k.f.f.h.f.h.f.c.m.c.c.c.v.C.m.S.b.F.c.V.c.V.c.V.b.N.b.b.g.f.f.t.f.",
"X.X.X.o.X.@.X.X.o.O.X.@.X.X.X.@.X.@.X.X.X.X.: A g &.h.oXH.f.h.f.k.f.f.f.v.m.c.c.m.C.c.D.v.V.v.V.c.C.v.V.c.V.c.m.c.c.f.f.f.k.f.t.",
"@.o.O.X.X.X.o.@.X.X.X.o.X.X.X.O.O.X.X.X.X.X.1 b Z ,.f.}.H.f.f.f.f.k.m.c.c.c.b.v.V.c.V.c.Z.c.D.c.S.c.V.c.C.b.m.c.m.f.c.z.f.h.t.t.",
"X.o.X.X.X.$.O.X.o.O.X.o.@.X.o.X.o.X.X.O.o.@.: t.t.h.h.XXH.j.f.h.b.c.c.c.c.c.b.V.c.C.n.V.c.V.b.Z.c.C.c.Z.M.b.c.c.f.M.f.f.f.p.u.t.",
"X.X.X.X.X.X.X.X.X.X.X.X.X.X.O.X.X.X.X.X.X.o., f.f.f.j.}.P.l.b.M.m.v.M.c.c.b.S.c.V.c.F.c.C.c.V.m.V.m.V.m.c.c.b.f.c.h.f.l.p.t.i.t.",
"@.O.@.o.@.o.X.X.#.#.X.@.X.X.X.X.X.+.X.X.X.X.1 h.f.h.f.}.J.c.v.c.c.c.c.c.c.S.c.C.c.V.b.V.M.C.v.V.c.V.c.V.m.c.f.c.k.g.f.t.t.t.t.t.",
"X.X.o.X.X.X.X.@.X.@.X.X.X.O.O.X.O.X.X.O.X.X.> k.f.f.f.}.H.c.v.c.c.c.Z.c.Z.c.C.m.V.c.V.m.V.c.V.m.F.n.Z.c.c.l.c.f.f.f.y.k.u.t.t.8.",
"o.O.o.#.X.X.o.@.X.X.X.X.X.@.X.o.X.X.$.@.X.O.: f.z.f.h. XP.c.v.c.c.V.c.S.b.C.m.V.m.V.c.V.c.S.c.V.c.V.c.c.f.M.f.h.f.p.g.t.t.t.t.y.",
"O.X.O.@.X.X.X.@.o.@.X.O.X.@.o.X.O.X.X.X.o.X.: 7.&.}.f.}.H.c.c.c.V.c.F.v.V.c.V.c.V.m.S.c.V.c.V.c.S.c.m.g.N.f.h.f.t.f.t.t.p.t.y.9.",
"X.O.X.o.X.X.o.X.+.@.X.#.X.@.X.X.X.X.X.X.X.X.: F a -.l.}.H.c.b.V.c.V.v.S.v.V.c.V.c.V.m.S.c.V.c.V.c.c.f.m.k.f.f.y.j.u.d.t.y.u.7.7.",
"O.X.o.X.o.X.#.o.X.@.o.O.O.O.o.O.X.X.X.X.O.O.: V Z <.f.}.P.c.C.c.D.b.V.c.Z.c.V.c.S.c.C.v.C.c.S.c.c.f.c.f.k.g.s.f.t.p.y.t.t.8.9.8.",
"X.@.X.@.o.X.X.X.X.o.X.X.X.X.X.X.X.o.X.o.X.O.: t.u.g.f.}.J.S.N.C.c.V.c.C.c.C.c.V.c.V.v.S.c.V.c.c.g.c.k.f.f.f.z.t.t.t.t.t.8.y.q.7.",
"X.O.X.X.X.X.X.o.X.X.X.X.X.X.X.X.O.X.X.$.X.O.: h.k.f.f.}.H.c.C.c.V.c.S.M.S.~.%X$X$X&X*X$X$X@X@Xg.M.g.f.k.f.f.t.u.t.p.p.8.y.q.7.,.",
"O.X.X.X.X.o.#.X.X.X.X.X.X.X.$.X.o.X.X.o.X.$.: f.h.N.m.|.K.S.n.V.c.V.c.V.f.) E ~ ^ ) ) T.Q.~.#Xm.f.f.g.k.k.t.t.t.i.s.7.t.7.7.7.q.",
"$.X.X.X.X.X.X.O.X.+.O.X.@.O.O.+.+.X.O.X.#.X.1 x.v.c.c. XH.b.V.q }  .V.l.S % Q > ~./ ) L $XQ._.g.g.g.z.f.y.t.p.t.t.7.t.9.7.7.7.,.",
"O.O.X.O.X.O.X.@.X.o.X.X.#.X.@.X.X.@.o.X.X.X., m.c.v.c.}.H.V.b 5 8 ..b.t.Z % E W W ~ ~ _ _ R.).g.g.f.f.u.k.u.u.u.7.y.7.8.7.8.1.7.",
"X.o.@.X.X.X.X.X.X.o.O.@.X.X.$.X.#.@.X.X.X.X.< 7.=.}.v.}.J.&.l @ 8 | H.,.Z % E E E E ( ^ _ _ (.g.k.k.p.l.u.t.t.t.u.w.7.7.7.1.e.,.",
"@.O.X.X.O.X.O.o.X.$.O.O.X.O.X.o.O.O.O.O.X.X., Z g &.m.XXk.*.1.@ 8 } Z.1.A = E E E E E ~ ( ` /.g.z.p.k.t.t.p.t.p.7.q.7.9.1.8.1.<.",
"O.X.X.X.X.X.O.@.X.O.X.X.X.O.X.X.X.X.@.X.X.X.: b F ,.V.XX7.*.].+ 9 } V.,.H & P J 9 ' '  .~ ~ ^.z.y.k.y.u.t.t.p.7.7.7.7.1.7.,.3.,.",
"X.o.@.@.X.@.X.X.X.X.X.X.X.X.X.X.X.O.O.@.X.X.: t.t.V.H.J.7.;.P.O 8 ' V.,.Z % J % 6     [ E ( ^.t.h.t.y.p.y.t.9.p.7.7.,.7.,.,.,.,.",
"X.O.#.X.o.X.X.#.@.X.X.+.O.X.X.o.o.O.X.X.#.X.< V.K.H.'.m.7.-.P.# 9 ' V.3.Z % : - 7 . X ' E E ~.f.t.a.p.t.t.q.p.7.7.3.8.,.7.,.,.&.",
"o.X.#.X.X.X.X.X.X.X.X.@.+.X.X.@.X.O.o.@.X.X.> H.K.`.`.f.q.*.J.o 8 ] V.,.S % - * 5 - % { W E ~.s.t.t.t.p.7.p.7.8.q.7.<.r.<.,.&.1.",
"X.@.O.X.X.X.X.O.@.O.X.X.X.X.O.X.@.X.X.X.$.X.: H.'.`.}.k.7.:.V.o 8 q Z.3.Z % ; % 5 5 6 8 W E ^.t.p.y.t.r.u.9.7.7.7.1.7.5.,.;.,.&.",
"X.o.X.X.o.X.@.@.X.X.X.X.X.X.@.X.X.X.X.X.X.o., [.}.}. Xf.7.;.V.o 8 w V.,.Z % % % % - - & W E Q.u.t.u.0.t.9.7.7.7.,.7.6.,.=.,.=.<.",
"$.X.X.o.X.X.X.X.X.@.X.o.X.o.X.@.X.O.X.o.X.O.> H.c.}.=Xf.8.*.S.o 8 0 V.,.F % * % % % % J E E Q.p.u.7.u.7.7.7.9.,.8.5.4.<.5.-.1.*.",
"O.+.+.X.X.X.#.o.@.X.X.X.O.o.X.@.O.@.@.X.X.o.: f.D v.}.g.7.&.,.z o 6 c.<.Z % : : J J R ! E Q !.t.y.t.7.7.7.7.1.7.<.,.3.,.&.,.&.,.",
"$.X.O.X.o.X.X.X.X.@.@.X.X.X.@.X.O.X.X.@.X.X.1 f.g.K.}.v.r.&.b b &.c.c.,.A % : $ ^ P E % Y.E E.a.t.9.p.7.7.,.q.,.<.1.,.;.3.&.<.&.",
"X.X.X.@.@.O.X.X.X.X.@.o.o.X.X.o.X.X.o.X.X.O.: L.H.}.`.n.9.&.;.&.m.c.b.,.F % % 2 L L L ! Q E W.p.7.t.q.q.,.7.,.7.3.,.&.,.&.1.&.,.",
"o.$.X.X.X.X.X.X.X.+.@.X.X.X.O.o.X.X.o.X.O.X., =XXX`.`.c.q.;.,.n.c.v.f.3.Z * % % % - - * % * Q 7.t.7.q.7.w.,.8.3.1.&.<.;.<.&.<.*.",
"o.X.O.X.X.X.X.O.X.X.o.X.O.X.+.X.X.@.X.X.X.O.: }.].`.J.b.7.9.v.c.c.c.f.,.H H F G Z Z S Z Z Z 7.t.7.7.9.7.,.q.<.,.,.3.*.2.;.,.&.3.",
"@.o.X.X.X.X.O.X.O.X.@.@.#.@.@.X.X.@.X.X.X.@.: `.].J.H.b.q.c.v.c.M.g.h.3.,.,.<.,.,.<.,.,.,.t.t.7.7.8.8.,.q.<.,.,.1.=.,.&.,.&.3.&.",
"o.X.X.X.X.$.X.@.o.o.O.$.@.@.X.@.X.X.@.X.X.@.1 `.H.V.C.C.f.c.c.c.l.f.g.h.f.f.f.s.f.t.u.t.p.t.q.7.9.7.,.9.,.,.,.,.&.<.&.1.&.4.*.<.",
"@.X.X.@.O.X.+.X.X.X.X.@.X.X.X.X.X.O.X.X.o.X.: 7.*. XV.+Xc.M.c.f.j.g.f.f.f.f.t.f.a.y.t.y.t.7.7.7.q.3.7.,.,.<.<.=.2.&.,.&.1.&.,.&.",
"X.X.O.X.@.@.@.$.X.@.X.X.X.X.X.@.X.o.X.X.O.X.: Z j =.G.OXV.m.g.f.g.f.h.k.f.t.f.t.u.u.t.t.8.9.7.7.,.7.1.,.<.,.&.,.*.3.&.1.=.5.&.,.",
"O.X.X.X.@.X.X.X.X.X.X.@.X.X.X.O.O.X.X.X.@.X., n A ,.G.}.H.g.g.f.f.f.f.h.u.h.s.f.i.t.y.q.p.7.8.1.7.3.9.<.2.&.<.=.,.&.,.;.,.;.,.,.",
"o.X.X.X.X.o.X.X.O.X.X.o.X.O.o.X.#.X.X.X.X.@.3 p.t.V.Z.}.K.l.f.f.f.f.k.t.g.t.f.t.t.t.9.t.7.7.1.7.2.7.,.<.,.,.;.,.&.,.-.,.=.<.3.,.",
"O.O.X.@.X.X.X.O.X.X.X.@.X.X.O.X.O.X.X.X.@.X.2 V.C.F.m.}.H.f.k.f.j.h.t.f.u.k.p.t.y.7.t.7.7.q.7.,.7.,.,.,.,.&.,.&.,.&.3.&.,.*.<.,.",
"X.X.o.$.X.X.X.X.X.O.+.X.$.O.X.O.X.X.@.O.X.X.: C.G.b.v.}.H.f.g.f.f.u.k.t.f.y.t.d.q.t.9.7.8.7.1.8.4.,.<.,.=.,.&.,.&.<.*.1.&.,.3.,.",
"X.O.O.X.o.#.X.O.X.X.@.X.X.#.X.X.O.@.X.@.X.X.: v.c.c.c.}.H.f.f.f.y.g.u.f.y.g.t.0.y.q.7.7.9.2.8.,.,.,.<.&.,.&.,.;.,.&.3.*.<.,.<.1.",
"X.X.@.#.X.X.X.X.@.X.X.X.X.X.@.X.X.X.o.X.X.o.: c.c.c.c. XP.l.h.t.f.i.f.t.f.t.u.p.7.7.7.7.,.7.<.<.1.,.&.,.&.<.&.,.*.,.&.,.,.<.,.<.",
"X.X.X.o.o.O.X.$.O.X.+.@.o.X.X.X.X.X.O.+.o.o.> 9.&.}.b.}.H.k.j.h.t.j.t.g.t.t.t.7.8.7.7.3.8.4.,.<.,.&.3.,.,.&.,.&.3.&.,.&.,.,.,.,.",
"X.$.$.X.X.X.X.X.X.X.O.X.@.+.X.X.+.O.@.X.O.X.3 Z d &.c. XI.k.f.t.g.t.f.t.u.t.8.7.q.q.,.7.<.3.,.,.3.,.<.5.:.1.:.1.&.,.;.2.1.,.1.,.",
"o.X.@.X.X.o.o.X.X.@.@.X.X.X.X.O.X.@.X.X.X.o.: b Z ,.f. XP.K.H.H.H.K.H.H.H.H.H.P.H.H.J.H.H.H.V.V.V.c.v.f.t.t.t.y.f.c.V.V.V.A.S.C.",
"@.$.O.X.X.X.$.X.X.X.X.X.o.X.@.o.X.o.X.$.X.@.: t.t.k.h.}.XXXXXXOX|.}..X}.}.}.}.}.XX}.}..X|.|.`.{.'.`.H.K.C.Z.V.J.I.'.`.].`.`.'.'.",
"X.o.X.O.X.X.X.X.X.X.X.X.X.X.+.X.X.@.o.X.X.o.: l.g.f.g.h.f.f.g.f.g.j.f.f.t.t.t.t.q.9.w.7.7.9.9.w.,.&.&.Z Z F A F &.<.4.7.7.8.7.7.",
"X.X.X.X.X.O.X.X.o.o.@.X.@.X.o.X.X.X.@.X.X.X.: f.f.l.f.9.*.XXf.f.f.h.g.9.;.XXu.7.7.7.8.7.a c.7.,.&.&.F b a 7.Z Z &.<.7.7.a c.8.9.",
"X.X.X.X.X.@.X.X.O.X.O.X.@.X.o.X.X.$.X.o.@.X.: f.f.f.g.F a &.f.f.g.h.f.Z s &.7.q.7.7.7.F e a ,.*.;.H H g e p Z >.&.,.9.Z e a 7.7.",
"@.@.X.X.O.o.o.o.X.X.X.X.O.#.+.X.X.O.$.X.X.@.K f.f.f.f.N A ,.k.g.h.f.h.m A 1.7.7.7.9.7.b F 4.,.=.;.Z Z g g b &.=.,.9.7.N Z 1.7.7.",
"O.X.o.o.X.o.X.X.o.O.X.X.o.X.X.X.X.o.X.X.o.$.P P L I L Y U L L L L L L T I L Y Y I L L Y L L Y L L L R L Y L L Y P I L L L L L L "
};
