/* XPM */
static char *xpm_[] = {
/* columns rows colors chars-per-pixel */
"64 64 101 2 ",
"   c #000001",
".  c #303000",
"X  c #202020",
"o  c #2C2C2C",
"O  c gray22",
"+  c #393938",
"@  c #383939",
"#  c #393939",
"$  c #404000",
"%  c #484800",
"&  c #494800",
"*  c #585800",
"=  c #686800",
"-  c #707000",
";  c #004040",
":  c #005858",
">  c #015958",
",  c #005859",
"<  c #007070",
"1  c #007071",
"2  c #007474",
"3  c #017475",
"4  c #007878",
"5  c #007978",
"6  c #017978",
"7  c #007C7C",
"8  c #007D7C",
"9  c #017D7D",
"0  c #484848",
"q  c #494848",
"w  c #484849",
"e  c gray33",
"r  c #545554",
"t  c #545455",
"y  c #555555",
"u  c #646464",
"i  c #656464",
"p  c #646465",
"a  c #656465",
"s  c #646565",
"d  c gray44",
"f  c #707170",
"g  c #7C7C7C",
"h  c #7C7C7D",
"j  c #848000",
"k  c #949001",
"l  c #9C9801",
"z  c #980088",
"x  c #980088",
"c  c #980088",
"v  c #980088",
"b  c #980088",
"n  c #008484",
"m  c #008584",
"M  c #008485",
"N  c #008585",
"B  c #008C8C",
"V  c #018C8C",
"C  c #018D8C",
"Z  c #008C8D",
"A  c #009898",
"S  c #019898",
"D  c #009998",
"F  c #019899",
"G  c #00A4A4",
"H  c #00A5A4",
"J  c #00A4A5",
"K  c #20B0B0",
"L  c #21B0B0",
"P  c #20B4B4",
"I  c #20B5B4",
"U  c #20B4B5",
"Y  c #20B5B5",
"T  c #48C0C0",
"R  c #49C0C0",
"E  c #48C1C0",
"W  c #48C0C1",
"Q  c #48C1C1",
"!  c #74C8C8",
"~  c #74C9C8",
"^  c #74C8C9",
"/  c #75C8C9",
"(  c #74C9C9",
")  c gray55",
"_  c #8C8D8C",
"`  c #989898",
"'  c gray66",
"]  c #A9A8A8",
"[  c #A8A9A8",
"{  c #B4B4B5",
"}  c #9CDCDC",
"|  c #9CDDDC",
" . c #9CDCDD",
".. c #9CDDDD",
"X. c #B8E8E8",
"o. c #B9E8E8",
"O. c #C0C0C0",
"+. c #C1C1C0",
"@. c #D0D0D0",
"#. c #D1D1D0",
"$. c #D9F4F5",
/* pixels */
"z z z z z z z z b z z b b b b b @ + + + + + + + + + + + O + O + + + + + O O O O + + + + + + + # + + + O + + O + O O + O + O O O ",
"z z z z z z z z z z z b b b v v + 9 4 4 7 4 4 4 4 4 4 4 6 6 4 4 4 4 4 4 7 4 4 4 4 4 4 4 4 4 4 4 4 4 4 4 4 4 4 4 4 4 4 4 4 4 4 4 ",
"z z z z z z z z b z b z c c v v + K D D V 3 1 K V C C C V 3 1 K F V V V V 3 1 K C C V V C 3 1 K V V C V V 3 1 K C V C V C 2 1 L ",
"z z z z z z z z b z z z c c c c @ L L L K 7 ; 1 K K K K K 9 ; 1 K K K K K 9 ; 1 K K K K K 9 ; 1 U U W W K 9 ; 1 W Q W K K 9 ; 1 ",
"z z z z z z z z c c c c c c c c @ K K L L 1 7 V K K K K K 4 7 V K K K K K 4 9 C K K K K L 4 6 C U Q ! } K 2 9 V R R K K K 4 9 C ",
"z z z z z z z z c c c c c c c c @ K K K L M , , , , > > , > > , : : > : , , , > > > , > > > > > , , , , > > , > : > , > , , , , ",
"z z z z z z z z c c c c c c c c + L L K L L 9 4 1 1 1 1 1 1 1 1 1 < 1 < < < < < 1 1 1 1 1 1 1 1 1 1 1 1 1 1 1 1 < < 1 1 < 1 1 < ",
"z z z z z z z z c c c c c c c c + D m X.K ..K V C C V V C C C C C V V C C V V V V C C C C C C C C V V C C C V V C V C V V C C V ",
"z b z z b z z z c c x x z x x x O 7 1 M K o.W H G G J H G G J H G G G G H H H H K K K K I I I I U R L Q U R P R L U K Y L K L H ",
"z z z z z z b z c c c c z x z z + 4 9 V K o.~ J J J H J G G G H G J G G H H L L K K L U I U I U Q U Q P R U R P U U I K K K H H ",
"b z z z z z z x c c c c z z z z + J J K K o.~ J G G J H G G H H J H G G L L L L L P U U U R I R U R U Q I R U U U U L L K H H H ",
"b z z z b z b z c c c c z z z z + K L K K o./ J G G H H G G H H H H L L L L L U L U U U Q U Q L R U Q I Q L U U U L K L H K H H ",
"b z z z z b z z z z z z z z z z O K K L K X.~ J G G G G J G G L K K L L L U P P I Q I R L Q U Q I Q I Q P U U U L K L G K H J H ",
"z z b z z z z x z z z z x z b z + K K K K X./ J G G G G J K L L K K L U P P U P Q U R I Q I Q I E L Q I P U U L L L G L J H J F ",
"z z b z z z z z z z z z z z z z + K L K K X./ J G G G L K K K K L U U U P P P Q U R U R U Q L R I Q U I U P K K L H K G G G F H ",
"z z z z b z b z z b z z z z z z + D m X.K X.~ G G L L L K K K K U U P P P U R U R P R U Q U Q U Q I I L U K K K J K G G G F J F ",
"z b z z z z z z z b z z z b z z # 9 1 m L o.( L L L L K L K I I U Y K E I R U R U R U Q Y Q L Q I L I I L L L L L H G H H H D F ",
"z z z b z z z z z b z b b b z z # 6 9 C L o.( L L L K L I I Y U I Y Q I R P R P R U R U Q Y Q K I I Y L U L L L J J G G H D F F ",
"b z z b z z z z z z b b b z z z # H H L K X.( L L L I I I Y Y Y I R I R I R U Q P R U Q K Q U Y Y Y K Y L L K G J J H G D G F S ",
"z z z b z b z z z b z z b z z z + L L L L X.( K I I I I K Y Y Y Q I E I Q I Q U Q P Q U Q Y Y Y Y K Y K K K G G J J J F H A A V ",
"v v v v z z z z z z z z z z z z @ K K K K X.( Y U U U I P P P R I T U R U Q I Q L R U Q I T K Y L Y K K K J G G G G S J F S V A ",
"v v v v z z z z z z z z z z z z + K L K K X.( Y U L U U Q U R P Q I R U Q U Q U R U R U R U Y K Y K K K J K G J G F G F F F F C ",
"v c b v b z z z z z b z z z z b @ K L L L X.! I U I U R P Q P R U Q Y E L Q I Q L R U R U U K Y K K K H K J H J G G D F A F V V ",
"c c b b b z z z z z z z z b z z + D m X.K X.! I P P R U R P R U R K T Y Q I Q I R U Q I U K I K K K H L J J H J H D F F D C A V ",
"c c c c z x z z z z x z z z z b + 9 1 m L X.( Y I R I E L Q U R U Q I E K R Y Q K Q Y Y L I K K L G K G J J H H F F F F V A C V ",
"c c c c z z z z z z z z z b z z O 4 7 V K o.( Y E I R K Q P Q U R U E I R U R Y E I Y K I K L L G L G J J J H D F S F C S V V M ",
"c c c c z z z z z z z z z z z z + J J K L o.! R I R U Q P Q U Q U R P Q Y R U R Y Y L U K K K L L H J J H H D H S F V A V V M V ",
"c c c c z z z z z z x z z b z x + K K K L o.! P R U Q U Q U R [ #.#.#.@.@.@.#.O.O.K Y L K K K K H H J H H F H A S V S V V M V m ",
"c c c c c c z z z z z z z b b b + K K U U o.~ Q I R U R U R L g i f f h g ) ` ' +.U L L L L L H H G J J A G A A S F V V V C n C ",
"c c c c c c z z x z z z z z z z + K Y U L o.~ U Q - k l Q L 9 o i + ' f g e @.` { K L L L L H H J J J S G S A A S V F V V n C n ",
"c c c c c c c c x z b z z z z z + K U Y U X.( Q 4 $ * l L H 9 o i i i f f g g ) { K K K L H L H G G S J S S F F V S V V n V n C ",
"c c c c c c c c b z z z z x b z O F m o.U o.( m 2 . * k ( C 9 o i i u u f f g g { K K K J K G G G G G S S S S V F C V M C M V n ",
"z b z z b z z z z x z z x c c x + 9 1 m U X.K m C . * k T V 9 o s i i i i f f h ' L L H L H J G G J F F F F V F V V M V m V M V ",
"b z z z z z z z x z z z z c c c + 6 6 C R o.F M  .. * k T C 9 o t w * j j l d f ' L H L J H G G G D S S D C F V V V V m V m C n ",
"z z b z z z b z z x z z z z c x O J G W ( ! F M ( . * j T V 9 o w o %     j i d ' H K J H J J J F H S A V F V V V C m V n V m V ",
"b z z z z z z z z z z z z z c c + R ! ( } U F m ( . * j T V 9 o @ o %     j i i ' K J J J H J F G D A C F V F V V n V m V M V m ",
"z b z b b b z z z x x z c c c c O / !  . .K F M ( . * j Q V 4 o o o $ o o j i a ' H H J H H A G S S A A C D V V m V m V n V M V ",
"z z z z z z z z z z z z c c c c O / }  .o.K F M W . * - R V 9 o o o $ $ % * a a ' H H H H A G S S S S V F C C M V m V m V M V V ",
"z z z b z z z z b z z z c c c c + } X.X.o.K D m W . * - Q V 9 o o o o o o o s s ` H G J D J S S S F V F V V M V M V n V M V V V ",
"z z b z z z z z z z z z c c c c + ( U X.$.K D m W . * = Q C 9 o o o o o o w p p ` G G S G F S S S C S C C V V M V m V M V M V V ",
"z z z z z z z z z z b b b b c c + K 9 K X.K A m C 1 . % U C 9 o + + w w t i s s ` J J J A A A F C F V V V V M V m V M V M V V V ",
"z z z z z z z z z b z z b b c c @ K K ! X.U D m 4 4 m U U C 9 o + X f y i o _ s _ J J F G S D V F V V V V M V m C m C M V V C C ",
"z z b z b b z b b x x x c c c c O / ! X...L D M m m U U I C 9 o o + y y t i s i ) J D J F F C A V A C V M V M V m V m V V V V V ",
"z z z z b b z b z z z z c c c c + $.o. ...U F M C U U L L C 9 o o o o o o o o o u D J D S F F C F C V M V M V m V m V M C V V V ",
"z z z z b z z z z z z x z z z z O X. . .~ U D D U U U P K C 9 9 9 9 4 9 9 9 4 9 D J S S F S C A V V V C m V M V M V M V C V V F ",
"z z z z b z z z z z z z z z z z + }  .~ ~ U D U U P P L K C V V C C V C C C C G G F S S F V A V V V C m V m V M V M V V V V D V ",
"z b z z z z z z z z z z z z z z O ..~ Q Q Q K U U U K K K K K K K G K G J G G G F S S F V S C V V V M V M V M V M V V V V V V F ",
"z z z z z z z z z z z z z z z z O F m o.Q o.L U U K K K K K K L J K J G G G G F F S A C F V V V V m V M V m V m V m V V V V F C ",
"z z z z z z b z z z b z z z z z + 9 1 M W o.Q L L L K K K K K J L G G G G G S S F F V F V C V C m C M V n C m V M V V C C F V F ",
"z z z z z z z b z b z z z b z z + 2 9 C Q o.( K L L Y K K L J L H L G G G A G S F V F V D V V M V M V M V M V m V V V V V V A V ",
"z z z z z z z z b z z z z z b z + G H W W X.( K K K K K L J L J L G G G A G S S V F V F C V V V M V m V M V n V V C V C V F C D ",
"z z b z b z z z z z z z b b z z + R W W L X.~ L K K L K J L H L G G G A G A S S F V F C C V C M V M V m V m C M C C V V F V F D ",
"z b b b z b z z z z z z z z z z O T T U U o./ K K L K J K J L H G G D H S S S S C F V V V V M V M V n V n C M C C V C C V S V S ",
"z z z z z z z z z z z z b b z z O U U U U o./ K L Y H K J K J L G A H D S S S V F V V V C M C m C n V n C n V C V C V C S V S S ",
"b z z z b z z z z z z z z z z z + Y U U U o.~ K K H L H K J L H G G D D F F C F V V V V M V m V M V n V n V C V V V C D C A S S ",
"z z z z z z z z b b z z z z b z + D m o.U o.~ K L L H L J L H H G S F D F V F V C V V M V C C M V n V M V M V V V V A C A C A S ",
"z z z b z z z z z z z z z z z z O 7 1 M U o.~ K L G K J K G H H A A D D V F V V C V V C C C m C m V m C m C C C V V V F V S F S ",
"z z b z b z z z z z b b z z z z + 4 7 V K o.~ ~ ~ ! / ~ ! ! / ~ ! / ~ ~ / / / ~ Q R W L U L J J H J K K W Q R Q W W R W T T T E ",
"z z z z z z z z z b z b z z z z + J J K K o.o.o.o.o.X.X.X.X.X.X.o.o.o.o.X.X.X.X. .}  . .~ / Q Q R ~ ~  . .} .... . . .} } } } } ",
"z z z b z z z z b z b b z z z z + K K K K K K K K K K K K K G G G G A D S S S S D A C m m 4 9 9 9 9 M V C F D D D F F J J K K K ",
"z z z z z z z z z z z z z z z z O K K K K F m o.K K K K K D M X.J F D D A D 1 U F V n m 7 4 1 F 6 9 M V D D 1 U F F D G K D m o.",
"z z b z z z z z b z z z z z z z + K K K K 7 3 m L L K K K 9 1 M F D F D A 6 ; 1 V M M 6 7 1 ; , 9 m m V D 9 ; 1 F D H G K 6 1 m ",
"z z z z z z z b z z z z z z z z w K K K K 4 6 C L L K K K 4 6 C S S D D D 4 9 C C m n 9 9 1 1 4 m m V F S 1 9 V F F G L K 6 4 C ",
"b b z z z z z z z z z z z z b z e y y y e y y e e e e y y y y e e e t t y t y y e e e e y e e e y y e e y e e e e e t y t y y y "
};
