/* XPM */
static char *Layer_1_sprite_521735452230[] = {
/* columns rows colors chars-per-pixel */
"64 64 62 1 ",
"  c #303000",
". c gray22",
"X c #393838",
"o c #383938",
"O c #404000",
"+ c #484800",
"@ c #585800",
"# c #686800",
"$ c #707000",
"% c #004040",
"& c #005858",
"* c #007070",
"= c #017070",
"- c #007071",
"; c #007474",
": c #007878",
"> c #007C7C",
", c #007D7C",
"< c #484848",
"1 c gray33",
"2 c #555454",
"3 c #545455",
"4 c #848000",
"5 c #949000",
"6 c #9C9800",
"7 c #980088",
"8 c #980088",
"9 c #980088",
"0 c #980088",
"q c #980088",
"w c #008484",
"e c #008584",
"r c #008485",
"t c #008C8C",
"y c #008D8C",
"u c #008D8D",
"i c #009898",
"p c #019898",
"a c #009899",
"s c #00A4A4",
"d c #00A5A4",
"f c #20B0B0",
"g c #20B1B0",
"h c #20B0B1",
"j c #21B0B1",
"k c #20B4B4",
"l c #20B5B4",
"z c #20B4B5",
"x c #48C0C0",
"c c #49C0C0",
"v c #48C1C0",
"b c #48C0C1",
"n c #74C8C8",
"m c #75C8C8",
"M c #74C9C8",
"N c #74C8C9",
"B c #9CDCDC",
"V c #9DDCDC",
"C c #B8E8E8",
"Z c #B9E8E8",
"A c #B8E9E8",
"S c #D8F4F4",
/* pixels */
"7777777777777777888888888888888888888888777777777777...XXX......",
"7777777777777777888888888888888888888888777777777777.>::::::::::",
"7777777777777777888888888888888888888888777777777777.fiit;*jyyyy",
"7777777777777777888888888888888888888888777777777777.ffgj>%*ffff",
"7777777777777777888888888888888888888888777777777777Xjggj:>tfjff",
"7777777777777777888888808888888888888888777777777777Xjggkr&&&&&&",
"7777777777777777888888008888888888888888777777777777Xjjjjg;:==**",
"7777777777777777888888008888888877888888777777777777XaeAgBftttyy",
"7777777777777777888888808888888877777777777777778880X>*rgCxsssss",
"7777777777777777888888888888888877777777777777778880X::tgCnsssss",
"7777777777777777888888888888808877777777777777778800XdsfhCnsssss",
"7777777777777777888888888888888977777777777777778800XjffhCnsssss",
"777q77777777777788888888888897q977777777777777778888.ffffCnsssss",
"77qq777777777777888888888888779977777777777777778888.ffffCnsssss",
"09q7777777777777888888888888777777777777777777778888.ffffCnsddsf",
"8977777777777777888888888888q77777777777777777778888.iwCfCnssgjj",
"88888888888888777777777777q7777q88888888888888888888.>*rfCmgffff",
"8888888888888878777777777777777788888888888888888888.:>yjCmfffff",
"8888888888888888777777777777777788888888888888888888.ddffCmjggkk",
"8880888888888888777777777777777788888888888888888888.ffffCmfkkkg",
"8888888088888888777777777q77777788888888888888888888.fffgCNlkkkz",
"88888888888888887777777777777q7788888888888888888888.fffgCNlkgkz",
"8888888888888888777777777777777777888888888888880888.fffgCNkkkkb",
"8888888888888888777777777777777777888888888888880888.irCgCNzzgbk",
"8888888888888888777777777777777777777777888888888888X>=wgCnzzbzb",
"8888888888888888777777777777777777777777888888888880o:;ygCnzxfvz",
"8888888888888888777777777777777777777777888888888800oddfgCnxzvzv",
"8880888888888888777777777777777777777777888888888800XjgghCnzvfvk",
"8088888888888888777777777777777777777777888888888088.fjkjCmvzbzv",
"8888888888888888777777777777777777777777888888880088.kkkkCMkb$56",
"8888000888888888777777777777777777777777888888888888ozgkkCmb:O@6",
"8888000888888888777777777777777777777777888888888888XarCkCmr; @5",
"7777777777779q77777777777777777777777777777777777777X,;rzAfry @5",
"7777777777779777q77777777777777777777777777777777777X;>tbAirB @5",
"777777777777777q7777777777777q7777777777777777777777XddbmNarn @4",
"7777777777777777q77777777777q77777777777q777777777q7XbmmBkarn @4",
"777777777777777777777777777777q777777777777777777777XNNVBfiwn @4",
"7777777777777777777777777777777777777777777777777777XNVVCfiwx @$",
"77777777777777777q77q7777777777777777777777777777777XVAACfiwx @$",
"7777777777777777777777777777777777777777777777777777XNzASfiwx @#",
"7777777777777777777777777777777777777777777777777777.f>kCfart; +",
"7777777777777777777777777777777777777777777777777777.ffnAfar;:rz",
"777777777779q777777777777777777777777777777777777777.nMCBzireezz",
"777777777777777977777777777777777777777777q777777777.SCBBzirykkz",
"7777777777777777777777777777777777777777777q77777777.CVBmliijzkk",
"777777777q777777777777777777777777777777777777777777.VBMmlilzzlf",
"7777777777777777797777777777777777777777777q77777777.Vmvvvjlllff",
"7777777777777777777777777777777777777777777777777777.ieCvCzzjfff",
"7777777777777777777777777777777788888888888888887777X>*rbCvfggjj",
"7777777777777777777777q77777777788888888888888887777.:>yvCmjjggj",
"7777777777777797777777777777777788888888888888887777.ddvvCMjffgg",
"7777777777777777777777777777777788888888888888887777.vvbjCMjfggg",
"7777777777777777777777777777777788888888888888887777XbvkkCnffffs",
"7777777777777777777777777777777788888888888888887777.zkzzCnfffsf",
"7777777777777777777777777777777788888888888888887777.kjzjCnffsfs",
"7777777777777777777777777777777788888888888888887777.irCzCnfffsf",
"7777777777777777777777778888888888888888888888888977.>=wzCMggsfs",
"7777777777777777777777778888888888888888888888888997.:>tfCMMnnnn",
"7777777777777777777777777788888888888888888800888877.ssfjCCCCCCC",
"7777777777777777777777777788888888888888888880888877.ffffffjffff",
"7777777777777777777777777777888888888888888888888888ohhhjarAffff",
"7777777777777777777777777777888888888888888888888808ogffj>*rffff",
"7777777777777777777777777777888888888888888888888888<gggj::tffff",
"7777777777777797777777777777888888888888888888888888211222111333"
};
