/* XPM */
static char *Layer_1_sprite_581735452231[] = {
/* columns rows colors chars-per-pixel */
"64 64 41 1 ",
"  c gray22",
". c #393838",
"X c #383938",
"o c #383839",
"O c #007070",
"+ c #007071",
"@ c #007474",
"# c #007878",
"$ c #017878",
"% c #007C7C",
"& c #017C7C",
"* c #007C7D",
"= c #484848",
"- c gray33",
"; c #980088",
": c #980088",
"> c #980088",
", c #980088",
"< c #008484",
"1 c #008584",
"2 c #008C8C",
"3 c #008C8D",
"4 c #009898",
"5 c #009899",
"6 c #00A4A4",
"7 c #00A5A4",
"8 c #20B0B0",
"9 c #21B0B0",
"0 c #20B1B0",
"q c #20B4B4",
"w c #48C0C0",
"e c #49C0C0",
"r c #48C1C0",
"t c #74C8C8",
"y c #9CDCDC",
"u c #9DDCDC",
"i c #9CDDDC",
"p c #B8E8E8",
"a c #B9E8E8",
"s c #B8E8E9",
"d c #D8F4F4",
/* pixels */
";;;;;;;;;;;;;;;;;;;;;;;;;;;;;;;;;;;;;;;;;;;;;;;;;;;;;;;;;;..o.oo",
";;;;;;;;;;;;;;;;;;;;;;;;;;;;;;;;;;;;;;;;;;;;;;;;;;;;;;;;;;.&###@",
";;;;;;;;;;;;;;;;;;;;;;;;;;;:;;;;;;;;;;;;;;;;;;;;;;;;;;;;;;.q442@",
";;;;;;;;;;;;;;;;;;;;;;;;;;;;;;;;;;;;;;;;;;;:;;;;;;;;;;;;;;.q88q*",
";;;;;;;;;;;;;;;;;;;;;;;;;;;;;;;;;;;;;;;;;:;;;;;;;;;;;;;;;; 8888#",
";;;;;;;;;;;;;;;;;;;;;;;;;;;;;;;;;;;;;;:;;;;;;;;;;;;;;;;;;; 88881",
";;;;;;;;;;;;;;;;,,,;;;;,;;;;;;;;;;;;;;;;;;;;;;;;;;;;;;;;;; 88888",
";;;;;;;;;;;;;;;;,,,;;;;;;;;;;;;;;;;;;;;;;;;;;;;;;;;;;;;;;; 41p8u",
";;;;;;;;;;;;;;;;;;;;;;;;;;;;;;;;;;;;;;;;;;;;;;;;;;;;;;;;;; #O1qp",
";;;;;;;;;;;;;;;;;;;;;;;;;;;;;;;;;;;;;;;;;;;;;;;;;;;;;;;;;; #*28p",
";;;;;;;;;;;;;;;;;;;;;;;;;;;;;;;;;;;;;;;;;;;;;;;;;;;;;;;;;;.6688p",
";;;;;;;;;;;;;;;;;;;;;;;;;;;;;;;;;;;;;;;;;;;;;;;;;;;;;;;;;;o0888p",
";;;;;;;;;;;;;;;;;;;;;;;;;;;;;;;;;;;;;;;;;;;;;;;;;;;;;;;;;; 8888p",
";;;;;;;;;;;;;;;;;;;;;;;;;;;;,;;;;;;;;;;;;;;;;;;;;;;;;;;;;; 8888p",
";;;;;;;;;;;;;;;;;;;;;;;;;;;;;;;;;;;;;;;;;;;;;;;;;;;;;;;;;; 8888p",
";;;;;;;;;;;;;;;;;;;;;;;;;;;;;;;>;;;;;;;;;;;;;;;;;;;;;;;;;; 41p8p",
";;;;;;;;;;;;;;;;;;;;;;;;;;;;;;;;;;;;;;;;;;;;;;;:;;;;;;;;;; %+<8p",
";;;;;;;;;;;;;;;;;;;;;;;;>;;;;;;;;;;;;;;;;;;;;;;,;;;;;;;;;; &%2qp",
";;;;;;;;;;;;;;;;;;;;;;;;;;;;;>;;;;;;;;;;;;;;;;,:;;;;;;;;;;.7689p",
";;;;;;;;;;;;;;;;;;;;;;;;;;;;;;;;;;;;;;;;;;;;;;;;;;;;;;;;;;.0989p",
";;;;;;;;;;;;;;;;;;;;;;;;;;;;;;;;;;;;;;;;;;;;;;;;;;;;;;;;;; 8888p",
";;;;;;;;;;;;;;;;;;;;;;;;;;;;;;;;;;;;;;;;;;;;;;;;;;;;;;;;;; 8888p",
";;;;;;;;;;;:;;:;;;;;;;;;;;;;;;;;;;;;:;;;;;;;;:;;;;;;;;;;;; 9888p",
";;;;;;;;;;;;;;;;;:;;;;;;;;;;;;;;;;;;,;;;;;;;;;;;;;;;;;;;;; 4<p8p",
";;;;;;;;;;;;;;;;;;;;;;;;;;;;;;;;;;;;;;;;;;;;;;;;;;;;;;;;;;o*O1qp",
";;;;;;;;;;;;;;;;;;;;;;;;;;;;;;;;;;;;;;;;;;;;;;;:;;;;;;;;;;.@*29p",
";;;;;;;;;;;;;;;;;;;;;;;;;;;;;;;;;;;;;;;;;;;;;;;;;;;;;;;;;;.7699p",
";;;;;;;;;;;;;;;;;;;;;;;;;;;;;>;;;;;;;;;;;;;;;;;;;;;;;;;;;;.0998p",
";;;;;;;;;;;;;;;;;;>;;;;;;>;;;;;;;;;;;;;;;;;;;;;;;;;;;;;;::o09qqs",
";;;;;;;;;;;;;;;;;;;;;;;;;;;;;;>;;;;;;;;;;;;;;;;;;;;;;;;;:,o000qs",
";;;;;;;;;;;;;;;;;;;;;;;;;;;;;;;;;;;;;;;,;;;;;;;;;;;;;;;;::o0qqqs",
";;;;;;;;;;;;;;;;;:;;;;;;;;;;;;;;;;;;;;;:;;;;;;;;;;;;;;;:::.41sqs",
";;;;;;;;;;;;;;;;;;;;;;;;;;;;;;;;;;;;;;;;;;;;;;;;;;;;;;;;;; %+<qp",
";;;;;;;;;;;;;,;;;;;;;;;;;;;;;;;;;;;;;;;;;;;;;;;;;;:,;;;;;; &%2ep",
";;;;;;;;;;;;;;;;;;;;>;;;;;;;;;;;;;;;;;;;;;;;;;;;;;;;;;;;;; 77wtt",
";:;;;;;;;;;,;;;;;;;;;;;;;;;;;;;>;;,:;;;;;;;;;;;;;;;;;;;;;; wttuq",
";;;;;;;;;;;;;;;;;;;;;;;;;;;;;;;;;;;;;;;;;;;;;;;;;;;;;;:;,,.ttii8",
";;:;;;;;;;;,;;;;;;;;;;;;;;;;;;;;;;;;;;;;;;;;;;;;;;,;;;;;,, tuup8",
";;;;;;;;;;;;;;;;;;;;;;;;;;;;;;;;;;;;;;;;;;;;;;;;;;;;;;;;,: yppp8",
";;;;;;;;;;;;;;;;;;;>;;;>;;;;;;;;;;;;;;;;;;;;;;;;;;;;;;;;:: t0pd8",
";;;;;;;;;;;;;;;;;;;;;;;>;;;;;;;;;;;;;;;;;;;;;;;;;;;;;;;;:: 0*0s0",
";;;;;;;;;;;;;;;;;;>;;;;>;;;;;;;;;;;;;;;;;;;;;;;;;;;;;;;::: 00tsq",
";;;;;;;;;;;;;;;;;;;;;;;;;;;;;;;;;;;;;;;;;;;;;;;:;;;;;;;;;; ttsiq",
";;;;;;;;;;;;;;;;;;;;;;;;;;;;;;;>;:;;;;;;;;;;;;;,;;;;;;;;;; dsuiq",
";;;;;;;;;;;;;;;;;;;;;;;;;;;;;;;;;;;;;;;;,:;;;;;;;;;;;;;;::Xpiytq",
";;;;;;;;;;;;;;>;;;;;;;;;;;;;;;;;;;;;;;;,;,;;;;;;;;;;;;;;::Xuyttq",
";;;;;;;;;;;;;;;;;;;;;;;;;;;;;;;;;;;;;;;;;;;;;;;;;;;;;;;;:: utwww",
";;;;;;;:;;;;;;;;;;;;;;;;;;;;>;;;,:;;;;;;;;;;;;;;;;;;;;;::: 41pws",
";;;;;;;;;;;;;;;;;;;;;;;;;;>;;;;;;;;;;;;;;;;;;;;;;;;;;;;;;; &O<wp",
";;;;;;;;;;;;;;;;;;;;;;;;;;;;;;;;;;;;::;;;;;;;;;;;;;;;;;;;; &&2wp",
";;;;;;;;;;;;;;;;;;;;;;;;;;;;;;;;;;;;;;;;;;;;;;;;;;;;;;;;;; 76ewp",
";;;;;;;;;;;;;;;;;;;;;;;;;;;;;;:;;;;;;;;;;;;;;;;;;;;;;;;;;; wweqp",
";;;;;;;:;;;;;;;;;;;:;;;;;;;;;;;;;;;;;;;;;;;;;;;;;;;;;;;;;;.wwqqs",
";;;;;;;;;;;;;;;;;;;;;;;;;;;;;;;;;;;;;;;;;;;;;;;;;;;;;;;;;;.qqqqs",
";;;;;:;;;;;;;;;;;;;;;;;;;;;;;;;;;;;;;;;;;;;;;;;;;;;;;;;;;; 8qqqp",
";;;;;;;;;;;;;;;;;;;;;;;;;;;;;;;;;;;;;;;;;;;;;;;;;;;;;;;;;; 41pqp",
";;;;;;;;;;;;;;:;;;;:;;;;;;;;:;;;;;;;;;;;;;;;;;;;;;;;;;;;;;X%O1qp",
";;;;:;;;;;;;;:;;:;;;;;;;:;;;;;;;;;;;;;;;;;;;;;;;;;;;;;;;;;o&%28p",
";;;;;;;;;;;;:;;;;;;;;:;;;;;;;:;;;;;;;;;;;;;;;;;;;;;;;;;;;;.7688p",
";;:;;;;;;;;:;;;;;;;;;;;;;;;;;;;;;;;:;;;;;;;;;;;;;;;;;;;;;;o08888",
";;;;;;;;;;;;;;;;;;;;;;;;;;;;;;;;;;;;;;;;;;;;;;;;;;;;;;;;;; 88884",
";;;;;;;;;:;;;;;;;;;;;;;;;;;;;;;;;;;;;;;;;;;;;;;;;;;;;;;;;; 8888%",
";;;;;;;;;;;;;;;;;;;;;;;;;;;;;;;;;;;;:;;;;;;;;;;;;;;;;;;;;;=8888#",
";;;;;;;;;;;;;;;;;;;;;;;;;:;;;;;;;;;;;;;;;;;;;;;;;;;;;;;;;;------"
};
