/* XPM */
static char *xpm_[] = {
/* columns rows colors chars-per-pixel */
"64 64 124 2 ",
"   c #000001",
".  c #303000",
"X  c #313000",
"o  c #202020",
"O  c #2C2C2C",
"+  c #2D2C2C",
"@  c #2C2D2C",
"#  c #2D2D2C",
"$  c #2C2C2D",
"%  c gray22",
"&  c #383938",
"*  c #393839",
"=  c #383939",
"-  c #393939",
";  c #404000",
":  c #484800",
">  c #484901",
",  c #585800",
"<  c #595800",
"1  c #686800",
"2  c #707000",
"3  c #004040",
"4  c #014040",
"5  c #014140",
"6  c #005858",
"7  c #005958",
"8  c #005859",
"9  c #007070",
"0  c #017070",
"q  c #017474",
"w  c #017574",
"e  c #017878",
"r  c #017879",
"t  c #017C7C",
"y  c #007D7C",
"u  c #017D7C",
"i  c #007C7D",
"p  c #484848",
"a  c #494948",
"s  c gray33",
"d  c #555454",
"f  c #545554",
"g  c #555554",
"h  c #545455",
"j  c #646464",
"k  c #656464",
"l  c gray44",
"z  c #707170",
"x  c #7C7C7C",
"c  c gray49",
"v  c #848000",
"b  c #858000",
"n  c #949000",
"m  c #9C9900",
"M  c #980088",
"N  c #980088",
"B  c #980088",
"V  c #980088",
"C  c #980088",
"Z  c #980088",
"A  c #008484",
"S  c #018484",
"D  c #008584",
"F  c #018584",
"G  c #018485",
"H  c #008C8C",
"J  c #018C8C",
"K  c #008D8C",
"L  c #018D8C",
"P  c #008C8D",
"I  c #009898",
"U  c #019898",
"Y  c #009998",
"T  c #019998",
"R  c #019899",
"E  c #00A4A4",
"W  c #01A4A4",
"Q  c #00A5A4",
"!  c #01A4A5",
"~  c #20B0B0",
"^  c #21B0B0",
"/  c #20B1B0",
"(  c #21B1B0",
")  c #21B0B1",
"_  c #20B4B4",
"`  c #20B5B4",
"'  c #21B5B4",
"]  c #20B4B5",
"[  c #21B4B5",
"{  c #20B5B5",
"}  c #48C0C0",
"|  c #49C0C0",
" . c #48C1C0",
".. c #49C1C0",
"X. c #48C0C1",
"o. c #49C0C1",
"O. c #48C1C1",
"+. c #74C8C8",
"@. c #75C8C8",
"#. c #74C9C8",
"$. c #75C8C9",
"%. c #74C9C9",
"&. c #8D8C8C",
"*. c #8C8D8C",
"=. c #8D8D8C",
"-. c #989898",
";. c #989998",
":. c gray66",
">. c #A9A9A8",
",. c #A9A8A9",
"<. c #B5B4B4",
"1. c #B4B5B4",
"2. c #9DDCDC",
"3. c #9DDDDC",
"4. c #9CDCDD",
"5. c #B8E8E8",
"6. c #B9E8E8",
"7. c #B8E8E9",
"8. c #B9E8E9",
"9. c #C0C0C0",
"0. c #C0C1C0",
"q. c #D1D1D0",
"w. c #D8F4F5",
"e. c #D9F4F5",
/* pixels */
"M M M M Z Z Z M Z M M M M Z M M M - = & & & % % % - - & & & & = & & % % & & & & % % % - % % & % % - % % - - & & & = & - & & & & ",
"M M M M M M Z M Z M M M M M M M N & t r r q r r e e e r e e r e r e e e e r e e e r e e r q e r r r e e r e e r r q r r e e e e ",
"M M M M M M M M M M M M M M M M M - ~ I I P q 9 / J J J P J q 9 / I P P J J q 9 ) P J J P J q 9 ) P J J P J q 9 ) P P P J J q 9 ",
"M M M M M M M M Z M M M M M M M N % ~ ) ) ^ t 5 9 / ^ ^ ^ ) t 5 9 ^ ) ^ ^ ^ y 5 9 / ^ ^ ) ) y 5 0 { /  .} ) i 5 9 } } } ^ ^ y 5 ",
"M M M M M M M M Z M M M M M M M N = / ~ ) ) r i J ^ ~ ~ ~ ^ r i P ) ) ^ ^ ) e t P ) ^ ^ ( ) e y P _ } %.3.) e t P } } ) ^ ^ e t ",
"M M M M M M M M Z M M M M M M M M & ~ ~ ) ) S 8 7 7 7 7 6 7 8 6 7 7 7 7 7 7 7 7 7 7 7 7 7 7 8 8 8 7 7 7 7 8 8 8 8 7 8 7 7 7 7 7 ",
"M M M M M M M M M M M M M Z M M M - ~ ) / / / i r 9 9 9 0 0 0 9 9 9 9 9 9 9 9 9 9 9 9 9 9 9 0 0 0 0 0 9 9 9 9 9 9 9 9 9 9 9 9 9 ",
"M M M M M M M M M M M M M M M M N % I A 5.~ 4./ J J J J H H H H P P J J P J J P J J J J J J P P P P P J J J J J J J J J J J J J ",
"Z M Z M M M M M M M B B B B B B M - t 9 S ) 5.} W ! W W W Q Q Q W W W W Q Q Q Q Q / ~ ~ _ _ _ [ _ _ X._ } ] O._  ./ _ _ _ ) ) ) ",
"M Z Z Z M Z M M Z Z B B B B B B M & r t J / 5.+.W W W W W W E Q W W Q Q Q Q Q ^ ) ^ ^ ) _ _ _ _ _ X._ X._ X.] O._ _ _ _ ) ) ( Q ",
"M Z M M M M M Z Z Z Z Z B B B B M & W W ) / 5.+.W W W W W W Q Q W W Q Q W ) ) _ ^ ^ _ _ _ _ } _ X._ } _ } _ O._ _ _ _ ) ^ ^ W Q ",
"B Z M M M Z Z M Z Z Z Z B B B B M & ) / / ~ 5.+.W ! W W W W Q Q W Q Q ) ) ) ) ) / _ _ _ _ } _ } _ X._ } _ } _ _ _ _ ) ) ^ Q ) Q ",
"B B B B M M Z Z M M M M B B B B M = / ) ^ ^ 7.%.W ! W W W W Q Q ) / ) / ) ) _ _ _ _ O._ O._ X._ X._ .._ } _ _ _ ) / ^ ) Q ^ Q Q ",
"B B M M Z M M M M M M M B B B B M & / ~ ^ ^ 5.%.W W W W W W ) _ / / / / ] ] _ _ _ } _ } _ } _ } ' X._ X._ _ _ _ / / / W ) Q Q Q ",
"B B M M M M M M M M M M B B B B N - ) ) / / 7.%.W W W W / / / ( / / _ ] ] / _ _ } _ } _ } _ } _ ..' } _ / _ _ / / / Q ^ W W Q I ",
"B B B Z M M M M M M B B B B B B N % I A 5.~ 7.%.W W / / / / / ) / _ _ _ ] ] _ } _ } _ O._ } _ } ' X._ _ _ _ / / / W ) W W Q I W ",
"B B M M M M M M B B B B B B B B B * i 0 D ) 7.%.) ) ) ( ( ) ) _ _ _ _ _ } _ O.' X._ } _ } _ } _ X._ _ ' _ / ) / / / W W W ! W I ",
"B B M M M M M M B B B B Z B B B B * r i P ) 5.%.) ) ^ ^ ( _ _ _ _ _ _ X._ ..{ .._ } _ } _ } _ } _ _ _ _ / / ) / / W W W W ! I I ",
"B M M M Z M M M B B B B B B B Z B * ! ! / ) 5.+.) ) ) [ _ _ _ _ _ _ } _ } _ .._ } _ O._ } _ X./ _ _ _ _ ) ) ~ ~ W ! ! W ! I W I ",
"B B M M M M M M B B Z Z B B Z B B * ) ) / ) 5.+.) _ _ _ _ _ _ _ _ X._ X._ } ' X._ X._ O._ O.] ] _ _ ) _ ~ ~ ~ Q W ! W W I W I I ",
"B Z M M M M M M B Z B B B B Z Z N % ~ ~ / ^ 5.#._ _ _ _ _ _ _ _ X.' } _ } _ .._ X._ X._ O.] X.] _ ) ' ) ( / Q Q ! W Q T W I I P ",
"B M M Z M M M M B B Z B B Z B B N % ~ ~ ~ ~ 7.#._ _ _ _ _ X._ } _ X._ X.' X._ X._ .._ X._ O.] ] ) _ ( ( / W _ W W ! I W I I I I ",
"B B M Z M Z Z M B B B B B B B B N - ^ / ^ ) 7.#._ _ _ _ X._ } _ } ' } _ X._ .._ .._ } _ } _ / ) _ ) ) ^ Q ) Q Q W W W I I I I P ",
"B B Z M M M Z M Z Z B B B B Z B N - I S 5.) 7.#._ _ _ X._ X._ X._ } _ } _ X._ } _ ..' } _ _ / ] ) ) ( Q ) W Q W W W I I I I P I ",
"B B B C B B B Z B B Z B B B B B M & r 9 S ^ 7.#._ _ } _ X._ } _ } _ } _ } _ .._ } _ } _ _ / ] ) ) ) W / W ! Q Q ! T I T I P I P ",
"C B B B B B B B B B B B B B Z B M & r t J ^ 7.#._ } _ } _ X._ X._ } _ } _ .._ } _ } _ _ ) ] ) / / W / W W Q Q W I I I T P T P P ",
"B Z B B B B B C B B B B B B B B B = W W ^ ^ 6.#.} _ } _ } _ } _ } _ } _ X._ } _ } _ _ / ] / / / / ) W W Q W Q T Q I T P Y J J S ",
"B B B B B B B B B B B Z B Z B B B = / ) ~ ~ 6.#._ } _ } _ } _ } >.q.q.q.q.q.q.q.9.9./ ~ ) / ) / / W ! W W W T W I T P I J J S J ",
"C C B B C B B Z B B Z B B B B B B = ) ^ / _ 7.#.} _ } _ X._ } ) x j z z c c *.;.:.9.] ~ / / / ) W W W W W I W I I I I J J J J S ",
"B B Z B B B B Z B Z B B Z B B B B = ) _ _ _ 7.%._ } 2 n m X.) i O j - >.z c h q.-.1.) ) ) ) ) W W W W W I W T T I I J I J J S J ",
"B B B B B B B B B Z B B Z Z B B B = _ _ _ _ 7.#.} r ; , m _ W i O j j j l l c c *.1./ ) / / Q ) W W W I W I I I I J Y J P S J S ",
"B B B B B B B B B Z B B B B B B B - I D 7._ 7.#.D q . , n %.P i O j j j j l l c x 1.) ) / W ) W W W W W I I I I J I J J S P D P ",
"B B Z B B B Z B B B B B B B B B N - i 0 D _ 7.) D P . , n } J y O j j j j j z l x ,./ / W / W ! W W W I I I I P Y J P D P S J S ",
"B B B B B B B Z B B B B Z B B B N - r r P } 7.I D 3.. , n } P y O h p , b b m l l ,./ W / W W W W W I I I I J I J J P P S J S J ",
"B C B B B B Z B B B B B C B B B N - W W } %.%.I D %.. , b } P y O p O :     b k l ,.W / W W W W ! I ! I Y J Y J J P P S J S J S ",
"B C Z B Z B B B B B B B B Z Z M N - } #.%.3.) I D %.. , b } P y O - O :     b k j ,.) ! W W W W I ! I I J Y J I J J D J S P D P ",
"B B B Z B B B B B B B B B B B M M & #.#.3.3.) I D %.. , v } P i O O # ; O O b j j >.W W W Q W I W I I I I P I P J S J S J S J D ",
"B C B C B B B B B Z B B B B B M M - #.3.3.7.) I D } . , 2 } P i O O # ; ; : , j j >.W W W W I ! I I I I P I P P S P D J D P S P ",
"B B C C B B B B B B B B B B B B B - 3.5.7.7.) I D } . , 2 } J t O O O O O O O j j ;.Q W W T ! I I I T P I P P F J S J S J S J J ",
"B C B B Z B B B Z Z Z B B B B B B = #./ 7.e.) I D } . , 1  .J t O O O O O O p j j ;.W W I W I I I I P I P P P P S J S J S J S J ",
"B B B B B B Z B B B B M M M B B B - ) t _ 5.) I D P q . : _ J t O - - a a d k j j -.W W ! I I I I L I L J J J S J D J S L D P P ",
"B B Z B B B B B B B M M M M B Z B = ) ) #.5.) I D r r D _ _ P t O - o z g j O &.j &.W W I ! I I P I P J J J S P D P D J D P P J ",
"B B B B B B B Z B B B B M M M Z B % +.+.7.3._ I D D D _ _ _ P t # # - h g g j j j *.W I ! I T P I P Y P L D J S J S L S J J J J ",
"B B B B B Z B Z B B B B M Z M Z B - w.5.3.3._ I D P _ _ _ ) P i O # O O @ @ @ @ $ j I W I I I T P I J J S P S J S P S J D J P J ",
"B B Z B B B B B B B B B B B B B B - 5.3.3.+._ I I _ _ _ ) ) H t i i t t t t i t i I ! I I I T P Y J L J J D P S P D P D P J P L ",
"Z Z B B B B B B B B B B B B B B M - 4.3.+.%._ I ] _ _ _ / ) H H P P J P P P P P W W I I I I P I P J J J S J S J S P D J J P P I ",
"B B B B B Z Z B B B B B B B B B M - 3.%.} } X.) _ ] ] ) / ) ~ ) ) ) Q ) Q Q Q W Q I T I I P I P P J J S J S P D J S J P J J J J ",
"B B Z B B B B B B B B B B B B B B - I D 8.} 7._ _ ) / / ) / ~ ~ ) W ) W Q Q W W I I I I P I P P J P D L S J S P D J S P P P J Y ",
"B B B B B Z B B B B Z B B B B B M - i 0 D } 5.} ^ ) ) ( / / / ) W ) W W W W W I I I Y J I J P J J S J S P S J S L D J J J J Y J ",
"B B B Z B B B B B B B B Z B B B M - r i P } 7.#.( ) / ) / ^ ) W / ! / W W W I W I I J Y J I J J S J S P D L D P D P J J J J P I ",
"B B Z Z Z B B B B B B B Z B B B Z - ! ! } } 7.#./ / ) / ~ ^ W ~ W ) W W W T W T I P Y J I P J J J S J S L S P D P J J P J L Y J ",
"B B B B B B B B Z B B B B B B Z Z * X.X.} _ 7.%./ / / / ) Q ) Q ) W Q W T W I I Y Y P Y J J P J S J D J D J D L S J J J J Y J Y ",
"B Z Z Z Z B B B B B B B B B B Z M * X.X._ / 5.+./ ) ~ ~ W ) E ~ W W W I W T T I Y J I P P P J S J D P S J S J S L J J J J L Y J ",
"B B Z B B B Z Z B B B Z Z B B Z M * _ _ _ ] 5.#./ / ) W ) Q ~ E / W I W I I I I J Y P P J J S J D P S P S J S P J L J J J Y P I ",
"B B C B B B Z B C C B B B B B B M * _ _ _ _ 5.#./ ~ W ~ E ) E ) W W W I I I Y P Y J J J J S J S P D P D P S J J L J J P Y J I I ",
"Z Z B B B B B B B B Z B B Z B Z M * R D 8._ 5.#./ ~ ) E ) Q ~ E W ! I I I Y J I P J J J S J J J S J S P S J S P J L P Y J Y P I ",
"B B B B B Z B B C Z B B B B B B B = t 9 S / 5.#.~ ~ E ~ W ) W W W T I I I J I P P P P P P P J S P D P D H D H H J J P P I P I I ",
"B B B B B B Z B B B B B B B B Z B = q i P ) 7.#.+.@.@.+.%.%.#.#.%.%.%.%.%.%.%.#.%.} } } _ _ ) Q Q W W ) ) } } } } } } } } } } } ",
"B B B B B B B B B C B B B B B B B = W W ) ) 7.7.5.5.5.5.7.7.7.5.7.7.7.7.6.6.6.6.7.3.3.3.3.%.#.} } } %.%.4.3.3.2.3.3.3.3.3.3.3.3.",
"B B B B Z B Z B B B B B B B B B B % / ~ ) / / / ) ) / / / ^ / W W W W I I I I I I I I P D D t t r i i D P P I I I I I I W Q ) ) ",
"B B B B B B B B B C B B Z B Z B M - ^ ~ ) ) I A 5./ / ) ^ / I S 7.W I I I I I 0 _ I P S S t e 9 I t t D P I I 9 _ I I I W ^ Y S ",
"B B Z B B B B B B B B B B B B B M - ^ / ^ ) i 9 S ) / ~ ^ ^ t 9 D I I I I I e 5 9 P S S i t 9 5 7 t D D P I t 5 0 I I W W ) y 9 ",
"B B B B Z B B B B B B Z B B B B M p ~ / ) / e t H ) ~ ~ ) ^ e i P I I I I I e t P P S S t t 9 9 r S D P I I e i P I I W / ( e t ",
"B B B B Z B B B B B B B B B Z B M s s s f f s s d s s s g h h h g h g h h d d d f f f f g g h g g h h g g g g h h h f f f g g g "
};
