/* XPM */
static char *result[] = {
/* columns rows colors chars-per-pixel */
"64 64 193 2 ",
"   c black",
".  c #303000",
"X  c #303001",
"o  c #202020",
"O  c #2C2C2C",
"+  c #2D2C2C",
"@  c #2C2D2C",
"#  c #2C2C2D",
"$  c #2C2D2D",
"%  c gray22",
"&  c #393838",
"*  c #383938",
"=  c #393938",
"-  c #383839",
";  c #383939",
":  c #393939",
">  c #404000",
",  c #494800",
"<  c #494900",
"1  c #494801",
"2  c #585800",
"3  c #585900",
"4  c #585801",
"5  c #696800",
"6  c #707000",
"7  c #717000",
"8  c #707100",
"9  c #004040",
"0  c #004140",
"q  c #014140",
"w  c #004041",
"e  c #005858",
"r  c #015858",
"t  c #005958",
"y  c #005859",
"u  c #007070",
"i  c #017070",
"p  c #007170",
"a  c #017170",
"s  c #007071",
"d  c #017071",
"f  c #007171",
"g  c #007474",
"h  c #017474",
"j  c #007574",
"k  c #007475",
"l  c #007878",
"z  c #017878",
"x  c #007978",
"c  c #017978",
"v  c #007879",
"b  c #017879",
"n  c #007979",
"m  c #007C7C",
"M  c #017C7C",
"N  c #007D7C",
"B  c #017D7C",
"V  c #007C7D",
"C  c #017C7D",
"Z  c #007D7D",
"A  c #017D7D",
"S  c #484848",
"D  c #494848",
"F  c #484849",
"G  c gray33",
"H  c #555454",
"J  c #545554",
"K  c #545455",
"L  c #555455",
"P  c #545555",
"I  c #646464",
"U  c #656464",
"Y  c #646564",
"T  c #656564",
"R  c #646465",
"E  c #656465",
"W  c #646565",
"Q  c gray44",
"!  c #717070",
"~  c #707170",
"^  c #717170",
"/  c #707171",
"(  c #7C7C7C",
")  c #7D7C7C",
"_  c #7C7C7D",
"`  c #7D7C7D",
"'  c #848000",
"]  c #858000",
"[  c #848001",
"{  c #949000",
"}  c #949100",
"|  c #949001",
" . c #9C9800",
".. c #9C9900",
"X. c #980088",
"o. c #980088",
"O. c #980088",
"+. c #980088",
"@. c #980088",
"#. c #980088",
"$. c #980088",
"%. c #980088",
"&. c #008484",
"*. c #018484",
"=. c #008584",
"-. c #018584",
";. c #008485",
":. c #018485",
">. c #008585",
",. c #018585",
"<. c #008C8C",
"1. c #018C8C",
"2. c #008D8C",
"3. c #018D8C",
"4. c #008C8D",
"5. c #018C8D",
"6. c #008D8D",
"7. c #018D8D",
"8. c #009898",
"9. c #019898",
"0. c #009998",
"q. c #019998",
"w. c #009899",
"e. c #019899",
"r. c #009999",
"t. c #019999",
"y. c #00A4A4",
"u. c #01A4A4",
"i. c #00A5A4",
"p. c #01A5A4",
"a. c #00A4A5",
"s. c #01A4A5",
"d. c #00A5A5",
"f. c #01A5A5",
"g. c #20B0B0",
"h. c #21B0B0",
"j. c #20B1B0",
"k. c #21B1B0",
"l. c #20B0B1",
"z. c #21B0B1",
"x. c #20B1B1",
"c. c #21B1B1",
"v. c #20B4B4",
"b. c #21B4B4",
"n. c #20B5B4",
"m. c #21B5B4",
"M. c #20B4B5",
"N. c #21B4B5",
"B. c #20B5B5",
"V. c #21B5B5",
"C. c #48C0C0",
"Z. c #49C0C0",
"A. c #48C1C0",
"S. c #49C1C0",
"D. c #48C0C1",
"F. c #49C0C1",
"G. c #48C1C1",
"H. c #49C1C1",
"J. c #74C8C8",
"K. c #75C8C8",
"L. c #74C9C8",
"P. c #75C9C8",
"I. c #74C8C9",
"U. c #74C9C9",
"Y. c gray55",
"T. c #8D8C8C",
"R. c #8C8D8C",
"E. c #989898",
"W. c gray66",
"Q. c #A9A8A8",
"!. c #A8A9A8",
"~. c #A8A8A9",
"^. c #B4B4B4",
"/. c #B5B4B4",
"(. c #9CDCDC",
"). c #9DDCDC",
"_. c #9CDDDC",
"`. c #9DDDDC",
"'. c #9CDCDD",
"]. c #9CDDDD",
"[. c #B8E8E8",
"{. c #B9E8E8",
"}. c #B8E9E8",
"|. c #B9E9E8",
" X c #B8E8E9",
".X c #B9E8E9",
"XX c #B8E9E9",
"oX c #C0C0C0",
"OX c #C0C0C1",
"+X c #D0D0D0",
"@X c #D0D1D0",
"#X c #D1D0D1",
"$X c #D8F4F4",
/* pixels */
"X.X.X.X.O.X.o.X.X.o.X.$.X.o.X.X.O.X.X.o.@.X.X.X.- % % % % % % % & & % % - % % % % % % * % % % - * & * % - ; % % & * % % : % % % ",
"O.X.X.X.$.X.X.X.X.O.O.X.X.X.X.X.@.X.X.@.X.@.o.X.% m x b l l x n l l l l x x l l l l x x l l v l c z l l l l x x z l x l l l l l ",
"X.+.X.+.@.O.X.X.@.X.X.o.X.X.X.o.$.o.X.O.o.X.X.X.% l.8.9.2.j u g.2.<.2.<.<.g u g.8.<.1.1.1.j u h.<.<.<.<.<.g u g.<.4.<.<.4.g p j.",
"X.o.@.X.X.X.X.X.X.o.@.o.X.X.X.O.X.X.X.X.X.$.+.X.* g.h.j.j.m w u h.h.h.h.g.m 0 u g.g.g.g.g.m 9 u x.g.j.g.g.M 9 p v.M.Z.D.l.m 9 u ",
"X.X.X.+.X.X.#.X.X.X.@.#.@.X.o.X.O.X.X.@.X.X.X.X.% g.g.h.g.l M 2.g.c.h.g.k.l Z 4.h.l.h.g.j.z m <.g.j.g.l.g.l M <.v.Z.J.'.g.l M 1.",
"o.X.o.X.X.$.X.O.X.o.X.X.o.X.X.X.o.@.X.X.X.X.o.X.% h.l.h.g.=.r e e e t y e t e y e t e r e r e e e e e y e e r e e e t r t t t e ",
"X.X.@.X.X.O.X.O.X.X.o.X.@.X.@.X.X.X.o.o.O.X.o.X.* h.h.g.g.l.m l u i i u u u s u a u p u i s p s u u u p i f i i u u p u i i u u ",
"X.@.@.@.o.o.@.#.X.X.o.X.o.X.X.X.X.O.X.X.@.X.X.X.% w.*.[.g.'.g.1.2.<.<.<.<.<.<.<.<.<.<.1.<.<.<.<.<.<.<.2.<.<.2.6.1.4.<.1.<.<.1.<.",
"X.o.o.@.X.X.X.+.X.O.#.X.o.X.X.O.X.X.o.o.X.O.O.o.% V u &.g.{.C.y.y.d.y.a.i.u.a.y.y.y.y.y.y.y.y.u.j.g.g.g.n.v.v.v.M.C.v.C.N.Z.M.C.",
"X.X.o.O.o.X.X.X.X.O.O.O.X.+.o.o.X.o.X.X.X.X.X.o.% l M 4.g.{.P.i.y.y.y.y.s.y.a.u.y.y.a.y.d.y.g.l.l.g.g.v.b.v.b.v.C.v.D.v.H.v.Z.n.",
"o.X.X.X.o.X.X.X.X.X.X.O.X.O.X.X.X.X.@.o.X.X.X.X.& y.y.g.z. XI.y.y.i.y.i.y.y.y.s.y.y.y.s.j.g.g.g.g.n.n.N.b.C.v.C.M.C.v.D.v.C.n.v.",
"X.X.X.X.X.X.O.X.X.X.X.X.X.X.X.X.+.X.X.X.X.o.O.X.% j.j.z.h.[.U.y.y.y.y.y.y.y.y.y.y.y.g.g.g.z.g.v.v.v.b.v.G.b.D.n.D.b.C.v.C.n.v.M.",
"X.X.X.O.O.X.X.O.O.O.X.X.X.X.X.X.X.X.X.@.@.o.X.X.- l.l.g.g.}.L.u.y.i.y.i.a.d.y.g.g.j.l.g.g.M.v.v.M.C.v.C.M.C.n.C.v.C.b.C.n.n.M.v.",
"X.X.X.X.X.@.X.X.X.X.X.@.X.X.@.X.o.O.X.X.X.@.$.@.% g.g.g.j.[.J.y.a.y.y.u.i.g.l.g.l.h.h.N.v.v.v.b.C.v.C.b.C.M.C.v.C.v.Z.b.n.n.v.g.",
"X.X.X.@.o.X.X.@.X.O.X.o.X.o.@.X.X.X.X.X.X.X.X.X.% g.g.g.l.[.J.y.y.y.y.l.g.j.g.c.k.M.v.M.v.v.v.C.v.C.v.C.M.C.M.Z.v.C.v.B.v.b.g.g.",
"X.$.O.X.X.o.X.X.@.X.X.X.X.X.o.X.X.X.X.o.@.o.X.X.% w.&.[.g.[.K.u.y.g.g.l.x.g.g.g.v.v.n.v.m.M.Z.v.C.B.A.v.C.M.S.v.C.v.v.b.M.h.g.g.",
"o.X.@.X.O.X.O.X.X.X.X.X.X.O.o.X.X.@.X.@.o.+.X.X.% m i &.g. XI.g.l.g.h.g.h.g.b.m.v.v.v.C.v.F.v.Z.v.C.m.Z.v.S.n.Z.b.v.v.v.g.g.h.g.",
"O.X.o.o.o.X.X.$.X.o.X.#.o.X.X.o.X.X.X.O.X.o.X.X.- l M <.g.}.K.g.l.j.k.g.n.n.v.v.v.v.C.b.A.b.C.M.C.v.C.v.Z.b.Z.v.b.v.v.h.b.l.g.j.",
"X.X.X.X.X.O.@.@.$.O.X.X.$.X.X.X.@.X.@.o.X.X.O.+.% d.y.z.l.[.J.l.g.g.n.v.v.v.v.v.M.D.v.Z.v.Z.v.D.n.D.v.C.v.C.v.B.v.v.g.N.l.l.l.u.",
"O.+.X.X.X.X.X.@.+.o.X.X.O.$.o.X.X.X.X.X.X.X.X.O.% g.g.g.h. XJ.l.v.M.b.V.b.n.m.v.Z.M.C.v.C.v.C.n.D.v.C.M.Z.v.n.v.V.g.v.j.g.g.y.y.",
"X.X.X.X.O.X.X.+.X.X.X.X.O.O.X.X.o.X.X.X.@.X.@.O.% j.g.l.g.}.K.n.v.v.v.n.M.b.b.C.v.C.n.C.v.C.M.C.b.Z.v.C.v.C.M.v.j.n.h.g.g.i.y.y.",
"X.O.O.X.X.O.@.X.o.X.X.X.X.X.X.O.@.o.X.X.X.X.X.@.= h.h.h.l. XI.v.M.v.v.M.C.v.Z.v.F.v.C.b.C.v.C.b.A.v.C.n.D.v.M.l.v.g.c.g.y.g.y.y.",
"X.X.o.o.X.X.o.+.X.X.X.O.O.X.X.X.X.@.o.$.O.#.O.X.% j.j.g.g.}.I.v.v.M.n.D.M.Z.b.C.v.C.n.C.B.C.b.C.b.F.v.D.v.n.g.M.g.g.j.a.l.a.a.y.",
"O.X.X.X.O.X.X.@.X.X.X.X.X.O.+.X.X.X.o.X.X.X.X.X.% 8.=.[.j. XK.M.v.v.A.v.C.b.C.v.D.n.D.N.C.B.F.v.Z.M.C.b.M.l.v.g.h.g.y.j.y.u.y.y.",
"X.X.X.o.X.X.X.X.@.o.X.o.X.o.@.X.@.o.@.X.X.@.X.X.% V u &.h.[.J.n.n.D.b.C.v.C.v.C.v.D.B.Z.v.D.v.C.v.C.n.b.g.v.g.l.g.y.j.y.f.i.s.i.",
"X.$.X.X.X.@.X.@.O.X.X.X.X.@.O.o.X.X.X.O.o.X.X.O.% l m 2.g.[.J.M.A.v.A.n.A.B.D.v.A.M.C.n.S.M.F.N.C.n.v.g.M.g.l.g.y.g.i.a.y.y.y.8.",
"o.X.X.X.O.o.X.X.O.X.X.X.X.o.O.X.X.X.o.O.@.o.X.O.& i.y.g.z.[.J.C.v.C.v.C.v.C.v.C.v.Z.b.C.B.A.b.C.B.v.k.M.x.g.g.g.j.a.a.y.y.y.9.y.",
"X.O.X.X.$.@.o.@.@.X.X.X.@.o.O.X.O.X.X.X.X.@.o.@.% j.j.g.z..XK.n.A.n.C.n.C.v.H.W.+X+X+X#X@X@X+XoXoXg.v.g.g.l.g.h.y.y.y.y.y.9.y.9.",
"X.X.X.O.X.X.X.#.+.X.X.X.X.X.O.X.O.X.X.O.o.X.X.X.% j.z.N.M.|.L.C.b.A.v.C.B.C.g._ T ~ Q ( ( T.E.W.OXB.j.g.h.g.l.a.y.y.y.i.8.y.8.8.",
"X.X.o.@.X.X.X.X.X.o.@.X.X.X.o.@.#.X.o.X.X.O.+.X.% l.n.v.v.[.L.v.C.6 |  .C.g.m O W - W.Q ` P @XE./.l.l.g.j.h.p.y.y.y.a.8.y.8.w.8.",
"X.X.o.o.X.X.X.X.X.o.@.X.o.o.X.X.O.X.X.O.X.X.@.X.* M.v.v.b.[.J.C.l > 2 ..v.y.N O W E I ! Q ) ( R.^.h.g.g.g.y.l.u.y.i.8.y.r.8.8.0.",
"X.X.@.o.X.X.O.#.X.X.X.X.X.O.o.o.X.X.X.X.+.X.X.o.& 8.&.[.n.[.J.&.k . 3 } J.4.V @ R I I Y / ~ _ ( ^.g.g.g.u.g.y.a.y.a.y.8.9.0.8.1.",
"X.X.X.o.X.X.X.X.@.X.X.X.O.X.@.X.X.X.X.X.O.X.X.X.* m s &.v.[.h.&.<.. 3 { Z.2.B O I Y I I I ~ Q ( W.g.l.y.g.u.i.i.i.y.8.w.8.8.1.8.",
"o.o.X.O.X.o.+.X.#.#.X.O.X.X.X.X.X.O.X.X.X.X.@.X.% l N <.C.[.8.*.(.. 2 { C.<.M + G S 4 [ '  .Q ^ Q.g.y.g.y.y.y.i.a.8.8.8.w.5.8.2.",
"#.X.X.X.X.o.o.X.+.@.X.X.X.X.O.+.X.X.@.X.X.X.O.X.% i.y.C.J.J.8.;.I.. 2 ] D.<.V # S O ,     ' R Q ~.i.g.y.y.u.y.u.8.i.0.9.1.9.2.<.",
"O.o.X.o.X.@.X.@.@.X.O.@.X.#.O.X.X.X.X.X.+.O.X.O.* F.L.K.(.v.8.&.J.X 2 [ C.5.m O % O 1     ' I R !.g.y.y.y.u.y.9.p.w.8.2.0.<.8.<.",
"X.X.X.X.o.@.X.X.X.%.X.X.o.X.X.@.X.%.O.X.@.X.X.O.= K.J.(.(.g.8.&.J.X 2 ' C.6.A + O O > O O ' E U W.a.i.d.y.u.0.i.0.9.w.8.<.8.5.1.",
"X.@.X.X.o.X.X.O.o.o.X.X.o.X.@.$.X.X.X.$.X.O.X.X.& J.(.).[.g.w.;.C.. 2 8 C.6.m O + @ > > < 2 I R W.i.a.y.y.8.y.0.8.e.9.2.9.<.<.&.",
"O.X.O.X.X.X.O.X.X.X.@.O.X.X.o.@.X.@.O.X.X.X.X.o.* ).{.XX[.g.0.&.Z.. 2 7 C.<.m @ O O @ O O + I I E.p.y.y.0.i.w.0.8.9.<.8.<.<.&.<.",
"X.X.X.X.@.O.o.@.X.X.X.X.X.o.X.X.@.X.@.@.X.X.X.X.* J.v.[.$Xg.8.:.D.. 2 5 A.<.m O O @ O O O F I R E.y.y.8.y.8.r.8.8.2.0.1.4.1.1.=.",
"X.X.O.X.X.O.X.X.@.O.X.O.O.@.X.+.O.X.+.X.X.X.X.X.* g.B M.{.g.8.&.<.h . , v.1.V @ * % D S H I R I E.i.y.y.8.8.q.w.2.8.3.<.<.<.&.<.",
"X.X.X.$.X.X.X.X.X.@.X.@.@.X.o.X.X.X.X.X.O.o.X.X.% g.g.J.{.v.0.&.l v &.M.v.<.m O % o Q G U O Y.I Y.y.y.8.s.8.8.1.8.<.<.1.<.;.<.&.",
"X.@.O.o.O.o.@.X.X.o.X.X.o.X.X.X.o.@.o.X.X.X.X.X.= J.J.[.`.M.8.*.&.&.v.v.n.<.m # O = K G G R I I R.y.w.i.8.9.2.8.<.8.3.2.;.4.&.<.",
"X.X.o.O.X.X.@.X.X.O.O.X.o.%.#.X.X.O.o.X.X.O.X.X.; $X X(.(.b.8.&.4.v.v.v.l.<.V O O O O # O @ $ @ I 8.y.8.8.9.w.<.w.<.<.&.1.&.1.=.",
"O.@.X.X.X.X.X.X.O.o.X.X.X.X.X.%.X.@.X.X.X.o.@.X.% }.(.(.J.v.8.0.v.v.m.v.l.<.V m V M m m m V m V 8.y.0.0.0.8.<.0.1.<.<.2.*.<.&.2.",
"O.O.@.X.O.X.X.X.X.@.o.o.@.O.X.o.X.X.X.X.X.#.o.X.% ].].J.J.v.8.v.b.n.m.h.j.4.<.4.<.1.<.7.1.<.4.s.a.w.8.8.8.<.t.<.<.<.3.=.1.&.<.&.",
"@.#.X.X.@.X.X.X.X.X.#.X.o.o.o.@.X.X.+.X.X.X.X.X.% _.J.A.Z.C.g.v.v.v.g.g.j.g.h.g.g.y.g.y.y.y.a.y.8.8.8.8.2.0.4.<.4.1.&.1.&.1.&.4.",
"X.X.X.O.X.X.@.X.X.X.X.o.@.X.X.X.X.$.X.@.+.X.+.@.% 8.&. XC.|.v.v.v.k.h.z.g.g.g.g.y.g.y.i.u.y.y.w.8.0.8.<.8.<.4.<.<.&.<.;.<.:.<.=.",
"X.o.X.X.X.X.@.X.X.X.O.X.X.X.X.X.O.O.@.X.X.X.@.O.% m d -.Z.[.Z.n.h.g.g.g.g.l.g.y.h.y.y.p.y.i.8.0.8.8.<.8.4.4.<.2.;.<.&.4.=.4.,.1.",
"@.X.X.O.@.X.X.X.@.X.X.X.X.X.X.X.X.X.o.@.+.X.o.X.* l m 2.A.[.I.g.h.h.g.g.g.g.i.g.y.g.y.y.i.q.y.8.8.4.9.2.0.1.<.,.<.&.2.=.4.=.2.&.",
"X.@.O.O.X.X.o.X.o.@.o.o.o.X.O.X.$.X.o.X.X.X.%.X.* i.y.C.A.[.L.c.l.h.j.h.z.y.l.p.g.y.y.a.0.y.8.9.<.8.2.8.5.2.1.<.&.<.&.<.&.<.=.<.",
"X.o.X.X.X.o.X.o.@.#.X.$.o.X.X.@.o.+.@.X.X.X.X.o.- C.C.A.M..XJ.x.g.g.h.j.y.h.y.h.u.i.y.8.y.r.8.8.8.1.8.3.<.<.<.&.<.&.<.&.<.&.<.&.",
"X.O.@.X.X.@.O.X.X.%.X.o.@.@.@.X.X.o.X.X.X.X.X.o.% C.Z.b.v.[.J.g.g.l.g.y.l.p.g.y.y.y.e.y.8.0.8.8.2.8.4.<.<.1.&.<.>.<.&.<.&.1.>.<.",
"X.X.o.O.O.@.X.X.O.X.X.@.X.X.X.o.X.X.X.X.O.X.o.o.- v.M.M.v.[.K.g.g.z.y.g.i.g.y.k.a.8.y.8.8.8.8.<.8.<.1.<.1.&.<.&.<.&.4.=.<.;.<.1.",
"X.X.O.X.O.X.X.X.X.X.X.X.X.X.@.X.X.O.X.@.X.X.X.X.% B.b.M.v. XJ.h.g.u.g.y.g.y.h.i.y.y.8.0.8.8.<.r.1.<.<.<.>.4.&.<.>.2.&.2.;.<.<.<.",
"@.O.+.+.X.o.X.X.X.o.X.X.%.X.X.X.X.X.+.X.X.X.@.@.% 8.;. Xn.[.J.l.j.l.y.g.y.g.u.i.a.8.8.w.8.<.r.6.2.2.<.&.<.4.4.&.<.&.<.;.<.*.<.3.",
"O.X.X.O.X.X.X.X.X.X.X.O.X.@.o.X.o.X.X.X.o.o.X.o.% m u &.n.[.L.l.g.y.g.y.j.i.y.y.8.8.0.e.<.w.<.<.<.<.<.4.<.<.=.2.&.2.*.5.&.<.<.<.",
"@.o.X.o.X.X.X.X.@.X.X.X.X.X.X.$.X.+.X.X.X.X.@.@.& l m 1.g.[.U.J.L.L.P.L.I.J.J.J.K.J.J.J.K.K.P.J.C.A.C.n.v.g.y.y.y.a.g.v.C.C.C.S.",
"X.X.X.X.@.X.O.X.@.X.X.o.X.X.X.X.X.X.o.O.X.O.X.X.% u.y.g.j..X[.[.[. X}. X X[.{.[.[.[.}.[.XXXXXX{.(.(.(.).J.L.C.C.C.J.J.'.(.(._._.",
"X.X.X.X.X.X.X.X.#.X.X.@.@.@.X.X.X.X.X.O.X.X.@.X.& g.h.g.l.l.l.g.h.g.h.h.h.g.y.y.y.y.8.9.e.0.0.8.8.8.<.&.&.m m m C m &.<.<.r.9.0.",
"@.X.X.X.X.X.o.X.o.O.X.O.X.o.@.O.X.X.X.X.X.X.O.X.& j.g.l.j.e.&.[.g.g.g.j.g.8.&.[.i.w.8.0.9.9.u M.w.<.&.&.m l u e.M m >.<.8.8.u v.",
"X.X.X.o.X.X.X.X.X.@.o.o.X.X.O.X.@.$.@.o.X.X.@.O.% h.x.g.g.m u *.g.g.k.g.h.N u *.8.8.8.8.9.m q i <.=.;.V m u 9 y N *.;.<.9.m w i ",
"X.X.X.o.X.X.o.X.X.X.X.X.X.X.O.X.X.X.O.X.@.@.X.X.F j.g.j.g.b m 1.l.h.j.g.g.z m <.8.8.8.0.8.x m <.<.=.;.A V u f l &.*.<.8.8.l m <.",
"X.o.X.X.X.X.O.X.X.X.X.X.o.@.@.X.X.O.O.@.X.o.@.X.H G G H J G G J G G K G G K J G H J G G J J G G K G J J G G L J G G K K G G H G "
};
