/* XPM */
static char *xpm_[] = {
/* columns rows colors chars-per-pixel */
"64 64 126 2 ",
"   c #000001",
".  c #313000",
"X  c #303001",
"o  c #202020",
"O  c #2C2C2C",
"+  c #2D2C2C",
"@  c #2C2D2C",
"#  c #2D2D2C",
"$  c #2C2C2D",
"%  c #2D2D2D",
"&  c gray22",
"*  c #393838",
"=  c #383938",
"-  c #393938",
";  c #383839",
":  c #393939",
">  c #414000",
",  c #494800",
"<  c #484900",
"1  c #595800",
"2  c #585900",
"3  c #595900",
"4  c #686900",
"5  c #707100",
"6  c #004040",
"7  c #014040",
"8  c #005858",
"9  c #005958",
"0  c #015859",
"q  c #015959",
"w  c #006C6C",
"e  c #007070",
"r  c #007170",
"t  c #007574",
"y  c #017575",
"u  c #007878",
"i  c #017879",
"p  c #007C7C",
"a  c #017C7C",
"s  c #017D7D",
"d  c #484848",
"f  c #484948",
"g  c #494948",
"h  c gray33",
"j  c #555454",
"k  c #545554",
"l  c #555554",
"z  c #545455",
"x  c #555555",
"c  c #646464",
"v  c #656464",
"b  c #646564",
"n  c #656465",
"m  c #646565",
"M  c gray44",
"N  c #707071",
"B  c #717171",
"V  c #7C7C7C",
"C  c #7D7C7C",
"Z  c #7D7C7D",
"A  c #848000",
"S  c #858001",
"D  c #949100",
"F  c #9C9900",
"G  c #9D9900",
"H  c #008484",
"J  c #008584",
"K  c #018584",
"L  c #018585",
"P  c #008C8C",
"I  c #018C8C",
"U  c #018D8C",
"Y  c #018C8D",
"T  c #018D8D",
"R  c #019898",
"E  c #009998",
"W  c #019999",
"Q  c #00A4A4",
"!  c #01A4A4",
"~  c #01A5A4",
"^  c #01A4A5",
"/  c #01A5A5",
"(  c #20B0B0",
")  c #21B0B0",
"_  c #20B1B0",
"`  c #21B1B0",
"'  c #20B1B1",
"]  c #21B1B1",
"[  c #20B4B4",
"{  c #21B4B4",
"}  c #20B5B4",
"|  c #20B4B5",
" . c #21B4B5",
".. c #20B5B5",
"X. c #48C0C0",
"o. c #49C0C0",
"O. c #48C1C0",
"+. c #49C1C0",
"@. c #49C0C1",
"#. c #48C1C1",
"$. c #49C1C1",
"%. c #74C8C8",
"&. c #75C8C8",
"*. c #74C9C8",
"=. c #74C8C9",
"-. c gray55",
";. c #8C8C8D",
":. c #989898",
">. c #A9A9A8",
",. c #A8A9A9",
"<. c #B4B5B4",
"1. c #9CDCDC",
"2. c #9DDCDC",
"3. c #9CDDDC",
"4. c #9CDCDD",
"5. c #9DDDDD",
"6. c #B8E8E8",
"7. c #B9E8E8",
"8. c #B8E9E8",
"9. c #B9E8E9",
"0. c #B8E9E9",
"q. c #B9E9E9",
"w. c #C0C0C0",
"e. c #C1C0C0",
"r. c #D0D1D0",
"t. c #D9F5F4",
/* pixels */
"& & & & & & & & & & & & & & & & ; ; ; ; & & ; ; = = = & & & & & & & & & & & & & ; ; & ; ; ; ; = = = = & & & & & & & & & & & & & ",
"& s i i i u i u u i u i i u a u i i y i i i i i i i i i i y i i i i u i i u i i i i y i i y i i i i i i i u i u u i u u u u u & ",
"& ( R R P y r ( P P P T P y r ( R T I T T y w ( P P T T T y r ( T T T T T y r ( I I I T T y r ( T T I T T y r ( P P P P T P u & ",
"& ( ( ( ( s 7 r ( ( ( ( ( a 7 r ( ( ( ( ( s 7 r ( ( ( ( ( s 7 r  .| +.#._ a 7 r X.X.#.( ( s 7 r ( ( ( _ ( s 7 r ( R P T R T i & ",
"& ( ( ( ( i s T ( ( ( ( ( u a P ( ( ( ( ( i s T ( ( ( ( ( i s T { O.=.5._ u a P X.+.( ( ( i s T ( ( _ ( ( y a P R P P P R P u & ",
"& ( (  .( L q q q q q q q q q q q q q 8 q q q q q q q q q q q q q q q q q q q q q 0 8 q q q q q q q q q q q q q q q T R R T i & ",
"& ( ( ( ( ( s i r w r r r r r w e e r r r r r r r r r w r w w r r r r r w r r r r e e e e e w e r r r r w r r r r q P R R T i & ",
"& R L q.( 5.( T T T P P T T P P I I I I I T T T T P T T I I T T P P T P P P P P I I Y I I T I I P P P P T T T P r q R L q.T i & ",
"; s r L ( 6.#.^ ~ ~ ^ ~ ^ Q ~ ^ ~ ~ ~ ^ ^ ^ / ~ ( ( { ( ....( | { +. .#. .O. .O. .}  . .( ( ( ^ ~ ^ ^ ~ R R R I r q s e L I i & ",
"; i i T ( 6.=./ ~ ~ ~ Q Q Q Q Q ~ ~ ^ ~ ^ ~ ( ( ( ( ( { ...... .O.( #.| #. .#. .} } _ _ ( ( ~ ~ ^ ^ ^ R R R R I w 8 i p I T i & ",
"; ~ ~ ( ( 9.=./ ~ ^ Q Q ~ Q Q ~ / / ~ ~ ( ( ( ( ( { { { ..#.( +.| #._ #.} #. .|  . ._ ( ( ^ ~ ^ ^ Q R ~ R R R I r q R ~ ~ T i ; ",
"; ( ( ( ( 9.%.~ ^ ^ Q Q ~ Q Q ^ ~ ~ ( ( ( ( (  .} { .. .#...+.| #.| #.| #.| _ }  .( ( ( ~ ( ^ ^ ~ R ~ R R T I I r q R ~ ~ T y ; ",
"; ( ( ( ( 0.%.~ ^ ~ / / ^ ~ ~ ( ( ( ( ( ( ......} #.} #...#.| +.| #. .+.| |  .| ( ( ( ^ ( ~ ~ ^ R ~ R R T I I I w q R Q ( T i ; ",
"& ( ( ( ( 9.%.~ ^ ~ / ~ ^ ( ( ( ( ( (  . . .....#.} #.{ #...+. .#._ #.} | } ( ( ( ( ~ ( ^ ^ ~ R ~ R R R R T T I e 8 ~ ~ ( T i ; ",
"; ( ( ( ( q.%.^ ^ ^ ~ ( ( ( ( ( ( { } } { { ( #.} #.| #.( +.| #.| #. .| } { ( (  .~ ( ~ ~ ^ R ^ R R R R I T T T e q ^ ( ( T i ; ",
"; R L q.( q.%.~ ^ ( ( ( ( ( ( (  .} } } | { +.} #. .+.( +.| #.| O...{ }  .( { ( ~ ( ~ ~ ^ R ~ R R R R T I I T T e q R H 6.T i ; ",
"& s r L ( q.=.( ( ( ( ( ( ( ........{ O. .#. .O.| +.| #.| #.( +..... . .( ( ( ( ( Q ^ ^ ~ ~ R R R R T I I L I I e q s e L T i ; ",
"& y s T ( q.=.( ( ( ( (  . . . .{  .#. .#.| O. .+.| +.( #.| #. .......(  .( ( ( ~ Q Q ^ ~ R R R R T I I T H T I r q y s T T y ; ",
"& ~ ~ ( ( q.=.(  .( .... .....( { O. .+.| O.( +.| #.| +.| +... .( ..( { ( ( ( ~ ~ ^ ~ ^ W ^ R R I R I T L I I I r 8 ^ ^ ( T i ; ",
"& ( ( ( { q.=.( | |  ... . .....O. .O.( #.{ #. .+.| +.} #.( ..| ..(  .( ( ( ^ ~ ^ ~ ^ R ^ R R T R T T I L I I I r q ^ ( ( T i ; ",
"; ( ( ( ( 8.&.( } } ( ..| | { #. .+.| +.( #.} #.( #.| #. .#. . .( ..( ( ( ~ ^ ^ ^ ~ R ^ W R T R I T I I I I I I r q ~ ( ( P i & ",
"; ( ( ( ( q.&. .} } } } #.| +...#.( +.| +.| +.{ +.| #.| +. . .( ..( ( ( ~ ( ~ ^ Q R Q R R R R T I I I H T I T T r q ( ( ( P i & ",
"& ( ( ( ( q.&.} _ | | #.} #.( #...#.{ +. .+.| #. .+.{ O. . .(  .( ( ( / ( Q ^ ^ ~ ~ R R R R I I T T H T I T I I r q ( ( ( P i & ",
"& R L q.( q.*.} } | #.| O.{ +.| #...#.} #.( O.| +.( O. .} _  .( ( ( / ( Q Q Q ^ ~ R R R R T R I I H I T I I R I r q R K 8.P i & ",
"& s r L ( q.=.( ..#...#.| #.| +...O.( #.| #.| +...#.|  .) ( ] ( ( / ( Q ~ ~ ^ ^ R R W R T R I I H I T T T I I I r q i r L P y & ",
"& i s T ( q.=. .#...#...+.{ #.| O.} #...+.( #.( #...| ( | ( ] ( ~  .Q Q ~ ^ ~ R R R R T R T I H I H T T I I R I w q i s T T i & ",
"& ~ ~ ( ( q.*.#.| #...+. .#.( O.{ #...#.| +.| X.{  .( | ( ( ( ( ( ~ ~ Q ^ ~ R ~ R R T R T T L I H I I I T R I I r q ^ ^ ~ T i & ",
"& ( ( ( ( q.=.} #._ #. .+. .+.>.r.r.r.r.r.r.r.w.w. .| ( ( ( ( ( ~ ~ ~ Q ~ R ~ R R T R I T L I H I I I I I I R T r q ( ^ ~ T i & ",
"& ( ( | | q.*.#.| O. .+.( #.( C b B B C C -.:.>.w.( ( ( ( ( ( ^ ^ ~ ^ / R ^ R R R R T I I T H I H I I I P R T I r q ~ ^ R I y & ",
"& ( | ( | q.*.| +.5 D G #.( s @ b & >.B C h r.:.<.( { ( ( ( ^ Q ^ ^ ^ R ^ R R R R T R I I H T L T I I I R T R T r q ^ R L T i & ",
"&  . .| ( q.%.#.i > 2 G ../ s @ b b n B B V V -.<.{ ( ( ( ~ ( Q ^ ^ R / R R R R I R I I L I H T L T I I T R R T r 8 ~ I s T i & ",
"& R L 0. .q.%.L y . 2 D *.T s @ b b b n M B V V <.( ( ( ~ ( ~ ~ Q ^ / R R R R I R I T H I L T H I I I T R T R P w 8 T i #.T i & ",
"; s e H  .9.( H I X 1 D X.T s $ b b b b m M B C ,.( ( ~ ( ^ Q ^ Q Q R R R R T R I I H I K P H I L I P R T R R T r q s w i P i & ",
"; i s T +.9.R H 4.X 1 D X.I s $ h g 2 A A F M M ,.( ~ ( Q ~ Q ^ ~ R R R R T R T I T I H T K I H I T P T R R R T r q i s T P u & ",
"& ~ ~ +.&.=.R H &.X 2 A X.I p $ d $ ,     A c M >.~ ( ~ ~ ^ ^ ^ R Q R R I R T T I I H I K I H T P T P R T R R T w q i s R P u & ",
"; X.=.=.5.( R H &.X 2 A X.T s @ ; $ <     A n n ,.( Q ~ Q Q ^ R ^ R R T R I R I I H I L I H P K P T R T R R R T r q s T R P u & ",
"& *.*.5.5.( R H &.X 2 A #.T i @ $ + > $ @ A b b ,.~ ~ ~ / ^ R ^ R R R R T R I I H P K T H I H I P P T R R R R T r q K P ~ I i & ",
"& &.2.2.q.( R L +.X 2 4 #.T s @ + + > > < 2 n n ,.~ ^ ~ / R ~ R R R R I R I T H I H P K I L I I P P R T R R R T r q K P ~ T y & ",
"& 5.8.9.9.( R H +.X 2 5 #.T s @ O O $ + @ @ b b :.~ ^ ^ R ~ R W R R T R I I L I H I K I H I I I P R T R R R R T r q P R ( P i ; ",
"& =.( 6.t.( R L +.X 2 4 #.T s @ O O O O @ d b n :.Q Q R / R W R R T R I T I I H T L T H I H I T P P R R R R R T r q P a 2.P a ; ",
"& ( a ( q.( R L P y . < | T s @ & & g g l n n n :.~ ~ ~ R R W R I R I I P P K I K P K T H T T I T R T R R R R I w q s r s T i ; ",
"& ( ( *.q.| R L u u L } ( T i @ & o B l b $ -.b ;.~ ~ R ^ R R T R I T I P L I K P L T H I I T I R T R W R R ^ T r q i i T I y ; ",
"& =.*.8.3. .R L L L ..{ | T s @ @ ; l l h m n n ;.~ R ~ R R T R I R I I H P H I H T H P I T T I T R R W R R R I r q H R ~ P i ; ",
"& t.q.2.5.( R L P { {  .( T s @ @ $ $ @ @ O + $ m W / R R R R T R I I H T H I H I K P L I T I I R T R R R R ~ T r q I R ~ T i ; ",
"= 8.2.2.%.} W W ...... .( T s s p p s p s i s s R ~ R R R R I R I T I I H T H I L I L I I I I R I R R R R ~ R T r q R ^ ( P u & ",
"& 3.5.&.%.} R { ......( ( I T I T I I T T T T ~ ~ R R R R T R I I T T L T H I L I H I I T I R I R R W R R R / T r q R ~ ( T u & ",
"& 5.*.O.#.#.( |  .( ( ( ( ( ( ( ( ^ ( ~ ^ ^ ~ ~ R R R R T R T T I I L I L I L T H I I I I I T R T R R R R ~ R T w q ~ ^ ( P i & ",
"; R K 0.#.0.{ }  .( ( ( ( ( ( ( ^ ( ~ ^ ^ ~ ~ R R R R I R I I I I L I L I H T L I L I I I I R T R R R R R R ~ T r q R L 8.T i & ",
"; a r L +.0.#. .( ( ( ( ( ( ( ~ ( ~ ~ ^ ^ ^ R R R R T R I I I I L I H T L T H I H T T T T R T R W R R W R ^ Q I r q s r L I i ; ",
"= u s I +.0.%.( ( (  .( ( ( ~ ( ^ ( ^ ^ ~ R ~ R R T R T R I I H I H Y H I L I H I T I I Y T R I W W R W ^ R Q I w q y s T T i ; ",
"& Q Q X.#.q.*.( ( ( ( ( | / ( ~ ( ~ ^ ~ R ^ R R T R T R I T I I L I H T H I H I I I I I T R T R R R R R R ~ ^ I r q ~ ~ ( T i & ",
"& X.O.X.| q.*.( ( ( ( ( ~ ( / ( ^ ~ ~ R ^ R R R R P R P T I I K I H Y H I H I H T I I I R I R R W W W R ^ R ^ I r q ~ ~ ( T u & ",
"& +.+. .} 0.*.( ( ( ( ~ ( ^ ( ~ ~ ^ R ^ R R R R T R T P T P K P H I L T H T H I I I I I I R T R R R R R W / ~ T r q ~ ~ ( T y & ",
"&  .(  .| 0.*.( ( ( ^ ( ~ ( ^ ( ~ R ^ R R R R T R P P T P L P K I H Y H I H T T T I I I R T R R W R R R / / ^ I e q ^ ^ ( T i & ",
"& (  . .} q.%.( ( ~ ( ^ ( ~ ( ^ ~ ~ R R R R T R P T P T L T K P H I H I H I T I T T I R I R R R R R R / R ^ ^ I e q ~ ( ( T i & ",
"& R L q.} 0.%.( ( ( ~ ( ~ ( ~ Q ~ R R R R T R T P P P L T P P K I L T H T L I I I I R I R I R R R R W R ^ ^ ^ T e 8 R L 8.T i & ",
"& s r L ( q.&.( ( / _ ~ ( ~ ~ ^ R R R R T R T T T T T T I I H I H I L T L T T I I I I R I R R R R R R ~ R ~ ~ ~ i 8 s r L I i ; ",
"& i s T ( q.&.&.=.=.&.=.%.%.*.%.=.=.=.=.&.&.%.%.#.+.+.( ( ( ^ ~ ^ / ( ( +.+.X.X.#.+.#.X.X.#.X.X. . .| ....(  . .i q i s I I y ; ",
"& ~ ~ ( ( q.9.9.q.q.q.q.6.6.6.6.0.0.0.0.q.q.0.8.2.3.5.2.=.=.X.X.X.=.=.3.4.5.4.4.5.4.4.4.1.5.1.5.5.5.5.*.=.*.=.+.T s ~ ~ ( T i & ",
"& ( ( ( ( ( ( ( ( ( ( ( ( ( ^ ~ ~ ~ R R R R R R R R T L L s p s p s L T I R R R R R R ^ Q ( ( ( ( ( ( ( ( ( ( ( ( ( ( ( ( T i & ",
"& ( ( ( ( R H 9.( ( ( ( ( R L 6.~ R R W R R r  .R P K H p i e R s p H I R R e | R R R ^ _ R K 8.( { ( ( ( R L q.( ( ( ( ( T i ; ",
"& ( ( ( ( p r L  .( ( ( ( s r H R R R R R s 7 r T L L i p e 7 q p H H I R p 7 e R R ~ / ( a r K ( ( ( ( ( s r L ( ( ( ( ( T u = ",
"g ( ( ( ( i s T ( ( ( ( ( i i T R R R R R i s T T L L s s e r i H H T R R i s I R R ~ ( ( i s T ( ( ( ( ( i s T ( ( ( ( ( P i d ",
"l l l l h z l h l l h h h h h l h h h h h l h h h l l h l l l h h h z z z l h h l l l h h h l l l h l h l l l l h h h h h h h h "
};
