/* XPM */
static char *result[] = {
/* columns rows colors chars-per-pixel */
"64 64 4 1 ",
"  c #0E071B",
". c #1A1932",
"X c #2A2F4E",
"o c None",
/* pixels */
"oooooooooooooooooooooooooooooooooooooooooooooooooooooooooooooooo",
"oooooooooooooooooooooooooooooooooooooooooooooooooooooooooooooooo",
"oooooooooooooooooooooooooooooooooooooooooooooooooooooooooooooooo",
"oooooooooooooooooooooooooooooooooooooooooooooooooooooooooooooooo",
"oooooooooooooooooooooooooooooooooooooooooooooooooooooooooooooooo",
"oooooooooooooooooooooooooooooooooooooooooooooooooooooooooooooooo",
"oooooooooooooooooooooooooooooooooooooooooooooooooooooooooooooooo",
"oooooooooooooooooooooooooooooooooooooooooooooooooooooooooooooooo",
"oooooooooooooooooooooooooooooooooooooooooooooooooooooooooooooooo",
"oooooooooooooooooooooooooooooooooooooooooooooooooooooooooooooooo",
"oooooooooooooooooooooooooooooooooooooooooooooooooooooooooooooooo",
"oooooooooooooooooooooooooooooooooooooooooooooooooooooooooooooooo",
"oooooooooooooooooooooooooooooooooooooooooooooooooooooooooooooooo",
"oooooooooooooooooooooooooooooooooooooooooooooooooooooooooooooooo",
"oooooooooooooooooooooooooooooooooooooooooooooooooooooooooooooooo",
"oooooooooooooooooooooooooooooooooooooooooooooooooooooooooooooooo",
"oooooooooooooooo      oooooooooooooooooooo      oooooooooooooooo",
"oooooooooooooooo      oooooooooooooooooooo      oooooooooooooooo",
"oooooooooooooo  XXXXXX  oooooooooooooooo  XXXXXX  oooooooooooooo",
"oooooooooooooo  XXXXXX  oooooooooooooooo  XXXXXX  oooooooooooooo",
"oooooooooooooooo  ..XXXX  oooooooooooo  XXXX..  oooooooooooooooo",
"oooooooooooooooo  ..XXXX  oooooooooooo  XXXX..  oooooooooooooooo",
"oooooooooooooooooo  ..XX                XX..  oooooooooooooooooo",
"oooooooooooooooooo  ..XX                XX..  oooooooooooooooooo",
"oooooooooooooooooo  ..XXXXXXXXXXXXXXXXXXXX..  oooooooooooooooooo",
"oooooooooooooooooo  ..XXXXXXXXXXXXXXXXXXXX..  oooooooooooooooooo",
"oooooooooooooooooo  ..XX..XXXXXXXXXXXX..XX..  oooooooooooooooooo",
"oooooooooooooooooo  ..XX..XXXXXXXXXXXX..XX..  oooooooooooooooooo",
"oooooooooooooooooo  ......XXXXXXXXXXXX......  oooooooooooooooooo",
"oooooooooooooooooo  ......XXXXXXXXXXXX......  oooooooooooooooooo",
"oooooooooooooooooooo  ....................  oooooooooooooooooooo",
"oooooooooooooooooooo  ....................  oooooooooooooooooooo",
"oo                                                            oo",
"oo                                                            oo",
"oo  ........................................................  oo",
"oo  ........................................................  oo",
"oooo  XXXXXXXXXXXX..........XXXXXXXX..........XXXXXXXXXXXX  oooo",
"oooo  XXXXXXXXXXXX..........XXXXXXXX..........XXXXXXXXXXXX  oooo",
"oooooo    XXXXXXXXXX      XXXXXXXXXXXX      XXXXXXXXXX    oooooo",
"oooooo    XXXXXXXXXX      XXXXXXXXXXXX      XXXXXXXXXX    oooooo",
"oooooooooo          oooo  XX..    ..XX  oooo          oooooooooo",
"oooooooooo          oooo  XX..    ..XX  oooo          oooooooooo",
"oooooooooooooooooooooooo  ..  oooo  ..  oooooooooooooooooooooooo",
"oooooooooooooooooooooooo  ..  oooo  ..  oooooooooooooooooooooooo",
"oooooooooooooooooooooooooo  oooooooo  oooooooooooooooooooooooooo",
"oooooooooooooooooooooooooo  oooooooo  oooooooooooooooooooooooooo",
"oooooooooooooooooooooooooooooooooooooooooooooooooooooooooooooooo",
"oooooooooooooooooooooooooooooooooooooooooooooooooooooooooooooooo",
"oooooooooooooooooooooooooooooooooooooooooooooooooooooooooooooooo",
"oooooooooooooooooooooooooooooooooooooooooooooooooooooooooooooooo",
"oooooooooooooooooooooooooooooooooooooooooooooooooooooooooooooooo",
"oooooooooooooooooooooooooooooooooooooooooooooooooooooooooooooooo",
"oooooooooooooooooooooooooooooooooooooooooooooooooooooooooooooooo",
"oooooooooooooooooooooooooooooooooooooooooooooooooooooooooooooooo",
"oooooooooooooooooooooooooooooooooooooooooooooooooooooooooooooooo",
"oooooooooooooooooooooooooooooooooooooooooooooooooooooooooooooooo",
"oooooooooooooooooooooooooooooooooooooooooooooooooooooooooooooooo",
"oooooooooooooooooooooooooooooooooooooooooooooooooooooooooooooooo",
"oooooooooooooooooooooooooooooooooooooooooooooooooooooooooooooooo",
"oooooooooooooooooooooooooooooooooooooooooooooooooooooooooooooooo",
"oooooooooooooooooooooooooooooooooooooooooooooooooooooooooooooooo",
"oooooooooooooooooooooooooooooooooooooooooooooooooooooooooooooooo",
"oooooooooooooooooooooooooooooooooooooooooooooooooooooooooooooooo",
"oooooooooooooooooooooooooooooooooooooooooooooooooooooooooooooooo"
};
