/* XPM */
static char *_8c2ec172a5e4a99bb9326fb6ab160b1WGpARi4ja7Q9FkPy[] = {
/* columns rows colors chars-per-pixel */
"64 64 15 1 ",
"  c None",
". c #121724",
"X c #181425",
"o c #663920",
"O c #25562E",
"+ c #394A50",
"@ c #577277",
"# c #884B2B",
"$ c #BE772B",
"% c #468232",
"& c #DE9E41",
"* c #E8C170",
"= c #819796",
"- c #F4A481",
"; c #FFC190",
/* pixels */
"                                                                ",
"                                                                ",
"                          ............                          ",
"                          ............                          ",
"                      ......******&&......                      ",
"                      ......******&&......                      ",
"                  ....&&$$..**&&&&&&..$$&&....                  ",
"                  ....&&$$..**&&&&&&..$$&&....                  ",
"                ..&&&&**$$..**&&&&&&..$$&&&&$$..                ",
"                ..&&&&**$$..**&&&&&&..$$&&&&$$..                ",
"              ..&&****&&$$..&&&&&&&&..$$&&&&&&$$..              ",
"              ..&&****&&$$..&&&&&&&&..$$&&&&&&$$..              ",
"            ..&&**&&&&&&$$..**&&&&&&..$$&&&&&&$$$$..            ",
"            ..&&**&&&&&&$$..**&&&&&&..$$&&&&&&$$$$..            ",
"            ..&&**&&&&&&$$..&&&&&&&&..$$&&&&&&$$$$..            ",
"            ..&&**&&&&&&$$..&&&&&&&&..$$&&&&&&$$$$..            ",
"          ..&&**&&&&&&&&$$..&&&&&&&&..$$&&&&&&$$$$$$..          ",
"          ..&&**&&&&&&&&$$..&&&&&&&&..$$&&&&&&$$$$$$..          ",
"          ..&&**&&&&&&&&$$..&&&&&&&&..$$&&&&&&$$$$$$..          ",
"          ..&&**&&&&&&&&$$..&&&&&&&&..$$&&&&&&$$$$$$..          ",
"          ..&&&&&&&&&&&&$$..&&&&&&&&..$$&&&&&&$$$$$$..          ",
"          ..&&&&&&&&&&&&$$..&&&&&&&&..$$&&&&&&$$$$$$..          ",
"          ..$$$$&&&&&&&&$$..&&&&&&&&..$$&&&&$$$$$$$$..          ",
"          ..$$$$&&&&&&&&$$..&&&&&&&&..$$&&&&$$$$$$$$..          ",
"        ........$$$$$$&&$$..&&&&&&&&..$$&&$$$$$$........        ",
"        ........$$$$$$&&$$..&&&&&&&&..$$&&$$$$$$........        ",
"      ..****&&&&......$$$$..&&&&&&&&..$$$$......&&&&&&&&..      ",
"      ..****&&&&......$$$$..&&&&&&&&..$$$$......&&&&&&&&..      ",
"      ..$$$$$$$$****&&......$$$$$$$$......&&&&&&$$$$$$$$..      ",
"      ..$$$$$$$$****&&......$$$$$$$$......&&&&&&$$$$$$$$..      ",
"      ..XX..XX..$$$$$$**&&............&&&&$$$$$$..XX..XX..      ",
"      ..XX..XX..$$$$$$**&&............&&&&$$$$$$..XX..XX..      ",
"        XX--XX##......$$$$******&&&&&&$$$$......ooXX--XX        ",
"        XX--XX##......$$$$******&&&&&&$$$$......ooXX--XX        ",
"        XX--XX########....$$$$$$$$$$$$....ooooooooXX--XX        ",
"        XX--XX########....$$$$$$$$$$$$....ooooooooXX--XX        ",
"          XXXX##########oo............ooooooooooooXXXX          ",
"          XXXX##########oo............ooooooooooooXXXX          ",
"              XX######ooooooooooooooooooooooooooXX              ",
"              XX######ooooooooooooooooooooooooooXX              ",
"                XXooooooooooooooooooooooooooooXX                ",
"                XXooooooooooooooooooooooooooooXX                ",
"                  XXXXXXXX------------XXXXXXXX                  ",
"                  XXXXXXXX------------XXXXXXXX                  ",
"                      ..%%==%%%%%%%%@@OO..                      ",
"                      ..%%==%%%%%%%%@@OO..                      ",
"                    ..%%%%==%%%%%%%%==%%OO..                    ",
"                    ..%%%%==%%%%%%%%==%%OO..                    ",
"                  ..%%%%%%==%%%%%%%%==%%%%OO..                  ",
"                  ..%%%%%%==%%%%%%%%==%%%%OO..                  ",
"                  ..%%..======%%%%====@@..OO..                  ",
"                  ..%%..======%%%%====@@..OO..                  ",
"                  ..%%..==============@@..OO..                  ",
"                  ..%%..==============@@..OO..                  ",
"                ..;;;;..==++++====++++@@..----..                ",
"                ..;;;;..==++++====++++@@..----..                ",
"                ..----..====@@....@@@@@@..----..                ",
"                ..----..====@@....@@@@@@..----..                ",
"                  ......==@@..    ..==@@......                  ",
"                  ......==@@..    ..==@@......                  ",
"                      ..==@@..    ..==@@..                      ",
"                      ..==@@..    ..==@@..                      ",
"                                                                ",
"                                                                "
};
