/* XPM */
static char *result[] = {
/* columns rows colors chars-per-pixel */
"64 64 15 1 ",
"  c #121724",
". c #663920",
"X c #25562E",
"o c #577277",
"O c #884B2B",
"+ c #BE772B",
"@ c #CF573C",
"# c #468232",
"$ c #DE9E41",
"% c #E8C170",
"& c #819796",
"* c #F4A481",
"= c #FFC190",
"- c #F6F0F0",
"; c None",
/* pixels */
";;;;;;;;;;;;;;;;;;;;;;;;;;;;;;;;;;;;;;;;;;;;;;;;;;;;;;;;;;;;;;;;",
";;;;;;;;;;;;;;;;;;;;;;;;;;;;;;;;;;;;;;;;;;;;;;;;;;;;;;;;;;;;;;;;",
";;;;;;;;;;;;;;;;;;;;;;;;;;;;;;;;;;;;;;;;;;;;;;;;;;;;;;;;;;;;;;;;",
";;;;;;;;;;;;;;;;;;;;;;;;;;;;;;;;;;;;;;;;;;;;;;;;;;;;;;;;;;;;;;;;",
";;;;;;;;;;;;;;;;;;;;;;                ;;;;;;;;;;;;;;;;;;;;;;;;;;",
";;;;;;;;;;;;;;;;;;;;;;                ;;;;;;;;;;;;;;;;;;;;;;;;;;",
";;;;;;;;;;;;;;;;;;    %%%%%%%%$$$$$$$$    ;;;;;;;;;;;;;;;;;;;;;;",
";;;;;;;;;;;;;;;;;;    %%%%%%%%$$$$$$$$    ;;;;;;;;;;;;;;;;;;;;;;",
";;;;;;;;;;;;;;;;  %%%%                $$$$  ;;;;;;    ;;;;;;;;;;",
";;;;;;;;;;;;;;;;  %%%%                $$$$  ;;;;;;    ;;;;;;;;;;",
";;;;;;;;;;;;;;  %%    $$$$$$$$$$$$++++    $$  ;;  $$  ;;;;;;;;;;",
";;;;;;;;;;;;;;  %%    $$$$$$$$$$$$++++    $$  ;;  $$  ;;;;;;;;;;",
";;;;;;;;;;;;  %%  $$$$%%%%%%%%%%$$$$++++++  $$  $$++  ;;;;;;;;;;",
";;;;;;;;;;;;  %%  $$$$%%%%%%%%%%$$$$++++++  $$  $$++  ;;;;;;;;;;",
";;;;;;;;;;;;  %%  $$%%$$$$$$$$$$$$$$$$++++  ++  ++++  ;;;;;;;;;;",
";;;;;;;;;;;;  %%  $$%%$$$$$$$$$$$$$$$$++++  ++  ++++  ;;;;;;;;;;",
";;;;;;;;;;  %%  $$%%$$$$$$$$$$$$$$$$$$++++++  $$  ++  ;;;;;;;;;;",
";;;;;;;;;;  %%  $$%%$$$$$$$$$$$$$$$$$$++++++  $$  ++  ;;;;;;;;;;",
";;;;;;;;;;  %%  $$%%$$$$$$$$$$$$$$$$++++++++  ++  ++  ;;;;;;;;;;",
";;;;;;;;;;  %%  $$%%$$$$$$$$$$$$$$$$++++++++  ++  ++  ;;;;;;;;;;",
";;;;;;;;;;  %%  $$%%$$$$$$$$$$$$++++++++++          ;;;;;;;;;;;;",
";;;;;;;;;;  %%  $$%%$$$$$$$$$$$$++++++++++          ;;;;;;;;;;;;",
";;;;;;;;;;  %%  $$%%$$$$$$$$++++++        %%%%%%%%$$  ;;;;;;;;;;",
";;;;;;;;;;  %%  $$%%$$$$$$$$++++++        %%%%%%%%$$  ;;;;;;;;;;",
";;;;;;;;;;  $$  $$$$$$$$++++      %%%%%%$$++++++++++  ;;;;;;;;;;",
";;;;;;;;;;  $$  $$$$$$$$++++      %%%%%%$$++++++++++  ;;;;;;;;;;",
";;;;;;;;;;  %%  $$$$$$      %%%%$$++++++++          ;;;;;;;;;;;;",
";;;;;;;;;;  %%  $$$$$$      %%%%$$++++++++          ;;;;;;;;;;;;",
";;;;;;;;;;  $$  $$    %%%%$$++++++        ****  ;;;;;;;;;;;;;;;;",
";;;;;;;;;;  $$  $$    %%%%$$++++++        ****  ;;;;;;;;;;;;;;;;",
";;;;;;;;;;  $$    %%$$++++++      ****      ==    ;;;;;;;;;;;;;;",
";;;;;;;;;;  $$    %%$$++++++      ****      ==    ;;;;;;;;;;;;;;",
";;;;;;;;;;    $$$$++++      ....**============@@@@  ;;;;;;;;;;;;",
";;;;;;;;;;    $$$$++++      ....**============@@@@  ;;;;;;;;;;;;",
";;;;;;;;  $$$$++++      ****OOOO========  --==@@@@  ;;;;;;;;;;;;",
";;;;;;;;  $$$$++++      ****OOOO========  --==@@@@  ;;;;;;;;;;;;",
";;;;;;;;  ++++    ....  ====OOOO========    ==@@@@  ;;;;;;;;;;;;",
";;;;;;;;  ++++    ....  ====OOOO========    ==@@@@  ;;;;;;;;;;;;",
";;;;;;;;;;      ....OO..    ..OOOOOO======OOOO@@@@  ;;;;;;;;;;;;",
";;;;;;;;;;      ....OO..    ..OOOOOO======OOOO@@@@  ;;;;;;;;;;;;",
";;;;;;;;;;;;;;;;  OOOO..****......OOOOOOOOOO..    ;;;;;;;;;;;;;;",
";;;;;;;;;;;;;;;;  OOOO..****......OOOOOOOOOO..    ;;;;;;;;;;;;;;",
";;;;;;;;;;;;;;;;;;  OO..====**..............  ;;;;;;;;;;;;;;;;;;",
";;;;;;;;;;;;;;;;;;  OO..====**..............  ;;;;;;;;;;;;;;;;;;",
";;;;;;;;;;;;;;;;;;;;    ======**            ;;;;;;;;;;;;;;;;;;;;",
";;;;;;;;;;;;;;;;;;;;    ======**            ;;;;;;;;;;;;;;;;;;;;",
";;;;;;;;;;;;;;;;;;;;;;;;  ####XXoo  ;;;;;;;;;;;;;;;;;;;;;;;;;;;;",
";;;;;;;;;;;;;;;;;;;;;;;;  ####XXoo  ;;;;;;;;;;;;;;;;;;;;;;;;;;;;",
";;;;;;;;;;;;;;;;;;;;;;  ##  ####XXoo  ;;;;;;;;;;;;;;;;;;;;;;;;;;",
";;;;;;;;;;;;;;;;;;;;;;  ##  ####XXoo  ;;;;;;;;;;;;;;;;;;;;;;;;;;",
";;;;;;;;;;;;;;;;;;;;;;    ####XX  &&$$  ;;;;;;;;;;;;;;;;;;;;;;;;",
";;;;;;;;;;;;;;;;;;;;;;    ####XX  &&$$  ;;;;;;;;;;;;;;;;;;;;;;;;",
";;;;;;;;;;;;;;;;;;;;;;  ####XX  &&&&oo  ;;;;;;;;;;;;;;;;;;;;;;;;",
";;;;;;;;;;;;;;;;;;;;;;  ####XX  &&&&oo  ;;;;;;;;;;;;;;;;;;;;;;;;",
";;;;;;;;;;;;;;;;;;;;  ==**XX  &&&&oooo  ;;;;;;;;;;;;;;;;;;;;;;;;",
";;;;;;;;;;;;;;;;;;;;  ==**XX  &&&&oooo  ;;;;;;;;;;;;;;;;;;;;;;;;",
";;;;;;;;;;;;;;;;;;;;  ****  &&&&oooo  ;;;;;;;;;;;;;;;;;;;;;;;;;;",
";;;;;;;;;;;;;;;;;;;;  ****  &&&&oooo  ;;;;;;;;;;;;;;;;;;;;;;;;;;",
";;;;;;;;;;;;;;;;;;;;;;        &&oo  ;;;;;;;;;;;;;;;;;;;;;;;;;;;;",
";;;;;;;;;;;;;;;;;;;;;;        &&oo  ;;;;;;;;;;;;;;;;;;;;;;;;;;;;",
";;;;;;;;;;;;;;;;;;;;;;;;  oooo  &&oo  ;;;;;;;;;;;;;;;;;;;;;;;;;;",
";;;;;;;;;;;;;;;;;;;;;;;;  oooo  &&oo  ;;;;;;;;;;;;;;;;;;;;;;;;;;",
";;;;;;;;;;;;;;;;;;;;;;  ....  ;;  OOOO  ;;;;;;;;;;;;;;;;;;;;;;;;",
";;;;;;;;;;;;;;;;;;;;;;  ....  ;;  OOOO  ;;;;;;;;;;;;;;;;;;;;;;;;"
};
