/* XPM */
static char *_e13a3a288c148289682b4f3a95cad2ec2bC61UoAx5fLoIL[] = {
/* columns rows colors chars-per-pixel */
"64 64 15 1 ",
"  c None",
". c #121724",
"X c #181425",
"o c #663920",
"O c #25562E",
"+ c #394A50",
"@ c #577277",
"# c #884B2B",
"$ c #BE772B",
"% c #468232",
"& c #DE9E41",
"* c #E8C170",
"= c #819796",
"- c #F4A481",
"; c #FFC190",
/* pixels */
"                                                                ",
"                                                                ",
"                                                                ",
"                                                                ",
"                          ............                          ",
"                          ............                          ",
"                      ......******&&......                      ",
"                      ......******&&......                      ",
"                  ....&&$$..**&&&&&&..$$&&....                  ",
"                  ....&&$$..**&&&&&&..$$&&....                  ",
"                ..&&&&**$$..**&&&&&&..$$&&&&$$..                ",
"                ..&&&&**$$..**&&&&&&..$$&&&&$$..                ",
"              ..&&****&&$$..&&&&&&&&..$$&&&&&&$$..              ",
"              ..&&****&&$$..&&&&&&&&..$$&&&&&&$$..              ",
"            ..&&**&&&&&&$$..**&&&&&&..$$&&&&&&$$$$..            ",
"            ..&&**&&&&&&$$..**&&&&&&..$$&&&&&&$$$$..            ",
"            ..&&**&&&&&&$$..&&&&&&&&..$$&&&&&&$$$$..            ",
"            ..&&**&&&&&&$$..&&&&&&&&..$$&&&&&&$$$$..            ",
"          ..&&**&&&&&&&&$$..&&&&&&&&..$$&&&&&&$$$$$$..          ",
"          ..&&**&&&&&&&&$$..&&&&&&&&..$$&&&&&&$$$$$$..          ",
"          ..&&**&&&&&&&&$$..&&&&&&&&..$$&&&&&&$$$$$$..          ",
"          ..&&**&&&&&&&&$$..&&&&&&&&..$$&&&&&&$$$$$$..          ",
"          ..&&&&&&&&&&&&$$..&&&&&&&&..$$&&&&&&$$$$$$..          ",
"          ..&&&&&&&&&&&&$$..&&&&&&&&..$$&&&&&&$$$$$$..          ",
"          ..$$$$&&&&&&&&$$..&&&&&&&&..$$&&&&$$$$$$$$..          ",
"          ..$$$$&&&&&&&&$$..&&&&&&&&..$$&&&&$$$$$$$$..          ",
"        ........$$$$$$&&$$..&&&&&&&&..$$&&$$$$$$........        ",
"        ........$$$$$$&&$$..&&&&&&&&..$$&&$$$$$$........        ",
"      ..****&&&&......$$$$..&&&&&&&&..$$$$......&&&&&&&&..      ",
"      ..****&&&&......$$$$..&&&&&&&&..$$$$......&&&&&&&&..      ",
"      ..$$$$$$$$****&&......$$$$$$$$......&&&&&&$$$$$$$$..      ",
"      ..$$$$$$$$****&&......$$$$$$$$......&&&&&&$$$$$$$$..      ",
"      ..XX..XX..$$$$$$**&&............&&&&$$$$$$..XX..XX..      ",
"      ..XX..XX..$$$$$$**&&............&&&&$$$$$$..XX..XX..      ",
"        XX--XX##......$$$$******&&&&&&$$$$......ooXX--XX        ",
"        XX--XX##......$$$$******&&&&&&$$$$......ooXX--XX        ",
"        XX--XX########....$$$$$$$$$$$$....ooooooooXX--XX        ",
"        XX--XX########....$$$$$$$$$$$$....ooooooooXX--XX        ",
"          XXXX##########oo............ooooooooooooXXXX          ",
"          XXXX##########oo............ooooooooooooXXXX          ",
"              XX######ooooooooooooooooooooooooooXX              ",
"              XX######ooooooooooooooooooooooooooXX              ",
"                XXooooooooooooooooooooooooooooXX                ",
"                XXooooooooooooooooooooooooooooXX                ",
"                  XXXXXXXX------------XXXXXXXX                  ",
"                  XXXXXXXX------------XXXXXXXX                  ",
"                    ..%%%%==%%%%%%%%@@OOOO..                    ",
"                    ..%%%%==%%%%%%%%@@OOOO..                    ",
"                  ..%%%%%%==%%%%%%%%==%%%%OO..                  ",
"                  ..%%%%%%==%%%%%%%%==%%%%OO..                  ",
"                ..%%%%..%%==%%%%%%%%==%%..OO..                  ",
"                ..%%%%..%%==%%%%%%%%==%%..OO..                  ",
"              ..;;OOOO..======%%%%====@@..OO..                  ",
"              ..;;OOOO..======%%%%====@@..OO..                  ",
"              ..----....==============@@....                    ",
"              ..----....==============@@....                    ",
"                ....  ..==++++====++++@@..                      ",
"                ....  ..==++++====++++@@..                      ",
"                      ..====@@....@@@@@@..                      ",
"                      ..====@@....@@@@@@..                      ",
"                      ..oooo..    ..==@@..                      ",
"                      ..oooo..    ..==@@..                      ",
"                                  ..##oo..                      ",
"                                  ..##oo..                      "
};
