/* XPM */
static char *_74aa2aa442b40a9bec0bb6ed0a3513aA7WOj9AojW6iHRKn[] = {
/* columns rows colors chars-per-pixel */
"64 64 170 2 ",
"   c #0E0E0E",
".  c #120D07",
"X  c #14110E",
"o  c #18150E",
"O  c #151514",
"+  c #1A1613",
"@  c #161814",
"#  c #1B1A16",
"$  c #161719",
"%  c #19171A",
"&  c #17181A",
"*  c #1C1C1C",
"=  c #201B16",
"-  c #211E1A",
";  c #1E201F",
":  c #23211E",
">  c #1E1E20",
",  c #211F22",
"<  c #1F2122",
"1  c #222222",
"2  c #292723",
"3  c #262827",
"4  c #2B2926",
"5  c #262729",
"6  c #27282A",
"7  c #2D2C2C",
"8  c #302D24",
"9  c #312E2B",
"0  c #2E302F",
"q  c #34312E",
"w  c #3A332D",
"e  c #2E2E32",
"r  c #302F34",
"t  c #2F3031",
"y  c #343433",
"u  c #3A3633",
"i  c #373835",
"p  c #3B3935",
"a  c #363639",
"s  c #36383B",
"d  c #3C3C3C",
"f  c #443A2F",
"g  c #443C35",
"h  c #4B3F34",
"j  c #423E3A",
"k  c #3D403F",
"l  c #43413D",
"z  c #4B443C",
"x  c #4B483F",
"c  c #51463B",
"v  c #544B3C",
"b  c #3E3F41",
"n  c #423F41",
"m  c #3E4142",
"M  c #434342",
"N  c #4A4643",
"B  c #464847",
"V  c #4B4945",
"C  c #454548",
"Z  c #494649",
"A  c #474949",
"S  c #4B4B4A",
"D  c #524B44",
"F  c #524E4A",
"G  c #584F48",
"H  c #535046",
"J  c #5D5346",
"K  c #55514C",
"L  c #5B544D",
"P  c #5B594D",
"I  c #535353",
"U  c #5A5552",
"Y  c #5D5954",
"T  c #565759",
"R  c #57585A",
"E  c #5C5C5B",
"W  c #62574D",
"Q  c #64594E",
"!  c #625C55",
"~  c #695E55",
"^  c #635E5B",
"/  c #695F5B",
"(  c #5E605F",
")  c #656156",
"_  c #65615D",
"`  c #6A635D",
"'  c #6F685E",
"]  c #72685F",
"[  c #5C5B60",
"{  c #646462",
"}  c #6A6662",
"|  c #6C6966",
" . c #666769",
".. c #67686A",
"X. c #6C6B6A",
"o. c #716662",
"O. c #726A64",
"+. c #736D6A",
"@. c #796E6D",
"#. c #7B6F63",
"$. c #73706D",
"%. c #79736E",
"&. c #747473",
"*. c #7B7673",
"=. c #7C7976",
"-. c #7D7C7B",
";. c #817B75",
":. c #827D7A",
">. c #897B72",
",. c #83817E",
"<. c #8A837F",
"1. c #7E7F81",
"2. c #837E81",
"3. c #7F8181",
"4. c #838382",
"5. c #8A8683",
"6. c #8D8985",
"7. c #8C8985",
"8. c #868789",
"9. c #8A8A89",
"0. c #8B8C8E",
"q. c #8C8B8A",
"w. c #918A83",
"e. c #908B86",
"r. c #928C85",
"t. c #958E86",
"y. c #918A86",
"u. c #918B89",
"i. c #918D89",
"p. c #958F8A",
"a. c #928F8D",
"s. c #958F8F",
"d. c #928E8C",
"f. c #8E908F",
"g. c #92918E",
"h. c #95918D",
"j. c #93918E",
"k. c #99928C",
"l. c #8F9190",
"z. c #929291",
"x. c #979290",
"c. c #949392",
"v. c #9A9691",
"b. c #989493",
"n. c #98999B",
"m. c #A09993",
"M. c #A1A1A1",
"N. c #ACACAC",
"B. c gray69",
"V. c gray",
"C. c #C3C3C3",
"Z. c #CAC9C7",
"A. c #CCCCCC",
"S. c #C6CACD",
"D. c #D4D4D4",
"F. c #DCDCDC",
"G. c #E2E1DF",
"H. c #E4E4E4",
"J. c #E6E8E7",
"K. c #E9E8E6",
"L. c #E5E6EA",
"P. c #E7E8E9",
"I. c #EBECEB",
"U. c #F0EFED",
"Y. c #F1F0EE",
"T. c #EEEEF1",
"R. c #F0EFF4",
"E. c #EFF1F1",
"W. c #F2F2F2",
"Q. c #F8F8F8",
/* pixels */
"4.g.4.q.z.7.z.9.z.9.z.9.I < i i j.5.s.x.6.:.x.6.u.U + u s.6.x.5.u.p.<.j.a.4.c.8.0.0.S # u v.5.5.6.6.6.u.e.<.t.w.t.w.6.p.5.6.v.5.",
"S } -.-.5.q.:.{ ( E ( [ d & y 9 5.=.=.=.6.<.%.Y u j - p 5.| | %.+.k.u.:.&.-.0..... .M * u =.! ` :.+.:.=.j.6.r.;.r.;.j.*.$.K K _ ",
"^ { 4.&.&.&.X.| E E } { b 1 s i x.6.u.;.e.:.^ F p u - u :.<.u.:.m.w.*.5.q.4.4.&.E R M * u <.%.6.5.&.*.=.*.<.O.` %.! } ! $.} } =.",
"X.E $.| =.-.&.X.} &.4.X.b * y y 6.%.=.} | ) V F N j : p 5.e.5.+.Y } *.g.b.q.3. .I T B O u j.5.p.<.| 5.} +.! ! ! z Y K ) U K { _ ",
"S E | E { X.&.} } =.-.} d * i p j.! _ Y U H j p q l o 8 v.r.! ) L Y ^ X.4.q.-.I I I M O u a.6.e.%.| +.` N F j F N L V ! l N E S ",
"S } &.=.=.=.=.-.=.-.&.E M 1 i q 5.L Y Y L V j q p l - w ;.%.K U Y _ =.q.4.} E E I S d 1 M =.=.:.$.E %.U Y N V N Y V K K F K Y S ",
"X.X.$.4.-.{ * - * * * * 1 * i y : o - - : + # o # # : q 2 # # # * @ * * * * * & 1 > * * 2 7 - - * @ # - # - # # + p K K U I E | ",
"^ &.,.=.{ E O q y i 7 y i 1 i q 7 u 9 2 q 7 q q u 9 9 q 4 9 q q u 4 7 y 7 7 t y 7 y 7 7 u 7 9 7 y 7 q 9 q 2 u 9 D u.U F V K E { ",
"| _ { | { Y 1 4 i s d s s s s s p y p d i y d u u p p p p s s p p s s p s s s i d y s i d y p s i s p i p u u l :.6.V N l I { E ",
"I _ I } { _ * p s d M M d d M d M S * O , - * * , * * * > * * * * # * * * * * - O 1 * * # l N l d M d d l j j N =.6.l V E I E } ",
"l N y N l j X q s d M M M M M M d a % Q.W.H.T.W.R.I.I.T.T.I.T.T.I.I.I.I.I.I.I.W.W.I.H.W.I.M s s M M M l M l l V <.6.N i d s M s ",
"1 @ * - * 1 : 7 s d M M d d M d S a C > L.I.[ 7 y r r e e e y i i y 7 7 7 7 y y i I W.H.@ A s A d M d d l d l V =.l * 1 1 @ 1 1 ",
"7 p i 9 7 u 7 y s d M M j M M M s A M O D.I.M.* * > 1 * $ * * * * * * @ * 1 * * * M.I.D.1 s M d m M m k M l l V =.d 7 7 7 i a t ",
"y q.4.b.b.4.1 4 s d M M j M M M A y S i * I.I.I * * 1 * * 1 * * * > 1 * * 1 * * I W.H.* d A s C m M M m M l l V =.q.b.9.f.l.S > ",
"9 z.| =.,.*.O y s d M j d d d d d l i B N 1 G.A.1 * O # * * * * * * * > * O * 1 D.F.1 M d i S s m m k k l d l V -.q.-.4.3.X.s < ",
"u 5._ | *.} + y s d M M M M M M l d N l p @ Q.H.V 4 O * 1 # # : < & * 1 * @ 6 A H.Q.1 i S B a C b M k k l d l V =.g.-.b.&.( A * ",
"w e.;.O.| +.+ u j d l d l l d M d V d s s l * I.D.X 1 * * * * * * * * * * 1 O D.I.* M s s d A d M M d B s M d S -.6.6.7.{ | l # ",
"w w.<.' ! ` # 9 q N d S M s d M d i B B M B * I.H.M * * * * * * * * * * * * M H.I.* B M B B i d d d i B A d V l -.q.q.,.{ E l # ",
"w e.k.;.O.} : 4 d @ O N s I d M A M s d M s M * I.9.@ * * * * * * * * * * @ 9.I.* M s M d s n A M M S s B @ # A -.q.7.&.) K l * ",
"w 6.e.<.*.| - q l @ W.* @ s A d i A d s A d A * W.C.O * * * * * * * * * * O C.W.* A d A s d A i d A i * * Q.# S -.q.*.{ K N l * ",
"u 6.%.| _ { # u 7 1 H.I.D.> s b M M d S s d s 1 I.H.* * * * * * * * * * * * H.I.1 s d s S d M M M s * D.I.I.1 d =.q.E U l l p * ",
"p <.^ U K E * 7 d 1 H.I.I.P.1 > d d M i M B B O H.I.s * @ * * * * * * @ * s I.H.O B B M i M d d * 1 H.I.I.H.1 S =.q.S S p l p # ",
"y I M j l d 1 7 a O E.T N.P.L.I.1 O B B d s B * I.I.E 1 @ * * * * * * @ 1 E I.I.* B s d B B O 1 I.I.H.B.I W.O B =.q.V V l p l # ",
"7 * @ - 1   * y y 1 T.7 * I S.T.I.I.* @ 1 * 1 @ W.H.&.1 @ * * * * * * @ 1 &.H.W.@ 1 * 1 @ * I.I.I.A.I * 6 W.1 N =.g.K N V u N # ",
"s y s y s d 5 y d * I.i * & 1 A D.H.I.W.I.I.I.W.I.Q.q.@ * > * * * * 1 * * q.I.I.W.I.I.I.W.I.H.D.A 6 @ * y I.# A =.q.K V l S l # ",
"s 4.9.b.4.9.6 7 s * T.y * & & 6   d 9.C.I.W.I.H.I.I.4.1 * 1 * * * 1 O * * 4.H.W.H.I.W.I.C.9.d   1 * @ * y I.* B ,.q.S V N V l : ",
"y z.-.X.X.&.* 7 i * I.y * 1 * @ 1 * @ O * s E &.9.q.E * * * O } 7 1 1 * 1 E 9.q.&.E s * O @ * 1 @ * * * 7 I.* M ,.7.V S S S d * ",
"y 9.4.&.q.=.* y i * I.7 * 1 * * @ * * * * * * * * 1 * * * * { W.C.@ 1 @ @ * 1 @ * * * * * * * @ * 1 1 * 6 I.* B :.4.l l l N p # ",
"s q.&.-.&.&.* i d * I.7 # * # * 1 * * * * * * * @ 1 $ * * X.I.A.7 1 E 5 * * * * * * * * * * * 1 * * * * 6 I.* S ,.7.l y q l j * ",
"y 9.4.=.| E * 6 s * I.y * * @ : * * * * * * * * 1 O * 6 I H.I.i * Z.F.{ * * * * * * * * * * * * * * * * y I.* V -.g.K V l S l # ",
"i q.4.&.{ I 1 y i * I.u * : * 1 * * * * * * * * @ 1 1 * * Z.I.{ C.I.W.I.| @ 1 * * * * * * * * * 1 * * 1 y I.* N =.g._ _ Y U l # ",
"7 q.| 4._ } O q u * I.7 * * * * * * * * * * * * * * y V.7 * C.I.I.{ i A.I.| * * * * * * * * * * * * * * 7 I.* B =.g._ { Y K j : ",
"i q.X.&.X.} 1 7 i * I.0 * ; * * * * * * * * * * * * | I.A.i { I.I.V.* 7 V.y * * * * * * * * * * * * * * 7 I.* N :.6.Y _ L K x = ",
"y 9.} | E E * y a * I.y > < * 1 * * * * * * * * * 1 @ | I.W.I.C.{ I.Z.* * 1 1 @ * * * * * * * * < * * 1 y I.* N -.u.` | Y F l = ",
"y 9.} } Y Y * y s * I.y * * $ < * * * * * * * * * * * * } F.Z.* i I.H.I 6 * O 1 * * * * * * * * > * * * y I.* V -.a.^ ^ D N j = ",
"i a.&.X.E E % y d * I.7 * > * > 1 * * * * * * * * * * * 6 E 1 7 A.I.$.* * @ 1 @ * * * * * * * 1 * * * * 7 I.* S =.u.U L N N j - ",
"u u.*.%.^ _ # 7 i * I.7 * 1 * * @ * * * * * * * O 1 * @ @ 1 @ C.W.} * * * * 1 * * * * * * * * @ * 1 1 * 6 I.* B =.q.K F F F l - ",
"q 6.&.+.^ } # q y * I.q * 1 * @ 1 * @ O * s E &.q.8.E 1 * 1 1 7 } O * * * E q.9.&.E s * O @ * 1 $ * * * 7 I.* M -.q.N j N F j = ",
"q 6.*.+.{ +.* 9 u * I.u # # # 4   d 9.C.I.W.I.H.W.H.4.* * O 1 * * * 1 * 1 4.I.I.H.I.W.I.C.9.d   1 * @ * y I.* N -.q.N d N F j - ",
"u u.;.*.+.*.- 9 p # I.y * # 1 V D.H.I.W.I.I.I.W.I.I.q.* * 1 * * * * * * @ q.W.I.W.I.I.I.W.I.H.D.A 6 @ * y I.# S *.g.I I ^ ^ M # ",
"9 j.+.` U K - q u : U.6 * I Z.I.I.I.* @ 1 * 1 @ W.H.&.1 @ * * * * * * @ 1 &.H.W.* * * 1 @ * W.H.I.A.I * 6 W.1 B =.q.| E _ | u 1 ",
"u <.Y V F | X q u X Y.U N.K.H.I.1 O B B d s B * I.I.E 1 @ * * * * * * @ 1 E I.I.1 d i d d M @ 1 I.I.H.B.I W.@ B 4.q.F E A V V @ ",
"u v.U ^ _ } * 7 d : G.I.I.I.1 * d d M i M B B O H.I.s * @ * * * * * * @ * s I.H.* M M B d A i * * 1 H.I.I.H.1 S 4.4.I S s B M @ ",
"q 5.K | X.Y 4 7 9 1 H.I.D.* s d M M d S s d s 1 I.H.* * * * * * * * * * * * H.I.1 s M d A s M M M s * D.I.I.1 d &.9.E B M S s 1 ",
"d S l M N l * 7 M @ Q.* $ d A b i A d s A d A * W.C.O * * * * * * * * * * O C.W.* N d A y s S d d A i * * Q.* F -.9.d d B s M * ",
"7 1 * @ * * * y s @ O B s I d M A M s d M s M * I.9.@ * * * * * * * * * * @ 9.I.1 M y d B M d s M M S s B @ * A 4.A @ 1 * * 1 O ",
"y s 7 i s y 7 i y A d S M d d m d i B B M B * I.H.M * * * * * * * * * * * * M H.I.* M d M M s A d d i B A d A M &.i y y 7 a y i ",
"6.5.a.7.q.9.6 1 d d m d m M k M d A d s s M * I.D.O 1 * * * * * * * * * * 1 O D.I.* B d M d M s M M d B s M d S 4.5.q.a.z.7.7.q.",
"O.O.} j u I * y s m M b M l d l M b A M d & Q.H.A 6 @ * 1 * * 1 : # * 1 * O 4 V H.Q.& s M B d M M M m m k d M B =.s.;.O.+.F _ _ ",
">.` L D D Y # y s m M b M l j l d M s A A 5 H.A.1 * @ * * * * * * * * * * O * 1 A.H.3 B A s M k M M M M m k M N ;.p.o.~ ! Y ' O.",
"#.~ L K Y } 1 7 s m m b M k d l B y S i * I.I.I @ * * * * 1 * * # * 1 * * * * @ I I.I.* i S y B M M M M m k M B ;.d.^ / U ` ` ) ",
"Q ! ` ` _ _ : y a m M b M m d l s A M O D.I.M.* * * 1 * * * * * # * * * * 1 * * * M.I.D.O M A s n M M M m k M B ;.d./ o.Y ' ! L ",
"W Q ] *.| F X i d M M n M M n M S s B * I.I.E 7 y y y y y y i i i y y t t y y y 7 ( I.I.; B s S M M M M m m M N :.e.@.o.! ) ) P ",
"J Q ` O.) K + 7 i b n b n n j n s i @ W.W.H.I.I.I.I.H.I.I.I.I.I.I.I.I.I.I.J.P.I.I.I.H.E.W.@ i s n j M M k d M B ;.e.5.*.` Y Y H ",
"v Q L D D L : 6 s M M n M M n M M S * O : : * * , * * * > * * * * * * ; ; * * < * * : : O * S M l l l M m k M N =.e.s.<.} K D x ",
"J J z z l z # 9 j A A A S A A S V N N S N N S B B A A B A A A A A A A A B A A B B S N N A B N V N N N B B B A S ;.6.e.<./ K K L ",
"J H z z K K + K *.4.-.:.-.*.2.*.-.<.:.*.,.,.&.,.=.=.4.=.=.-.=.-.-.=.=.-.-.-.-.=.,.,.=.=.,.-.=.:.<.=.=.-.,.=.&.4.=.s.+.@.O.` ! Y ",
"J z f D ! ` l ,.a.5.a.2.N n 5.x.5.u.a.6.5.g.x.7.a.q.9.M d 9.4.q.z.9.9.9.7.7.9.7.4.4.j.j.5.5.u.e.6.q.b.q.-.V s y s.5.O.:.j.6.$.U ",
"D z g ! } } F @.Y F } F # 9 4.X.{ _ _ } _ *.q.{ d I i * y 4.n.9.-.-.4.b.a.:.$.} } Y _ ! z N L V F K K S A * y u 5.=.;.*.%.} _ _ ",
"z D D ` ` ` F V p N ! u + d s.&.+.} Y } X.:.u.E A N d 1 s z.4.z.,.X.} $.$.| ` ^ ! K K D x K ~ L Y E V V N # s y a.@.:.| { ^ ) Y ",
"x F K ` ` ' / F D N ^ l - u 5.+.%.+.Y _ } _ } N s N M * 6 q.1.q.a.| F F K U Y L j x x x G ~ ~ ! D U j K d * s q a.! *.@.=.} U V ",
"Y K L ' ` L F D D z / V X w 6._ =.*.! U K z S F V Y d 1 d 4.-.X.&.U l N K L K x p x z g z c D W / | U _ s @ i y a.E =.5.5._ K K ",
"U D K Y L z u u N L O.D . u j.=.O.` U D N l F E E l M O d 9.R | F j p l D Y ! ! z z x z h c J ! ! _ ^ { N * i 9 j./ O.%.;._ U I ",
"l j N j j z j l p z l p : 9 K l z p l N j z l j s N B @ y E b d l j j j j j z g z w g c f h c g z j l N s @ s q I j N j l j j d "
};
