/* XPM */
static const char *output[] = {
/* columns rows colors chars-per-pixel */
"64 64 165 2 ",
"   c #352C26",
".  c #382E27",
"X  c #3A2F28",
"o  c #3D322A",
"O  c #43362D",
"+  c #48372E",
"@  c #46382F",
"#  c #49392F",
"$  c #443730",
"%  c #463930",
"&  c #473930",
"*  c #463931",
"=  c #473931",
"-  c #463830",
";  c #453830",
":  c #463930",
">  c #483830",
",  c #483930",
"<  c #493930",
"1  c #483931",
"2  c #4A3930",
"3  c #483A30",
"4  c #493A30",
"5  c #483A31",
"6  c #493A31",
"7  c #493B31",
"8  c #4A3A30",
"9  c #4B3A30",
"0  c #4A3B30",
"q  c #4B3B30",
"w  c #4A3A31",
"e  c #4B3A31",
"r  c #4A3B31",
"t  c #4B3B31",
"y  c #483B32",
"u  c #493B32",
"i  c #4A3B32",
"p  c #4B3B32",
"a  c #4A3B33",
"s  c #4B3B33",
"d  c #4C3A30",
"f  c #4C3B30",
"g  c #4C3A31",
"h  c #4C3B31",
"j  c #4C3B32",
"k  c #4D3B32",
"l  c #4B3C31",
"z  c #483C33",
"x  c #4A3C32",
"c  c #4B3C32",
"v  c #4A3C33",
"b  c #4B3C33",
"n  c #4B3D33",
"m  c #4C3C31",
"M  c #4D3C31",
"N  c #4E3C31",
"B  c #4C3C32",
"V  c #4D3C32",
"C  c #4C3D32",
"Z  c #4D3D32",
"A  c #4C3C33",
"S  c #4D3C33",
"D  c #4C3D33",
"F  c #4D3D33",
"G  c #4E3C32",
"H  c #4E3D32",
"J  c #4F3D32",
"K  c #4E3C33",
"L  c #4E3D33",
"P  c #4F3D33",
"I  c #4E3E33",
"U  c #4F3E33",
"Y  c #4B3D34",
"T  c #4C3C34",
"R  c #4C3D34",
"E  c #4D3D34",
"W  c #4E3D34",
"Q  c #4C3E35",
"!  c #4E3E34",
"~  c #4F3E34",
"^  c #4F3F34",
"/  c #4E3E35",
"(  c #4E3F35",
")  c #4F3F35",
"_  c #4F3F36",
"`  c #4B3C32",
"'  c #503E33",
"]  c #513E33",
"[  c #503F33",
"{  c #513F33",
"}  c #523E33",
"|  c #523F33",
" . c #533F33",
".. c #503E34",
"X. c #503F34",
"o. c #513F34",
"O. c #503E35",
"+. c #503F35",
"@. c #513F35",
"#. c #523F34",
"$. c #533F34",
"%. c #523F35",
"&. c #513F36",
"*. c #503F37",
"=. c #513F34",
"-. c #4F4036",
";. c #504035",
":. c #514035",
">. c #524034",
",. c #524035",
"<. c #534035",
"1. c #524135",
"2. c #514036",
"3. c #504137",
"4. c #524036",
"5. c #524136",
"6. c #534136",
"7. c #524137",
"8. c #534137",
"9. c #514237",
"0. c #534236",
"q. c #534237",
"w. c #544035",
"e. c #544135",
"r. c #564034",
"t. c #564235",
"y. c #544136",
"u. c #554136",
"i. c #574136",
"p. c #544236",
"a. c #544237",
"s. c #554237",
"d. c #554337",
"f. c #564236",
"g. c #564337",
"h. c #574337",
"j. c #534136",
"k. c #594337",
"l. c #544238",
"z. c #544338",
"x. c #554338",
"c. c #554339",
"v. c #564238",
"b. c #564338",
"n. c #574338",
"m. c #564339",
"M. c #554439",
"N. c #574438",
"B. c #564439",
"V. c #574439",
"C. c #57463C",
"Z. c #554339",
"A. c #584539",
"S. c #59473B",
"D. c #5B473D",
"F. c #59453A",
"G. c #5D483B",
"H. c #5B483C",
"J. c #5D483C",
"K. c #614A3C",
"L. c #664E3F",
"P. c #624B3E",
"I. c #634D40",
"U. c #624F43",
"Y. c #664F42",
/* pixels */
"/ A @ O , & / A @ # O @ g.& , &.g.g., , o o @ g.g.g.L.K., x O @ A g.A 5., A , @ O & , , , A x.&., A A 5.x.&./ &./ , A & , , / / ",
"5.@ @ O @ @ / 5.@ @ o , x.&.# O O @ A A [ [ # &., , g.&.@ O O O , # &.g./ 5.& o , , @ , @ # U./ , / A O O A 5.g.& , 5.x.g./ , / ",
"@ O A @ o @ O O o @ o O @ @ O . o , O @ A , [ [ @ O @ O # # + h , A 5.x O A @ , @ O &.O , , 5./ A 5., o o @ , A O O &., , , @ @ ",
"@ O @ @ @ @ O O O @ O @ O o @ O o     O h , @ A g.@ O @ , @ C.x./ 5.5.@ O , o @ A @ / , A A A A g.O o h x O @ o o O g.X o O O O ",
"5.@ @ x A A , & O O @ O o O X X .   O A [ &.&.[ # & O , , O U.M.5.x S.M.& , @ @ @ O A A / &., / &., & & x O . . o O & o o O , A ",
", @ @ & , @ , &.& @ o @ @ o O O O o , # A [ @ # O O , , @ @ M., & , g.A , &.@ @ @ A & O M.g.A @ & & O o O o o O & O X O , O &.A ",
"@ A / , O O , & A A O O @ o & A , o O @ g.A , [ # # # o O O & O @ # & , @ x O o & @ O O O / g.x.g.A x O , & O A g.&., @ , , A A ",
"O , A @ , O @ A A O @ g.A @ O x.&.@ O A g.&.# O O # @ o o O O @ @ @ O O O A , O & o X $ O , A & / / o O o O @ & &.g., O @ o o o ",
"O x A , @ O O & / A @ @ , [ # @ , / @ A &.A O , @ A h @ o O O O @ A @ A @ , O & / O o & , , , O @ , O @ O o O [ x.A # O @ @ @ A ",
", / 5.@ @ @ O & o 5./ & A / & O o @ @ O , , O @ A , @ @ O , , , O @ , , h , & @ @ O @ @ @ A & @ @ # , , g., # # &.A @ O O @ , O ",
"A &.g./ O $ , O Y 5.x.x.g./ O @ O & , O O x @ , x , , O O @ @ , o O h A , A A A , @ A [ , @ h O O A A , , @ O , &.A @ h A , , O ",
". @ # O o O O o O O O @ A g.S.O & 5.@ O @ 5.x x x., & O O o @ / , O @ # # # # o O o # O @ o , @ O , @ &., @ , , @ & , / 5.@ , @ ",
"A 5..   . O Y & O O & / / 5.5.A A , , o o @ & M.H.A g., O o @ , # @ O o , A X o o o o O o O O O @ @ # , , A / 5.@ @ 5.&.A O o o ",
"G.D.O o & O & o . O g.A A A A A / & / & o o O @ 5.5.&.&.A 5.@ O o X o . o , o h / h / / , @ @ # O @ O @ , @ & & & & & & @ O o . ",
"x./ O A , @ X o , M.&.A / x A @ / @ @ , o X O x g.&.A A A [ @ o o O , o @ , @ @ 5., , , , @ # h O @ O @ A & o @ Y ; & , & , , & ",
"g., & g.5.&.@ O A S.S.O @ @ , A & o o o O x./ 5.5.@ [ O @ @ O h &.A A O @ 5.[ A S., A O o o / g., , @ @ A @ @ @ x , 5.@ / @ A M.",
"A A &./ / 5.g.l./ A O o O @ h x @ O o @ , / & / &.&.A @ , , h S.g.[ @ @ @ @ @ A [ g.g.&.@ o , [ A @ @ @ , @ @ O & [ , @ & A h / ",
"& 5.M.x 5.P.S.A x A @ @ A O @ O , & A [ o @ @ 5., o @ O , , , , O @ , @ A S.G.5.g.S.&.&., A , 5., O @ o o , @ @ O @ h , @ , S.&.",
", @ O M.H.P.S.&.@ , A , , &.A @ , A x.5./ &.&.5.A , @ @ , @ , o O @ h # [ g.h.A &.5.A @ A [ 5.A , , x , A &.# A @ & O @ / O @ A ",
"A A @ , &.5.A @ # @ A S.&.A / , , @ @ O 5.&.x.A &., & , h , , O @ , # , @ @ O @ , g.&./ x.S.A @ , A / 5.5.&.A , , / , , 5.o , , ",
"O &.5.A & , , @ A @ A / &.5., &.A o @ & / &.5./ & o # h [ A @ O O , @ # O X o @ O / 5.5.x.g.&.g.h.&.g.&., A g.&.A &.A / x./ , , ",
", , , , , O @ A , & M.M.& & A A @ O , A O O , x o   A &.5.5., @ @ h # + # O @ @ o O 5.S.x.&.5.g.&.5.[ h , , g.5.# 5.g.S.&.5.O O ",
", O O o o O @ x @ , / O @ o o O @ , 5.5.A @ A g.O o A g.S.g.A , , [ [ O @ , @ A 5., , / 5.&.A A [ A M.&., h , / A / g.5.@ @ o @ ",
"o O O X o @ & l./ / A , A O O @ , S.S.A 5.O @ , & l.g.5.&.g.g.g.h.g.[ @ o # A , A g., &.x.l./ &.&.5.5., A A , 5.x.&.S.A @ O O O ",
"A x , , & , x , , A A , o , A , &.S.g.S.g., S., O / D.G.S.x.k.g.h.h.g.[ h g.g., A 5.g.&.5./ , x &.A A , , &.&.g.@ # [ 5.A @ o , ",
"&./ / S.S.5.& & , &.g.S.&., @ O , 5., / 5.M.&.O / x./ &.g.g.x.g.g.k.[ [ # A g.[ A , &.g.k., O @ x , , A A h 5.&.A @ A g.@ @ o h ",
"x.M., , 5.5.l., M./ A & 5.A , O @ x A A / 5.5.x.C., , A S.M.S.g.g.h.[ g., A &.h O # 5.&.&., , A A A , @ # h &.# , M.g.h @ A x.x.",
"&.A , # x x / A Y & & O h A / / x O O , x.S.S.5.g.S.S.5., , &.g., @ h A @ @ , o O , O @ o , A h.A , , h A [ A o o A O O o @ / S.",
", / , A A / A 5.l., & o O , / Y M./ , O x , , &.g.S.5.@ O g.g.A A # @ @ A @ O @ O A , , O # A , , , & A A h A O . o @ , @ & , , ",
"A x./ x., , & / / , , O o -.&./ / / / M./ o o O [ A A , , g.A , , &.O O h @ @ @ o o , &.[ A , O h g., [ 5.A A @ o O , 5.A & & O ",
", A , x.A h A @ o O ; o O , 5.x , A , / O O A A , , A A &.[ h , @ A O @ # , @ , A @ O @ , , @ @ , , @ , , # O @ , & x / &.5., @ ",
"5./ A , , [ 5.& @ / & @ @ & / O & ; A . o , x., # 5.5.A , h # , A A # @ o ; , O @ A O , A & O # M.l.A 5.# 5.O , / O A / 5.S., @ ",
"l.@ O A 5.5.x.x @ -.@ A @ @ , O O o O O @ , x @ O , g.&.A A # O O @ # @ & &.A @ @ @ & & , @ o o Y , @ @ , 5.@ , O , 5./ , , A , ",
". . o , S.M.H.M.A / @ @ O o o O o O O x.@ O @ O @ 5.5., 5./ O . o O , 5.@ & / h A o o o , O O X . X o X o o & @ @ 5., 5.x o @ @ ",
"@ @ / x &.J.M./ , / A h.# # @ l.@ o . @ @ O @ 5.h S.S.5.&.@ o o @ g.5.g.A A 5., @ @ @ O @ X @ , o @ / & # , , O @ & , -.Y O O H.",
"@ O x.S.5.x., x 5., A [ A &.[ S.A o o O @ o o A 5.&., 5.&.@ g.A h g.&., [ @ h @ O & x., O O / &.O , / A A A 5./ l., & O & O o , ",
"O O / 5./ / , , A @ + h A , # h @ O @ @ @ o O 5.k.A & & & @ g.x.g.&.&.# O o # x., & g.K.A A g., x.g.S./ / @ x x A , @ & / & O @ ",
"O O , x &./ , o O , A &.g., 5.[ @ O , , &.A @ o @ , O @ O o 5.x.D.S./ , [ g., , O h A k., O O @ g./ , , , , &.&., M.A / O o O A ",
"@ & & @ @ & O o . , A # A @ , @ , O @ O @ , A & O O O o O o / A , h @ O &.J.5., , , o . @ @ O o o & @ & O O & , , A , &., o O @ ",
"g.A @ O o O & , X @ / , @ , &.&.h.g., O O @ @ h o O . o O , , , , & & @ , , A , &.H., & @ / @ o o O @ o & / , @ o @ , A h o O A ",
"A A @ # @ A M.A O , , A &.x.D.G.g.A , A A / A O O # # [ A A @ O o ; / , O @ , / , & o & h , o o o @ # & A 5.Y & @ O & , @ O A &.",
"A O o o , &.h @ O , @ @ 5.M.J.J.@ O # 5.&., &.5., h [ # @ , , & o X @ , , & A @ @ @ # &.& & @ O O 5.g.S.O h / O , O o o o @ , / ",
"# o . O O h h @ @ , @ & 5.g.S.&.A @ / , O O @ / A A [ S.5./ 5.@ A , A @ A , , O o O , , O o , @ o , &.S.@ @ , , A 5.x & O , x 5.",
". @ o o o , , O O , # @ , A &., x O & o o o o @ / A A x.5.@ , , , & & o O , A / , O 5., O @ A # A @ & , & / / / x.Y.S.A , @ & A ",
". @ , O O O # # @ @ O @ @ @ A g.x o X     . O O o , x.M.M.g., @ , , , l., , @ @ @ @ 5., @ o O , A , A l.@ / & &.5.Y.J.5., , / 5.",
"# @ 5./ &.A [ k.A , o @ O o o & 5.O X o O O , @ @ [ l.5.S.5.5.5., , A M./ @ O , @ @ 5.@ x & & @ , S.S.O , -., , & A x , @ & , O ",
"A # @ @ , , @ , , # [ h O . O O O @ @ @ @ o O , # / / O o o A 5.S.g.@ 5.5., O x , , A / , & / x 5.A A & , & o x O o o 5., o @ 5.",
", 5.& @ & o o . o O &.# O O @ o o o , A A @ @ 5.O @ O o o / 5., 5.@ O @ , / O J.5.@ A , @ , & , A , @ , &.$ O o o . . o , o A x.",
"5.x O , @ &., @ @ & Y o o O & & @ O # , [ , , / # @ @ & , x.x.5.x., O @ A , @ O O O A , x , @ &.O , / l./ x A O O , M., &.x , A ",
"A O / , O 5.@ [ h 5.l.@ o @ , , , , # O , @ o O O , &.A A &., A 5.5., , M., o . A @ , O / x & & @ , , H.M.S.A / A 5.l.& , S.g.A ",
"x & , & O @ , , @ , # O @ , , @ O @ &.A @ , O X @ A , @ @ , &.&.A @ , / A O O , , A A x 5., @ O , @ O & A A A J./ A A , , 5.5.x ",
"& O o O A A 5./ , 5., O O , A / & O o & , & @ o O g., , , k.# # A / [ O o o Y S./ / 5./ 5.l.o @ , x &.A O , A S.5.x./ @ & & A 5.",
"O o . o A h # A O , , , & @ O @ , A O @ O , @ O @ A , , A o o @ 5.S.g./ l./ Y , @ A M.x / x O O & & A 5./ x./ A x A , x , & O , ",
"@ A O o h A @ @ , &.g.k.&., o @ o , O o @ h @ h , O @ / , @ O &.S.H.g.5.S.S.x.5., O A / / A A @ @ & / / &.A x , , A &.M.&.& o O ",
"g.S., @ , , , g.x.G.S.A h , &./ g., O @ , , @ A # A 5.x.S.A A &.g.5.C.x.5.5./ / &.A @ O , h 5.# A / C.x l.5.g., A x.x.x.g.A @ A ",
"A A A , A O , 5.l.D.A o O h g.&.5.H.&.O , , / A @ , &.5.& @ , , / M./ O / N.&./ @ 5., O & , &.S.g.5.x & & g.S.S.x A &.A o @ @ g.",
"[ , & / , @ , & A &., O @ &., g.[ A g.@ h & , , h A @ , [ A , , , , O &.K., g.M.5.S./ # A , o , A A , , x , , , & , , , o O , &.",
"S.g.o . O A O @ , o . O O & O & @ O O , O o o @ &.@ X o # / x O . O o @ O O 5.A S.S., @ @ O A , , / / A & @ O O o O o O O O @ , ",
"5.5.& O O O O O &.& O o o o . o o o X , h @ . @ &.O o @ # @ Y l.O o o @ , O x 5.&., @ O o o # O / , , , O O O , o o x @ o O O &.",
"A &., A g.O @ @ A , [ A O O o O &., h &.A , O o # @ O , O o , / x.@ O , @ O O x , O @ A A & & c.C.& , , @ O & , & , , O O &.A M.",
"&.& @ h g.& & , 5., , @ , # h , , @ & @ , , O @ h , O O o o h A , O , A &.&./ @ @ o A &., 5./ / x @ A @ , , & , 5.&.O & , , S.x.",
"A O & A S.&.A K.&., , @ [ K.S.&.h # , # O # @ g.[ , O O , @ , , & , / A 5.&./ O @ @ # @ A , A x./ @ @ @ / 5.&., @ , , @ @ X x.M.",
"A , &.S.x.5.x &.5.O , A g.&.A O , g.5.A g.g.A &.[ , @ O & & A @ @ , A 5.&./ 5.-.O , & O & , , , , , @ A x.P.S.M.O @ h A O O , , ",
"S.g., h &.A O , [ @ / 5., / , &.A x.5.&.K.G.h @ &.5.-.& o , , o & o O M., &.A , o @ # O o # &.@ & h , x S.P.5., x.S.g.5.A 5.S.x."
};
