/* XPM */
static char *result[] = {
/* columns rows colors chars-per-pixel */
"64 64 4 1 ",
"  c #0E071B",
". c #1A1932",
"X c #2A2F4E",
"o c None",
/* pixels */
"oooooooooooooooooooooooooooooooooooooooooooooooooooooooooooooooo",
"oooooooooooooooooooooooooooooooooooooooooooooooooooooooooooooooo",
"oooooooooooooooooooooooooooooooooooooooooooooooooooooooooooooooo",
"oooooooooooooooooooooooooooooooooooooooooooooooooooooooooooooooo",
"oooooooooooooooooooooooooooooooooooooooooooooooooooooooooooooooo",
"oooooooooooooooooooooooooooooooooooooooooooooooooooooooooooooooo",
"oooooooooooooooooooooooooooooooooooooooooooooooooooooooooooooooo",
"oooooooooooooooooooooooooooooooooooooooooooooooooooooooooooooooo",
"oooooooooooooooooooooooooooooooooooooooooooooooooooooooooooooooo",
"oooooooooooooooooooooooooooooooooooooooooooooooooooooooooooooooo",
"oooooooooooooooooooooooooooooooooooooooooooooooooooooooooooooooo",
"oooooooooooooooooooooooooooooooooooooooooooooooooooooooooooooooo",
"oooooooooooooooooooooo  oooooooooooooooo  oooooooooooooooooooooo",
"oooooooooooooooooooooo  oooooooooooooooo  oooooooooooooooooooooo",
"oooooooooooooooooo    ..  oooooooooooo  ..    oooooooooooooooooo",
"oooooooooooooooooo    ..  oooooooooooo  ..    oooooooooooooooooo",
"oooooooooooooooo  XX..  oooooooooooooooo  ..XX  oooooooooooooooo",
"oooooooooooooooo  XX..  oooooooooooooooo  ..XX  oooooooooooooooo",
"oooooooooooooo  XX..  oooooooooooooooooooo  ..XX  oooooooooooooo",
"oooooooooooooo  XX..  oooooooooooooooooooo  ..XX  oooooooooooooo",
"oooooooooooo    XX..    oooooooooooooooo    ..XX    oooooooooooo",
"oooooooooooo    XX..    oooooooooooooooo    ..XX    oooooooooooo",
"oooooooooo  XXXX..  XXXX  oooooooooooo  XXXX  ..XXXX  oooooooooo",
"oooooooooo  XXXX..  XXXX  oooooooooooo  XXXX  ..XXXX  oooooooooo",
"oooooooooo  XXXX..  ..XX                XX..  ..XXXX  oooooooooo",
"oooooooooo  XXXX..  ..XX                XX..  ..XXXX  oooooooooo",
"oooooooooo  XXXX..  ..XXXXXXXXXXXXXXXXXXXX..  ..XXXX  oooooooooo",
"oooooooooo  XXXX..  ..XXXXXXXXXXXXXXXXXXXX..  ..XXXX  oooooooooo",
"oooooooooo  XXXX..  ..XX..XXXXXXXXXXXX..XX..  ..XXXX  oooooooooo",
"oooooooooo  XXXX..  ..XX..XXXXXXXXXXXX..XX..  ..XXXX  oooooooooo",
"oooooooooo  XXXX..  ......XXXXXXXXXXXX......  ..XXXX  oooooooooo",
"oooooooooo  XXXX..  ......XXXXXXXXXXXX......  ..XXXX  oooooooooo",
"oooooooooo  XXXX....  ....XXXXXXXXXXXX....  ....XXXX  oooooooooo",
"oooooooooo  XXXX....  ....XXXXXXXXXXXX....  ....XXXX  oooooooooo",
"oooooooooooo  XXXX....    ..XXXXXXXX..    ....XXXX  oooooooooooo",
"oooooooooooo  XXXX....    ..XXXXXXXX..    ....XXXX  oooooooooooo",
"oooooooooooooo  XXXX......            ......XXXX  oooooooooooooo",
"oooooooooooooo  XXXX......            ......XXXX  oooooooooooooo",
"oooooooooooooooo    XX....................XX    oooooooooooooooo",
"oooooooooooooooo    XX....................XX    oooooooooooooooo",
"oooooooooooooooooooo      ..XXXXXXXX..      oooooooooooooooooooo",
"oooooooooooooooooooo      ..XXXXXXXX..      oooooooooooooooooooo",
"oooooooooooooooooooooooo  XXXXXXXXXXXX  oooooooooooooooooooooooo",
"oooooooooooooooooooooooo  XXXXXXXXXXXX  oooooooooooooooooooooooo",
"oooooooooooooooooooooooo  XX..    ..XX  oooooooooooooooooooooooo",
"oooooooooooooooooooooooo  XX..    ..XX  oooooooooooooooooooooooo",
"oooooooooooooooooooooooo  ..  oooo  ..  oooooooooooooooooooooooo",
"oooooooooooooooooooooooo  ..  oooo  ..  oooooooooooooooooooooooo",
"oooooooooooooooooooooooooo  oooooooo  oooooooooooooooooooooooooo",
"oooooooooooooooooooooooooo  oooooooo  oooooooooooooooooooooooooo",
"oooooooooooooooooooooooooooooooooooooooooooooooooooooooooooooooo",
"oooooooooooooooooooooooooooooooooooooooooooooooooooooooooooooooo",
"oooooooooooooooooooooooooooooooooooooooooooooooooooooooooooooooo",
"oooooooooooooooooooooooooooooooooooooooooooooooooooooooooooooooo",
"oooooooooooooooooooooooooooooooooooooooooooooooooooooooooooooooo",
"oooooooooooooooooooooooooooooooooooooooooooooooooooooooooooooooo",
"oooooooooooooooooooooooooooooooooooooooooooooooooooooooooooooooo",
"oooooooooooooooooooooooooooooooooooooooooooooooooooooooooooooooo",
"oooooooooooooooooooooooooooooooooooooooooooooooooooooooooooooooo",
"oooooooooooooooooooooooooooooooooooooooooooooooooooooooooooooooo",
"oooooooooooooooooooooooooooooooooooooooooooooooooooooooooooooooo",
"oooooooooooooooooooooooooooooooooooooooooooooooooooooooooooooooo",
"oooooooooooooooooooooooooooooooooooooooooooooooooooooooooooooooo",
"oooooooooooooooooooooooooooooooooooooooooooooooooooooooooooooooo"
};
