/* XPM */
static char *_b7d8cc2545e4938cbd43ad2194a2ca6NxwdViJTQQNRXFNq[] = {
/* columns rows colors chars-per-pixel */
"64 64 18 1 ",
"  c None",
". c #121724",
"X c #663920",
"o c #25562E",
"O c #394A50",
"+ c #577277",
"@ c #884B2B",
"# c #BE772B",
"$ c #CF573C",
"% c #468232",
"& c yellow",
"* c #C1C12B",
"= c #DE9E41",
"- c #E8C170",
"; c #819796",
": c #F4A481",
"> c #FFC190",
", c #F6F0F0",
/* pixels */
"                                                                ",
"                                                                ",
"                                                                ",
"                                                                ",
"                          ............                          ",
"                          ............                          ",
"                      ......------==......                      ",
"                      ......------==......                      ",
"                  ....==##............##==....                  ",
"                  ....==##............##==....                  ",
"                ..====--##..**&&&&**..##====##..                ",
"                ..====--##..**&&&&**..##====##..                ",
"              ..==----==..&&**&&&&**&&..##====##..              ",
"              ..==----==..&&**&&&&**&&..##====##..              ",
"            ..==--====##..&&**&&&&**&&..##====####..            ",
"            ..==--====##..&&**&&&&**&&..##====####..            ",
"            ..==--==####..&&**&&&&**&&..####==####..            ",
"            ..==--==####..&&**&&&&**&&..####==####..            ",
"          ..==--==####......**&&&&**......##########..          ",
"          ..==--==####......**&&&&**......##########..          ",
"          ..==--##....----==........##====....######..          ",
"          ..==--##....----==........##====....######..          ",
"          ..==....--==####################====....##..          ",
"          ..==....--==####################====....##..          ",
"          ....--==####....................####====....          ",
"          ....--==####....................####====....          ",
"          ..==####....>>>>>>>>>>>>>>>>>>>>....####==..          ",
"          ..==####....>>>>>>>>>>>>>>>>>>>>....####==..          ",
"        ..==##....>>>>>>>>>>>>>>>>>>>>>>>>>>>>....##==..        ",
"        ..==##....>>>>>>>>>>>>>>>>>>>>>>>>>>>>....##==..        ",
"      ..==##..@@>>......>>>>>>>>>>>>>>>>......::XX..####..      ",
"      ..==##..@@>>......>>>>>>>>>>>>>>>>......::XX..####..      ",
"      ....>>..@@>>>>>>>>>>>>>>$$$$>>>>>>>>>>>>::XX..::....      ",
"      ....>>..@@>>>>>>>>>>>>>>$$$$>>>>>>>>>>>>::XX..::....      ",
"        ..>>..@@>>>>,,..>>>>>>$$$$>>>>>>,,..>>::XX..::..        ",
"        ..>>..@@>>>>,,..>>>>>>$$$$>>>>>>,,..>>::XX..::..        ",
"        ..>>..@@>>>>....>>>>>>$$$$>>>>>>....>>::XX..::..        ",
"        ..>>..@@>>>>....>>>>>>$$$$>>>>>>....>>::XX..::..        ",
"          ....@@@@>>>>>>>>@@@@$$$$@@@@>>>>>>>>XXXX....          ",
"          ....@@@@>>>>>>>>@@@@$$$$@@@@>>>>>>>>XXXX....          ",
"              ..@@@@@@@@@@@@@@@@@@@@@@@@@@@@XXXX..              ",
"              ..@@@@@@@@@@@@@@@@@@@@@@@@@@@@XXXX..              ",
"                ..@@@@@@@@@@........@@@@XXXXXX..                ",
"                ..@@@@@@@@@@........@@@@XXXXXX..                ",
"                  ........@@@@@@@@@@@@........                  ",
"                  ........@@@@@@@@@@@@........                  ",
"                    ..%%%%;;%%%%%%%%++oooo..                    ",
"                    ..%%%%;;%%%%%%%%++oooo..                    ",
"                  ..%%%%;;==;;%%%%;;==;;%%oo..                  ",
"                  ..%%%%;;==;;%%%%;;==;;%%oo..                  ",
"                  ..%%....;;;;;;;;;;;;;;..oooo..                ",
"                  ..%%....;;;;;;;;;;;;;;..oooo..                ",
"                  ..%%>>>>..OOOOOOOO;;++..oo::::..              ",
"                  ..%%>>>>..OOOOOOOO;;++..oo::::..              ",
"                    ..::::..;;;;;;;;;;++....::::..              ",
"                    ..::::..;;;;;;;;;;++....::::..              ",
"                      ....;;;;;;;;;;++++..  ....                ",
"                      ....;;;;;;;;;;++++..  ....                ",
"                      ..;;;;++....++++++..                      ",
"                      ..;;;;++....++++++..                      ",
"                      ..XXXX..    ..;;++..                      ",
"                      ..XXXX..    ..;;++..                      ",
"                                  ..@@XX..                      ",
"                                  ..@@XX..                      "
};
